<svg width="274" height="30" viewBox="0 0 274 30" fill="none" xmlns="http://www.w3.org/2000/svg">
<path d="M271.061 4.12774L254.061 5.20774L273.681 4.76774L273.491 5.32774L241.001 7.39774L240.931 7.79774C243.071 7.79774 245.261 7.66774 247.321 7.72774C248.871 7.72774 250.251 7.99774 251.701 8.14774C250.241 8.54774 248.841 8.96774 247.311 9.33774C246.691 9.47774 245.791 9.49774 243.521 9.70774L266.371 8.25774L253.301 9.82774L259.971 9.69774V9.93774L223.061 12.2877C237.331 12.0177 251.531 11.7077 265.481 11.8077L265.281 12.6477L251.541 14.1277C250.441 14.7177 249.831 15.3777 248.901 15.4777C243.901 16.0277 238.901 16.5577 233.901 16.8777C200.641 19.0444 167.381 21.1844 134.121 23.2977C107.641 24.9777 81.1214 26.8277 54.6814 28.1977C40.1213 28.9477 25.5913 28.9177 11.1013 29.1177C6.55133 29.1777 2.89133 28.7977 3.41133 26.8677C3.75133 25.6377 0.84134 24.5177 1.23134 23.2877C2.17134 20.3377 -0.718653 17.5877 2.05135 14.5877C2.55135 14.0477 5.65137 13.2277 7.51137 13.1277C41.1314 11.4177 74.7514 9.82774 108.381 8.12774C155.501 5.78108 202.611 3.40774 249.711 1.00774C252.761 0.84774 255.841 0.767736 258.811 0.777736C261.781 0.787736 264.511 1.12774 267.431 1.04774C272.621 0.907741 273.151 1.65774 271.601 2.99774C271.311 3.24774 271.331 3.51774 271.061 4.12774Z" fill="#2CEBAD"/>
</svg>
