<svg xmlns="http://www.w3.org/2000/svg" viewBox="0 0 256 256"><defs><style>.cls-1{fill:#fff;}.cls-2{fill:#2e66ff;}</style></defs><title>Asset 2</title><g id="Layer_2" data-name="Layer 2"><g id="_ÎÓÈ_1" data-name="—ÎÓÈ_1"><rect class="cls-1" width="256" height="256"/><g id="g5839"><g id="path5295"><path class="cls-2" d="M130.47,211.27c-4.87,0-10.71-1.64-12.48-6.23-1.42-3.69.21-7.84,4.85-12.35a48.91,48.91,0,0,0-.9-9.39,43.14,43.14,0,0,1-11.08-2.43c-3.81,2.73-5.58,5.83-7.44,9.1l-.88,1.52c.81,3.59.42,6.47-1.16,8.57a8.34,8.34,0,0,1-6.91,3.05c-6.1,0-13.89-4.36-14.8-10-.37-2.31.15-6.5,7.51-9.31a33.19,33.19,0,0,0,3.91-14.39,53.09,53.09,0,0,1-6.68-7.5,36.52,36.52,0,0,0-13.53,3.49c-.63,8.7-5.41,9.69-7.54,9.69-6.56,0-15.27-9.7-15.27-17a7.37,7.37,0,0,1,2.68-5.92c2.34-1.9,6-2.53,10.94-1.89l.55-.33c4.75-2.86,9.25-5.56,12.24-9.79a72.37,72.37,0,0,1-1.75-11.26c-3.2-3.61-7.39-5.07-11.81-6.21-6.11,3-11.18,2.19-13.84-1.79a12.93,12.93,0,0,1-1.89-7.2c0-7.68,4.38-15.91,10.9-15.91,3.51,0,6.81,2.37,9.79,7,5.19.41,9-.1,11.84-1.55a54.08,54.08,0,0,1,4.54-7.58,46.56,46.56,0,0,0-8.14-13c-4.75.24-8-.3-10.3-1.63a6.45,6.45,0,0,1-3.41-5.72c0-7.8,13-17.68,21-17.68a7.24,7.24,0,0,1,6,2.72c1.85,2.38,2.24,5.94,1.19,10.85a47.55,47.55,0,0,0,10.45,8.62,47.28,47.28,0,0,1,10.09-5.28,49.51,49.51,0,0,0-.49-9.75c-6.51-3.05-9.39-6.64-8.56-10.67,1.25-6.14,11.43-9.41,18.29-9.41,5.11,0,8.64,1.67,10,4.7,1.39,3.2.11,7-3.92,11.72a20.63,20.63,0,0,0,5.31,8.53c.23.25.47.5.7.76A50.29,50.29,0,0,1,143.83,72c4-3.77,6.65-7,8.24-10.32-2-4.78-2.09-8.63-.29-11.44,1.61-2.53,4.63-3.91,8.5-3.91,7.6,0,17.11,5,18,11.36.47,3.41-1.19,8.08-11.53,11.31-1.62,3.87-2.15,8.19-2.68,12.75a57.54,57.54,0,0,1,10.05,9.86c3.93.6,8.66-.41,13.59-1.72,2.44-9,6.54-11,9.64-11,7.43,0,13.46,11.28,13.46,18.64a9.44,9.44,0,0,1-1.9,6.12,7.86,7.86,0,0,1-6.44,2.8,19.66,19.66,0,0,1-7-1.56c-5.54,2.94-8.14,5.46-10.59,8.94a56.06,56.06,0,0,1,.79,18.41,112.19,112.19,0,0,0,9.48,7.95c5.66-2.45,10.28-1.65,12.78,1.9a11.66,11.66,0,0,1,1.85,6.72c0,7.17-4.38,15.16-10.67,15.16-3.48,0-6.65-2.34-9.46-7a40.43,40.43,0,0,0-11.9-.82,58,58,0,0,1-9.6,12.44c.8,3.57,3.09,6.55,5.59,9.29a27,27,0,0,1,4.65-.45c9,0,9.67,6.06,9.67,7.92,0,7.21-9.05,18.25-16.87,18.25-3.23,0-8.59-1.78-8.91-13.44-3.42-3.86-6.78-7.3-11.63-10a52.79,52.79,0,0,1-10,2.83c-.68,3.26-1.23,6.74-1.75,10.14,5.31,5.17,5.38,9.16,4.44,11.65C141.56,209.58,135.29,211.27,130.47,211.27Zm-20-36.21a2.91,2.91,0,0,1,.92.15,40.73,40.73,0,0,0,12.88,2.73,2.78,2.78,0,0,1,2.43,1.88c1.41,4.22,1.55,8.91,1.69,13.45l0,.49a2.81,2.81,0,0,1-.91,2.14c-3.88,3.52-4.79,6-4.35,7.15.6,1.54,3.75,2.7,7.33,2.7,4.16,0,7.2-1.46,7.73-2.87s-1-3.88-4.06-6.6a2.77,2.77,0,0,1-.9-2.48l.12-.77c.67-4.34,1.36-8.84,2.34-13a2.75,2.75,0,0,1,2.29-2.11,46.47,46.47,0,0,0,11.74-3.26,2.8,2.8,0,0,1,2.35.08c6.64,3.39,10.9,7.91,15,12.63a2.72,2.72,0,0,1,.69,1.82c0,2.7.34,9,3.4,9,1.93,0,4.77-1.78,7.24-4.53s4.11-6,4.11-8.2c0-.77,0-2.4-4.15-2.4a24.31,24.31,0,0,0-5,.63,2.74,2.74,0,0,1-2.59-.81c-3.64-3.86-7.58-8.52-8.3-14.84a2.75,2.75,0,0,1,.86-2.33,52.55,52.55,0,0,0,10.28-13.34,2.76,2.76,0,0,1,2-1.41,47.81,47.81,0,0,1,16.34,1,2.74,2.74,0,0,1,1.86,1.37c1.81,3.28,3.79,5.24,5.28,5.24,2.4,0,5.15-5.14,5.15-9.64a6.37,6.37,0,0,0-.85-3.55,2.39,2.39,0,0,0-2.19-1,11.77,11.77,0,0,0-5.12,1.58,2.71,2.71,0,0,1-2.87-.22,119.72,119.72,0,0,1-12.38-10.31,2.73,2.73,0,0,1-.85-2.46,50.2,50.2,0,0,0-.77-18.92,2.75,2.75,0,0,1,.39-2.18c3.21-4.82,6.61-8.38,14.48-12.37a2.78,2.78,0,0,1,2.36-.06,15.73,15.73,0,0,0,6,1.61c1.54,0,2-.57,2.15-.75a4.37,4.37,0,0,0,.67-2.65c0-5.79-4.92-13.12-7.94-13.12-1.34,0-3.27,2.18-4.66,8.29a2.75,2.75,0,0,1-2,2c-4.87,1.32-9.36,2.53-13.91,2.53a22.1,22.1,0,0,1-4.81-.5,2.79,2.79,0,0,1-1.6-1,52.31,52.31,0,0,0-10.87-10.56,2.74,2.74,0,0,1-1.13-2.57l.17-1.4c.62-5.29,1.26-10.76,3.71-15.78A2.79,2.79,0,0,1,164,64.05c6.8-1.93,9-4.23,8.8-5.61-.38-2.73-6.92-6.6-12.53-6.6-1.11,0-3.09.17-3.85,1.35s-.4,4,1.17,7.33a2.75,2.75,0,0,1,0,2.23c-2,4.74-5.45,9.16-11.22,14.34a2.74,2.74,0,0,1-2.57.61A47.49,47.49,0,0,0,129.38,76a2.63,2.63,0,0,1-2.21-1c-.47-.56-1-1.09-1.44-1.61a26.14,26.14,0,0,1-7-12.22,2.73,2.73,0,0,1,.64-2.62c3.76-4,4.26-6.27,4-6.95s-1.75-1.38-4.9-1.38c-6.43,0-12.49,3.07-12.88,5-.15.71,1,2.69,6.65,5.08a2.76,2.76,0,0,1,1.59,1.88c1.07,4.4,1,8.75.9,13l0,1.41a2.75,2.75,0,0,1-1.91,2.58c-4.94,1.61-7.85,3.43-12.06,6.24a2.75,2.75,0,0,1-2.93.08A53.64,53.64,0,0,1,83.53,73.71,2.78,2.78,0,0,1,83,71.26c1.38-5.35.45-7.1.13-7.51-.12-.16-.45-.58-1.66-.58-5.78,0-15.52,8.29-15.52,12.16,0,.26,0,.56.66.94s2.13.94,5.52.94c.89,0,1.85,0,2.91-.12a2.87,2.87,0,0,1,2.19.82C81.54,82.35,85,87.78,88,95a2.77,2.77,0,0,1-.35,2.73,49,49,0,0,0-5.29,8.71,2.68,2.68,0,0,1-1.07,1.19c-4.19,2.53-9.71,3.37-17.29,2.57a2.77,2.77,0,0,1-2.11-1.37c-2.88-5-5-5.53-5.76-5.53-2.57,0-5.38,5.44-5.38,10.39a7.74,7.74,0,0,0,1,4.14A2.57,2.57,0,0,0,54.06,119a11.36,11.36,0,0,0,5.21-1.69,2.84,2.84,0,0,1,2-.25c5.76,1.43,11.76,3.3,16.33,9a2.69,2.69,0,0,1,.6,1.56A65.22,65.22,0,0,0,80.13,140a2.73,2.73,0,0,1-.33,2.14c-3.67,5.91-9.28,9.29-14.71,12.55l-1.39.84a2.83,2.83,0,0,1-1.87.36,23.38,23.38,0,0,0-3.67-.33c-2.45,0-3.51.57-3.93.9a1.88,1.88,0,0,0-.64,1.64c0,4.62,6.39,11.49,9.75,11.49,2,0,2.09-5,2.09-6A2.76,2.76,0,0,1,67.1,161l.41-.18c5-2.17,10.23-4.42,18.26-4.49h0a2.78,2.78,0,0,1,2.27,1.18,47.86,47.86,0,0,0,7.6,8.58,2.74,2.74,0,0,1,.94,2c.15,6.27-1.44,12.37-5,19.2A2.72,2.72,0,0,1,90,188.66c-3.15,1.05-5.07,2.46-4.89,3.58.36,2.21,5.25,5.35,9.35,5.35a3.25,3.25,0,0,0,2.5-.85c.63-.83.61-2.63,0-4.92a2.74,2.74,0,0,1,.29-2.2c.49-.79,1-1.59,1.4-2.39,2.18-3.8,4.64-8.12,10.36-11.75A2.79,2.79,0,0,1,110.46,175.06Z"/></g></g><path class="cls-2" d="M143.31,146.9c-4.55,6.86-13.08,9.61-20,6.79-5.22-2.12-7.32-6.29-6.07-12.37s2.37-12.07,4-18c1.1-4,0-6.07-4-6.9-1.55-.31-3-1.37-4.43-2.09l.3-1.3a32.43,32.43,0,0,1,3.78-.44c6,0,12,0,18,0,2.66,0,3.55.83,2.88,3.61-1.46,6.12-2.67,12.31-3.92,18.47C131.44,146,131.88,146.55,143.31,146.9Z"/><path class="cls-2" d="M140.31,101.5a8.3,8.3,0,0,1-8.24,8.19,8.43,8.43,0,0,1-8.24-8.27,8.11,8.11,0,0,1,8.55-8.26A8,8,0,0,1,140.31,101.5Z"/></g></g></svg>