<svg viewBox="0 0 803 63" fill="none" xmlns="http://www.w3.org/2000/svg">
<g clip-path="url(#clip0)">
<path d="M116.101 56.1271H91.2808C89.8426 56.1271 88.4634 55.557 87.4464 54.5421C86.4295 53.5273 85.8582 52.1508 85.8582 50.7156V12.301C85.8582 10.8658 86.4295 9.48938 87.4464 8.47453C88.4634 7.45969 89.8426 6.88956 91.2808 6.88956H116.101C117.539 6.88956 118.918 7.45969 119.935 8.47453C120.952 9.48938 121.524 10.8658 121.524 12.301V50.7156C121.524 52.1508 120.952 53.5273 119.935 54.5421C118.918 55.557 117.539 56.1271 116.101 56.1271V56.1271ZM91.2808 9.69549C90.5928 9.69549 89.933 9.96824 89.4465 10.4537C88.96 10.9392 88.6867 11.5977 88.6867 12.2843V50.6989C88.6867 51.3855 88.96 52.044 89.4465 52.5295C89.933 53.015 90.5928 53.2878 91.2808 53.2878H116.101C116.789 53.2878 117.449 53.015 117.935 52.5295C118.422 52.044 118.695 51.3855 118.695 50.6989V12.2843C118.695 11.5977 118.422 10.9392 117.935 10.4537C117.449 9.96824 116.789 9.69549 116.101 9.69549H91.2808Z" fill="black"/>
<path d="M97.0716 23.8087C95.9422 23.8104 94.8376 23.4775 93.8978 22.8523C92.958 22.2272 92.2252 21.3377 91.7922 20.2967C91.3592 19.2557 91.2455 18.1098 91.4654 17.0043C91.6853 15.8987 92.2291 14.8831 93.0277 14.0861C93.8264 13.2891 94.8441 12.7465 95.9519 12.527C97.0598 12.3075 98.208 12.421 99.2512 12.8531C100.294 13.2852 101.186 14.0165 101.812 14.9543C102.439 15.8922 102.772 16.9945 102.77 18.1217C102.768 19.6293 102.167 21.0745 101.099 22.1406C100.031 23.2066 98.5824 23.8065 97.0716 23.8087V23.8087ZM97.0716 15.2489C96.5019 15.2473 95.9446 15.4144 95.4701 15.729C94.9956 16.0437 94.6253 16.4917 94.4061 17.0165C94.187 17.5413 94.1288 18.1192 94.2389 18.677C94.349 19.2348 94.6225 19.7474 95.0248 20.15C95.427 20.5526 95.94 20.8271 96.4986 20.9386C97.0572 21.0501 97.6365 20.9937 98.163 20.7765C98.6894 20.5594 99.1395 20.1911 99.4562 19.7185C99.7729 19.2459 99.9419 18.6902 99.9419 18.1217C99.942 17.3612 99.6398 16.6318 99.1018 16.0933C98.5637 15.5548 97.8337 15.2511 97.0716 15.2489Z" fill="black"/>
<path d="M110.285 23.8087C109.156 23.8104 108.051 23.4775 107.111 22.8523C106.171 22.2272 105.439 21.3377 105.006 20.2967C104.573 19.2557 104.459 18.1098 104.679 17.0043C104.899 15.8987 105.443 14.8831 106.241 14.0861C107.04 13.2891 108.058 12.7465 109.165 12.527C110.273 12.3075 111.421 12.421 112.465 12.8531C113.508 13.2852 114.399 14.0165 115.026 14.9543C115.652 15.8922 115.986 16.9945 115.984 18.1217C115.982 19.6293 115.381 21.0745 114.312 22.1406C113.244 23.2066 111.796 23.8065 110.285 23.8087V23.8087ZM110.285 15.2489C109.715 15.2473 109.158 15.4144 108.684 15.729C108.209 16.0437 107.839 16.4917 107.62 17.0165C107.4 17.5413 107.342 18.1192 107.452 18.677C107.562 19.2348 107.836 19.7474 108.238 20.15C108.641 20.5526 109.153 20.8271 109.712 20.9386C110.271 21.0501 110.85 20.9937 111.376 20.7765C111.903 20.5594 112.353 20.1911 112.67 19.7185C112.986 19.2459 113.155 18.6902 113.155 18.1217C113.155 17.3612 112.853 16.6318 112.315 16.0933C111.777 15.5548 111.047 15.2511 110.285 15.2489V15.2489Z" fill="black"/>
<path d="M97.0716 37.187C95.9445 37.187 94.8427 36.8535 93.9056 36.2286C92.9684 35.6037 92.238 34.7155 91.8067 33.6763C91.3753 32.6372 91.2625 31.4937 91.4824 30.3905C91.7023 29.2873 92.245 28.274 93.042 27.4787C93.839 26.6833 94.8544 26.1417 95.9599 25.9222C97.0653 25.7028 98.2111 25.8154 99.2525 26.2459C100.294 26.6763 101.184 27.4052 101.81 28.3404C102.436 29.2757 102.77 30.3752 102.77 31.5C102.768 33.0076 102.167 34.4529 101.099 35.5189C100.031 36.5849 98.5824 37.1848 97.0716 37.187V37.187ZM97.0716 28.6356C96.5039 28.6356 95.949 28.8036 95.477 29.1183C95.005 29.4331 94.6371 29.8804 94.4198 30.4038C94.2026 30.9272 94.1457 31.5032 94.2565 32.0588C94.3672 32.6145 94.6406 33.1248 95.042 33.5254C95.4434 33.926 95.9549 34.1988 96.5117 34.3094C97.0685 34.4199 97.6456 34.3632 98.1701 34.1464C98.6945 33.9296 99.1428 33.5624 99.4582 33.0914C99.7736 32.6203 99.9419 32.0665 99.9419 31.5C99.9397 30.741 99.6366 30.0137 99.0988 29.477C98.561 28.9403 97.8322 28.6378 97.0716 28.6356Z" fill="black"/>
<path d="M110.285 37.187C109.158 37.187 108.056 36.8535 107.119 36.2286C106.182 35.6037 105.451 34.7155 105.02 33.6763C104.589 32.6372 104.476 31.4937 104.696 30.3905C104.916 29.2873 105.458 28.274 106.255 27.4787C107.052 26.6833 108.068 26.1417 109.173 25.9222C110.279 25.7028 111.425 25.8154 112.466 26.2459C113.507 26.6763 114.397 27.4052 115.023 28.3404C115.65 29.2757 115.984 30.3752 115.984 31.5C115.982 33.0076 115.381 34.4529 114.312 35.5189C113.244 36.5849 111.796 37.1848 110.285 37.187V37.187ZM110.285 28.6356C109.717 28.6356 109.162 28.8036 108.69 29.1183C108.218 29.4331 107.851 29.8804 107.633 30.4038C107.416 30.9272 107.359 31.5032 107.47 32.0588C107.581 32.6145 107.854 33.1248 108.255 33.5254C108.657 33.926 109.168 34.1988 109.725 34.3094C110.282 34.4199 110.859 34.3632 111.384 34.1464C111.908 33.9296 112.356 33.5624 112.672 33.0914C112.987 32.6203 113.155 32.0665 113.155 31.5C113.153 30.741 112.85 30.0137 112.312 29.477C111.774 28.9403 111.046 28.6378 110.285 28.6356V28.6356Z" fill="black"/>
<path d="M97.0716 50.5653C95.9445 50.5653 94.8427 50.2318 93.9056 49.6069C92.9684 48.982 92.238 48.0938 91.8067 47.0546C91.3753 46.0155 91.2625 44.872 91.4824 43.7688C91.7023 42.6656 92.245 41.6523 93.042 40.857C93.839 40.0616 94.8544 39.52 95.9599 39.3005C97.0653 39.0811 98.2111 39.1937 99.2525 39.6242C100.294 40.0546 101.184 40.7835 101.81 41.7187C102.436 42.654 102.77 43.7535 102.77 44.8783C102.77 45.6251 102.623 46.3646 102.337 47.0546C102.05 47.7446 101.63 48.3715 101.101 48.8996C100.572 49.4277 99.9439 49.8466 99.2525 50.1324C98.5611 50.4182 97.82 50.5653 97.0716 50.5653V50.5653ZM97.0716 42.0139C96.5039 42.0139 95.949 42.1819 95.477 42.4966C95.005 42.8114 94.6371 43.2587 94.4198 43.7821C94.2026 44.3055 94.1457 44.8815 94.2565 45.4371C94.3672 45.9927 94.6406 46.5031 95.042 46.9037C95.4434 47.3043 95.9549 47.5771 96.5117 47.6877C97.0685 47.7982 97.6456 47.7414 98.1701 47.5246C98.6945 47.3079 99.1428 46.9407 99.4582 46.4697C99.7736 45.9986 99.9419 45.4448 99.9419 44.8783C99.9397 44.1193 99.6366 43.392 99.0988 42.8553C98.561 42.3186 97.8322 42.0161 97.0716 42.0139V42.0139Z" fill="black"/>
<path d="M110.285 50.5653C109.158 50.5653 108.056 50.2318 107.119 49.6069C106.182 48.982 105.451 48.0938 105.02 47.0546C104.589 46.0155 104.476 44.872 104.696 43.7688C104.916 42.6656 105.458 41.6523 106.255 40.857C107.052 40.0616 108.068 39.52 109.173 39.3005C110.279 39.0811 111.425 39.1937 112.466 39.6242C113.507 40.0546 114.397 40.7835 115.023 41.7187C115.65 42.654 115.984 43.7535 115.984 44.8783C115.984 45.6251 115.836 46.3646 115.55 47.0546C115.264 47.7446 114.844 48.3715 114.315 48.8996C113.786 49.4277 113.157 49.8466 112.466 50.1324C111.775 50.4182 111.033 50.5653 110.285 50.5653V50.5653ZM110.285 42.0139C109.717 42.0139 109.162 42.1819 108.69 42.4966C108.218 42.8114 107.851 43.2587 107.633 43.7821C107.416 44.3055 107.359 44.8815 107.47 45.4371C107.581 45.9927 107.854 46.5031 108.255 46.9037C108.657 47.3043 109.168 47.5771 109.725 47.6877C110.282 47.7982 110.859 47.7414 111.384 47.5246C111.908 47.3079 112.356 46.9407 112.672 46.4697C112.987 45.9986 113.155 45.4448 113.155 44.8783C113.153 44.1193 112.85 43.392 112.312 42.8553C111.774 42.3186 111.046 42.0161 110.285 42.0139V42.0139Z" fill="black"/>
<path d="M269.842 19.2574H244.001C243.037 19.2552 242.114 18.8715 241.433 18.1905C240.752 17.5095 240.369 16.5867 240.369 15.6247V7.69128C240.372 6.72995 240.755 5.8085 241.435 5.12796C242.116 4.44741 243.038 4.063 244.001 4.05859H269.842C270.807 4.0608 271.732 4.44424 272.414 5.12502C273.096 5.8058 273.48 6.72851 273.483 7.69128V15.6247C273.483 16.1018 273.388 16.5742 273.206 17.0149C273.023 17.4556 272.754 17.8561 272.416 18.1934C272.078 18.5308 271.677 18.7983 271.235 18.9809C270.794 19.1635 270.32 19.2574 269.842 19.2574ZM244.001 6.88123C243.779 6.88123 243.567 6.96922 243.41 7.12583C243.253 7.28244 243.164 7.49485 243.164 7.71633V15.6498C243.164 15.8713 243.253 16.0837 243.41 16.2403C243.567 16.3969 243.779 16.4849 244.001 16.4849H269.842C270.064 16.4849 270.277 16.3969 270.434 16.2403C270.591 16.0837 270.679 15.8713 270.679 15.6498V7.69128C270.679 7.4698 270.591 7.25739 270.434 7.10078C270.277 6.94416 270.064 6.85618 269.842 6.85618L244.001 6.88123Z" fill="black"/>
<path d="M271.968 58.933H241.884C240.705 58.933 239.574 58.4661 238.739 57.6347C237.904 56.8034 237.434 55.6755 237.432 54.4987V28.2514C237.434 27.0746 237.904 25.9467 238.739 25.1154C239.574 24.284 240.705 23.8171 241.884 23.8171C242.456 23.8283 243.009 23.6133 243.423 23.2191C243.837 22.8249 244.078 22.2834 244.093 21.7126V16.4348H269.75V21.7126C269.753 22.2811 269.98 22.8258 270.383 23.2278C270.786 23.6298 271.331 23.8566 271.901 23.8588C272.49 23.8522 273.074 23.9618 273.621 24.1814C274.167 24.401 274.665 24.7262 275.084 25.1383C275.504 25.5504 275.839 26.0413 276.068 26.5827C276.297 27.1241 276.417 27.7054 276.42 28.2932V54.4987C276.418 55.6755 275.948 56.8034 275.113 57.6347C274.278 58.4661 273.147 58.933 271.968 58.933V58.933ZM246.922 19.2574V21.7126C246.911 23.0256 246.384 24.2819 245.454 25.2112C244.525 26.1404 243.267 26.6684 241.951 26.6815C241.517 26.6812 241.1 26.8491 240.788 27.1498C240.476 27.4505 240.293 27.8604 240.277 28.2932V54.4987C240.28 54.9269 240.452 55.3368 240.756 55.6388C241.06 55.9409 241.472 56.1104 241.901 56.1104H271.968C272.397 56.1104 272.809 55.9409 273.113 55.6388C273.417 55.3368 273.589 54.9269 273.591 54.4987V28.2514C273.589 27.8232 273.417 27.4133 273.113 27.1113C272.809 26.8092 272.397 26.6397 271.968 26.6397C270.651 26.6399 269.386 26.1235 268.447 25.2018C267.508 24.2801 266.969 23.027 266.947 21.7126V19.2574H246.922Z" fill="black"/>
<path d="M276.42 53.0038H249.265V30.3225H276.42V53.0038ZM252.085 50.1812H273.591V33.1451H252.085V50.1812Z" fill="black"/>
<path d="M4.86196 34.6984C4.58275 34.6984 4.30979 34.616 4.07748 34.4614C3.84517 34.3068 3.6639 34.0871 3.55651 33.8299C3.44912 33.5727 3.42043 33.2896 3.47404 33.0161C3.52765 32.7427 3.66117 32.4912 3.85777 32.2933L20.5106 15.6748C20.78 15.4377 21.1298 15.3118 21.4888 15.3227C21.8479 15.3335 22.1893 15.4804 22.4439 15.7333C22.6984 15.9863 22.847 16.3264 22.8594 16.6847C22.8717 17.043 22.747 17.3925 22.5106 17.6624L5.85778 34.2892C5.72716 34.4198 5.57189 34.5232 5.40095 34.5934C5.23002 34.6636 5.04681 34.6993 4.86196 34.6984V34.6984Z" fill="black"/>
<path d="M26.2512 51.1833C23.6408 51.185 21.0885 50.414 18.9172 48.9679C16.7459 47.5218 15.0532 45.4656 14.0531 43.0593C13.0529 40.653 12.7904 38.0048 13.2987 35.4496C13.8069 32.8944 15.0631 30.5471 16.9084 28.7045C18.7536 26.8618 21.1051 25.6067 23.6652 25.0979C26.2253 24.5891 28.8792 24.8494 31.2911 25.8459C33.7029 26.8424 35.7645 28.5304 37.2149 30.6963C38.6654 32.8622 39.4396 35.4087 39.4396 38.0138C39.4351 41.5037 38.0445 44.8496 35.5724 47.3182C33.1003 49.7868 29.7484 51.1767 26.2512 51.1833V51.1833ZM26.2512 27.6752C24.2002 27.6752 22.1953 28.2823 20.49 29.4196C18.7848 30.5569 17.4559 32.1733 16.6714 34.0645C15.8869 35.9556 15.6821 38.0364 16.0828 40.0438C16.4835 42.0511 17.4718 43.8947 18.9227 45.3414C20.3736 46.7881 22.2218 47.7729 24.2336 48.1712C26.2454 48.5695 28.3304 48.3634 30.2248 47.579C32.1192 46.7946 33.7379 45.4671 34.8762 43.7645C36.0144 42.0618 36.6211 40.0605 36.6195 38.0138C36.6172 35.271 35.5239 32.6414 33.5797 30.7028C31.6355 28.7642 28.9996 27.6752 26.2512 27.6752V27.6752Z" fill="black"/>
<path d="M17.9248 47.7344C17.6456 47.7344 17.3726 47.6519 17.1403 47.4973C16.908 47.3428 16.7267 47.123 16.6193 46.8658C16.512 46.6086 16.4833 46.3255 16.5369 46.052C16.5905 45.7786 16.724 45.5271 16.9206 45.3293L33.5734 28.7108C33.8428 28.4736 34.1926 28.3477 34.5516 28.3586C34.9107 28.3695 35.2522 28.5163 35.5067 28.7692C35.7613 29.0222 35.9098 29.3623 35.9222 29.7206C35.9346 30.0789 35.8099 30.4284 35.5734 30.6983L18.9206 47.3252C18.79 47.4557 18.6347 47.5591 18.4638 47.6293C18.2929 47.6996 18.1097 47.7353 17.9248 47.7344V47.7344Z" fill="black"/>
<path d="M13.1883 38.1474C10.5779 38.149 8.02559 37.3781 5.8543 35.932C3.68301 34.4859 1.99025 32.4297 0.990135 30.0234C-0.00997713 27.6171 -0.27251 24.9689 0.235743 22.4137C0.743996 19.8585 2.0002 17.5112 3.84546 15.6685C5.69072 13.8259 8.04214 12.5708 10.6023 12.062C13.1624 11.5531 15.8163 11.8135 18.2281 12.81C20.64 13.8065 22.7016 15.4945 24.152 17.6604C25.6024 19.8263 26.3766 22.3728 26.3766 24.9778C26.378 25.4884 26.3501 25.9987 26.2929 26.5061L26.1591 27.6168L25.0461 27.742C22.7242 28.0023 20.56 29.0426 18.9087 30.6921C17.2573 32.3416 16.2169 34.5023 15.9582 36.8196L15.8326 37.9303L14.7197 38.0555C14.2114 38.115 13.7001 38.1457 13.1883 38.1474V38.1474ZM13.1883 14.6393C11.803 14.6114 10.4262 14.8608 9.13917 15.3729C7.85214 15.8849 6.681 16.6492 5.69496 17.6206C4.70892 18.5919 3.92797 19.7507 3.39826 21.0283C2.86855 22.306 2.60082 23.6766 2.61089 25.0593C2.62095 26.4419 2.90862 27.8085 3.45688 29.0784C4.00514 30.3482 4.80288 31.4955 5.80297 32.4525C6.80305 33.4094 7.98519 34.1566 9.27954 34.65C10.5739 35.1433 11.9542 35.3728 13.3389 35.3247C13.854 32.8132 15.0969 30.508 16.9134 28.6952C18.7298 26.8825 21.0398 25.6422 23.5565 25.1282V24.9778C23.5521 22.2358 22.458 19.6075 20.5143 17.6693C18.5706 15.7312 15.936 14.6415 13.1883 14.6393V14.6393Z" fill="black"/>
<path d="M179.624 52.0435H179.424C176.402 52.039 173.506 50.8393 171.369 48.7072C169.233 46.5751 168.03 43.6846 168.026 40.6694V22.2972C168.03 19.2819 169.233 16.3915 171.369 14.2594C173.506 12.1273 176.402 10.9275 179.424 10.9231H179.624C182.646 10.9275 185.542 12.1273 187.679 14.2594C189.815 16.3915 191.018 19.2819 191.022 22.2972V40.6694C191.018 43.6846 189.815 46.5751 187.679 48.7072C185.542 50.8393 182.646 52.039 179.624 52.0435ZM179.424 13.7791C177.152 13.7814 174.973 14.683 173.367 16.2862C171.76 17.8895 170.857 20.0633 170.854 22.3306V40.7028C170.857 42.9701 171.76 45.1439 173.367 46.7471C174.973 48.3503 177.152 49.252 179.424 49.2542H179.624C180.752 49.252 181.868 49.0282 182.909 48.5956C183.95 48.163 184.895 47.53 185.691 46.7329C186.486 45.9357 187.117 44.9899 187.546 43.9495C187.976 42.9092 188.196 41.7946 188.193 40.6694V22.2972C188.182 20.0357 187.275 17.8704 185.669 16.2744C184.064 14.6784 181.891 13.7813 179.624 13.7791H179.424Z" fill="black"/>
<path d="M173.089 24.4434C172.714 24.4434 172.354 24.2947 172.089 24.03C171.824 23.7653 171.675 23.4064 171.675 23.0321C171.677 20.7958 172.568 18.6517 174.153 17.0704C175.737 15.4891 177.886 14.5998 180.126 14.5975C180.502 14.5975 180.861 14.7462 181.126 15.0109C181.392 15.2756 181.541 15.6346 181.541 16.0089C181.541 16.3832 181.392 16.7422 181.126 17.0068C180.861 17.2715 180.502 17.4202 180.126 17.4202C178.636 17.4224 177.207 18.0144 176.153 19.0663C175.098 20.1183 174.505 21.5444 174.503 23.0321C174.503 23.2174 174.466 23.4009 174.395 23.5722C174.324 23.7434 174.22 23.899 174.089 24.03C173.957 24.1611 173.802 24.265 173.63 24.336C173.458 24.4069 173.275 24.4434 173.089 24.4434V24.4434Z" fill="black"/>
<path d="M189.608 32.9113H169.44C169.065 32.9113 168.705 32.7626 168.44 32.4979C168.175 32.2333 168.026 31.8743 168.026 31.5C168.026 31.1257 168.175 30.7667 168.44 30.502C168.705 30.2374 169.065 30.0887 169.44 30.0887H189.608C189.983 30.0887 190.342 30.2374 190.608 30.502C190.873 30.7667 191.022 31.1257 191.022 31.5C191.022 31.8743 190.873 32.2333 190.608 32.4979C190.342 32.7626 189.983 32.9113 189.608 32.9113Z" fill="black"/>
<path d="M432.58 49.7803C431.094 49.7814 429.609 49.6838 428.136 49.488C427.45 49.3962 426.772 49.2876 426.111 49.1624C423.155 48.7488 420.159 48.6955 417.19 49.0037C411.609 49.3377 405.843 49.6885 401.19 45.7719C396.538 41.8552 396.395 40.9199 398.27 32.5689C398.318 32.3501 398.403 32.1411 398.521 31.9509C398.72 31.6424 399.033 31.4252 399.393 31.347C399.752 31.2687 400.127 31.3357 400.437 31.5334C400.718 31.7127 400.924 31.9878 401.016 32.3075C401.109 32.6271 401.081 32.9694 400.939 33.2704C399.266 40.6026 399.324 40.6193 402.973 43.6924C406.772 46.8992 411.751 46.5902 417.023 46.2729C420.222 45.9452 423.449 46.0153 426.63 46.4817C427.241 46.5986 427.868 46.6988 428.504 46.7823C439.818 48.2604 450.119 43.5755 451.433 36.3519C451.643 35.1995 451.785 34.2057 451.885 33.3121C451.95 32.9685 452.143 32.662 452.425 32.4543C452.707 32.2465 453.057 32.1528 453.405 32.1919C453.754 32.231 454.074 32.4 454.303 32.665C454.532 32.9301 454.651 33.2716 454.638 33.6211C454.53 34.5731 454.371 35.6337 454.153 36.8446C452.764 44.4524 443.517 49.7803 432.58 49.7803ZM400.956 33.1117L400.973 33.1201L400.956 33.1117Z" fill="black"/>
<path d="M433.383 45.3209C431.9 45.3207 430.419 45.2258 428.948 45.037C428.262 44.9451 427.584 44.8365 426.923 44.7113C423.967 44.2989 420.972 44.2428 418.002 44.5443C412.421 44.8867 406.646 45.2374 402.002 41.3208C399.19 38.9574 397.751 35.9177 398.153 33.2036C398.387 31.5334 399.408 29.3037 402.872 27.8088C403.642 27.4998 404.43 27.2376 405.232 27.0238C406.383 26.78 407.482 26.3362 408.479 25.7127C409.181 24.9934 409.7 24.1173 409.994 23.1573C410.424 21.9058 411.101 20.753 411.985 19.7668C413.938 17.8836 416.237 16.3948 418.755 15.3825C423.763 13.3964 429.203 12.7487 434.538 13.5036V13.5036C442.245 14.5057 448.965 18.0048 452.513 22.865C453.558 24.1921 454.315 25.7215 454.735 27.3561C455.156 28.9908 455.231 30.6949 454.956 32.3601C453.559 40.0013 444.354 45.3209 433.383 45.3209ZM422.638 41.5964C424.248 41.5787 425.857 41.7129 427.442 41.9972C428.052 42.1141 428.672 42.2143 429.308 42.2978C440.63 43.776 450.931 39.0994 452.245 31.8674C452.445 30.57 452.374 29.2454 452.037 27.9766C451.7 26.7077 451.104 25.522 450.287 24.4935C447.166 20.2345 441.149 17.1446 434.186 16.2343C429.336 15.5395 424.387 16.1151 419.826 17.9045C417.649 18.7803 415.661 20.0645 413.969 21.6876C413.336 22.4304 412.855 23.2901 412.554 24.2179C412.103 25.6055 411.306 26.8557 410.236 27.8506C408.962 28.7384 407.522 29.3631 406.002 29.6878C405.312 29.8729 404.634 30.0959 403.969 30.3559C402.128 31.191 401.082 32.2516 400.881 33.6211C400.63 35.3581 401.718 37.5127 403.785 39.233C407.584 42.4315 412.563 42.1308 417.835 41.8135C419.416 41.6966 421.031 41.5964 422.638 41.5964Z" fill="black"/>
<path d="M435.509 32.4102C435.047 32.4082 434.586 32.3775 434.128 32.3184C432.005 32.1331 430.041 31.1187 428.663 29.4957C428.341 29.0843 428.109 28.6104 427.981 28.1043C427.852 27.5981 427.831 27.0709 427.919 26.5562C428.404 23.9173 431.843 22.2554 435.718 22.7648C437.84 22.9453 439.805 23.9571 441.182 25.5791C441.503 25.9911 441.735 26.465 441.863 26.971C441.992 27.477 442.013 28.0039 441.927 28.5187C441.509 30.8403 438.806 32.4102 435.509 32.4102ZM434.312 25.4288C432.211 25.4288 430.764 26.3057 430.622 27.0489C430.604 27.1984 430.619 27.3499 430.663 27.4937C430.708 27.6374 430.782 27.7704 430.881 27.884C431.817 28.8834 433.096 29.4945 434.463 29.596C437.115 29.9383 439.032 28.9112 439.191 28.0427C439.208 27.8931 439.193 27.7417 439.149 27.5979C439.104 27.4541 439.03 27.3212 438.931 27.2076C437.986 26.2269 436.71 25.6317 435.35 25.5374C435.006 25.4811 434.66 25.4449 434.312 25.4288V25.4288Z" fill="black"/>
<path d="M424.069 36.2267C424.68 36.2267 425.324 36.3519 425.919 36.4187C426.513 36.4855 427.115 36.544 427.701 36.5774L429.475 36.686C430.078 36.686 430.68 36.686 431.375 36.8196H431.45C431.646 36.8466 431.823 36.9493 431.943 37.1055C432.064 37.2617 432.118 37.459 432.094 37.6547C432.059 37.8399 431.961 38.0077 431.818 38.1307C430.575 39.0624 429.019 39.4783 427.475 39.2915C426.715 39.2325 425.969 39.0521 425.266 38.757C424.539 38.4702 423.881 38.035 423.333 37.4793C423.226 37.3713 423.155 37.2336 423.128 37.0844C423.101 36.9351 423.121 36.7813 423.183 36.6431C423.245 36.5049 423.348 36.3888 423.478 36.31C423.608 36.2312 423.758 36.1934 423.91 36.2016L424.069 36.2267Z" fill="black"/>
<path d="M437.4 20.4516C436.954 20.5158 436.503 20.5437 436.053 20.5351H434.797H433.567C433.103 20.5085 432.641 20.4471 432.186 20.3514H432.069C431.868 20.3037 431.694 20.1788 431.584 20.0037C431.474 19.8286 431.438 19.6175 431.483 19.4161C431.517 19.2868 431.58 19.1669 431.668 19.0653C432.083 18.6427 432.586 18.3155 433.14 18.1063C433.695 17.8972 434.289 17.8113 434.881 17.8544C435.455 17.8791 436.021 18.0005 436.555 18.2135C437.117 18.4242 437.622 18.7647 438.027 19.2073C438.164 19.3578 438.236 19.5557 438.228 19.7586C438.221 19.9616 438.133 20.1534 437.986 20.2929C437.878 20.3926 437.745 20.4592 437.601 20.485L437.4 20.4516Z" fill="black"/>
<path d="M345.307 28.193C345.021 28.1902 344.743 28.0987 344.511 27.9311C344.279 27.7635 344.105 27.5281 344.013 27.2575C343.921 26.9869 343.916 26.6945 343.998 26.4207C344.08 26.147 344.245 25.9054 344.47 25.7294C344.902 25.3918 345.259 24.9683 345.518 24.4858C345.777 24.0033 345.932 23.4723 345.975 22.9266C346.017 22.3809 345.946 21.8323 345.765 21.3157C345.583 20.7991 345.297 20.3256 344.922 19.9255C344.766 19.7609 344.653 19.5605 344.594 19.342C344.534 19.1235 344.529 18.8937 344.579 18.6728C344.631 18.4555 344.734 18.2536 344.88 18.0837C345.025 17.9139 345.209 17.7809 345.416 17.6958C345.929 17.4999 346.395 17.1996 346.786 16.8141C347.176 16.4286 347.482 15.9662 347.683 15.4564C347.885 14.9466 347.978 14.4005 347.956 13.8529C347.935 13.3053 347.8 12.7681 347.559 12.2755C347.318 11.7829 346.978 11.3456 346.558 10.9916C346.139 10.6375 345.651 10.3744 345.124 10.2189C344.598 10.0635 344.044 10.0191 343.5 10.0885C342.955 10.158 342.43 10.3398 341.96 10.6225C341.696 10.782 341.386 10.8488 341.08 10.8122C340.774 10.7756 340.489 10.6377 340.27 10.4205C340.052 10.2033 339.912 9.91938 339.874 9.61392C339.836 9.30846 339.902 8.99909 340.06 8.73514C340.437 8.11602 340.634 7.40491 340.629 6.68079C340.629 5.63097 340.212 4.62414 339.468 3.8818C338.724 3.13946 337.715 2.72242 336.663 2.72242C335.611 2.72242 334.602 3.13946 333.858 3.8818C333.114 4.62414 332.696 5.63097 332.696 6.68079C332.692 7.33109 332.854 7.97177 333.165 8.54307C333.305 8.80082 333.358 9.09627 333.318 9.3865C333.278 9.67673 333.146 9.94664 332.942 10.157C332.737 10.3674 332.471 10.5074 332.182 10.5565C331.892 10.6057 331.595 10.5615 331.332 10.4304C330.851 10.1817 330.324 10.0342 329.783 9.99677C329.242 9.95938 328.7 10.033 328.189 10.213C327.677 10.393 327.209 10.6757 326.811 11.0435C326.414 11.4113 326.096 11.8565 325.878 12.3516C325.66 12.8467 325.546 13.3812 325.542 13.9221C325.539 14.4629 325.647 14.9987 325.859 15.4964C326.072 15.994 326.384 16.443 326.777 16.8155C327.17 17.1881 327.635 17.4763 328.144 17.6624C328.355 17.7433 328.543 17.8745 328.692 18.0446C328.841 18.2146 328.946 18.4184 328.998 18.6382C329.05 18.8579 329.047 19.0871 328.99 19.3056C328.933 19.5241 328.824 19.7255 328.671 19.8921C328.305 20.2818 328.022 20.7417 327.839 21.244C327.656 21.7462 327.578 22.2803 327.608 22.8138C327.639 23.3473 327.778 23.869 328.017 24.3473C328.255 24.8255 328.589 25.2503 328.998 25.5958C329.282 25.8339 329.459 26.1749 329.491 26.5437C329.524 26.9125 329.408 27.279 329.169 27.5625C329.051 27.7029 328.906 27.8186 328.743 27.9032C328.58 27.9878 328.402 28.0395 328.219 28.0554C327.85 28.0875 327.482 27.9718 327.198 27.7337C326.021 26.7447 325.22 25.381 324.932 23.8721C324.644 22.3632 324.886 20.8013 325.617 19.4495C324.442 18.6313 323.561 17.4586 323.103 16.1037C322.646 14.7488 322.636 13.2831 323.075 11.9222C323.515 10.5613 324.38 9.37695 325.544 8.54321C326.708 7.70948 328.109 7.27036 329.541 7.29042H329.943C329.943 7.09834 329.943 6.90627 329.943 6.70585C329.943 4.92513 330.652 3.21734 331.914 1.95818C333.176 0.699026 334.887 -0.00836182 336.671 -0.00836182C338.456 -0.00836182 340.167 0.699026 341.429 1.95818C342.69 3.21734 343.399 4.92513 343.399 6.70585C343.399 6.90627 343.399 7.11505 343.399 7.31547C343.617 7.30278 343.835 7.30278 344.052 7.31547C345.485 7.29542 346.886 7.73453 348.05 8.56826C349.214 9.402 350.079 10.5864 350.518 11.9473C350.957 13.3082 350.948 14.7738 350.49 16.1287C350.033 17.4837 349.152 18.6564 347.977 19.4745C348.73 20.8659 348.964 22.4787 348.638 24.0262C348.312 25.5737 347.446 26.9555 346.194 27.9258C345.937 28.1123 345.625 28.2065 345.307 28.193V28.193Z" fill="black"/>
<path d="M336.035 63C332.688 63 329.868 58.7493 327.408 50.0058C325.625 43.6674 324.52 36.3436 324.52 33.2036C324.46 31.5756 324.729 29.9521 325.311 28.4302C325.894 26.9083 326.778 25.5193 327.911 24.3461C329.043 23.1729 330.402 22.2398 331.904 21.6024C333.406 20.965 335.022 20.6365 336.654 20.6365C338.287 20.6365 339.903 20.965 341.405 21.6024C342.907 22.2398 344.266 23.1729 345.398 24.3461C346.531 25.5193 347.415 26.9083 347.998 28.4302C348.58 29.9521 348.849 31.5756 348.788 33.2036C348.805 38.3311 343.675 63 336.035 63ZM336.663 23.8421C334.176 23.8443 331.791 24.8313 330.032 26.5865C328.273 28.3416 327.284 30.7215 327.282 33.2036C327.282 40.8364 332.052 60.2358 336.035 60.2358C337.399 60.2358 339.952 57.3464 342.646 49.2041C344.747 42.8574 346.044 35.9594 346.044 33.2036C346.041 30.7215 345.052 28.3416 343.294 26.5865C341.535 24.8313 339.15 23.8443 336.663 23.8421V23.8421Z" fill="black"/>
<path d="M347.399 35.3916H340.638C340.272 35.3916 339.92 35.2464 339.661 34.988C339.402 34.7296 339.257 34.3791 339.257 34.0136C339.257 33.6482 339.402 33.2977 339.661 33.0393C339.92 32.7809 340.272 32.6357 340.638 32.6357H347.399C347.766 32.6357 348.117 32.7809 348.376 33.0393C348.635 33.2977 348.78 33.6482 348.78 34.0136C348.78 34.3791 348.635 34.7296 348.376 34.988C348.117 35.2464 347.766 35.3916 347.399 35.3916Z" fill="black"/>
<path d="M333.399 41.563H327.726C327.359 41.563 327.008 41.4178 326.749 41.1594C326.49 40.901 326.345 40.5505 326.345 40.185C326.345 39.8196 326.49 39.4691 326.749 39.2107C327.008 38.9523 327.359 38.8071 327.726 38.8071H333.399C333.765 38.8071 334.117 38.9523 334.376 39.2107C334.634 39.4691 334.78 39.8196 334.78 40.185C334.78 40.5505 334.634 40.901 334.376 41.1594C334.117 41.4178 333.765 41.563 333.399 41.563Z" fill="black"/>
<path d="M344.019 49.8304H338.68C338.313 49.8304 337.962 49.6853 337.703 49.4269C337.444 49.1685 337.299 48.818 337.299 48.4525C337.299 48.0871 337.444 47.7366 337.703 47.4782C337.962 47.2198 338.313 47.0746 338.68 47.0746H344.019C344.385 47.0746 344.736 47.2198 344.995 47.4782C345.254 47.7366 345.399 48.0871 345.399 48.4525C345.399 48.818 345.254 49.1685 344.995 49.4269C344.736 49.6853 344.385 49.8304 344.019 49.8304V49.8304Z" fill="black"/>
<path d="M336.663 23.8421C336.481 23.8389 336.303 23.8 336.136 23.7277C335.97 23.6554 335.82 23.5512 335.694 23.4209C335.568 23.2906 335.469 23.1368 335.403 22.9684C335.336 22.7999 335.304 22.6201 335.307 22.4391L335.433 14.6477C335.437 14.2851 335.585 13.9389 335.843 13.6841C336.101 13.4293 336.45 13.2864 336.813 13.2864V13.2864C336.995 13.2897 337.174 13.3286 337.34 13.4009C337.506 13.4731 337.657 13.5774 337.783 13.7077C337.908 13.838 338.007 13.9917 338.074 14.1602C338.14 14.3286 338.172 14.5084 338.169 14.6894L338.077 22.4892C338.074 22.6709 338.035 22.8502 337.962 23.0167C337.889 23.1831 337.783 23.3336 337.652 23.4593C337.521 23.5851 337.365 23.6836 337.196 23.7493C337.026 23.815 336.845 23.8465 336.663 23.8421Z" fill="black"/>
<path d="M513.183 32.0929C513.945 32.0929 514.563 31.476 514.563 30.715C514.563 29.954 513.945 29.3371 513.183 29.3371C512.42 29.3371 511.802 29.954 511.802 30.715C511.802 31.476 512.42 32.0929 513.183 32.0929Z" fill="black"/>
<path d="M526.915 62.8246C525.74 62.8145 524.588 62.504 523.568 61.9227C515.383 57.2963 511.852 46.3397 511.015 43.0995C510.574 41.4505 510.227 39.7776 509.978 38.0889C509.927 37.7271 510.022 37.3601 510.241 37.0677C510.461 36.7752 510.787 36.581 511.149 36.5273C511.329 36.5002 511.512 36.509 511.689 36.5533C511.865 36.5975 512.031 36.6763 512.177 36.7851C512.322 36.8939 512.445 37.0305 512.537 37.1869C512.629 37.3434 512.689 37.5166 512.714 37.6964C512.946 39.2701 513.27 40.8288 513.685 42.3646C514.521 45.346 517.693 55.4006 524.94 59.5009C525.535 59.8632 526.218 60.0548 526.915 60.0548C527.612 60.0548 528.295 59.8632 528.89 59.5009C530.488 58.5238 528.471 54.006 527.609 52.0769C527.409 51.6259 527.233 51.2418 527.107 50.9161C525.734 47.4015 524.888 43.7039 524.597 39.9429C524.597 39.6923 524.555 39.4418 524.538 39.1913C524.514 38.8258 524.636 38.4657 524.878 38.19C525.119 37.9144 525.461 37.7458 525.827 37.7215C526.193 37.6971 526.554 37.8189 526.83 38.0601C527.107 38.3013 527.275 38.6421 527.3 39.0075L527.35 39.6923C527.615 43.1831 528.393 46.616 529.66 49.8806C529.777 50.1812 529.944 50.5403 530.128 50.9578C531.476 53.9892 533.994 59.6178 530.321 61.8141C529.3 62.4576 528.122 62.8073 526.915 62.8246V62.8246Z" fill="black"/>
<path d="M523.668 31.191C523.395 31.1894 523.129 31.1071 522.903 30.9547C522.677 30.8023 522.502 30.5866 522.398 30.3346C522.295 30.0827 522.269 29.8059 522.323 29.5392C522.377 29.2724 522.51 29.0277 522.703 28.8358C522.896 28.644 523.142 28.5136 523.41 28.4611C523.678 28.4086 523.955 28.4363 524.207 28.5409C524.459 28.6454 524.674 28.822 524.825 29.0484C524.976 29.2748 525.057 29.5409 525.057 29.8131C525.057 29.9955 525.021 30.176 524.951 30.3443C524.88 30.5126 524.777 30.6652 524.647 30.7934C524.517 30.9215 524.363 31.0227 524.193 31.091C524.024 31.1592 523.842 31.1932 523.66 31.191H523.668Z" fill="black"/>
<path d="M517.911 35.3999H517.743L517.333 35.3415C516.971 35.2806 516.649 35.0787 516.436 34.7804C516.223 34.482 516.138 34.1116 516.199 33.7506C516.26 33.3896 516.463 33.0675 516.762 32.8553C517.061 32.6431 517.432 32.5581 517.793 32.619L518.07 32.6608C518.421 32.6995 518.744 32.8715 518.973 33.1411C519.201 33.4107 519.317 33.7574 519.296 34.1098C519.276 34.4622 519.121 34.7933 518.863 35.0349C518.605 35.2765 518.264 35.4102 517.911 35.4083V35.3999Z" fill="black"/>
<path d="M510.789 30.1388H509.409C509.409 29.3831 509.474 28.6289 509.601 27.884C509.601 27.7337 509.601 27.6084 509.601 27.5416C509.815 24.9595 510.264 22.402 510.94 19.9004C511.777 16.6519 515.317 5.70371 523.492 1.07725C524.517 0.47434 525.685 0.159827 526.875 0.167179C528.064 0.174532 529.229 0.503475 530.246 1.11901C533.919 3.34873 531.409 8.98566 530.053 11.9753C529.869 12.3929 529.702 12.7603 529.584 13.0526C528.319 16.3174 527.54 19.7502 527.275 23.2408C527.13 24.9432 527.072 26.6517 527.099 28.36C527.099 28.502 527.099 28.694 527.099 28.9362L525.735 29.2034L524.363 29.3287C524.312 28.8443 524.296 28.5521 524.296 28.385C524.263 26.5876 524.324 24.7897 524.48 22.9986C524.769 19.2373 525.615 15.5394 526.99 12.0254C527.116 11.7081 527.291 11.3072 527.501 10.8563C528.338 8.9272 530.371 4.4093 528.773 3.44059C528.177 3.08011 527.494 2.88951 526.798 2.88951C526.101 2.88951 525.418 3.08011 524.823 3.44059C517.568 7.54928 514.371 17.6373 513.568 20.5852C512.933 22.9223 512.513 25.3122 512.312 27.7253C512.312 27.8088 512.312 27.9925 512.254 28.2264C512.168 28.835 512.129 29.4491 512.137 30.0636L510.789 30.1388Z" fill="black"/>
<path d="M533.894 50.5152C533.287 50.5184 532.692 50.3446 532.182 50.0153C531.672 49.686 531.27 49.2155 531.024 48.6613C528.898 43.8845 524.747 37.805 517.082 36.0847C516.865 36.0329 516.664 35.93 516.495 35.7847C516.326 35.6395 516.195 35.456 516.111 35.2496C516.026 35.0467 515.991 34.8263 516.008 34.6069C516.026 34.3875 516.095 34.1755 516.212 33.9886C516.396 33.6963 520.781 26.8234 529.459 27.742C530.578 27.8652 531.657 28.2273 532.623 28.8037C533.589 29.3801 534.419 30.1573 535.057 31.0824C537.258 34.2308 539.367 39.7675 536.948 48.2271C536.774 48.8537 536.407 49.4102 535.9 49.8189C535.393 50.2276 534.771 50.4681 534.12 50.5069L533.894 50.5152ZM519.777 33.9886C527.643 36.6693 531.743 43.5004 533.543 47.5339C533.57 47.6086 533.623 47.6716 533.691 47.7126C533.76 47.7536 533.84 47.7701 533.919 47.7594C534.004 47.7593 534.085 47.7301 534.151 47.6769C534.217 47.6237 534.262 47.5496 534.279 47.4671C536.405 40.0514 534.639 35.3164 532.781 32.6524C532.368 32.0556 531.83 31.5554 531.205 31.1863C530.579 30.8172 529.881 30.588 529.158 30.5146C527.431 30.328 525.685 30.5447 524.057 31.1477C522.429 31.7506 520.963 32.7232 519.777 33.9886V33.9886Z" fill="black"/>
<path d="M505.157 47.0162H504.957C504.389 46.98 503.846 46.7685 503.403 46.4109C502.961 46.0533 502.641 45.5673 502.488 45.0203C500.58 38.3395 502.254 33.9802 503.994 31.4833C504.515 30.7324 505.192 30.1026 505.979 29.637C506.766 29.1715 507.645 28.8811 508.555 28.7859C510.604 28.5901 512.667 28.9527 514.525 29.8351C516.384 30.7176 517.967 32.0867 519.107 33.7965C519.226 33.9806 519.298 34.1902 519.318 34.4078C519.339 34.6255 519.307 34.8449 519.225 35.0476C519.143 35.2503 519.013 35.4306 518.847 35.5732C518.681 35.7159 518.484 35.8168 518.271 35.8676C512.455 37.187 509.3 41.7968 507.685 45.4295C507.463 45.9104 507.107 46.3167 506.658 46.5985C506.209 46.8803 505.688 47.0254 505.157 47.0162ZM509.793 31.4666C509.478 31.4673 509.162 31.484 508.848 31.5167C508.335 31.5748 507.841 31.7411 507.398 32.0046C506.955 32.2681 506.574 32.6228 506.279 33.0449C504.881 35.0575 503.551 38.6317 505.166 44.2603C506.53 41.1704 509.626 35.9928 515.534 33.7715C513.986 32.2994 511.932 31.4747 509.793 31.4666V31.4666Z" fill="black"/>
<path d="M519.718 52.4109C519.502 52.4126 519.288 52.3627 519.094 52.2654C518.9 52.1681 518.733 52.0262 518.605 51.8514C517.378 50.0679 516.459 48.092 515.886 46.0057C515.775 45.6558 515.808 45.2762 515.977 44.9504C516.146 44.6246 516.439 44.3794 516.789 44.2687C517.14 44.1579 517.52 44.1908 517.847 44.3599C518.173 44.529 518.419 44.8207 518.53 45.1706C519.011 46.9559 519.786 48.6491 520.823 50.1812C520.931 50.3265 521.01 50.4916 521.054 50.6672C521.098 50.8428 521.108 51.0254 521.081 51.2046C521.055 51.3838 520.993 51.556 520.9 51.7114C520.807 51.8668 520.684 52.0023 520.538 52.1103C520.303 52.2934 520.016 52.3985 519.718 52.4109V52.4109Z" fill="black"/>
<path d="M597.35 24.744C597.123 24.7432 596.9 24.6863 596.7 24.5785C596.5 24.4707 596.329 24.3153 596.204 24.1261C594.361 21.4743 591.941 19.2731 589.124 17.6874L588.773 17.4787C586.982 16.4348 584.522 14.9734 584.43 12.8188C584.443 12.1826 584.622 11.5609 584.95 11.0147C585.277 10.4686 585.741 10.0168 586.296 9.70387L586.806 9.37818C594.974 4.49284 605.401 7.70798 611.074 13.1695C611.705 13.7725 612.3 14.411 612.857 15.0819C612.977 15.2196 613.069 15.3799 613.127 15.5533C613.185 15.7268 613.207 15.91 613.193 16.0922C613.179 16.2745 613.129 16.4521 613.046 16.6149C612.963 16.7777 612.848 16.9222 612.708 17.0402C612.568 17.1582 612.406 17.2473 612.231 17.3022C612.057 17.3571 611.873 17.3767 611.69 17.36C611.508 17.3433 611.331 17.2906 611.169 17.2048C611.007 17.1191 610.864 17.0021 610.748 16.8607C610.248 16.2607 609.714 15.6891 609.15 15.1487C604.221 10.3803 595.217 7.56601 588.229 11.7415L587.869 11.9753C587.309 12.3678 587.191 12.6351 587.191 12.7019C587.191 13.3783 589.442 14.6727 590.17 15.0986L590.53 15.3157C593.706 17.1076 596.43 19.598 598.497 22.5978C598.598 22.7481 598.669 22.9167 598.704 23.0941C598.74 23.2716 598.741 23.4543 598.706 23.6319C598.671 23.8095 598.601 23.9784 598.5 24.1291C598.4 24.2798 598.271 24.4093 598.12 24.5102C597.893 24.6636 597.625 24.7451 597.35 24.744V24.744Z" fill="black"/>
<path d="M596.781 56.0269C595.43 56.0475 594.083 55.8732 592.781 55.5091C590.07 54.674 589.434 53.1876 589.342 52.3692C589.116 50.8576 590.02 49.4045 592.045 48.0433C594.723 45.8222 596.776 42.9444 598.003 39.6923C598.13 39.349 598.388 39.0699 598.72 38.9165C599.053 38.763 599.433 38.7477 599.777 38.8739C600.121 39.0002 600.401 39.2576 600.555 39.5896C600.708 39.9217 600.724 40.301 600.597 40.6443C599.19 44.3657 596.833 47.6559 593.76 50.1895L593.635 50.2814C592.288 51.175 592.053 51.8013 592.07 51.9516C592.087 52.1019 592.497 52.5278 593.585 52.8619C597.3 53.9809 605.2 52.9871 610.321 47.3001C611.949 45.6843 613.298 43.8106 614.313 41.755C614.473 41.4228 614.758 41.1675 615.107 41.0454C615.455 40.9232 615.838 40.9442 616.171 41.1037C616.503 41.2631 616.759 41.548 616.882 41.8957C617.004 42.2434 616.983 42.6254 616.823 42.9576C615.7 45.2717 614.201 47.3851 612.388 49.2125C610.393 51.3539 607.978 53.0636 605.293 54.2357C602.609 55.4079 599.712 56.0175 596.781 56.0269Z" fill="black"/>
<path d="M615.384 43.7593C614.678 43.6901 614.001 43.443 613.417 43.0411C611.618 42.039 608.254 40.1683 599.861 41.7049C599.692 41.7382 599.519 41.7382 599.35 41.7049C596.003 41.0452 595.534 29.1784 595.493 27.3579C595.124 22.4475 596.463 21.5122 599.794 21.0529C602.095 20.769 605.56 20.3263 610.363 15.2072C610.407 15.1538 610.458 15.1061 610.514 15.0652C610.944 14.7028 611.501 14.5256 612.062 14.5725C612.443 14.6574 612.803 14.818 613.121 15.0447C613.439 15.2714 613.707 15.5595 613.911 15.892C624.271 28.1095 619.183 39.2497 617.384 42.3146C617.26 42.6234 617.072 42.9027 616.833 43.1343C616.593 43.3659 616.308 43.5447 615.995 43.6591C615.798 43.7235 615.592 43.7573 615.384 43.7593V43.7593ZM605.635 38.4146C608.832 38.2899 611.998 39.0748 614.765 40.6778L615.074 40.8448C617.158 37.1035 620.53 28.0677 611.802 17.7459C606.597 23.0154 602.597 23.5248 600.137 23.8338C598.011 24.101 598.012 24.1595 598.246 27.1742C598.25 27.2521 598.25 27.3301 598.246 27.408C598.078 29.1701 599.083 37.0451 600.037 38.899C601.886 38.583 603.759 38.421 605.635 38.4146V38.4146Z" fill="black"/>
<path d="M593.426 20.343C593.088 20.3445 592.762 20.2226 592.509 20.0006C592.255 19.7785 592.092 19.4715 592.05 19.1376C592.008 18.8037 592.09 18.4659 592.28 18.1879C592.47 17.91 592.756 17.7112 593.083 17.629C593.233 17.5872 596.706 16.6352 596.656 13.1862C596.654 13.0053 596.687 12.8257 596.755 12.6576C596.822 12.4896 596.922 12.3365 597.048 12.207C597.175 12.0775 597.326 11.9741 597.493 11.9029C597.659 11.8316 597.839 11.7938 598.02 11.7916V11.7916C598.384 11.7916 598.734 11.9342 598.993 12.1887C599.253 12.4433 599.402 12.7895 599.409 13.1528C599.468 17.6707 595.727 19.8336 593.744 20.3013C593.64 20.33 593.533 20.3441 593.426 20.343V20.343Z" fill="black"/>
<path d="M603.217 51.2167C602.898 51.2166 602.589 51.1057 602.343 50.903C602.097 50.7004 601.93 50.4185 601.869 50.106C601.15 46.7656 597.551 46.5652 597.392 46.5569C597.027 46.5438 596.683 46.3871 596.433 46.1211C596.184 45.855 596.05 45.5013 596.062 45.1372C596.065 44.957 596.104 44.7792 596.177 44.6142C596.249 44.4492 596.354 44.3002 596.485 44.1759C596.616 44.0516 596.77 43.9544 596.938 43.8901C597.107 43.8257 597.287 43.7955 597.468 43.801C599.509 43.8511 603.627 45.1121 604.572 49.5382C604.61 49.7154 604.612 49.8983 604.579 50.0764C604.546 50.2544 604.477 50.4241 604.377 50.5756C604.278 50.727 604.149 50.8573 603.999 50.9587C603.848 51.0602 603.679 51.1308 603.501 51.1666C603.409 51.1957 603.313 51.2125 603.217 51.2167Z" fill="black"/>
<path d="M787.954 50.106C783.959 50.106 780.128 48.5223 777.303 45.7033C774.478 42.8843 772.891 39.0609 772.891 35.0742C772.891 27.2827 779.1 12.8939 787.954 12.8939C796.808 12.8939 803.017 27.2827 803.017 35.0742C803.017 39.0609 801.43 42.8843 798.605 45.7033C795.78 48.5223 791.949 50.106 787.954 50.106V50.106ZM787.954 15.6665C781.619 15.6665 775.678 27.7838 775.678 35.0909C775.635 36.7272 775.921 38.3555 776.519 39.8797C777.117 41.4039 778.014 42.7932 779.159 43.9656C780.304 45.138 781.672 46.0698 783.183 46.7061C784.694 47.3423 786.318 47.6701 787.958 47.6701C789.598 47.6701 791.222 47.3423 792.733 46.7061C794.244 46.0698 795.613 45.138 796.757 43.9656C797.902 42.7932 798.8 41.4039 799.397 39.8797C799.995 38.3555 800.281 36.7272 800.239 35.0909C800.239 27.7754 794.289 15.6581 787.954 15.6581V15.6665Z" fill="black"/>
<path d="M791.536 46.2145C791.2 46.2184 790.875 46.1004 790.62 45.8825C790.366 45.6646 790.199 45.3617 790.152 45.0303C790.105 44.699 790.18 44.3618 790.364 44.0818C790.548 43.8018 790.827 43.5981 791.151 43.5087C791.335 43.4503 795.075 42.2644 796.741 37.1035C796.876 36.7863 797.125 36.5308 797.439 36.387C797.753 36.2431 798.11 36.2212 798.439 36.3256C798.768 36.4299 799.047 36.653 799.22 36.9512C799.393 37.2495 799.449 37.6015 799.377 37.9386C797.226 44.5777 792.13 46.0808 791.912 46.1393C791.792 46.1847 791.664 46.2101 791.536 46.2145V46.2145Z" fill="black"/>
<path d="M696.564 51.9432C692.535 51.9555 688.509 51.696 684.514 51.1666C684.183 51.1222 683.88 50.9599 683.66 50.7097C683.44 50.4595 683.318 50.1383 683.317 49.8054V44.2603L673.585 48.202C673.417 48.2725 673.236 48.3088 673.054 48.3088C672.871 48.3088 672.691 48.2725 672.522 48.202C668.614 46.5318 666.665 44.4942 666.665 42.1475V20.8775C666.665 20.5121 666.81 20.1616 667.069 19.9032C667.328 19.6448 667.679 19.4996 668.045 19.4996C668.412 19.4996 668.763 19.6448 669.022 19.9032C669.281 20.1616 669.426 20.5121 669.426 20.8775V42.1308C669.426 43.1413 670.79 44.3522 673.117 45.4211L684.179 40.9199C684.389 40.8333 684.618 40.7998 684.844 40.8224C685.07 40.8449 685.287 40.9229 685.476 41.0493C685.665 41.1757 685.819 41.3466 685.926 41.5469C686.033 41.7473 686.088 41.9708 686.087 42.1976V48.5778C689.565 48.9797 693.063 49.1776 696.564 49.1707C713.401 49.1707 723.736 45.062 723.736 42.1141V20.8775C723.736 20.5121 723.881 20.1616 724.14 19.9032C724.399 19.6448 724.751 19.4996 725.117 19.4996C725.483 19.4996 725.834 19.6448 726.093 19.9032C726.352 20.1616 726.498 20.5121 726.498 20.8775V42.1308C726.498 48.5778 711.443 51.9432 696.564 51.9432Z" fill="black"/>
<path d="M696.564 30.6732C692.537 30.6851 688.514 30.4256 684.522 29.8966C684.298 29.8679 684.084 29.7842 683.9 29.653C683.715 29.5218 683.567 29.3471 683.466 29.1446C683.366 28.942 683.318 28.7179 683.325 28.4921C683.333 28.2664 683.396 28.046 683.51 27.8506L687.158 21.4454L673.593 26.9236C673.426 26.996 673.245 27.0334 673.062 27.0334C672.879 27.0334 672.698 26.996 672.531 26.9236C668.623 25.2534 666.673 23.2158 666.673 20.8691C666.673 14.4305 681.736 11.0567 696.598 11.0567C711.46 11.0567 726.531 14.3971 726.531 20.8691C726.531 27.3412 711.443 30.6732 696.564 30.6732ZM686.924 27.4163C690.126 27.7564 693.344 27.9236 696.564 27.9174C713.401 27.9174 723.736 23.8087 723.736 20.8608C723.736 17.9129 713.401 13.8125 696.564 13.8125C679.727 13.8125 669.401 17.9129 669.401 20.8775C669.401 21.8796 670.773 23.0989 673.091 24.1678L689.828 17.4118C690.095 17.3016 690.389 17.2776 690.67 17.343C690.951 17.4084 691.204 17.56 691.395 17.7766C691.585 17.9931 691.702 18.2637 691.73 18.5502C691.759 18.8368 691.696 19.125 691.552 19.3743L686.924 27.4163Z" fill="black"/>
<path d="M673.066 48.3022C672.7 48.3022 672.349 48.157 672.09 47.8986C671.831 47.6402 671.686 47.2897 671.686 46.9243V25.6459C671.686 25.2805 671.831 24.93 672.09 24.6716C672.349 24.4132 672.7 24.268 673.066 24.268C673.432 24.268 673.784 24.4132 674.043 24.6716C674.302 24.93 674.447 25.2805 674.447 25.6459V46.9243C674.447 47.2897 674.302 47.6402 674.043 47.8986C673.784 48.157 673.432 48.3022 673.066 48.3022V48.3022Z" fill="black"/>
<path d="M684.698 51.3503C684.516 51.3503 684.336 51.3144 684.168 51.2446C684 51.1749 683.847 51.0726 683.719 50.9438C683.591 50.815 683.489 50.6621 683.42 50.4939C683.351 50.3258 683.316 50.1457 683.317 49.9641V28.5354C683.345 28.1874 683.502 27.8624 683.759 27.6253C684.016 27.3883 684.353 27.2566 684.702 27.2566C685.052 27.2566 685.389 27.3883 685.646 27.6253C685.903 27.8624 686.06 28.1874 686.087 28.5354V49.9641C686.087 50.3317 685.941 50.6843 685.68 50.9443C685.42 51.2043 685.067 51.3503 684.698 51.3503V51.3503Z" fill="black"/>
<path d="M690.313 36.9949C689.727 36.9949 689.155 36.8216 688.668 36.4967C688.18 36.1719 687.801 35.7102 687.576 35.17C687.352 34.6298 687.294 34.0354 687.408 33.4619C687.522 32.8885 687.804 32.3617 688.219 31.9483C688.633 31.5349 689.161 31.2533 689.735 31.1392C690.31 31.0252 690.906 31.0837 691.447 31.3075C691.988 31.5312 692.451 31.9101 692.776 32.3963C693.102 32.8824 693.276 33.454 693.276 34.0387C693.273 34.8221 692.961 35.5727 692.406 36.1266C691.85 36.6806 691.098 36.9927 690.313 36.9949V36.9949ZM690.313 33.8466C690.262 33.8466 690.213 33.8668 690.177 33.9029C690.141 33.9389 690.121 33.9877 690.121 34.0387C690.121 34.2558 690.514 34.2558 690.514 34.0387C690.514 34.0127 690.509 33.9871 690.499 33.9632C690.489 33.9393 690.474 33.9178 690.455 33.8998C690.436 33.8819 690.414 33.8679 690.39 33.8588C690.365 33.8496 690.339 33.8455 690.313 33.8466V33.8466Z" fill="black"/>
<path d="M697.133 43.7843C696.703 43.786 696.281 43.66 695.922 43.4225C695.563 43.1849 695.283 42.8464 695.117 42.4498C694.951 42.0532 694.907 41.6163 694.99 41.1946C695.073 40.7729 695.28 40.3852 695.584 40.0807C695.887 39.7762 696.275 39.5686 696.697 39.4842C697.12 39.3997 697.558 39.4422 697.956 39.6063C698.354 39.7704 698.694 40.0487 698.933 40.4059C699.173 40.7632 699.301 41.1833 699.301 41.6131C699.299 42.1868 699.07 42.7365 698.664 43.143C698.258 43.5495 697.708 43.7799 697.133 43.7843V43.7843ZM697.133 41.0285C697.056 41.0274 696.979 41.0417 696.907 41.0706C696.835 41.0995 696.769 41.1423 696.714 41.1967C696.658 41.2511 696.615 41.3159 696.585 41.3874C696.555 41.4589 696.539 41.5356 696.539 41.6131C696.539 41.7703 696.602 41.9211 696.713 42.0323C696.825 42.1435 696.976 42.206 697.133 42.206C697.211 42.206 697.288 42.1906 697.359 42.1607C697.431 42.1308 697.496 42.087 697.551 42.0318C697.605 41.9767 697.648 41.9112 697.677 41.8393C697.706 41.7674 697.72 41.6905 697.719 41.6131C697.719 41.458 697.657 41.3093 697.548 41.1997C697.438 41.0901 697.289 41.0285 697.133 41.0285V41.0285Z" fill="black"/>
<path d="M679.501 34.0053C679.07 34.0069 678.649 33.8808 678.29 33.6428C677.93 33.4049 677.65 33.0659 677.485 32.6688C677.319 32.2717 677.275 31.8345 677.359 31.4125C677.443 30.9905 677.65 30.6029 677.955 30.2987C678.259 29.9946 678.648 29.7876 679.071 29.7041C679.494 29.6206 679.932 29.6643 680.33 29.8297C680.727 29.995 681.067 30.2746 681.306 30.633C681.544 30.9913 681.67 31.4122 681.669 31.8424C681.667 32.4153 681.438 32.9642 681.032 33.3694C680.626 33.7745 680.076 34.0031 679.501 34.0053V34.0053ZM679.501 31.2495C679.344 31.2495 679.193 31.3119 679.081 31.4231C678.97 31.5343 678.907 31.6851 678.907 31.8424C678.907 31.9996 678.97 32.1504 679.081 32.2616C679.193 32.3728 679.344 32.4353 679.501 32.4353C679.659 32.4353 679.81 32.3728 679.922 32.2616C680.033 32.1504 680.096 31.9996 680.096 31.8424C680.096 31.6851 680.033 31.5343 679.922 31.4231C679.81 31.3119 679.659 31.2495 679.501 31.2495Z" fill="black"/>
<path d="M719.016 33.2203C718.586 33.2203 718.165 33.0929 717.808 32.8544C717.45 32.6158 717.171 32.2767 717.006 31.8799C716.842 31.4832 716.798 31.0466 716.882 30.6254C716.966 30.2042 717.174 29.8174 717.478 29.5137C717.782 29.2101 718.17 29.0033 718.592 28.9195C719.014 28.8357 719.451 28.8787 719.849 29.043C720.246 29.2074 720.586 29.4857 720.825 29.8427C721.064 30.1998 721.192 30.6196 721.192 31.049C721.192 31.6249 720.963 32.1771 720.555 32.5843C720.147 32.9915 719.593 33.2203 719.016 33.2203ZM719.016 30.4645C718.939 30.4633 718.862 30.4777 718.79 30.5065C718.718 30.5354 718.652 30.5783 718.597 30.6327C718.541 30.6871 718.497 30.7519 718.468 30.8234C718.438 30.8948 718.422 30.9715 718.422 31.049C718.422 31.2063 718.485 31.3571 718.596 31.4683C718.708 31.5795 718.859 31.6419 719.016 31.6419C719.174 31.6419 719.325 31.5795 719.436 31.4683C719.548 31.3571 719.61 31.2063 719.61 31.049C719.61 30.9715 719.595 30.8948 719.565 30.8234C719.535 30.7519 719.491 30.6871 719.436 30.6327C719.381 30.5783 719.315 30.5354 719.243 30.5065C719.171 30.4777 719.094 30.4633 719.016 30.4645V30.4645Z" fill="black"/>
<path d="M709.627 45.3627C709.197 45.3627 708.776 45.2353 708.418 44.9967C708.061 44.7582 707.782 44.4191 707.617 44.0223C707.452 43.6256 707.409 43.189 707.493 42.7678C707.577 42.3466 707.784 41.9597 708.089 41.6561C708.393 41.3524 708.781 41.1456 709.203 41.0619C709.625 40.9781 710.062 41.0211 710.46 41.1854C710.857 41.3498 711.197 41.6281 711.436 41.9851C711.675 42.3422 711.803 42.762 711.803 43.1914C711.803 43.7673 711.574 44.3195 711.166 44.7267C710.758 45.1339 710.204 45.3627 709.627 45.3627V45.3627ZM709.627 42.5901C709.47 42.5901 709.318 42.6526 709.207 42.7638C709.096 42.875 709.033 43.0258 709.033 43.183C709.033 43.3403 709.096 43.4911 709.207 43.6023C709.318 43.7135 709.47 43.776 709.627 43.776C709.785 43.776 709.936 43.7135 710.047 43.6023C710.159 43.4911 710.221 43.3403 710.221 43.183C710.221 43.0258 710.159 42.875 710.047 42.7638C709.936 42.6526 709.785 42.5901 709.627 42.5901Z" fill="black"/>
<path d="M707.259 36.9949C706.673 36.9949 706.1 36.8216 705.613 36.4967C705.126 36.1719 704.746 35.7102 704.522 35.17C704.298 34.6298 704.239 34.0354 704.354 33.4619C704.468 32.8885 704.75 32.3617 705.164 31.9483C705.579 31.5349 706.106 31.2533 706.681 31.1392C707.256 31.0252 707.851 31.0837 708.393 31.3075C708.934 31.5312 709.397 31.9101 709.722 32.3963C710.048 32.8824 710.221 33.454 710.221 34.0387C710.219 34.8221 709.906 35.5727 709.351 36.1266C708.796 36.6806 708.044 36.9927 707.259 36.9949V36.9949ZM707.259 33.8466C707.208 33.8466 707.159 33.8668 707.123 33.9029C707.087 33.9389 707.067 33.9877 707.067 34.0387C707.067 34.2558 707.46 34.2558 707.46 34.0387C707.46 34.0127 707.455 33.9871 707.444 33.9632C707.434 33.9393 707.419 33.9178 707.4 33.8998C707.382 33.8819 707.36 33.8679 707.335 33.8588C707.311 33.8496 707.285 33.8455 707.259 33.8466V33.8466Z" fill="black"/>
<path d="M719.811 43.7843C719.225 43.786 718.651 43.614 718.163 43.2902C717.675 42.9663 717.294 42.5052 717.068 41.9652C716.843 41.4251 716.783 40.8305 716.897 40.2565C717.01 39.6825 717.291 39.1549 717.705 38.7407C718.119 38.3264 718.647 38.044 719.222 37.9292C719.797 37.8145 720.393 37.8726 720.935 38.0961C721.476 38.3196 721.94 38.6985 722.265 39.1848C722.591 39.6711 722.765 40.243 722.765 40.8281C722.765 41.6107 722.454 42.3614 721.901 42.9155C721.347 43.4697 720.596 43.7821 719.811 43.7843ZM719.811 40.6277C719.758 40.6277 719.707 40.6488 719.669 40.6864C719.632 40.7239 719.61 40.7749 719.61 40.8281C719.61 41.0452 720.004 41.0452 720.004 40.8281C720.005 40.8022 720.001 40.7763 719.992 40.752C719.982 40.7277 719.968 40.7056 719.95 40.6868C719.932 40.6681 719.911 40.6532 719.887 40.643C719.863 40.6329 719.837 40.6276 719.811 40.6277V40.6277Z" fill="black"/>
<path d="M677.778 42.206C677.192 42.206 676.619 42.0326 676.132 41.7078C675.645 41.3829 675.265 40.9212 675.041 40.381C674.817 39.8408 674.758 39.2464 674.872 38.673C674.986 38.0995 675.269 37.5728 675.683 37.1593C676.097 36.7459 676.625 36.4643 677.2 36.3503C677.774 36.2362 678.37 36.2947 678.911 36.5185C679.453 36.7422 679.915 37.1212 680.241 37.6073C680.566 38.0935 680.74 38.665 680.74 39.2497C680.738 40.0331 680.425 40.7837 679.87 41.3377C679.315 41.8916 678.563 42.2038 677.778 42.206V42.206ZM677.778 39.0493C677.752 39.0493 677.726 39.0545 677.702 39.0647C677.678 39.0748 677.656 39.0897 677.638 39.1085C677.621 39.1272 677.606 39.1494 677.597 39.1736C677.588 39.1979 677.584 39.2238 677.585 39.2497C677.585 39.4668 677.978 39.4668 677.978 39.2497C677.978 39.1966 677.957 39.1456 677.92 39.108C677.882 39.0704 677.831 39.0493 677.778 39.0493Z" fill="black"/>
</g>
<defs>
<clipPath id="clip0">
<rect width="803" height="63" fill="white"/>
</clipPath>
</defs>
</svg>
