<svg width="40" height="40" viewBox="0 0 40 40" fill="none" xmlns="http://www.w3.org/2000/svg">
<g clip-path="url(#clip2)">
<path d="M21.3624 18.4564C21.3624 18.207 21.3624 18.025 21.3624 17.843C21.3624 16.0364 21.3287 14.2232 21.477 12.4503C21.5792 10.9872 22.1557 9.5974 23.1192 8.49161C24.0826 7.38582 25.3805 6.62442 26.8158 6.32292C28.3385 6.02908 29.8941 5.94292 31.44 6.06677C32.2084 6.06677 32.9769 6.17463 33.7453 6.23529V11.6616H33.2263C32.1815 11.6616 31.1299 11.6616 30.0851 11.6954C28.5145 11.756 27.7393 12.4571 27.6584 14.0075C27.5775 15.45 27.6247 16.8925 27.6179 18.3351C27.6179 18.3351 27.6179 18.389 27.6853 18.4497H33.5701L32.7881 24.5164H32.2623C30.9142 24.5164 29.4986 24.5164 28.1167 24.5164C27.6786 24.5164 27.591 24.6512 27.591 25.0556C27.591 29.8753 27.591 34.6883 27.591 39.5012C27.591 39.663 27.591 39.8248 27.591 40.027H37.5674C37.8919 40.0576 38.2192 40.0159 38.5256 39.9048C38.8321 39.7937 39.1101 39.616 39.3396 39.3846C39.5691 39.1531 39.7444 38.8736 39.8529 38.5663C39.9614 38.2589 40.0004 37.9313 39.9671 37.607V2.39977C39.998 2.0787 39.9579 1.75476 39.8495 1.45094C39.7412 1.14713 39.5673 0.870894 39.3401 0.641848C39.113 0.412803 38.8383 0.236564 38.5354 0.125643C38.2325 0.0147219 37.9089 -0.0281607 37.5876 3.93596e-05H2.44772C2.11627 -0.0366544 1.78082 0.0018704 1.46632 0.112747C1.15182 0.223623 0.866369 0.403997 0.631218 0.640444C0.396066 0.876892 0.217263 1.16333 0.108117 1.47843C-0.00103018 1.79353 -0.0377113 2.1292 0.000803074 2.46044V37.5531C-0.0358907 37.8846 0.00263412 38.22 0.113511 38.5345C0.224387 38.849 0.40476 39.1345 0.641208 39.3696C0.877655 39.6048 1.16409 39.7836 1.47919 39.8927C1.7943 40.0019 2.12996 40.0386 2.4612 40H21.3355V24.4962H16.1788V18.4294L21.3624 18.4564Z" fill="#2E66FF"/>
<path d="M21.3616 18.4564H16.1779V24.5231H21.3279V40.027H2.45362C2.12039 40.0652 1.78283 40.0273 1.46635 39.9162C1.14988 39.805 0.862735 39.6236 0.626534 39.3854C0.390332 39.1473 0.211227 38.8586 0.102698 38.5413C-0.00583115 38.2239 -0.0409564 37.886 -3.39765e-05 37.5531V2.46044C-0.0385483 2.1292 -0.00186723 1.79353 0.10728 1.47843C0.216426 1.16333 0.395229 0.876892 0.630381 0.640444C0.865532 0.403997 1.15098 0.223623 1.46548 0.112747C1.77998 0.0018704 2.11543 -0.0366544 2.44688 3.93596e-05H37.5868C37.9107 -0.0334793 38.2381 0.00544267 38.5452 0.113989C38.8523 0.222535 39.1314 0.397991 39.3624 0.627661C39.5934 0.85733 39.7704 1.13547 39.8806 1.44195C39.9909 1.74844 40.0317 2.0756 40 2.39977V37.5801C40.0333 37.9043 39.9943 38.2319 39.8858 38.5393C39.7773 38.8467 39.602 39.1262 39.3724 39.3576C39.1429 39.5891 38.8649 39.7667 38.5585 39.8778C38.252 39.9889 37.9248 40.0307 37.6002 40H27.6373C27.6373 39.7978 27.6373 39.636 27.6373 39.4743C27.6373 34.6613 27.6373 29.8484 27.6373 25.0287C27.6373 24.6242 27.7249 24.4827 28.1631 24.4894C29.5113 24.4894 30.9268 24.4894 32.3087 24.4894H32.8345L33.6164 18.4227H27.6845C27.644 18.362 27.6171 18.3351 27.6171 18.3081C27.6171 16.8656 27.5766 15.423 27.6575 13.9805C27.7384 12.4301 28.5136 11.7291 30.0842 11.6684C31.1291 11.6347 32.1806 11.6684 33.2254 11.6347H33.7445V6.24203C32.976 6.18811 32.2076 6.06677 31.4391 6.06677C29.8948 5.93181 28.3392 6.00664 26.8149 6.28922C25.3796 6.59072 24.0818 7.35211 23.1183 8.4579C22.1549 9.56369 21.5783 10.9535 21.4762 12.4166C21.3279 14.2097 21.3886 16.023 21.3616 17.8093C21.3549 18.025 21.3616 18.2002 21.3616 18.4564Z" fill="#2E66FF"/>
</g>
<defs>
<clipPath id="clip2">
<rect width="40" height="40" fill="white"/>
</clipPath>
</defs>
</svg>
