<svg width="40" height="54" viewBox="0 0 40 54" fill="none" xmlns="http://www.w3.org/2000/svg">
<g clip-path="url(#clip0)">
<path d="M20 53.3338C19.8172 53.3327 19.638 53.2831 19.4809 53.1901C19.3238 53.0971 19.1945 52.964 19.1064 52.8046L10.6352 37.4815C6.69002 35.4011 3.55788 32.067 1.7376 28.0101C-0.0826716 23.9531 -0.486395 19.4068 0.590736 15.0951C1.66787 10.7834 4.1639 6.95439 7.6813 4.21784C11.1987 1.48129 15.5352 -0.00537109 20 -0.00537109C24.4649 -0.00537109 28.8013 1.48129 32.3187 4.21784C35.8361 6.95439 38.3322 10.7834 39.4093 15.0951C40.4864 19.4068 40.0827 23.9531 38.2624 28.0101C36.4422 32.067 33.31 35.4011 29.3649 37.4815L20.8937 52.8046C20.805 52.9635 20.6755 53.0962 20.5186 53.1891C20.3616 53.2821 20.1827 53.332 20 53.3338ZM20 2.02882C15.9653 2.03211 12.0491 3.3871 8.88273 5.87542C5.71632 8.36374 3.48406 11.8404 2.54569 15.7453C1.60732 19.6501 2.01748 23.7556 3.71009 27.4001C5.40271 31.0447 8.27917 34.016 11.8759 35.8353C12.0592 35.9261 12.2109 36.0695 12.3117 36.2468L20.0369 50.2103L27.7622 36.2468C27.8599 36.0697 28.0093 35.9262 28.1906 35.8353C31.7873 34.016 34.6638 31.0447 36.3564 27.4001C38.049 23.7556 38.4592 19.6501 37.5208 15.7453C36.5824 11.8404 34.3502 8.36374 31.1838 5.87542C28.0174 3.3871 24.1012 2.03211 20.0665 2.02882H20Z" fill="#2E66FF"/>
<path d="M30.6426 24.8112C30.5088 24.8112 30.3762 24.7849 30.2526 24.734C30.1289 24.683 30.0166 24.6083 29.9219 24.5141C29.8273 24.4199 29.7522 24.3081 29.701 24.1851C29.6498 24.062 29.6234 23.9302 29.6234 23.797V22.114H27.1788C27.0447 22.115 26.9117 22.0894 26.7876 22.0388C26.6635 21.9882 26.5508 21.9135 26.4559 21.8191C26.3611 21.7248 26.286 21.6126 26.2352 21.4891C26.1843 21.3656 26.1586 21.2333 26.1596 21.0998V16.3963H24.5422V18.5055C24.5422 18.7745 24.4348 19.0325 24.2436 19.2227C24.0525 19.4129 23.7933 19.5197 23.523 19.5197H20.7608C20.4905 19.5197 20.2312 19.4129 20.0401 19.2227C19.8489 19.0325 19.7416 18.7745 19.7416 18.5055V12.3248H17.5998V16.0435C17.5998 16.3125 17.4924 16.5705 17.3012 16.7607C17.1101 16.9509 16.8509 17.0577 16.5806 17.0577H13.8405V20.2987C13.8415 20.4316 13.8161 20.5633 13.7656 20.6863C13.7152 20.8093 13.6409 20.9212 13.5468 21.0154C13.4527 21.1097 13.3409 21.1845 13.2176 21.2356C13.0944 21.2866 12.9622 21.3129 12.8287 21.3129H10.3767V23.797C10.3767 24.066 10.2693 24.3239 10.0782 24.5141C9.88707 24.7043 9.62783 24.8112 9.35752 24.8112C9.08721 24.8112 8.82797 24.7043 8.63684 24.5141C8.4457 24.3239 8.33832 24.066 8.33832 23.797V20.2987C8.33832 20.0298 8.4457 19.7718 8.63684 19.5816C8.82797 19.3914 9.08721 19.2845 9.35752 19.2845H11.8169V16.0435C11.8169 15.7746 11.9243 15.5166 12.1154 15.3264C12.3066 15.1362 12.5658 15.0293 12.8361 15.0293H15.5687V11.3106C15.5668 11.1772 15.5915 11.0447 15.6415 10.9208C15.6915 10.797 15.7657 10.6842 15.8598 10.5892C15.954 10.4941 16.0662 10.4186 16.1899 10.3671C16.3136 10.3156 16.4464 10.2891 16.5806 10.2891H20.7608C20.8943 10.2881 21.0266 10.3134 21.1502 10.3636C21.2739 10.4138 21.3863 10.4878 21.481 10.5814C21.5758 10.675 21.6509 10.7863 21.7023 10.9089C21.7536 11.0316 21.78 11.1631 21.78 11.2959V17.4913H22.5185V15.3821C22.5185 15.1131 22.6259 14.8552 22.817 14.665C23.0082 14.4748 23.2674 14.3679 23.5377 14.3679H27.1788C27.3126 14.3679 27.4452 14.3941 27.5688 14.4451C27.6925 14.4961 27.8048 14.5708 27.8995 14.665C27.9941 14.7591 28.0692 14.8709 28.1204 14.994C28.1716 15.117 28.198 15.2489 28.198 15.3821V20.0856H30.6426C30.9129 20.0856 31.1721 20.1925 31.3633 20.3827C31.5544 20.5729 31.6618 20.8308 31.6618 21.0998V23.797C31.6618 23.9302 31.6354 24.062 31.5842 24.1851C31.533 24.3081 31.4579 24.4199 31.3633 24.5141C31.2686 24.6083 31.1563 24.683 31.0326 24.734C30.909 24.7849 30.7764 24.8112 30.6426 24.8112Z" fill="#2E66FF"/>
</g>
<defs>
<clipPath id="clip0">
<rect width="40" height="53.3333" fill="white"/>
</clipPath>
</defs>
</svg>
