<svg width="59" height="40" viewBox="0 0 59 40" fill="none" xmlns="http://www.w3.org/2000/svg">
<g clip-path="url(#clip4)">
<path d="M50.1402 3.80459C50.1375 3.786 50.1375 3.76712 50.1402 3.74853L50.0921 3.69246C49.2836 2.54825 48.2117 1.61541 46.9668 0.972737C45.7218 0.330065 44.3405 -0.00356482 42.9395 2.87247e-05H8.73048C7.33411 -0.00128266 5.95783 0.332673 4.71735 0.973818C3.47688 1.61496 2.40846 2.54456 1.60192 3.68445V3.74853V3.80459C0.579646 5.24556 0.0208439 6.96387 0 8.73051L0 24.8298C0.00212077 27.1446 0.922617 29.364 2.55944 31.0009C4.19626 32.6377 6.41566 33.5582 8.73048 33.5603H32.7593C33.0525 33.5603 33.3336 33.4438 33.5409 33.2366C33.7482 33.0293 33.8646 32.7481 33.8646 32.455C33.8646 32.1618 33.7482 31.8807 33.5409 31.6734C33.3336 31.4661 33.0525 31.3496 32.7593 31.3496H8.73048C7.00196 31.3475 5.34485 30.6599 4.12261 29.4377C2.90036 28.2155 2.21277 26.5583 2.21065 24.8298V8.73051C2.21118 7.79596 2.41335 6.87253 2.80336 6.02326L25.1822 22.2587C25.3698 22.3973 25.5978 22.4705 25.831 22.467C26.064 22.4693 26.2916 22.3963 26.4798 22.2587L48.8586 6.02326C49.2541 6.87101 49.4591 7.79506 49.4594 8.73051V14.4173C49.4594 14.7105 49.5758 14.9916 49.7831 15.1989C49.9904 15.4062 50.2715 15.5227 50.5647 15.5227C50.8578 15.5227 51.139 15.4062 51.3463 15.1989C51.5535 14.9916 51.67 14.7105 51.67 14.4173V8.73051C51.6703 6.97155 51.1369 5.25391 50.1402 3.80459ZM25.831 20.0241L4.05286 4.19707C4.65874 3.56821 5.38532 3.06814 6.18909 2.72682C6.99285 2.3855 7.85724 2.20994 8.73048 2.21068H42.9395C43.8126 2.21086 44.6767 2.38683 45.4804 2.7281C46.284 3.06937 47.0107 3.56895 47.6171 4.19707L25.831 20.0241Z" fill="#2E66FF"/>
<path d="M45.9832 40C43.5943 40 41.259 39.2916 39.2727 37.9644C37.2864 36.6372 35.7383 34.7508 34.8241 32.5438C33.9099 30.3367 33.6707 27.9081 34.1368 25.5651C34.6028 23.2221 35.7532 21.0699 37.4424 19.3807C39.1316 17.6915 41.2838 16.5412 43.6268 16.0751C45.9698 15.6091 48.3983 15.8483 50.6054 16.7624C52.8125 17.6766 54.6989 19.2248 56.0261 21.2111C57.3533 23.1974 58.0617 25.5326 58.0617 27.9215C58.0595 31.1243 56.7863 34.1953 54.5216 36.46C52.2569 38.7247 49.1859 39.9979 45.9832 40ZM45.9832 18.0537C44.0315 18.0537 42.1236 18.6324 40.5009 19.7167C38.8781 20.801 37.6133 22.3421 36.8665 24.1453C36.1196 25.9484 35.9242 27.9325 36.3049 29.8466C36.6857 31.7608 37.6255 33.5191 39.0055 34.8991C40.3856 36.2792 42.1439 37.219 44.058 37.5998C45.9722 37.9805 47.9563 37.7851 49.7594 37.0382C51.5625 36.2913 53.1037 35.0266 54.188 33.4038C55.2723 31.781 55.851 29.8732 55.851 27.9215C55.8468 25.3057 54.8058 22.7982 52.9561 20.9486C51.1064 19.0989 48.599 18.0579 45.9832 18.0537Z" fill="#2E66FF"/>
<path d="M45.9832 31.7181C45.2319 31.7197 44.4971 31.4984 43.8717 31.0822C43.2463 30.666 42.7585 30.0736 42.4699 29.38C42.1813 28.6864 42.105 27.9228 42.2506 27.1858C42.3962 26.4488 42.7571 25.7716 43.2877 25.2398C43.8184 24.7081 44.4948 24.3457 45.2315 24.1985C45.9682 24.0514 46.732 24.1261 47.4262 24.4132C48.1204 24.7003 48.7138 25.187 49.1313 25.8115C49.5488 26.436 49.7717 27.1703 49.7717 27.9216C49.7717 28.9271 49.3728 29.8915 48.6625 30.6033C47.9523 31.3151 46.9887 31.716 45.9832 31.7181ZM45.9832 26.3356C45.6663 26.3356 45.3566 26.4296 45.0932 26.6056C44.8297 26.7816 44.6244 27.0318 44.5032 27.3245C44.3819 27.6173 44.3502 27.9393 44.412 28.2501C44.4738 28.5608 44.6264 28.8463 44.8504 29.0703C45.0745 29.2943 45.3599 29.4469 45.6706 29.5087C45.9814 29.5705 46.3035 29.5388 46.5962 29.4176C46.8889 29.2963 47.1391 29.091 47.3151 28.8276C47.4911 28.5641 47.5851 28.2544 47.5851 27.9376C47.5851 27.5127 47.4163 27.1053 47.1159 26.8048C46.8155 26.5044 46.408 26.3356 45.9832 26.3356Z" fill="#2E66FF"/>
<path d="M45.9912 35.5707C45.6026 35.5716 45.2145 35.5449 44.8298 35.4906C43.3257 35.261 41.9242 34.5881 40.8046 33.5579C39.6849 32.5277 38.8979 31.187 38.5442 29.7072C38.1905 28.2273 38.2862 26.6757 38.8189 25.2505C39.3517 23.8253 40.2974 22.5914 41.5351 21.7065C42.7728 20.8216 44.2463 20.3259 45.7672 20.2829C47.2881 20.2398 48.7873 20.6512 50.0731 21.4646C51.359 22.278 52.373 23.4564 52.9856 24.8492C53.5982 26.2419 53.7816 27.7857 53.5122 29.2831C53.3736 29.9341 53.0171 30.5183 52.5016 30.9392C51.986 31.3601 51.3423 31.5924 50.6768 31.5979C50.0374 31.6664 49.3938 31.5148 48.8521 31.1682C48.3104 30.8217 47.9031 30.3008 47.6972 29.6916C47.6099 29.3979 47.5667 29.0929 47.5691 28.7865V25.2863C47.556 25.1338 47.5748 24.9803 47.6243 24.8354C47.6737 24.6905 47.7527 24.5575 47.8562 24.4447C47.9598 24.332 48.0856 24.242 48.2258 24.1804C48.3659 24.1188 48.5173 24.087 48.6704 24.087C48.8235 24.087 48.9749 24.1188 49.115 24.1804C49.2552 24.242 49.381 24.332 49.4845 24.4447C49.5881 24.5575 49.6671 24.6905 49.7165 24.8354C49.7659 24.9803 49.7847 25.1338 49.7717 25.2863V28.7865C49.7589 28.8742 49.7589 28.9632 49.7717 29.0509C49.8838 29.4113 50.4365 29.3873 50.5086 29.3873C50.845 29.3873 51.2375 29.203 51.3096 28.8907C51.4217 28.2467 51.4217 27.5883 51.3096 26.9443C51.1058 25.799 50.5407 24.749 49.6969 23.9481C48.8532 23.1471 47.7752 22.6374 46.6208 22.4935C45.4664 22.3497 44.2963 22.5792 43.2818 23.1485C42.2673 23.7178 41.4617 24.597 40.983 25.6573C40.5044 26.7176 40.3778 27.9033 40.6218 29.0408C40.8659 30.1782 41.4677 31.2076 42.3391 31.9783C43.2106 32.7489 44.3059 33.2203 45.4647 33.3234C46.6234 33.4265 47.7847 33.1558 48.7785 32.5511C48.9019 32.4753 49.0392 32.4247 49.1822 32.4022C49.3253 32.3797 49.4714 32.3857 49.6122 32.42C49.7529 32.4542 49.8854 32.516 50.0022 32.6017C50.1189 32.6875 50.2175 32.7955 50.2923 32.9195C50.3683 33.0435 50.4191 33.1814 50.4417 33.3251C50.4643 33.4688 50.4583 33.6155 50.424 33.7569C50.3898 33.8983 50.328 34.0315 50.2422 34.149C50.1564 34.2664 50.0482 34.3658 49.9239 34.4413C48.7412 35.1709 47.3808 35.5616 45.9912 35.5707Z" fill="#2E66FF"/>
</g>
<defs>
<clipPath id="clip4">
<rect width="58.0617" height="40" fill="white"/>
</clipPath>
</defs>
</svg>
