<svg width="41" height="47" viewBox="0 0 41 47" fill="none" xmlns="http://www.w3.org/2000/svg">
<g filter="url(#filter0_d)">
<g clip-path="url(#clip0)">
<path d="M28.5128 18.2454C28.467 16.0835 27.577 14.0256 26.0336 12.5129C24.4902 11.0002 22.4163 10.1531 20.2564 10.1531C18.0965 10.1531 16.0226 11.0002 14.4792 12.5129C12.9359 14.0256 12.0459 16.0835 12 18.2454C11.9984 19.8529 12.471 21.4251 13.3584 22.7649L13.3956 22.8208V22.8394L15.7216 26.2896L17.6494 29.1436L18.3937 30.2614L20.2359 32.9925L22.0968 30.2614L23.7045 27.8843L24.62 26.5318L24.8098 26.2486L27.1135 22.8245V22.8059L27.1433 22.7611C28.0341 21.4238 28.5106 19.8528 28.5128 18.2454ZM20.2843 22.0644C19.401 22.0644 18.5376 21.8022 17.8032 21.3109C17.0688 20.8196 16.4964 20.1213 16.1583 19.3043C15.8203 18.4873 15.7319 17.5884 15.9042 16.7211C16.0765 15.8537 16.5019 15.0571 17.1264 14.4318C17.751 13.8065 18.5468 13.3807 19.4131 13.2081C20.2794 13.0356 21.1773 13.1242 21.9934 13.4626C22.8094 13.801 23.5069 14.3741 23.9976 15.1093C24.4883 15.8446 24.7503 16.709 24.7503 17.5933C24.7503 18.1805 24.6348 18.7619 24.4103 19.3043C24.1859 19.8468 23.8569 20.3397 23.4422 20.7549C23.0275 21.17 22.5352 21.4994 21.9934 21.7241C21.4515 21.9488 20.8708 22.0644 20.2843 22.0644Z" fill="white"/>
</g>
</g>
<defs>
<filter id="filter0_d" x="0" y="0" width="40.5128" height="47" filterUnits="userSpaceOnUse" color-interpolation-filters="sRGB">
<feFlood flood-opacity="0" result="BackgroundImageFix"/>
<feColorMatrix in="SourceAlpha" type="matrix" values="0 0 0 0 0 0 0 0 0 0 0 0 0 0 0 0 0 0 127 0"/>
<feOffset dy="2"/>
<feGaussianBlur stdDeviation="6"/>
<feColorMatrix type="matrix" values="0 0 0 0 0 0 0 0 0 0 0 0 0 0 0 0 0 0 0.25 0"/>
<feBlend mode="normal" in2="BackgroundImageFix" result="effect1_dropShadow"/>
<feBlend mode="normal" in="SourceGraphic" in2="effect1_dropShadow" result="shape"/>
</filter>
<clipPath id="clip0">
<rect x="12" y="10" width="16.5128" height="23" fill="white"/>
</clipPath>
</defs>
</svg>
