<svg width="41" height="40" viewBox="0 0 41 40" fill="none" xmlns="http://www.w3.org/2000/svg">
<g clip-path="url(#clip5)">
<path d="M35.7054 24.5772L35.6074 24.4943C34.9424 24.0465 34.1947 23.7359 33.4081 23.5807C32.6215 23.4254 31.8119 23.4286 31.0265 23.5902C28.9471 24.0422 27.0861 25.5793 25.4812 28.1636C22.8373 26.8709 20.4018 25.1897 18.2558 23.1758C15.7678 20.8805 13.673 18.1928 12.055 15.2195C14.579 13.5167 16.0482 11.5955 16.4174 9.50091C16.5459 8.71358 16.5168 7.90859 16.3319 7.13258C16.1469 6.35658 15.8098 5.62501 15.34 4.98028L15.2571 4.88987C8.0241 -2.10203 3.54114 0.429519 3.35278 0.535C3.29048 0.574086 3.23241 0.619536 3.17949 0.670619C1.06632 2.95315 -0.074209 5.96932 -1.1994e-05 9.07898C-0.0452182 15.2948 3.72197 22.1135 11.2036 29.3841C11.2269 29.4205 11.2521 29.4557 11.2789 29.4896C18.5572 36.4966 25.3155 40.0377 31.3731 40.0377C31.6067 40.0377 31.8403 40.0377 32.0738 40.0377C37.4835 39.7966 40.2411 36.6849 40.3616 36.5493C40.4104 36.4952 40.451 36.4343 40.4822 36.3685C40.5801 36.1651 42.9459 31.5465 35.7054 24.5772ZM31.9382 37.913C26.3703 38.1391 19.7853 34.726 12.8084 28.0505C12.8084 28.0505 12.7708 27.9827 12.7406 27.9526C5.75625 21.2169 2.06441 14.7222 2.07948 9.16186C2.00261 6.63721 2.87345 4.17521 4.52061 2.26037C5.11583 2.03434 8.40082 1.11515 13.7879 6.27619C14.3616 7.11529 14.5809 8.14689 14.3982 9.14679C14.0893 10.8194 12.6879 12.4242 10.2317 13.916C10.0078 14.0421 9.83902 14.247 9.75821 14.4908C9.6774 14.7346 9.6904 14.9998 9.79468 15.2346C10.307 16.4476 11.844 19.5292 15.6263 23.4621C15.6698 23.5563 15.7283 23.6428 15.7996 23.7183C16.1612 24.0649 16.5078 24.3888 16.8544 24.6977C21.036 28.4649 24.2607 29.9341 25.5189 30.4013C25.7518 30.4903 26.009 30.492 26.2431 30.4062C26.4771 30.3203 26.6722 30.1526 26.7922 29.9341C28.1861 27.4252 29.7382 25.9635 31.3957 25.5868C32.388 25.3673 33.4269 25.5458 34.2889 26.0841C39.6609 31.2903 38.8623 34.5979 38.6513 35.2007C36.8178 36.9052 34.4187 37.8713 31.9156 37.913H31.9382Z" fill="#2E66FF"/>
</g>
<defs>
<clipPath id="clip5">
<rect width="40.9267" height="40" fill="white"/>
</clipPath>
</defs>
</svg>
