<svg viewBox="0 0 962 695" fill="none" xmlns="http://www.w3.org/2000/svg">
  <g clip-path="url(#clip7)">
    <path d="M142.83 409.12a142.845 142.845 0 00-131.97 88.161A142.841 142.841 0 10285.66 552a142.848 142.848 0 00-41.82-101.025 142.825 142.825 0 00-101.01-41.855zm0 214.25a71.419 71.419 0 01-50.484-121.939 71.413 71.413 0 0177.849-15.45 71.422 71.422 0 0123.121 116.491 71.407 71.407 0 01-50.486 20.898z" fill="#2E66FF"/>
    <path d="M712.89 679.54a7.66 7.66 0 007.659-7.66 7.66 7.66 0 10-7.659 7.66zM754.18 679.54a7.66 7.66 0 100-15.32 7.66 7.66 0 000 15.32zM795.479 679.54a7.66 7.66 0 100-15.32 7.66 7.66 0 000 15.32zM712.89 643.18a7.66 7.66 0 007.659-7.66 7.66 7.66 0 10-7.659 7.66zM754.18 643.18a7.66 7.66 0 100-15.32 7.66 7.66 0 000 15.32zM795.479 643.18a7.66 7.66 0 100-15.32 7.66 7.66 0 000 15.32zM712.89 606.82a7.66 7.66 0 007.659-7.66 7.66 7.66 0 10-7.659 7.66zM754.18 606.82a7.66 7.66 0 10-.001-15.321 7.66 7.66 0 00.001 15.321zM795.479 606.82a7.66 7.66 0 100-15.32 7.66 7.66 0 000 15.32z" fill="#000"/>
    <path d="M865.939 191c52.744 0 95.5-42.757 95.5-95.5S918.683 0 865.939 0c-52.743 0-95.5 42.757-95.5 95.5s42.757 95.5 95.5 95.5z" fill="#2CEBAD"/>
    <path d="M314.32 301.86v.14c.067-.157.155-.305.26-.44-.1.11-.18.21-.26.3zm-10.53 10.3c.15 0 .15 0 .15-.21l-.15.21zm-8 6.78a7.843 7.843 0 00-1 1.19 27.115 27.115 0 008.47-7.53c-2.67 1.78-4.9 4.25-7.47 6.34zm-4.94 4.27c-1.43 1.15-2.72 2.43-4.15 3.42-5.27 3.55-10.22 7.66-15.66 10.77-.509.428-1.04.828-1.59 1.2A23.735 23.735 0 00276 335c4.15-2.78 8.14-5.69 12.13-8.61 2.4-1.87 5-3.62 6.71-6.3a25.877 25.877 0 00-3.99 3.12zm-22 15.7c-.31.08-.31.08-.16.21h.16c.12-.15.15-.19.23-.22l-.23.01zm-6.38 2.72a1 1 0 00-.65.31c-.15.21 0 .32.17.28a.998.998 0 00.79-.51c-.2.04-.2-.12-.35-.08h.04zm-16.14 24v.17c.182-.492.399-.969.65-1.43a6.067 6.067 0 00-.69 1.23l.04.03zm85.76-96.74a45.34 45.34 0 00-3.55-16.89c-3.36-7.94-9.74-11.94-18.68-12.59h-2.09c-1.43.2-2.71.52-4.15.71a61.14 61.14 0 00-19.64 5.7c-4.47 2.08-9.09 4.19-13.25 7.29a36.933 36.933 0 00-3.19 1.92 23.909 23.909 0 00-5.44 3.9c-.63.65-1.43 1.17-2.07 1.8l-5.43 4.71a13 13 0 00-3.35 5.31 2.803 2.803 0 00-.16 2.75 5.45 5.45 0 01.31 2.32c-.31 2-.15 2.12 1.76 2.43.33.09.64 0 .81.44.48 1.49.63 1.44 1.91.8 1.11-.59 2.24-1.36 3.35-2 1.76-1.08 3.51-2 5.27-3.07.17 0 .64-.15.64.16s-.16.51-.32.55c-1 .73-1.76 1.4-2.72 2.13.48-.12 1-.41 1.44-.52 1.28-.16 1.76.52 1 1.67a48.423 48.423 0 00-3.83 7 55.353 55.353 0 01-2.4 5.23c-1.6 3.44-3.35 6.91-4.78 10.3-1 1.83-1.61 3.75-2.4 5.55-1.76 4.27-3.84 8.46-5.59 12.73-4.47 10.54-8.78 21-12.3 31.81-1 2.8-2.07 5.63-3 8.42a16.05 16.05 0 00-1.12 4.58c-.32 2.64 0 5.11 2.24 6.32a4.367 4.367 0 011.43 2 7.51 7.51 0 00.64 1.75c.8 1.56 1.12 1.8 3.19 1 1-.4 1.44-.52 1.92.48.32.71.64.79 1.6.07 1.11-.76 1.92-1.59 3.2-1.43v-.16a11.52 11.52 0 001.11-3.15h.15a.924.924 0 01-.34-.305.924.924 0 01.19-1.245 9.005 9.005 0 001.91-3.68c-.47 0-.63-.32-.63-.8a7.35 7.35 0 011.44-2.59 21.89 21.89 0 004-8.19c-.15 0-.29-.05-.55 0 .08-.17.1-.36.23-.39.32-.23.32.25.32.4a34.367 34.367 0 003.19-7.5h-.12c.78-1.14 1.41-2.4 2.68-3 1.91-1.11 3.83-2.24 5.74-3.2 9.42-4.25 17.9-10.84 26.36-17.1.308-.093.582-.274.79-.52 4.63-4.34 9.58-8 14.06-12.6a5.814 5.814 0 001-.88c.95-.72 1.91-1.6 3.18-1.6a3.102 3.102 0 001.93-1.11 22.71 22.71 0 004.46-4.64 16.333 16.333 0 00-2.72 2.13c-.48.44-1.11.91-1.74 1.39-.17.2-.48.12-.65.16a.997.997 0 01.17-.67c1.59-1.53 3.18-3.52 5.59-3.79 2.07-1.65 3.5-3.92 5.42-5.67 2.87-2.8 4.47-6.55 7.19-9.61.16-.21.16-.53.48-.92a28.712 28.712 0 003.87-16.12l.04.03zm-83 88.41c0 .16-.32.39-.32.39v-.48c.256-.225.473-.492.64-.79-.113.294-.25.579-.41.85l.09.03zm4.63-10.74s.16-.2.16 0a.26.26 0 01.31.19c-.33-.07-.55.04-.55-.22l.08.03zm16.93-87.74a9.64 9.64 0 012.87-2.15 96.868 96.868 0 0120.13-9 26.328 26.328 0 018.61-1.19 4.91 4.91 0 01-2.39.9c-4.63 1.32-9.42 3-14.05 4.79-2.72 1-5.43 2.15-8.15 3.47a32.679 32.679 0 01-7 3.18 9.824 9.824 0 01-3 2 9.857 9.857 0 012.9-2.03l.08.03zm20 1.25a9.998 9.998 0 01-2.07.52c-.48.12-1 .25-1.28-.15-.16-.44.32-1 1.28-1.28a42.186 42.186 0 0112.92-3.07c.33.08.65 0 .48.52 0 .17-.31.4-.48.44-2.22.55-4.31 1.24-6.54 2l-4.31 1.02zm.65 2.4a.723.723 0 01-.5.61c-.15 0-.31-.25-.48-.21l.48-.44c.126-.013.254-.01.38.01l.12.03zm-21.25-1.09a31.186 31.186 0 0111-5.78 6.003 6.003 0 012.4-1.55 71.215 71.215 0 0113.25-4.75c.15.13.47 0 1.12 0a10.717 10.717 0 01-3.67 1.87c-3.2 1.13-6.55 2.43-9.91 3.59a7.826 7.826 0 01-3.19.8 55.799 55.799 0 01-11.12 5.79l.12.03zm3 43c-.16.52-.16 1.17-.79 1.65-.41-.77.39-1.13.74-1.69l.05.04zm-10.53-30.58c-1.44 1-3 1.87-4.48 2.87-.48.29-.8.36-1.11.6l-.32-.24v-.32c.15-.19.32-.4.47-.44a106.124 106.124 0 0110.55-7.1 6.003 6.003 0 011.43-.52c.16 0 .16.13.33.09v.26a4.136 4.136 0 01-1.45 1.32c-2.01 1.29-3.75 2.36-5.51 3.44l.09.04zm6.38 39.6l-.31.57c-.42-.44.06-.56.22-.61l.09.04zm-2.64 11.6c-.16 0-.16.2-.33.4-.224.043-.44.121-.64.23l.49-.5c.15-.19.32-.07.48-.13zm-2.26 3.61c.28-.06.56-.25.94-.38l.16-.19v.15l-.18.06a4.712 4.712 0 01-.77.82c-.33.24-.48.12-.48-.2.19-.06.19-.22.33-.26zm12.78.5c-4.48 3.66-9.26 7.09-14.54 9.21a7.039 7.039 0 01-2.39.75c-.31-.08-.64-.16-.48-.52.05-.258.159-.501.32-.71a2.288 2.288 0 011.11-.76 107.295 107.295 0 0015-8.38c.79-.51 1.75-.91 2.55-1.43a24.086 24.086 0 01-1.55 1.84h-.02zm4.63-3.56a9.162 9.162 0 01-1.59.71l-.17.21-.63.38c.19-.15.39-.32.63-.54a.412.412 0 00.17-.05c.385-.506.81-.981 1.27-1.42a1.638 1.638 0 011.44-.52c.34-.09-.14.68-1.1 1.23h-.02zm35.28-27.16h-.15l.15-.21c.194-.232.412-.443.65-.63a3.256 3.256 0 00-.63.84h-.02zm1.76-33c-.5.995-1.089 1.942-1.76 2.83-4.15 5.34-8 10.93-12.92 15.52-1.93 1.92-3.52 4.07-5.28 5.94a122.035 122.035 0 01-16 15.32c-2.24 1.84-4.48 3.67-6.55 5.63a35.408 35.408 0 01-4.48 3.67c-.79.52-1.59.08-1.43-.92.32-1.35 1-2.79.64-4-.16-.6.31-1 .79-1.32a5.001 5.001 0 001.76-2c1.76-3.64 3.83-7.35 5.27-11.07h-.07a1.381 1.381 0 00-.09.17.259.259 0 00-.09-.09 3.922 3.922 0 01-1 .36c.28-.79.71-.7 1-.36a.57.57 0 00.18-.08c1.56-3.05 3-5.91 4.39-8.92a11.343 11.343 0 001.27-4.33 2.132 2.132 0 01.17-1c1.59-2.15 1.91-4.63 3.35-6.74 1.11-1.88 1.28-3.68 1.76-5.55.15-.84-.48-.84-1-1.19-.65-.33-.48-1.17.15-1.8a13.357 13.357 0 014.31-2.36 53.006 53.006 0 0113.9-2.51c2.512-.169 5.036.01 7.5.53a9.638 9.638 0 013.52 1.36c1.26.7 1.37 1.46.73 2.9l-.02.01zM406.46 287v1c.16-.36.33-.72.48-1.07l-.48.07zm-9.89-59.48h.15c.195-.233.357-.492.48-.77a4.025 4.025 0 01-.63.8v-.03zm0 0c-.203.22-.365.474-.48.75a2.97 2.97 0 01.63-.79l-.15.04zm-1.13 1.55c.176-.297.395-.567.65-.8a1.802 1.802 0 00-.65.83v-.03zm-1.11.92c.63.32.8-.37 1.11-.92-.43.232-.807.548-1.11.93v-.01zm-11 17.91c.188-.489.405-.967.65-1.43a4.541 4.541 0 00-.68 1.46l.03-.03zm13.27-20.38c-.203.22-.365.474-.48.75a2.97 2.97 0 01.63-.79c.195-.233.357-.492.48-.77a4.037 4.037 0 01-.66.84l.03-.03zm-1.13 1.55c.176-.297.395-.567.65-.8a1.805 1.805 0 00-.68.83l.03-.03zm-1.11.92c.63.32.8-.37 1.11-.92-.44.228-.829.545-1.14.93l.03-.01zM384 246.5a4.54 4.54 0 00-.65 1.43c.188-.489.405-.967.65-1.43zm38.15-5.37c.41-2.144.578-4.328.5-6.51a10.356 10.356 0 00-.81-3.94 21.415 21.415 0 00-8-10 3.456 3.456 0 00-3.52-.56 2.352 2.352 0 01-2.07-.61 19.73 19.73 0 00-2.08-1.55 7.225 7.225 0 00-4-1.72 2.413 2.413 0 00-2.39.75c-1.13 1.57-2.41 1.24-3.52 1l-1.11-.37c-.8-.42-1.45.21-2.08 1 0 .32.16.76-.16 1.16-.17.2-.32.41-.65.33-.15 0-.15-.29 0-.48.31-.298.582-.634.81-1-1.66 1-3.46 2.07-5.27 3 1.13-2 3-3.08 4.79-4.3.64-.32 1.43-.68 1.43-1.64-.15-.75-.95-.88-1.43-1.07a3.159 3.159 0 00-2.07.19c-.941.302-1.852.69-2.72 1.16a49.88 49.88 0 00-10.38 8.66 21.71 21.71 0 01-2.4 2.67c-4.62 3.86-8.29 8.61-11.81 13.48a28.27 28.27 0 01-3 3.8c-1 1.19-1.93 2.39-2.72 3.54-1.28 2.07-2.39 4.12-3.84 6.07-1 1.52-2.07 3.07-2.87 4.54a84.613 84.613 0 00-5.16 10.27l-1 1.84a44.565 44.565 0 00-5.11 10.53A27.34 27.34 0 01338 285a84.587 84.587 0 00-5.11 13.25l-.48 2.52c-.48 2.83-.8 5.78-1.28 8.62-1.44 8.34-.16 15.37 3.83 21.4a82.694 82.694 0 008.95 10.71c3.35 3 7.66 4.31 12.29 4.91 2.246.07 4.494-.115 6.7-.55 7.83-1.8 14.22-6.42 19.64-13.52 3.37-4.42 6.415-9.079 9.11-13.94 1.41-2.38 3-4.65 3.78-7.34h.05a14.52 14.52 0 001.13-1.72 76.084 76.084 0 005.11-10.86c.09-.623.304-1.221.63-1.76 1.91-2.7 2.72-5.62 4-8.5-.81-.11-.81-.27.15-1.15l.48-.11a10.7 10.7 0 012.07-5.15c.285-.357.453-.794.48-1.25-.48-1.31.32-2.16 1.28-3.35a4.44 4.44 0 001.13-2.35c.63-2.07 1.11-4.27 2.54-6.22.195-.254.31-.56.33-.88 0-2.09 1-3.91 1.91-5.75 1.76-3.31 2.07-6.75 3-10.18l.48-2.2a.24.24 0 00-.03-.105.247.247 0 00-.28-.125c-.8.35-1.13 0-.65-.65 1.91-2.43 2.39-5.1 2.86-7.62h.05zm-26.18-18.06c.48-.27 1-.71 1.12-.75.48-.29.64-.32.79 0a.21.21 0 01-.15.2 2.155 2.155 0 01-1.44 1.32c-.15 0-.48.12-.48 0-.37-.18-.05-.58.11-.77h.05zm-24.1 18.46l.32-.4c-.13.176-.238.367-.32.57v-.17zm0 25.55c-.17.69-.17 1.48-1.13 1.88-.53.13.11-.83 1.08-1.88h.05zm-6.55 61.84a.427.427 0 01-.32-.07.625.625 0 01-.17-.44l.8-1.17a114.12 114.12 0 007.83-8.65 3.11 3.11 0 01.8-.52c.15 0 .48 0 .48.19.021.242-.039.485-.17.69-2.39 3.31-4.79 6.78-8.29 9.42-.301.243-.643.43-1.01.55h.05zm3.51.08a1.002 1.002 0 01-.64.33s-.17 0-.17-.13l-.15-.12c.124-.324.285-.633.48-.92 2.23-2.47 4.47-4.94 6.54-7.37.33-.4.64-.48.81-.37a.511.511 0 010 .64 37.321 37.321 0 01-6.92 7.94h.05zm6.39 9.74c-.17 0-.17-.27-.17-.44a2.786 2.786 0 011.12-1.07.396.396 0 01.31.08c-.05.69-1 1.69-1.31 1.43h.05zm1.11-5.7a24.53 24.53 0 01-3.51 3.12c-.32.07-.64.15-.8 0a.772.772 0 010-.81 9.52 9.52 0 011.44-1.95c3.6-3.913 6.944-8.055 10.01-12.4.294-.37.629-.706 1-1l.31-.07a.13.13 0 01.062-.005c.02.004.04.013.057.025.016.013.03.03.039.049.009.019.013.04.012.061a.858.858 0 01-.17.67c-2.78 4.17-4.98 8.56-8.5 12.27l.05.04zm15.81-16.87c-1.92 3-3.68 6.18-5.59 9.21a66.02 66.02 0 01-6.07 7.9c-.48.6-1.11 1.08-1.59 1.67-.48-.51 0-.95.16-1.3 4.63-6.11 8.61-12.54 12.77-19 .8-1.15 1.6-2.3 2.4-3.31a.85.85 0 01.213-.267.848.848 0 01.967-.073c-1.14 1.66-2.21 3.34-3.31 5.17h.05zm9.59-85.27c-.65 3.67-1 7.1-1.92 10.7-1.28 5.43-2.88 10.77-4.32 16.25l-1 2.47a84.695 84.695 0 00-3.35 10.89 22.018 22.018 0 01-2.24 5.83 129.252 129.252 0 00-3.83 9.1 32.283 32.283 0 01-2.87 6.47 4.05 4.05 0 00-.48.92c-1.43 4.18-4.15 7.89-6.54 11.85-.308.468-.579.96-.81 1.47-1.43 3.39-4 6.42-6.39 9.58a52.224 52.224 0 01-8.46 8.34c-3 2.34-4.15 1.83-4.63-1.56a19.078 19.078 0 011.13-8.9 103.86 103.86 0 003.35-11.55c.63-1.91 1.28-4 1.76-5.86.63-2.08 1.11-4.27 1.59-6.31a1.82 1.82 0 01.48-1.71c.32-.72.8-1.32 1.11-2 .32-.39.48-.92.17-1.15-1.44-.92-.48-2 .48-2.68a8.243 8.243 0 002.54-4c2.24-5.66 5.28-11.21 7.83-16.8a27.61 27.61 0 001.28-3l-1 .71c-.17 0-.48.12-.48 0-.17-.11 0-.32 0-.48l1.43-1.31v1.12a130.834 130.834 0 006.7-11.26l-3.67 3.8a27.569 27.569 0 011.91-3.52l3.68-5.71a10.41 10.41 0 013.36-3.71c.79-.52 1.44-1.15 1.27-1.92-.15-1.23.65-2.22 1.28-3.18 1-1.36 2.08-2.44 3-3.79v.16a17.804 17.804 0 013.35-5.15 1.209 1.209 0 011.44-.68 3.18 3.18 0 012.87 3.43 22.7 22.7 0 01-.07 3.14h.05zm-5.59-2.6a2.97 2.97 0 01.63-.79c.195-.233.357-.492.48-.77a4.059 4.059 0 01-.63.81c-.221.216-.4.47-.53.75h.05zm-.65.8c.176-.297.395-.567.65-.8a1.805 1.805 0 00-.7.8h.05zm-1.11.92c.63.32.8-.37 1.11-.92-.445.217-.84.523-1.16.9l.05.02zm-11 17.91c.188-.489.405-.967.65-1.43-.327.43-.574.914-.73 1.43h.08zM507.38 147.85l.32-.56c-.16.21-.32.4-.32.56zm-.48.44c.17-.19.32-.23.48-.44-.16.04-.31.25-.48.44zm-.31 117.77c.15-.19.15-.36.31-.56v-.32a2.284 2.284 0 01-.31.88zm-.65 1.28c.267-.399.485-.829.65-1.28l-.65 1.28zm-.79-116.7l.31-.55a1.19 1.19 0 00-.31.55zm-.48.44l.48-.44c-.15.04-.32.25-.48.44zm-4.95 5.71l.48-.44c-.2.04-.33.25-.48.44zm-3.52 3.91l-1.44 1.79a4.765 4.765 0 001.76-2 .635.635 0 01-.32.21zm-2.4 3h.17l.31-.57-.48.57zm-2.54 2.87a10.78 10.78 0 002.71-2.91 7.567 7.567 0 00-2.71 2.91zm-1.92 1.75c.31-.08.31-.24.48-.44-.17.04-.32.24-.48.44zm-12.78-18.21c0 .16-.16.2-.31.39.15 0 .15.13.15 0 .16 0 .16 0 .33-.23a.122.122 0 00-.022-.147.116.116 0 00-.072-.032.113.113 0 00-.076.019zm27.31 120a102.961 102.961 0 01-9.42 12.58c-3.67 4.42-7.35 8.69-11.35 12.73-2.39 2.35-4.78 4.71-7 7a3.518 3.518 0 00-1.27 1.61.364.364 0 00.16.27h.15a4.295 4.295 0 001.28-1c3.52-3.58 7.18-7.06 10.55-10.76 3.18-3.2 6.07-6.47 8.94-9.9 2.24-2.79 4.31-5.7 6.22-8.58 1.28-1.76 2.72-3.71 3.2-5.91a19.424 19.424 0 01-1.46 1.93v.03zm17.25-127.56a4.347 4.347 0 01-.64-1.61c-.17-1.39-1-1.51-2.24-.72a14.364 14.364 0 00-3 3 26.68 26.68 0 01-3 3.79 6.618 6.618 0 01-2.24 1.52 40.3 40.3 0 015.26-6.74l1.44-1.48c.17-.21.32-.57 0-.65l-.48.12c-.63.48-1.27 1.13-1.75 1.57-1.6 1.83-3.36 3.54-4.95 5.38-4 5-8.15 9.86-12.14 14.84l-5.11 5.59a7.996 7.996 0 01-2.08 1.79c-.63.32-.79 0-.79-.6a1.808 1.808 0 01-1.512.094 1.796 1.796 0 01-1.048-1.094 12.601 12.601 0 01-1.59-4.23c-.33-3.75-2.09-6.83-3.35-10.18-.65-2.09-2.24-2.16-4.32-1.48l-2.23 1c-1 .55-1.12.75-1.12 1.87.237 1.386.394 2.785.47 4.19a24.746 24.746 0 003.3 11.98 38.187 38.187 0 008.63 10.95 10.76 10.76 0 003.51 2 6.068 6.068 0 003.36.29 5.2 5.2 0 003.51-2c.65-.81 1.44-1.65 2.24-2.49a42.785 42.785 0 003.35-4c1.91-2.87 3.35-6 5.43-8.71.81-1 1.28-2.22 2.55-3 .65-.32.8-1.15 1.13-1.87a37.397 37.397 0 012.71-4.19c.79-1 1.44-2 2.23-3.11.79-1.11 1.6-2.48 2.56-3.67a16.782 16.782 0 001.92-3.51 4.113 4.113 0 00-.01-4.67v.03zm-29.71 28.8a.267.267 0 01-.116.001.255.255 0 01-.177-.139.243.243 0 01-.027-.112.684.684 0 01.17-.51l3.19-3a.513.513 0 01.48 0c.16.11.16.28 0 .48a7.002 7.002 0 01-3.52 3.25v.03zm2.56 7.35l-.17-.29c0-.15.17-.36.17-.52a7.904 7.904 0 012.23-1.51.428.428 0 01.32.08.118.118 0 01.112.017.121.121 0 01.048.103 4.589 4.589 0 01-2.68 2.09l-.03.03zm13.41-17.88a13.23 13.23 0 01-.79 1.47c-2.88 3.6-5.28 7.22-8 10.62a8.005 8.005 0 01-3.36 2.59 4.886 4.886 0 00-1.27 1.11l-.48.13c-.16 0 0-.32.31-.57a6.209 6.209 0 011.44-.67 88.036 88.036 0 008.64-10.5 20.35 20.35 0 013.51-4.23 1.13 1.13 0 01.32-.56c-.049.22-.16.422-.32.58v.03zm4-4.83c-.63.8-1.11 1.88-2.07 2.11.309-.948.861-1.8 1.6-2.47.463-.446.891-.928 1.28-1.44-.34.53-.49 1.22-.82 1.81l.01-.01zm4-6.11c-.17.2-.17.52-.32.88l-.48.44c-.48-.2 0-.47.15-.68l.65-.64a8.998 8.998 0 012.55-3.82c.62-.51-.64 1.88-2.56 3.79l.01.03zM474.17 151c-.16.21-.16.36-.33.4.17.13.33.25.33.09.16 0 .16-.21.32-.25l-.32-.24zm-13.1 104.51c.187-.491.401-.972.64-1.44-.27.46-.484.95-.64 1.46v-.02zm10.7 51.49c0-.16-.32.07-.48.11-1.28 1.13-2.71 2.28-3.83 3.35a8.508 8.508 0 01-2.71 1.8l-4.79 5a8.008 8.008 0 01-3.84 2.56h.16l-1.91 2.4a8.071 8.071 0 003.35-2l4.63-4a23.265 23.265 0 013.51-3.11 54.15 54.15 0 005.76-5.43c.15-.21.47-.44.15-.68zm-18.68-33.67c1.28-2.24 2.87-4.38 3-6.83a15.453 15.453 0 00-3 6.83zm-.32.4l-.16.2c.16.11.16.11.32-.08 0-.13.11-.29.13-.41-.06.07-.16.14-.29.29zm-.31 50.06c.47-.29 1-.56 1.26-.8l-1.26.8zm-2.38 2.11l.14-.12a.148.148 0 00-.14.12zm0 .09a.195.195 0 010-.09l-.67.57c.229-.134.443-.292.64-.47l.03-.01zm11-70.46c.187-.491.401-.972.64-1.44-.272.453-.49.937-.65 1.44h.01zm-4.95 11a15.453 15.453 0 00-3 6.83c1.24-2.27 2.87-4.36 2.99-6.86l.01.03zm-3.51 7.43c.16.11.16.11.32-.08 0-.13.11-.29.13-.41-.05.07-.16.14-.29.29l-.16.2zm61.16-38.09a6.533 6.533 0 01-.33-2.47 32.107 32.107 0 00-.79-6.83 79.812 79.812 0 00-9.1-24.56 22.813 22.813 0 00-7.66-8.31 21.301 21.301 0 00-14.05-3.84 40.795 40.795 0 00-10.7 1.88 9.205 9.205 0 01-1.92.63 29.078 29.078 0 00-9.74 4.5 16.15 16.15 0 01-2.56 1.29 60.99 60.99 0 00-12.93 8.3 11.344 11.344 0 00-2.39 2.83A3.995 3.995 0 00441 213a4.798 4.798 0 010 3.36 1.641 1.641 0 00.64 2.07c1 .4 2.39.2 2.87 1.35 0 .33.65.17 1.13.21l2.07-.52c1.75-.28 2.56.64 1.75 2.6a21.545 21.545 0 01-3.19 6.23 21.115 21.115 0 00-2.39 4.42 182.275 182.275 0 00-8.31 20c-2.39 7-5.59 13.85-8.62 20.83-1.76 3.95-4 8-5.75 12.14-1.59 3.91-3.35 7.7-5.11 11.49l-3.67 7.62a6.38 6.38 0 00-.49 4.44c.33 1.35 1.13 1.47 2.09.44l2.39-2.68c.15 0 .48-.12.48 0 .15 0 .15.28 0 .48-.64 1.12-1.28 2.08-1.76 3.15-.16.36-.31.71 0 .8 0 .16.32-.09.48-.13l2.56-2.7c.32-.25.63-.48.8-.21a.504.504 0 010 .65c-.65 1-1.43 1.95-2.08 3.07-1.11 1.87-1.11 2.68 0 3.83.461.287.89.622 1.28 1 .8.77.48 1.65-.48 2.37-.8.52-1.6.87-2.39 1.39-1 .4-2.09.84-3.2 1.43-2.08 1.17-2.72 2.76-2.08 4.52a3 3 0 001.45 1.55 5.183 5.183 0 011.91 2.88c1 3.59 3.51 5.35 7.18 5.88l2.87.71c1.447.478 3 .537 4.48.17a15.02 15.02 0 004.15-1.68c2.55-1.27 4.95-3 7.66-3.51a6.524 6.524 0 001.92-1.27 112.79 112.79 0 0111.82-9.82 7.372 7.372 0 012.71-1.63c2.4-3.15 4.95-6 8.63-7.58a8.84 8.84 0 012.23-2.79c4.95-4.75 9.75-9.46 14.38-14.44a237.068 237.068 0 0022-26.58 22.907 22.907 0 002.39-4.11 10.806 10.806 0 011.76-3.14c1.29-1.44 2.4-2.68 2.07-4.52a6.54 6.54 0 011-2 11.617 11.617 0 001.44-4.36 8.3 8.3 0 011-3.75 6.44 6.44 0 00.48-1.87c.06-3 .54-5.99.22-8.95l.01.03zm-67.86-25.71c-.17-.28 0-.48.31-.72.384-.384.814-.72 1.28-1a92.54 92.54 0 0120.29-9.68c.292-.184.613-.32.95-.4l.64-.17c1.11-.11 1.91 0 1.59.4-.31.73-1 .73-1.59 1.05a109.846 109.846 0 00-21.25 9.76l-1.74.76c-.18.05-.49.13-.49-.03l.01.03zm20.08-7.92a6.463 6.463 0 01-2.4 1.4c-5.27 2.26-10.38 4.82-15.65 7.57-.32.24-.8.36-1.11.59-.17 0-.17-.12-.33-.08-.16.04 0-.31.16-.51a13.392 13.392 0 011.91-1.27 92.252 92.252 0 0114.07-7 8.275 8.275 0 013.35-.7zm-17.9 15.32a2.34 2.34 0 00-.95.4 1.124 1.124 0 01-.64 0 .267.267 0 01-.116.001.255.255 0 01-.177-.139.243.243 0 01-.027-.112c-.16-.11 0-.48.17-.51.283-.346.62-.643 1-.88a135.776 135.776 0 0119.16-7.5 4.572 4.572 0 011.43 0 .113.113 0 01.113.007.12.12 0 01.038.045.115.115 0 01.009.058v.33l-.48.44c-.668.332-1.36.613-2.07.84-5.92 2.08-11.67 4.46-17.43 7.02h-.03zm7.35-1v.33c-.15 0-.32.23-.48.27-.32.08-.32-.24 0-.48l.48-.12zm-19.16 86.85c.322-.75.693-1.478 1.11-2.18 1.29-2.24 2.57-4.48 3.85-6.55a5.158 5.158 0 011.11-1.4c0-.15.32-.23.48-.27a.99.99 0 00.15.43c-.173.492-.384.97-.63 1.43a87.409 87.409 0 01-5.43 9c-.16.2-.48.6-.64.32a.779.779 0 01.03-.82l-.03.04zM426.1 294h.16c.17.11.17.11.17.27a5.162 5.162 0 01-1.13 1.87c.207-.734.475-1.45.8-2.14zm-3.35 21.92a.533.533 0 01-.65-.17.49.49 0 010-.63c.33-.4.65-1 1-1.36l4.95-5.23c.28-.147.548-.318.8-.51.15 0 .32-.08.32.07 0 .15.16.29.16.44-1.79 2.79-3.55 5.47-6.58 7.34v.05zm8.14 4.67c-.64.32-1.27.48-1.75.76-.17 0-.32.08-.32-.09v-.47l2.55-2.23c6.87-5.23 13.26-10.65 19.64-16.39 6.06-5.67 11.82-11.41 17.41-17.44 1.59-1.68 3.2-3.35 4.63-5a11.668 11.668 0 012.55-2.24 30.145 30.145 0 01-2.55 3.5 234.509 234.509 0 01-34 33.57c-2.73 2.07-5.29 4.14-8.16 5.98v.05zm4.63-1.15a.69.69 0 01.17-.52 8.814 8.814 0 011.11-.92 337.712 337.712 0 0029.54-26.84 19.987 19.987 0 013.66-3.36 8.347 8.347 0 012.56-2.4l.64-.8a3.508 3.508 0 01-.64.8 6.507 6.507 0 01-2.39 2.51 9.197 9.197 0 01-2.24 2.95 214.207 214.207 0 01-27.79 25.77 22.666 22.666 0 01-4.15 2.8c-.15.19-.3.08-.47-.04v.05zm55.57-40.52C489.5 281 487.9 283 486.3 285c-5.74 6.71-11.66 13-17.88 19.15l-4.95 4.58c-5.11 4.63-10.06 9.06-15.34 13.25a71.862 71.862 0 01-8.61 6l-2.09 1c-.31.09-.78.21-.78-.27-.17-.28.15-.68.31-.88a5.408 5.408 0 011-.88 173.962 173.962 0 0017.73-13.84c8.78-7.93 17.41-16.15 25.55-24.89l7.67-8.3a5.83 5.83 0 012.23-2l.32-.09a.44.44 0 01.17.29c-.22.18-.22.5-.54.75v.05zm-4.47-13.42a8.89 8.89 0 011.76-2.2l.64-.8c-.17.299-.386.568-.64.8a5.741 5.741 0 01-1.28 2.24c-.15.2-.32.23-.32.08l-.16-.12zm9.38-42.96a88.83 88.83 0 01-2.24 10.62c-1.74 5.38-4.46 10.69-6.85 15.76a16.242 16.242 0 01-2.72 4c-1.28 1.92-2.56 3.83-3.67 5.71a8.994 8.994 0 01-1.44 2.28c-3.52 3.74-6.07 8.21-9.74 11.84a38.491 38.491 0 00-5.91 6.75c-.64.79-1.6 1.67-2.4 2.51-3.35 3.54-6.7 7.26-10.06 10.65-3 3-6.07 5.51-9.1 8.34-.32.23-.63.31-.8.2-.17-.11-.16-.44-.16-.6a12.17 12.17 0 011.76-4.27c1.27-2.56 2.71-5.15 3.2-8a7.913 7.913 0 01-1.28 1.11c-.17.21-.48.29-.48.12-.32-.56.15-1 .48-1.4.33-.4.63-.63 1-.23l.32.4a45.52 45.52 0 003.35-6.43c.15-.2 0-.33 0-.48-.48.12-.65.48-1 .88-.48.59-.8 1.63-1.76 1.72a3.239 3.239 0 01.64-2.08c.34-.843.769-1.648 1.28-2.4a27.818 27.818 0 002.28-4.54 50.698 50.698 0 012.87-6.3c.316-.9.865-1.7 1.59-2.32a.76.76 0 011 .08c1.6-2 2.4-4.42 3.36-6.58.64-1.44 1.11-3 1.59-4.39-.63.32-1.11.44-.95-.4a10.346 10.346 0 012.06-4.19 3.638 3.638 0 00.81-2.44 6.994 6.994 0 01.95-3.42c1.29-2.72 1.29-5.59 1.76-8.27.16-1-.15-1.55-1.11-1.63-.8 0-1-.57-1-1.2a26.63 26.63 0 00-.32-3.6 7.892 7.892 0 00-1-3.27 4.342 4.342 0 00-2.56-2.55 2.995 2.995 0 01-2.55-2.24 3.88 3.88 0 00-2.24-2.49c-.8-.44-.63-1.43.48-2 2.24-.88 4.31-2.51 6.7-2.64a18.521 18.521 0 004.8-1.66 7.114 7.114 0 013.51-.88l8.46-.68a25.407 25.407 0 0110.55 1.7 11.395 11.395 0 015.74 4.78 5.794 5.794 0 01.8 4.13zm-39.28 40.13a.698.698 0 00.132-.244c.028-.089.037-.183.028-.276.15-.19.32-.4.32-.23s0 .16-.17.35l-.31.4zm4.31-7.14c.187-.491.401-.972.64-1.44a6.848 6.848 0 00-.6 1.44h-.04zm-4.95 11a15.453 15.453 0 00-3 6.83c1.29-2.27 2.92-4.36 3.04-6.86l-.04.03zm-3.51 7.43c.16.11.16.11.32-.08 0-.13.11-.29.13-.41-.05.07-.16.14-.29.29l-.16.2zM597 223.88l1.11-1.87a4.99 4.99 0 00-1.11 1.87zm-2.24 3.91c-.32.4-.48.92-.8 1.32 0 .32-.16.52-.16.67l.48-.59c.13-.52.93-.88.45-1.4h.03zm-4 7.54c.17-.19.33-.23.48-.44v-.31a2.575 2.575 0 01-.51.75h.03zm-.63 1.44c.301-.435.515-.924.63-1.44-.18.52-.51.92-.66 1.44h.03zm-1.11 2c.31-.57.79-1.32 1.11-2-.35.72-.83 1.32-1.13 2.04l.02-.04zm-.65 1.44c.187-.493.404-.974.65-1.44a6.42 6.42 0 00-.68 1.48l.03-.04zm-.63 1.09l.63-1.09c-.28.42-.47.79-.66 1.13l.03-.04zm-.65 1.14l.65-1.14a7.999 7.999 0 01-.65 1v.14zM584 248a18.563 18.563 0 003-5.55 20.39 20.39 0 00-3 5.55zm-.63 1.28h.15c.12-.27.25-.64.37-1a4.507 4.507 0 01-.49 1.03l-.03-.03zm0 0a2.018 2.018 0 01-.43.62 6.06 6.06 0 00.58-.66l-.15.04zm-3.2 5.42c-4.31 8.59-8.15 17.36-12.13 26a10.959 10.959 0 00-1 2.95 149.948 149.948 0 006.7-13.65c2.39-5.55 5.11-11 7.83-16.64.462-.964.833-1.968 1.11-3-.89 1.57-1.68 3.06-2.48 4.37l-.03-.03zm-13.74 29.78l.65-.65v-.15l-.65.8zm-.63 1.44c.268-.396.48-.826.63-1.28v-.16c-.12.52-.43.94-.6 1.52l-.03-.08zm-27.28-25.42a46.33 46.33 0 004.32-11.3 73.274 73.274 0 00-4.32 11.3zm-.64 1.43c.305-.43.523-.916.64-1.43-.183.49-.397.967-.64 1.43zm-.63 1.44h.15l.33-.94a7.841 7.841 0 01-.48.94zm-2.08 4.83c-2.72 7.21-5.27 14.41-7.83 21.74a45.441 45.441 0 00-2.71 9 29.536 29.536 0 002.4-5.86c1.43-4.35 3-8.9 4.63-13.29 1.75-4.91 3.51-9.66 5.27-14.56l.47-1.88a18.195 18.195 0 00-2.23 4.85zm-11.82 35a7.003 7.003 0 001.12-3.63 10.25 10.25 0 00-1.12 3.67v-.04zm114.81-132v.17c-1.11.27-1.91.16-2.07-.93 0-1-.17-1.71-.17-2.67a7.106 7.106 0 00-1.11-3.23 2.48 2.48 0 00-2.56-.8 4.39 4.39 0 01-1.27.48c-1.12.44-1.43.19-1.28-1a6.37 6.37 0 01.16-1.8 2.295 2.295 0 00-.31-1.51c-1.44-1.88-4.64-1.41-6.55.82l-1 1.52a12.11 12.11 0 01-6.23 4.91 12.506 12.506 0 00-5.27 3.39 24.148 24.148 0 00-4.31 5.71l-1.43 2.26A245.065 245.065 0 00590.1 202l-1.92 2.87c-1.75 2.83-3.67 5.71-5.26 8.66-1.76 3.15-3.36 6.43-5.76 9.26-.48.75-1 1.67-1.91 1.91-.48.12-.64-.8-.48-2.44a.209.209 0 01.15-.2c1.45-5.95 1.45-11.69 2.72-17.44a3.653 3.653 0 00-.16-2.35 5.394 5.394 0 010-3.84c.16-.35.16-.84.33-1.36.15-4.35.31-8.7.15-13 0-1.28-.15-2.67-1.11-3.4a10.977 10.977 0 01-.8-2.18c-.64-2.89-1.13-5.8-4-7.16 0-.15-.15-.28-.31-.4a4.735 4.735 0 00-3.84-2.39 2.303 2.303 0 01-1.362-.405 2.304 2.304 0 01-.868-1.125c-.32-.88-.95-1-1.76-1.32a5.76 5.76 0 00-4.95 1.09 11.848 11.848 0 00-3.2 3.35 48.036 48.036 0 01-5.59 7.45 8.611 8.611 0 00-1.26 1.91c-1.29 2.24-2.24 4.4-3.68 6.51a46.614 46.614 0 00-4.31 8.43c-1.76 4.26-3.52 8.53-5.43 12.84a106.514 106.514 0 00-4.49 11.34c-.63 2.08-1.43 4.19-2.24 6.14-.31 1.05-.78 2-1.11 2.83a138.706 138.706 0 01-4.3 13.42c-1.6 4.08-3 8.27-4.47 12.45-.79 2.27-1.76 4.76-2.4 7.15-1.28 5.27-3 10.49-4.63 15.84-1.43 4.19-2.71 8.5-3.83 12.78-.8 3.39-1.28 6.86-1.91 10.21a6.675 6.675 0 001.11 5.64c.65 1 1.76.83 2.72.92.63 0 .8-.69 1.11-1.09.31-.4.65-.31.65 0 .15.44.15 1.09.31 1.53a2.992 2.992 0 001.28 2.24c1.12.67 2.08.44 2.87-1a25.428 25.428 0 011.6-2.48c0-.16.33-.24.48-.28.15-.04.33.24.33.41 0 .63-.33 1.34-.33 2.14a.702.702 0 00.16.77l.8-.21a6.321 6.321 0 002.07-3.07c.8-2.6 1.44-5 2.41-7.62 2.07-6.27 4.14-12.53 6.54-18.87 4.14-11.58 8.46-23 12.93-34.69.8-2.28 1.76-4.44 2.72-6.75a12.353 12.353 0 012.39-3.62c-.48 3.14-2.07 6.26-3.2 9.41a25.72 25.72 0 00-2.22 6.47 19.378 19.378 0 002.07-4.67 5.589 5.589 0 012.71-3.23 8.822 8.822 0 010 4.15l-.47 2.83c-.65 6.38-1.76 12.89-2.09 19.2.022.498-.028.997-.15 1.48-.64 2.87-.8 5.63-1.28 8.46-.79 4.83-.31 9.34-.79 14.09a5.99 5.99 0 001.27 4.48c1.28 1.43 2.08 1.39 4-.37.48-.42.81-.35 1 .09l.48 2.28a2.172 2.172 0 001 1.84c1.11 1.15 2.56.79 3.67-1.08a8.754 8.754 0 001.11-2c.33-.56.81-1 1.28-.79.48 0 .48.52.33 1l-.48 1.55a.866.866 0 00.15 1.07 1.128 1.128 0 001.29-.48c.416-.535.787-1.104 1.11-1.7.426-.76.801-1.549 1.12-2.36.31-.56.48-1.24 1.12-1.07.48 0 .32.71.48 1.15l4.15-9.17c-.33.23-.64 1.11-1.28.95-.33-.24 0-.8 0-1.12l1.43-3.39c3.35-7.22 6.55-14.25 9.91-21.31 6.38-12.94 13.25-25.82 20.12-38.4 1.11-2 2.07-3.87 3.2-5.74.15-.37.48-1.08 1.11-1.08.63.16.16.77 0 1.28a5.585 5.585 0 01-.48.92c-.63 1.27-1.11 2.67-1.76 3.95l1-.88c1-.56 1.76-.12 1.6.72a15.993 15.993 0 01-.64 2.55 44.984 44.984 0 00-2.07 7.39c-1.61 7.75-2.4 15.45-4.48 23.14v.65c-.63 4.63-1.11 9.23-1.28 13.9a9.99 9.99 0 001.28 5.74 3.294 3.294 0 002.24 1.84 3.997 3.997 0 013 1.95 8.078 8.078 0 001.75 1.8 2.258 2.258 0 002.71 0c1-.56 1.76-.92 2.56-.31.79.27 1.44 0 2.23-.88a11.44 11.44 0 003-6c.8-5.3 1.76-10.65 3-15.92.17-.35.32-.88-.16-.92-1 1.36-1.11 2.83-1.59 4.23-.17.36-.32.4-.48.28-.17 0-.17-.11-.17-.11a6.44 6.44 0 01.33-1.84c.8-3.4 1.43-6.76 2.39-10 1.76-7.14 3.83-14.36 5.74-21.55.202-.938.473-1.861.81-2.76 2.08-5.63 4.15-11.41 6.22-17l2.88-7.73c.16-.37.32-1 .79-.84.48 0 .17.76 0 1.11-3 7.63-5.42 15.25-8 22.91-1.91 6.22-3.67 12.42-5.59 18.64-.79 2.91-1.59 5.67-2.22 8.54a4.76 4.76 0 00-.33 2.16l.16.12.32-.08c.137-.422.297-.836.48-1.24l3.68-13.21c.95-3.43 1.76-7 2.87-10.45 2.39-6.83 4.94-13.69 7.18-20.48.32-1.36 1-2.47 1.28-3.68 1.25-3.45 2.68-6.94 3.17-10.53a18.75 18.75 0 001.44-4c.16-.67-.15-1.07-.8-1.07a21.669 21.669 0 011.28-4c.422-.75.693-1.576.8-2.43a18.564 18.564 0 011.28-5.74 8.794 8.794 0 00.33-4.82v-.09zM527 279.32a88.292 88.292 0 01-3.52 9.82 1.99 1.99 0 010-1.91l2.87-7.91a.529.529 0 01.32-.55c.51-.12.33.23.33.55zm6.85-44.81a.889.889 0 01.33-.59v-.14l.15-.19v.15a2.167 2.167 0 01-.15.18 2.012 2.012 0 01-.16.7c0 .16-.17.2-.32.4a.709.709 0 01.18-.51h-.03zm1.15 22.87l-5.76 15.49c0 .15-.31.23-.48.44l-.15-.61c.48-1.23.8-2.59 1.28-4a146.726 146.726 0 015.59-14 16.472 16.472 0 01-.48 2.68zm9.26-50.53c.48-.29.16.59-.95 2.14.32-.71.32-1.51.96-2.14h-.01zm-6.54 42.34c0 .17-.33.57-.33.72a1.657 1.657 0 01.16-.84.507.507 0 01.32-.4c-.14.21.01.33-.14.52h-.01zm2.39-5.71a25.646 25.646 0 012.39-8.73 6.568 6.568 0 012.07-2.75 109.63 109.63 0 01-4.45 11.48h-.01zM547 225c.32-.56.32-1.2 1-1.51.43-.28 0 .51-1 1.51zm-.42-23.16c0 .09 0 .18-.06.29l-.16.19v-.16c.08-.11.16-.22.22-.32a12.895 12.895 0 012.66-5.82c-.49 2.12-.79 2.98-2.68 5.83l.02-.01zm4.57-9.34l-.31.09c0-.17-.17-.13-.17-.28a5.808 5.808 0 011.28-1.92 13.425 13.425 0 00-.82 2.12l.02-.01zm17.09 78.3l-.48 1.24-.15.19v-.15c.297-.437.511-.925.63-1.44.146-.18.273-.374.38-.58a6.653 6.653 0 01-.4.75l.02-.01zm4.15-41.75l-.47.12-.16-.12c.16-.52.16-1 .31-1.51 0-.17.32-.41.48-.29l.32.4c-.17.35-.34.89-.5 1.41l.02-.01zm3.36-22.4c0-.15.32-.24.32-.4l.32.4c-.17.37-.17.52-.32.88l-.16.2-.32-.24a1.38 1.38 0 01.14-.83l.02-.01zm-1.12 8.91c0-.16.31-.41.48-.29.16 0 .16.29.16.44a6.722 6.722 0 01-1.28 3.2 4.926 4.926 0 01.62-3.34l.02-.01zm1 23.49a1.615 1.615 0 000 .22l-.05.05a4.41 4.41 0 01-1.23 2 4.996 4.996 0 011.23-2c.022-.068.039-.139.05-.21a.102.102 0 000-.06 4.599 4.599 0 011.23-2 6.435 6.435 0 01-1.24 2.01l.01-.01zm16.55-28.84v-.31a.458.458 0 00.21-.13 1.65 1.65 0 01-.22.45l.01-.01zm3.67-6.6c0 .11 0 .13-.15.3.044-.103.094-.203.15-.3v-.06l.09-.08-.09.14zm.81-1.06l-.48.6c0 .13-.09.18-.21.28.064-.097.134-.191.21-.28l.48-.91v.31zm14.21 64.81h-.16c-.48-.37 0-1.92.64-2.55 0 0 .16 0 .16.11.49.42.14 1.93-.65 2.45l.01-.01zm6.06-97.36l-.17.05.5-.61a2.324 2.324 0 00-.33.56zm16.45 23.84c-.33.4-.48 1.09-1.13 1.09-.31.08-.31-.4-.16-.61.47-1.19.64-1.27 1.67-1.23l-.38.75zm2.07-17.59c-.16 0-.31.07-.31-.08a.133.133 0 00-.051-.11.131.131 0 00-.057-.024.13.13 0 00-.062.004c.109-.747.44-1.444.95-2 .17-.2.17-.2.33-.24l.15.12a4.775 4.775 0 01-.95 2.37v-.04zm-73.77 118.89l-.16.34c.14-.04.16-.19.16-.34zM662.43 230.56a19.115 19.115 0 002.41-6.35 15.917 15.917 0 00-2.41 6.35zm-1.43 4.18l.8-1.15a7.24 7.24 0 00.63-3 9.98 9.98 0 00-1.43 4.15zm24-71.6a7.064 7.064 0 011.74-.75c2.24-.72 4.48-1.43 6.72-2a80.312 80.312 0 0117.24-3.18 45.092 45.092 0 004.79-.56c1.61-.25 2.08-1 1.92-2.72-.31-1.36-.64-2.56-2.07-3-.65-.15-.48-.67-.17-1.23.32-.4 0-.48-.31-.55a19.138 19.138 0 00-3.2-.17c-3.334.36-6.687.877-10.06 1.55l-18.21 4.54c-.63.16-1.59.71-2.07-.13-.32-.4.64-1 2.24-1.51l12.44-3.1a53.625 53.625 0 0115.81-2.18 22.192 22.192 0 003-.27c.63-.16 1.28-1 1-1.52-1.13-2-2.57-3.67-5.44-3.59-4.63.19-9.26.38-14.05 1.74-1.59.56-3 .75-4.63 1.15a312.52 312.52 0 01-16.29 4.07c-.48.11-1 .4-1.44.51-2.23.88-4.3 1.4-6.39 2.07-.923.202-1.826.483-2.7.84-1.93 1-3.67 3.32-3.67 4.91-.17 1.32.47 1.8 1.59 1.51 1.12-.29 2.08-.67 3-.92 1.91-.46 3.66-1.07 5.42-1.5 1-.24 1.28 0 1.12.35a1.753 1.753 0 01-1 1c-.65.16-1.45.53-2.09.68l-5.43 1.84a4.317 4.317 0 00-1.27.46.725.725 0 00-.48.61c0 .16.31.24.48.2 1.59-.4 3-.92 4.63-1.48a6.37 6.37 0 012.88-.71c.15 0 .47 0 .47.19s-.15.52-.32.56c-.583.521-1.3.868-2.07 1l-4.13 1.56a7.296 7.296 0 00-1.76.75 3.83 3.83 0 00-1.76 3.47c.17 1.24.65 2.08 2.08 2.05h1.27c.8 0 1.13.51.48 1.31a6.734 6.734 0 00-1.44 3.24 12.791 12.791 0 01-1.27 3.35c-1.76 3.16-3 6.34-4.47 9.42a48.745 48.745 0 01-2.87 6.14 65.596 65.596 0 00-5 10.17c-1 2-1.59 3.92-2.72 5.8a29.201 29.201 0 00-1.59 3.75c-2.07 6.26-4.63 12.49-7.18 18.71-2.08 5-4.63 10-6.23 15.14-1 2.62-1.92 5.26-3 7.94a53.394 53.394 0 00-2.87 10 8.987 8.987 0 00.15 3.64 9.587 9.587 0 002.87 4.55 13.8 13.8 0 013.83 4.16 8.507 8.507 0 005.59 3.39c2.268.388 4.573.509 6.87.36a13 13 0 006.55-2.11 21.817 21.817 0 013.52-1.84c1.43-.67 2.7-1.47 4.15-2.3l3.66-2.35a22.647 22.647 0 005.44-3.76 3.903 3.903 0 011.76-.91 12.015 12.015 0 002.87-1.67c.8-.52 1.59-.88 2.24-1.36 1.28-.64 2.54-1.28 3.83-2.07a43.908 43.908 0 0110.69-4.75 5.892 5.892 0 002.88-1.51c1-.88 1.28-2.09.48-2.68a8.6 8.6 0 01-1.6-2.8 5.61 5.61 0 00-5.11-4.31 3.997 3.997 0 01-2.56-1.44 4 4 0 00-3.67-2 14.889 14.889 0 00-5.42.4 39.598 39.598 0 00-8.94 3.51c-2.24 1.19-4.32 2-6.55 3.07-1 .55-1.93 1-2.56-.17-.16-.12-.48 0-.8.2-.48.28-1 .24-.79-.28.63-2.39.79-5 1.91-7.35l2.55-6.53c1.13-3.33 2.08-6.59 3.2-9.91.32-.87.8-1.63 1.11-2.36.17-.35.65-.63.8-.35.17.12.17.44.17.75a5.518 5.518 0 001.27-3.35c.263-.338.479-.712.64-1.11a5.609 5.609 0 015-3.95 29.851 29.851 0 007.82-2.75 31.586 31.586 0 013.52-1.36 33.119 33.119 0 006.38-2.38 22.99 22.99 0 017.83-1.8l2.39-.11a4.731 4.731 0 002.87-1.36 4.22 4.22 0 001-1.36c.17-.67-.311-.87-.791-1.08-.48-.21-.639-.8-.479-1.47.16-.67.16-1 .31-1.51a3.333 3.333 0 00-.78-3.48l-.81-.77a8.465 8.465 0 01-3.19-4 3.177 3.177 0 00-1.44-1.57 8.153 8.153 0 00-5.26-1.55 36.696 36.696 0 00-4.16.39 72.034 72.034 0 00-7.82 1.47c-1.12.29-1.76-.36-1.6-1.36 0-.32.16-.67.16-1 1.28-5.11 2.87-10.3 4.31-15.29a6.204 6.204 0 014.78-4.7 9.005 9.005 0 003.68-1.72c-.81.065-1.611.212-2.39.44l-2.4.59c-.15 0-.32-.07-.48-.19.16-.21.16-.53.33-.57.661-.342 1.354-.62 2.07-.83a103.192 103.192 0 0116.44-4.1.511.511 0 01.479 0 .25.25 0 01.321.23 1.116 1.116 0 01-.321.57c-1.448.532-2.945.92-4.469 1.16-1.452.23-2.89.534-4.31.91-.33.09-1 .09-1.13.76 5.44-1.19 10.87-2.55 16.29-3.26a9.777 9.777 0 005.28-2.58c.15-.21.48-.44.31-.73 0-.32-.31-.4-.63-.48a20.256 20.256 0 00-5.591.12 89.935 89.935 0 00-8.939 1.75c-4.48.95-8.79 2-13.1 3.1l-3 .76c-.32.08-1 .08-.8-.44-.07-.29.25-.52.62-.77zm-19.33 57.35c.31-.54.32 0 .47 0-.2.07-.34-.03-.51 0h.04zm18-63.42c-.33.08-.64-.15-.48-.51a.442.442 0 01.32-.4 2.29 2.29 0 011-.41c6.38-1.74 12.77-3.5 19.31-4.81a18.642 18.642 0 012.88-.24c.17 0 .32.24.32.4a.467.467 0 01-.32.4l-4.31 1.07-6.87 1.24c-3.2.95-6.22 1.87-9.42 2.67a12.3 12.3 0 01-2.42.59h-.01zM842.09 141.85a12.681 12.681 0 001.75-1.4c-.47.44-1.12.44-1.75 1.4zm-19.64 81.23c-2.4 2.51-4.48 4.94-6.55 7.54a12.413 12.413 0 002.55-1.76c2.24-2.47 4.79-4.7 6.54-7.69a7.462 7.462 0 00-2.54 1.91zm-12.62 12.72a13.622 13.622 0 006.07-5.18 30.179 30.179 0 00-6.07 5.18zm-7.83 5a19.241 19.241 0 007.83-5c-2.83 1.36-5.59 2.68-7.83 4.99v.01zm-3 2c1.29-.15 2.09-1.16 3-2-2.08.82-3.67 2.02-3 2.02v-.02zm-28-27.66v1.28a10.253 10.253 0 002.08-3.24c-.78.68-1.41 1.32-2.08 1.96zm82.55-89.09a26.142 26.142 0 01-.31-3.6 11.875 11.875 0 00-.8-3.31c-.8-2.2-1.59-4.39-2.55-6.55a8.93 8.93 0 00-7.35-5.35 20.178 20.178 0 00-7.19.36c-6.38 1.11-12.61 3.45-19 6.17-4.48 1.75-8.79 4.43-13.09 6.94a99.04 99.04 0 00-11.51 7.49c-2.39 1.87-4.78 3.59-7.19 5.79-.79.68-1.59 1.35-2.55 2.07-.649.461-1.273.955-1.87 1.48a27.81 27.81 0 00-3.56 3.71c-4 4.83-5.59 9.69-4.63 14.88.569 2.546.888 5.142.95 7.75a10.582 10.582 0 001.28 5.59 22.096 22.096 0 0010.38 9.87c6.39 3.2 12.78 6.39 20 8.28a32.357 32.357 0 016.39 3c1.76 1 1.92 2.23.81 4.58l-.17.21a49.15 49.15 0 01-12.14 14.68 25.588 25.588 0 00-3.35 2.74 31.096 31.096 0 01-8 5.67 26.434 26.434 0 00-4.48 2.07 22.37 22.37 0 01-7 1.76c-1.78.253-3.595.043-5.27-.61-1.43-.27-1.76-1-1.28-2.55a17.27 17.27 0 011-2.79v-1.28a5.814 5.814 0 011.6-3.43 28.73 28.73 0 001.75-2.52.453.453 0 000-.48c-.16-.12-.31-.08-.63 0-.29.139-.563.314-.81.52-.6.479-1.239.907-1.91 1.28-.16.19-.48.28-.63 0a.478.478 0 010-.64l.63-1.12c.518-.565.999-1.163 1.44-1.79.95-1.52.95-3.12 0-3.84-.79-.92-1.92-.48-2.88.24l-1.11.76a8.485 8.485 0 01-3.34 1.48 37.238 37.238 0 014.13-3.76c-1.44.84-2.87 1.52-4.46 2.39-.33.08-.64 0-.64-.31a.715.715 0 01.027-.276.717.717 0 01.133-.244l3.19-2.71c1-.73 1-1.69 0-2.09-1.76-1-4.47-.63-6.54 1.17a32.225 32.225 0 00-4.32 4.58 10.595 10.595 0 00-2.4 5.7 22.005 22.005 0 00.33 7.27 53.686 53.686 0 004.15 12.22 25.998 25.998 0 004.31 6.6 30.807 30.807 0 009.89 7.27A25.992 25.992 0 00787 246c3.18-.32 6.54-1 9.57-3.66a15.2 15.2 0 012.39-1.57 71.91 71.91 0 008.31-5.42 47.018 47.018 0 007.18-6.26c3.36-3.39 6.87-6.66 10.22-10.21a21.255 21.255 0 005.43-8.88l1-4.88c-1.43-.11-1.59-.23-1.11-1.47.31-.88 1-1.67.79-2.76a44.135 44.135 0 00-2.55-12.29 53.13 53.13 0 00-3.2-6.81 46.133 46.133 0 00-2.71-4.33 30.394 30.394 0 00-8.46-8.91 44.66 44.66 0 00-9.75-5.07c-2.71-1.09-5.42-2.17-8.13-3.41-1.28-.627-1.28-1.583 0-2.87.391-.461.819-.889 1.28-1.28 2.07-1.63 4.14-3.58 6.22-5.23a97.258 97.258 0 019.74-7.37c1.76-1.08 3.51-2.32 5.27-3.39 4-2.28 8-4.39 12-6.19.48-.11.79-.34 1.27-.47 1.12-.28 1.6-.08 1.76 1.16.385 1.732.599 3.497.64 5.27 0 1.76.79 2 2.55 1.12l2.4-1.07c.16 0 .47-.13.47 0s0 .48-.15.51l-2.4 1.88c-.16 0-.32.4-.32.56 0 .32.32.4.65.32a11.707 11.707 0 003.51-1.84l7.34-5.34c.31-.25.79-.69 1.12-.12-1.12 1.56-2.88 2.47-4.16 3.91a16.521 16.521 0 004.63-3.23 5.45 5.45 0 002.09-2.28c1.21-2.68 2.65-5.43 1.68-8.07h-.02zm-90.03 81.05c-.46 0 .1-.6 1.24-1.2-.39.53-.69 1.1-1.24 1.2zm24.59 20.9c.15-1.31 1.28-1.59 1.91-2.07 3.83-2.55 7.83-5 11.51-8a12.404 12.404 0 014-2.28 59.825 59.825 0 01-9.09 8 34.236 34.236 0 01-5.92 3.55 4.553 4.553 0 01-2.41.8zm6.87-1.71c2.72-1.8 5.59-3.79 8.31-5.74.31-.08.78-.52 1.11-.12a28.861 28.861 0 01-11.5 8.14 7.932 7.932 0 012.1-2.32l-.02.04zm16.77.61c0 .17-.17.36-.33.56a51.139 51.139 0 01-15.33 11.17 2.682 2.682 0 00-1 .39c-.15-.11-.47 0-.63 0-.16 0-.32-.23-.32-.39s0-.49.15-.53a5 5 0 012.09-1.78c4.46-2.87 8.78-6 13.24-9.21a9.186 9.186 0 011.61-1c.15 0 .48 0 .48.21a.488.488 0 01.04.54v.04zm-7.2-99a77.213 77.213 0 017.35-4.54 114.724 114.724 0 0116-7.34 58.946 58.946 0 018.78-2.19c.32-.07.65-.15.65.33a1.477 1.477 0 01-.49.44c-1.12.42-2.4.9-3.51 1.34l-9.11 3.24a176.24 176.24 0 00-17.72 8.41l-1.75.91s-.17 0-.17-.11-.18-.3-.03-.5v.01zm28.91-10.08c-.64 1-1.6.88-2.55 1.28-6.07 2.47-12.14 4.94-18 7.85-.32.24-.63.31-1 .56-.15 0-.63.15-.63-.16.049-.215.156-.412.31-.57A6.785 6.785 0 01813 126a118.01 118.01 0 0114.7-7 23.42 23.42 0 013.2-.94c.8-.12 1.77-1.33 2.56-.25v.01zm-44.24 23.65c0 .48-.31.71-.63 1.11a27.02 27.02 0 01-3.68 3c2.09-2.76 2.09-2.76 4.31-4.12v.01zm44.56-10.64a6.856 6.856 0 01-2.24 1.36c-4.79 1.84-9.26 4.54-13.73 7.1a123.644 123.644 0 00-19.63 14.31 13.537 13.537 0 01-4.16 2.95 11.203 11.203 0 012.87-3.42c6.23-5.39 12.45-10.46 19.49-14.44a113.228 113.228 0 0115.48-7.86 2.54 2.54 0 011.76-.44c.16 0 .16.13.16.13v.31zm4.31-5.06a4.53 4.53 0 01-2.24 1 115.256 115.256 0 00-20 8.81c-3.84 2.07-7.52 4.43-11 6.74a7.502 7.502 0 01-2.09 1.31l-.15-.12a.37.37 0 01-.111-.122.37.37 0 01-.049-.158l1.28-1.27a94.293 94.293 0 0111.66-8 84.309 84.309 0 0117.08-8.09 17.007 17.007 0 015.43-1.51c.33-.09.64.15.8.59a3.495 3.495 0 01-.61.81v.01zM898.61 110.51c0-.8-.16-1.24-1.11-1-.8.19-1.13-.21-1.13-.85 0-1.6 0-3-.15-4.59 0-1.91-.33-3.75-2.72-3.63-.79 0-.79-.6-.63-1.28-.81.2-1.61.72-2.4.59-.32.09-.48-.19-.17-.59 0-.33.33-.56.48-.76 1-1.2 1-1.83 0-2.23-2.39-1.49-5.9-.44-8.13 2.34a90.617 90.617 0 00-8.94 14.2 11.017 11.017 0 01-1.92 3 15.21 15.21 0 00-3.52 5.83 91.99 91.99 0 01-4.15 8.38l-1.44 3.39c-1.28 3-2.55 5.91-3.67 8.9a25.786 25.786 0 00-1.11 3.16 19.95 19.95 0 01-1.76 4.9 43.618 43.618 0 00-3.68 8.42 28.166 28.166 0 01-2.24 6 46.866 46.866 0 00-3.83 10.7c-.47 1.71-.95 3.11-1.43 4.67-.83 2.71-1.84 5.37-2.63 8-.27.88-.52 1.76-.72 2.61a51.964 51.964 0 01-2.88 8.39c-1.12 2.67-1.12 4.74.32 6.62.32.4.64 1.13 1 1.51.33.88.81.77 1.61.1.48-.44.8-1 1.28-1.13.48-.13.79.44 1 .88.16.28.64.17 1 .09a.687.687 0 01.95.34c.05.117.067.245.05.37.134.617.188 1.249.16 1.88a3.199 3.199 0 001.91 2.87c1.44.76 2.56.32 4-1.48a7.985 7.985 0 011.59-2.14c.48-.29 1.12-.12 1.12.36a18.872 18.872 0 00-.32 3.1c-.15.53.64.81 1.11.69a4.206 4.206 0 002.24-2.16 32.478 32.478 0 002.4-5.06c1.76-5 3.71-10 5.7-14.9.56-1.35 1.1-2.69 1.64-4 2.4-5.53 4.79-11.24 6.87-16.87.245-.41.459-.838.64-1.28 1.76-4.11 3.52-8.38 5.43-12.54 1.44-3.38 2.55-7 4.47-10.37.95-1.84 1.75-3.79 2.56-5.75a36.396 36.396 0 012.55-5.43c0-.15.32-.39.47-.43.33.08.33.39.17.75a3.77 3.77 0 01-.32.88c-2.24 4.23-3.68 8.75-5.59 13.06-3.51 8.06-6.7 16-9.9 24l-7.44 18-1.4 2.82c-1.74 4.12-3.35 8.35-4.78 12.37-.16.84-.81 1.64-.33 2.49 1.13-.44 1.13-1.57 1.44-2.44 1.28-3.52 2.56-7 4-10.42.67-1.62 1.36-3.24 2-4.87 2.28-5.34 4.61-10.74 6.58-16.12.407-1.158.885-2.29 1.43-3.39A188.55 188.55 0 00884 153.1c.42-1.158.901-2.292 1.44-3.4a60.604 60.604 0 004.31-10c1.12-2.68 2.08-5.31 3.19-8 .585-1.412.966-2.9 1.13-4.42-.65 1.27-1.44 2.43-2.24 3.75a4.652 4.652 0 011.11-4c.65-.63 1-.23 1.13.21a8.511 8.511 0 001.26-2.56 55.574 55.574 0 002.41-8.43c.39-1.79 1.04-3.86.87-5.74zm-37.84 53.67a12.25 12.25 0 011.11-3.32 8.775 8.775 0 01-1.11 3.32c-.16.51-.48.92-.64 1.43.148-.503.364-.984.64-1.43zm-10.86 29.21c-.48-.52.16-1.15.48-1.71-.17.67 0 1.11-.48 1.71zm1.12-3.14c0-.12.07-.25.1-.39a11.07 11.07 0 01.53-1.53l.48-2c.08-.11.14-.22.21-.33a12.985 12.985 0 012.35-6.22 12.818 12.818 0 01-2.35 6.22v.44c-.281.62-.499 1.267-.65 1.93-.12.52-.34 1.06-.5 1.53a2.471 2.471 0 00-.2.35h.03zm19.8-51.09a1.126 1.126 0 01-.32.71v.13l-.08.07a36.175 36.175 0 01-3.59 8.66l-.48 1.72c-.074.345-.24.663-.48.92-.33.24-.33-.24 0-1l1-1.68a25.465 25.465 0 011.75-5.71 8.839 8.839 0 011.84-2.95c0-.07.05-.17.08-.24.022-.451.19-.883.48-1.23a.737.737 0 01-.2.6zm1.44-3.87c.145-.506.356-.99.63-1.44-.15.52-.48.92-.63 1.44zm1.4-3.11c.096-.34.213-.674.35-1l-.35 1zm16.48-29.94a3.133 3.133 0 01-.63.64.517.517 0 01-.48 0v-.16c.169-.296.381-.566.63-.8.16 0 .48-.11.63 0a.755.755 0 00-.15.32zm5.11 20.45a4.422 4.422 0 00-.48.91c0-.32.16-.68.16-1 .16-.36.16-.36.32-.25v.34zM298.76 497.37v.16c.087-.235.228-.447.41-.62-.151.14-.288.294-.41.46zm-10.55 10.29c.17 0 .17 0 .17-.2-.05.07-.12.13-.17.2zm0 0l-.47.43c.168-.123.322-.264.46-.42l.01-.01zm-8 6.77c-.369.369-.704.77-1 1.2a26.742 26.742 0 008.46-7.54c-2.67 1.81-4.89 4.28-7.44 6.35l-.02-.01zm-5 4.27c-1.43 1.16-2.7 2.43-4.14 3.43-5.27 3.55-10.22 7.65-15.65 10.77-.506.428-1.037.825-1.59 1.19a23.99 23.99 0 006.55-3.54c4.14-2.8 8.13-5.71 12.13-8.62 2.39-1.87 4.94-3.63 6.7-6.3a27.529 27.529 0 00-3.94 3.08l-.06-.01zm-22 15.72c-.32.07-.32.07-.15.19h.15c.12-.14.14-.18.22-.21l-.22.02zm-6.39 2.7a.996.996 0 00-.63.32c-.16.2 0 .33.15.29.33-.09.65-.17.8-.52-.14.05-.14-.12-.29-.08l-.03-.01zm-16.12 24v.15c.184-.487.395-.965.63-1.43-.253.4-.455.83-.6 1.28h-.03zm85.75-96.75a45.229 45.229 0 00-3.45-16.86c-3.35-7.94-9.74-11.94-18.68-12.59h-2.07c-1.44.21-2.72.52-4.15.73a60.783 60.783 0 00-19.64 5.69c-4.48 2.07-9.11 4.18-13.26 7.3a32.905 32.905 0 00-3.2 1.91 23.037 23.037 0 00-5.42 3.91c-.65.63-1.44 1.15-2.08 1.8L239 461a12.992 12.992 0 00-3.37 5.3 2.85 2.85 0 00-.15 2.76c.28.736.39 1.526.32 2.31-.32 2-.17 2.11 1.76 2.43.31.08.63 0 .79.44.48 1.48.65 1.44 1.91.81 1.26-.63 2.24-1.36 3.37-2 1.74-1.07 3.5-2 5.26-3.08.16 0 .64-.15.64.17 0 .16-.16.52-.31.56-1 .72-1.76 1.39-2.72 2.11.48-.12 1-.39 1.44-.52 1.28-.16 1.76.53 1 1.68a48.476 48.476 0 00-3.83 7 55.178 55.178 0 01-2.4 5.22c-1.59 3.43-3.35 6.91-4.79 10.3-1 1.84-1.59 3.75-2.39 5.55-1.76 4.27-3.83 8.46-5.59 12.73-4.48 10.53-8.79 21-12.29 31.8-1 2.8-2.09 5.63-3 8.42a15.798 15.798 0 00-1.12 4.6c-.32 2.64 0 5.11 2.24 6.31a4.283 4.283 0 011.44 2c.126.614.338 1.206.63 1.76.8 1.55 1.12 1.8 3.2 1 1-.4 1.43-.52 1.91.48.33.72.64.8 1.59.08 1.13-.75 1.93-1.6 3.2-1.43v-.17c.526-.987.907-2.044 1.13-3.14h.15a.925.925 0 01-.503-.734.916.916 0 01.353-.816 9.104 9.104 0 001.91-3.68c-.48 0-.65-.31-.65-.79.307-.954.8-1.837 1.45-2.6a21.576 21.576 0 004-8.17c-.15 0-.29-.06-.55 0 .08-.17.11-.36.22-.39.33-.24.33.24.33.41a33.885 33.885 0 003.19-7.51h-.13c.78-1.15 1.43-2.39 2.68-3 1.93-1.11 3.84-2.22 5.76-3.18 9.42-4.27 17.88-10.84 26.34-17.12.315-.084.595-.266.8-.52 4.63-4.34 9.59-8 14-12.6a4.1 4.1 0 001-.88c1-.71 1.91-1.59 3.2-1.59a3.057 3.057 0 001.91-1.11 22.68 22.68 0 004.48-4.63 15.621 15.621 0 00-2.72 2.11c-.561.495-1.148.959-1.76 1.39-.16.21-.48.13-.63.17-.02-.237.033-.474.15-.68 1.61-1.52 3.2-3.51 5.59-3.79 2.08-1.63 3.52-3.91 5.43-5.67 2.88-2.78 4.47-6.53 7.18-9.61.17-.2.17-.52.48-.92a28.696 28.696 0 003.95-16.2h-.03zm-83 88.4c0 .17-.33.4-.33.4v-.48c.254-.231.47-.501.64-.8-.16.36-.16.69-.31.88zm4.63-10.77s.15-.19.15 0a.26.26 0 01.31.2c-.25-.01-.46.11-.46-.2zM255 454.3a9.727 9.727 0 012.87-2.14 98.535 98.535 0 0120.12-9 27.064 27.064 0 018.63-1.19 4.999 4.999 0 01-2.39.92c-4.63 1.32-9.43 3-14.07 4.78a86.828 86.828 0 00-8.13 3.47 32.728 32.728 0 01-7 3.18 9.606 9.606 0 01-3 2 10.007 10.007 0 012.97-2.02zm20 1.26c-.674.244-1.371.418-2.08.52-.48.11-1 .23-1.27-.17s.31-1 1.27-1.27a42.323 42.323 0 0112.94-3.07c.32.08.63 0 .48.52 0 .16-.33.4-.48.44-2.24.56-4.31 1.23-6.55 2l-4.31 1.03zm.64 2.39a.713.713 0 01-.48.6c-.16 0-.32-.24-.48-.2l.48-.44c.15.006.299.037.44.09l.04-.05zm-21.23-1.1a31.009 31.009 0 0111-5.77 6.109 6.109 0 012.39-1.56 72.273 72.273 0 0113.2-4.74c.16.12.48 0 1.11 0a10.767 10.767 0 01-3.67 1.88c-3.2 1.11-6.55 2.43-9.9 3.58a7.79 7.79 0 01-3.19.8 55.698 55.698 0 01-10.98 5.81h.04zm3 43a2.452 2.452 0 01-.8 1.63c-.33-.7.46-1.07.78-1.62l.02-.01zm-10.54-30.59c-1.44 1-3 1.88-4.46 2.87-.387.18-.764.381-1.13.6l-.31-.25v-.31c.16-.2.31-.4.48-.44a106.545 106.545 0 0110.53-7.1 5.24 5.24 0 011.44-.52c.17 0 .17.12.32.08v.32a4.106 4.106 0 01-1.44 1.32c-1.93 1.28-3.69 2.37-5.45 3.44l.02-.01zm6.39 39.6l-.32.56c-.33-.42.15-.51.3-.55l.02-.01zm-3 11.78c.16-.2.32-.08.48-.12-.16 0-.16.2-.32.4-.294.04-.571.161-.8.35l.64-.63zm-1.75 3.46c.28-.06.55-.25.94-.37l.16-.21v.17a.406.406 0 00-.17 0c-.231.3-.496.571-.79.81-.31.25-.48.13-.48-.19.13.01.13-.14.29-.2l.05-.01zm12.76.5c-4.46 3.67-9.26 7.1-14.52 9.21a7.007 7.007 0 01-2.4.76c-.32-.08-.63-.17-.48-.52.043-.265.157-.514.33-.72a2.341 2.341 0 011.11-.76 106.105 106.105 0 0015-8.37c.8-.52 1.76-.92 2.56-1.44a18.441 18.441 0 01-1.65 1.85l.05-.01zm4.64-3.55a9.024 9.024 0 01-1.58.7 1.727 1.727 0 00-.18.22l-.9.56c.317-.222.617-.466.9-.73.06.008.12.008.18 0 .382-.509.807-.984 1.27-1.42a1.654 1.654 0 011.43-.52c.26-.12-.22.65-1.17 1.2l.05-.01zm35.29-27.17h-.16l.16-.19a3.38 3.38 0 01.63-.64 4.013 4.013 0 00-.68.84l.05-.01zm1.76-33a19.428 19.428 0 01-1.76 2.83c-4.15 5.35-8 10.93-12.94 15.51-1.91 1.92-3.5 4.08-5.26 6a123.972 123.972 0 01-16 15.31c-2.24 1.84-4.47 3.66-6.54 5.63a36.572 36.572 0 01-4.48 3.66c-.8.52-1.59.08-1.44-.92.33-1.35 1-2.79.64-4-.16-.61.32-1.05.8-1.32a5.102 5.102 0 001.76-2c1.76-3.64 3.83-7.35 5.26-11.06h-.07l-.08.15-.08-.08a4.6 4.6 0 01-1.05.37c.3-.82.74-.7 1.05-.37a.713.713 0 00.16-.07c1.56-3.06 3-5.92 4.38-8.94a10.992 10.992 0 001.28-4.31 2.265 2.265 0 01.16-1c1.6-2.16 1.91-4.63 3.36-6.74 1.11-1.87 1.27-3.67 1.75-5.55.17-.84-.48-.84-1-1.2s-.48-1.15.17-1.8a13.534 13.534 0 014.31-2.36 52.38 52.38 0 0113.89-2.49c2.55 0 5.11-.16 7.51.52a9.994 9.994 0 013.5 1.35c1.15.69 1.3 1.45.67 2.89l.05-.01zM391.379 482.42l-.48.11-.17.06h.16v.95c.16-.36.324-.733.49-1.12zm-10.38-59.37h.17c.187-.232.348-.483.48-.75a4.111 4.111 0 01-.65.75zm0 0a3.495 3.495 0 00-.48.76c.175-.299.394-.568.65-.8l-.17.04zm-1.11 1.56c.164-.3.377-.571.63-.8a1.723 1.723 0 00-.64.8h.01zm-1.13.92c.65.31.8-.36 1.13-.92-.44.224-.828.537-1.14.92h.01zm-11 17.91c.185-.491.395-.971.63-1.44-.3.438-.52.925-.65 1.44h.02zm13.24-20.39a3.495 3.495 0 00-.48.76c.175-.299.394-.568.65-.8.187-.232.348-.483.48-.75a4.107 4.107 0 01-.65.79zm-1.11 1.56c.164-.3.377-.571.63-.8a1.723 1.723 0 00-.64.8h.01zm-1.13.92c.65.31.8-.36 1.13-.92-.44.224-.828.537-1.14.92h.01zM368.369 442a4.498 4.498 0 00-.63 1.44c.185-.491.395-.971.63-1.44zm38.17-5.36c.394-2.143.555-4.322.48-6.5 0-1.373-.272-2.732-.8-4a21.448 21.448 0 00-8-10 3.504 3.504 0 00-3.5-.56 2.381 2.381 0 01-2.09-.59 16.54 16.54 0 00-2.06-1.57 7.461 7.461 0 00-4-1.72 2.458 2.458 0 00-2.4.76c-1.11 1.56-2.39 1.23-3.5 1l-1.13-.36c-.8-.44-1.43.19-2.07 1 0 .33.16.77-.17 1.17-.15.19-.31.39-.63.31-.16 0-.16-.27 0-.48.305-.301.573-.637.8-1-1.65 1-3.45 2.07-5.26 3 1.12-2 3-3.08 4.78-4.31.64-.31 1.44-.67 1.44-1.63-.17-.76-1-.88-1.44-1.08a3.14 3.14 0 00-2.08.2c-.936.312-1.846.7-2.72 1.16a50.004 50.004 0 00-10.37 8.65 21.638 21.638 0 01-2.4 2.68c-4.63 3.87-8.3 8.62-11.81 13.48a25.03 25.03 0 01-3 3.79c-1 1.2-1.91 2.39-2.72 3.56-1.26 2.07-2.39 4.1-3.82 6.05-1 1.53-2.08 3.08-2.88 4.56a84.865 84.865 0 00-5.11 10.22l-1 1.84a44.033 44.033 0 00-5.08 10.6 25.205 25.205 0 01-1.59 3.59 86.396 86.396 0 00-5.11 13.25l-.48 2.51c-.49 2.83-.8 5.78-1.28 8.63-1.43 8.33-.16 15.37 3.83 21.4a81.288 81.288 0 008.94 10.7c3.35 3 7.67 4.32 12.31 4.92 2.248.07 4.496-.118 6.7-.56 7.83-1.79 14.2-6.42 19.64-13.52a116.041 116.041 0 009.11-13.92c1.41-2.4 3-4.67 3.77-7.36h.06c.417-.538.788-1.11 1.11-1.71a74.608 74.608 0 005.09-10.8 4.73 4.73 0 01.65-1.76c1.91-2.72 2.7-5.63 4-8.5-.8-.12-.8-.29.16-1.15l.48-.11a10.561 10.561 0 012.07-5.15 2.21 2.21 0 00.48-1.23c-.48-1.32.32-2.16 1.28-3.35a4.603 4.603 0 001.11-2.36c.65-2.08 1.12-4.28 2.56-6.23.192-.255.3-.562.31-.88 0-2.07 1-3.91 1.92-5.75 1.76-3.31 2.08-6.74 3-10.18l.48-2.19a.256.256 0 00-.107-.2.257.257 0 00-.223-.04c-.79.36-1.11 0-.63-.64 1.94-2.45 2.42-5.13 2.9-7.64zm-26.19-18.06c.48-.28 1-.72 1.12-.76.48-.27.64-.32.8 0a.2.2 0 01-.16.19 2.101 2.101 0 01-1.43 1.32c-.17 0-.48.13-.48 0-.32-.15 0-.55.15-.75zM356.239 437l.36-.44a2.746 2.746 0 00-.36.6V437zm0 25.56c-.16.67-.16 1.47-1.11 1.87-.48.16.15-.8 1.11-1.83v-.04zm-6.55 61.83a.51.51 0 01-.32-.08c-.16-.12-.16-.44-.16-.44l.81-1.15c2.71-2.76 5.42-5.67 7.82-8.66.243-.206.508-.383.79-.53.17 0 .48 0 .48.21.019.233-.033.467-.15.67-2.4 3.31-4.79 6.79-8.31 9.42a2.89 2.89 0 01-.96.6v-.04zm3.52.09a1 1 0 01-.65.31.111.111 0 01-.11-.016.11.11 0 01-.04-.104l-.16-.12a4 4 0 01.48-.91c2.23-2.48 4.47-5 6.55-7.39.31-.4.63-.48.79-.35a.447.447 0 010 .63 37.236 37.236 0 01-6.86 7.99v-.04zm6.38 9.74c-.16 0-.16-.29-.16-.44a2.698 2.698 0 011.12-1.08.47.47 0 01.32.08c0 .68-.96 1.71-1.28 1.48v-.04zm1.13-5.71a23.181 23.181 0 01-3.52 3.11 1.21 1.21 0 01-.81 0 .754.754 0 010-.79 10.89 10.89 0 011.45-2 123.09 123.09 0 0010.06-12.41 6.477 6.477 0 011-1l.33-.08c.15 0 .15.12.15.12a1 1 0 01-.15.68c-2.77 4.26-5.01 8.66-8.51 12.41v-.04zm15.8-16.88c-1.91 3-3.67 6.18-5.58 9.22a67.225 67.225 0 01-6.07 7.9c-.48.6-1.13 1.08-1.61 1.68-.48-.52 0-1 .17-1.32 4.63-6.11 8.62-12.53 12.77-19 .8-1.16 1.59-2.32 2.39-3.32a.89.89 0 01.532-.43.882.882 0 01.678.08c-1.1 1.74-2.19 3.4-3.28 5.23v-.04zm9.58-85.26c-.64 3.67-1 7.1-1.92 10.7-1.28 5.42-2.87 10.78-4.3 16.24l-1 2.48a82.31 82.31 0 00-3.35 10.89 22.182 22.182 0 01-2.24 5.83 119.398 119.398 0 00-3.83 9.09 31.47 31.47 0 01-2.89 6.47c-.182.293-.34.6-.47.92-1.44 4.19-4.16 7.9-6.55 11.85a13.23 13.23 0 00-.79 1.47c-1.44 3.41-4 6.43-6.39 9.59a52.49 52.49 0 01-8.46 8.33c-3 2.36-4.16 1.84-4.63-1.55a19.14 19.14 0 011.11-8.91 103.804 103.804 0 003.35-11.53c.65-1.92 1.28-4 1.76-5.88.65-2.07 1.12-4.26 1.6-6.3a1.846 1.846 0 01.48-1.72c.31-.71.79-1.32 1.11-2 .33-.4.48-.92.16-1.16-1.44-.92-.48-2 .48-2.67a8.372 8.372 0 002.56-4c2.24-5.66 5.27-11.2 7.83-16.79a25.49 25.49 0 001.27-3l-1 .73c-.16 0-.48.11-.48 0-.16-.13 0-.33 0-.48l1.44-1.32v1.11c2.56-3.67 4.63-7.54 6.71-11.25l-3.67 3.79a27.006 27.006 0 011.91-3.51l3.67-5.71a10.519 10.519 0 013.43-3.78c.8-.52 1.43-1.15 1.28-1.91-.16-1.24.63-2.24 1.28-3.2.95-1.36 2.07-2.43 3-3.79v.17a17.809 17.809 0 013.36-5.15 1.234 1.234 0 011.43-.69 3.217 3.217 0 012.89 3.45 19.81 19.81 0 01-.14 3.23v-.04zm-5.59-2.6c.175-.299.394-.568.65-.8.187-.232.348-.483.48-.75a4.107 4.107 0 01-.65.79 3.51 3.51 0 00-.48.8v-.04zm-.63.8c.164-.3.377-.571.63-.8a1.724 1.724 0 00-.63.84v-.04zm-1.13.92c.65.31.8-.36 1.13-.92-.44.237-.825.564-1.13.96v-.04zm-11 17.91c.185-.491.395-.971.63-1.44-.301.45-.518.952-.64 1.48l.01-.04zM486.859 443l1.12-1.88a5.283 5.283 0 00-1.12 1.88zm-2.23 3.92c-.32.39-.48.92-.8 1.3 0 .33-.16.53-.16.69l.48-.6c.16-.57.96-.92.48-1.43v.04zm-4 7.54c.16-.21.33-.25.48-.44v-.32a2.996 2.996 0 01-.48.72v.04zm-.63 1.44c.296-.438.51-.926.63-1.44-.15.48-.47.88-.63 1.4v.04zm-1.13 2a21.73 21.73 0 001.13-2c-.32.67-.8 1.26-1.13 1.99v.01zm-.63 1.43c.182-.489.393-.966.63-1.43a6.754 6.754 0 00-.63 1.42v.01zm-.63 1.1l.63-1.1c-.24.37-.44.74-.63 1.09v.01zm-.65 1.14l.65-1.14a8.958 8.958 0 01-.65 1v.14zm-3 5.55a18.9 18.9 0 003-5.55 19.628 19.628 0 00-3.03 5.54l.03.01zm-.64 1.27h.16c.12-.27.24-.63.35-.94a3.982 3.982 0 01-.54.93l.03.01zm0 0a1.77 1.77 0 01-.42.62c.215-.201.409-.422.58-.66l-.16.04zm-3.2 5.43c-4.31 8.58-8.14 17.37-12.14 26a11.769 11.769 0 00-.95 2.95c2.47-4.432 4.71-8.988 6.71-13.65 2.39-5.54 5.11-11 7.83-16.64.462-.964.833-1.968 1.11-3-.99 1.52-1.79 3.01-2.59 4.33l.03.01zm-13.73 29.77l.61-.59v-.17l-.61.76zm-.63 1.44c.266-.397.478-.827.63-1.28v-.16c-.18.51-.51.91-.66 1.41l.03.03zm-27.31-25.45a46.015 46.015 0 004.31-11.29 74.502 74.502 0 00-4.34 11.28l.03.01zm-.64 1.44c.297-.439.514-.926.64-1.44-.195.486-.419.96-.67 1.42l.03.02zm-.64 1.43h.16l.35-1c-.15.345-.331.677-.54.99l.03.01zm-2.07 4.83c-2.72 7.23-5.27 14.41-7.83 21.76a45.164 45.164 0 00-2.72 9 28.694 28.694 0 002.4-5.88c1.43-4.34 3-8.9 4.63-13.28 1.76-4.91 3.52-9.67 5.28-14.57l.47-1.88a19.026 19.026 0 00-2.26 4.84l.03.01zm-11.82 35.05a6.986 6.986 0 001.12-3.64 10.19 10.19 0 00-1.15 3.63l.03.01zm114.78-131.95v.15c-1.12.28-1.91.16-2.08-.91 0-1-.16-1.73-.16-2.68a7.149 7.149 0 00-1.11-3.24 2.566 2.566 0 00-2.56-.8 3.935 3.935 0 01-1.28.48c-1.11.44-1.44.21-1.27-1a6.485 6.485 0 01.16-1.8 2.196 2.196 0 00-.33-1.51c-1.43-1.88-4.63-1.4-6.54.83l-1 1.52a11.994 11.994 0 01-6.22 4.91 12.627 12.627 0 00-5.27 3.39 24.883 24.883 0 00-4.32 5.7l-1.44 2.28a248.956 248.956 0 00-14.64 23.3l-1.92 2.87c-1.75 2.84-3.67 5.71-5.27 8.66-1.75 3.15-3.35 6.43-5.75 9.26-.48.76-1 1.68-1.91 1.92-.48.11-.65-.81-.48-2.44a.21.21 0 01.15-.2c1.44-5.94 1.44-11.7 2.72-17.44a3.896 3.896 0 00-.15-2.36 5.273 5.273 0 010-3.83c.15-.36.15-.84.31-1.36.16-4.36.32-8.7.16-13 0-1.28-.16-2.68-1.12-3.39a11.083 11.083 0 01-.79-2.2c-.65-2.87-1.13-5.8-4-7.16 0-.15-.15-.27-.32-.4a4.766 4.766 0 00-3.83-2.39 2.34 2.34 0 01-2.24-1.51c-.31-.88-1-1-1.75-1.32a5.719 5.719 0 00-4.95 1.07 12.283 12.283 0 00-3.2 3.35 48.345 48.345 0 01-5.59 7.47 9.705 9.705 0 00-1.28 1.91c-1.26 2.23-2.24 4.39-3.67 6.5a47.514 47.514 0 00-4.31 8.42c-1.76 4.27-3.51 8.54-5.42 12.86a107.614 107.614 0 00-4.48 11.33c-.63 2.07-1.43 4.19-2.23 6.15-.33 1-.81 2-1.12 2.83-1.28 4.46-2.56 8.94-4.31 13.36-1.6 4.08-3 8.27-4.47 12.46-.8 2.28-1.76 4.75-2.4 7.15-1.28 5.26-3 10.49-4.63 15.84-1.43 4.2-2.71 8.5-3.83 12.77-.8 3.39-1.28 6.87-1.91 10.22a6.598 6.598 0 001.11 5.63c.64 1 1.76.84 2.72.92.63 0 .79-.67 1.11-1.07.32-.4.63-.33.63 0 .17.44.17 1.07.33 1.51.034.445.166.877.387 1.265.222.387.527.72.893.975 1.11.68 2.07.44 2.87-1a26.542 26.542 0 011.59-2.47c0-.17.33-.24.49-.28.16-.04.31.24.31.4 0 .63-.31 1.36-.31 2.16-.16.19 0 .63.16.75l.8-.19a6.449 6.449 0 002.07-3.08c.8-2.59 1.44-5 2.39-7.62 2.09-6.27 4.16-12.54 6.55-18.88 4.15-11.58 8.46-23 12.94-34.69.8-2.27 1.76-4.42 2.72-6.74a12.295 12.295 0 012.39-3.63c-.48 3.16-2.07 6.27-3.2 9.42a26.355 26.355 0 00-2.23 6.47 19.74 19.74 0 002.08-4.67 5.625 5.625 0 012.72-3.24 9.346 9.346 0 010 4.15l-.48 2.84c-.65 6.39-1.76 12.9-2.09 19.2.024.495-.027.99-.15 1.47-.65 2.89-.8 5.64-1.28 8.48-.8 4.82-.33 9.34-.8 14.08a6.011 6.011 0 001.28 4.47c1.28 1.45 2.08 1.41 4-.35.48-.44.79-.36 1 .08l.48 2.27a2.106 2.106 0 001 1.84c1.11 1.17 2.55.8 3.67-1.07a9.225 9.225 0 001.11-2c.33-.57.81-1 1.29-.81.47 0 .47.52.31 1l-.48 1.55a.903.903 0 00.17 1.09 1.156 1.156 0 001.28-.48c.412-.546.783-1.121 1.11-1.72.436-.754.807-1.544 1.11-2.36.32-.55.48-1.23 1.13-1.07.48 0 .31.72.48 1.15l4.15-9.17c-.32.24-.65 1.11-1.28 1-.33-.25 0-.81 0-1.12l1.43-3.4c3.36-7.22 6.55-14.24 9.9-21.31 6.39-12.92 13.26-25.82 20.12-38.38 1.13-2 2.08-3.87 3.2-5.75.16-.36.47-1.08 1.12-1.08.63.16.16.76 0 1.28a4.974 4.974 0 01-.48.91c-.64 1.29-1.12 2.68-1.76 3.95l1-.87c1-.57 1.76-.13 1.59.72a14.84 14.84 0 01-.63 2.56 45.616 45.616 0 00-2.07 7.37c-1.61 7.75-2.41 15.45-4.48 23.16v.63a138.287 138.287 0 00-1.28 13.9c-.164 1.999.283 4 1.28 5.74a3.243 3.243 0 002.24 1.84 4.046 4.046 0 013 2 8.631 8.631 0 001.76 1.8 2.274 2.274 0 002.71 0c1-.56 1.76-.92 2.55-.33.8.29 1.44 0 2.24-.88a11.41 11.41 0 003-6c.79-5.32 1.75-10.66 3-15.93.15-.36.32-.88-.16-.92-1 1.36-1.12 2.84-1.6 4.23-.16.35-.31.4-.48.28a.114.114 0 01-.058.006.123.123 0 01-.091-.069.121.121 0 01-.011-.057 6.234 6.234 0 01.33-1.84c.79-3.39 1.43-6.74 2.39-10 1.7-7.25 3.8-14.42 5.7-21.65.189-.938.457-1.858.8-2.75 2.07-5.63 4.15-11.41 6.22-17l2.87-7.75c.17-.36.33-1 .8-.84.48 0 .16.76 0 1.12-3 7.62-5.43 15.24-8 22.92-1.91 6.22-3.67 12.4-5.59 18.63-.8 2.91-1.59 5.66-2.24 8.54a5.178 5.178 0 00-.32 2.16l.17.11.32-.08c.128-.419.289-.826.48-1.22l3.66-13.23c1-3.42 1.76-7 2.89-10.45 2.39-6.82 4.94-13.69 7.18-20.47.32-1.36 1-2.48 1.28-3.67 1.25-3.47 2.68-7 3.17-10.55a18.705 18.705 0 001.43-4c.16-.69-.17-1.09-.8-1.09a20.417 20.417 0 011.28-4 6.982 6.982 0 00.79-2.43 18.933 18.933 0 011.28-5.76 8.712 8.712 0 00.39-4.58zm-111.14 108a88.033 88.033 0 01-3.51 9.82 1.998 1.998 0 010-1.92l2.87-7.9c0-.33.16-.52.33-.56.47-.1.31.26.31.59v-.03zm7.19-45.56l.15-.19v.16c-.047.065-.1.125-.16.18.007-.04.01-.08.01-.12v-.03zm-.32.73a.88.88 0 01.31-.57 1.616 1.616 0 01-.16.69c0 .16-.15.2-.31.4a.707.707 0 01.16-.49v-.03zm1.11 22.87l-5.75 15.49c0 .15-.32.24-.47.44l-.16-.6c.48-1.24.79-2.6 1.28-4a144.752 144.752 0 015.59-14 17.436 17.436 0 01-.49 2.7v-.03zm9.26-50.53c.48-.27.17.59-1 2.16.37-.7.37-1.48 1-2.13v-.03zm-6.54 42.36c0 .15-.32.55-.32.71-.02-.289.035-.579.16-.84a.466.466 0 01.32-.39c-.16.27 0 .34-.16.55v-.03zm2.39-5.71a25.63 25.63 0 012.41-8.75 6.354 6.354 0 012.07-2.75 109.881 109.881 0 01-4.49 11.53l.01-.03zm6.87-18.49c.32-.55.32-1.19 1-1.51.43-.26-.04.51-1 1.54v-.03zm-.42-23.17a1.696 1.696 0 01-.06.3l-.16.21v-.17l.22-.34a12.818 12.818 0 012.66-5.81c-.47 2.15-.78 3.05-2.66 5.84v-.03zm4.54-9.28l-.32.07c0-.15-.16-.11-.16-.28a6.15 6.15 0 011.28-1.92 12.857 12.857 0 00-.8 2.13zm17.09 78.29l-.48 1.23-.16.21v-.17c.297-.435.514-.919.64-1.43a3.18 3.18 0 00.52-.91 6.8 6.8 0 01-.49 1.07h-.03zm4.16-41.76l-.48.12-.17-.12c.17-.52.17-1 .32-1.51 0-.16.33-.4.48-.29l.32.4c-.173.458-.32.925-.44 1.4h-.03zm3.35-22.39c0-.16.32-.24.32-.4l.31.4c-.16.36-.16.53-.31.88l-.17.2-.31-.24a1.374 1.374 0 01.19-.84h-.03zm-1.13 8.9c0-.16.32-.39.49-.27.16 0 .16.27.16.44a6.794 6.794 0 01-1.28 3.19 5.005 5.005 0 01.66-3.36h-.03zm1 23.49a2.69 2.69 0 000 .22h-.05a4.55 4.55 0 01-1.23 2 5.019 5.019 0 011.23-2c.022-.065.039-.132.05-.2a.138.138 0 000-.07 4.64 4.64 0 011.22-2 6.218 6.218 0 01-1.17 2.05h-.05zm16.73-29.26a1.685 1.685 0 01-.18.44V429a.315.315 0 00.18-.11c.033-.103.08-.201.14-.29a.413.413 0 01-.09.27h-.05zm3.49-6.16c0 .09 0 .13-.15.3a2.1 2.1 0 01.15-.3v-.07l.08-.07-.08.14zm.81-1.06l-.48.59c0 .12-.09.17-.21.28.062-.099.132-.193.21-.28l.48-.91v.32zm14.2 64.79h-.15c-.48-.35 0-1.92.63-2.55 0 0 .17 0 .17.12.53.4.2 1.91-.6 2.43h-.05zm6.07-97.32h-.16l.52-.64a3.632 3.632 0 00-.31.64h-.05zm16.51 23.88c-.33.4-.48 1.07-1.13 1.07-.32.08-.32-.4-.15-.59.46-1.22.62-1.28 1.68-1.25l-.4.77zm2.07-17.61c-.16 0-.33.08-.33-.08a.11.11 0 00-.009-.054.11.11 0 00-.035-.042.12.12 0 00-.051-.021.115.115 0 00-.055.007 3.618 3.618 0 011-2c.16-.19.16-.19.33-.23l.15.11a4.653 4.653 0 01-1 2.28v.03zm-73.77 118.8l-.17.36c.17-.03.17-.19.17-.36zM631.859 302.53c1.11-1.55 1-2.15-.17-2.83l-1.11-.2c-.15-.11 0-.16-.15-.44.31-.88.31-.88-.33-.55l-2.71.67-.33-.24c0-.32.17-.35.33-.56a19.829 19.829 0 012.71-1 .996.996 0 00.331-.63.995.995 0 00-.171-.69 17.448 17.448 0 00-2.07-.75 4.61 4.61 0 00-3.35.35c-.557.375-1.095.779-1.61 1.21a28.144 28.144 0 00-5.42 4.86c-2.72 2.59-4.95 5.71-7.67 8.29l-.32.4c-2.88 3.6-5.75 6.87-8.46 10.26a15.728 15.728 0 01-1.12 1.56c-1.12 1.55-2.24 2.95-3.19 4.46-2.24 3-4.16 5.83-6.07 8.71a15.004 15.004 0 00-2.39 6.5c.103 2.038.049 4.08-.16 6.11-.17.67.31 1 1.11 1a4.557 4.557 0 012.24.55c-.32.4-1.28.65-1.12 1.25.16.75 1.12 0 1.6-.08.31-.08.48-.29.79-.36a6.804 6.804 0 004-3.39 54.234 54.234 0 013.19-4.95 16.627 16.627 0 011.92-2.71 58.111 58.111 0 016.06-7.11 7.34 7.34 0 011-1.35 17.208 17.208 0 013-3.16 7.928 7.928 0 001.75-2c.17-.84 1-1.36 1.6-1.84a7.34 7.34 0 001.44-1c.218-.083.4-.239.515-.441.115-.203.156-.44.115-.669a1.58 1.58 0 01.81-1.47 43.803 43.803 0 004.3-4.6c2.4-2.35 4.64-5 7-7.5a.674.674 0 00.17-.35c0-.32-.33-.25-.65-.17-.15-.11-.63.16-.79 0 0-.48.48-.59.79-.67.363-.225.74-.426 1.13-.6a1.998 1.998 0 001.59-1.83 2.194 2.194 0 01-.13-2.04zm-39 46.77c.33-.4.64-.8 1.13-.76.34-.08-.14.36-1.1.76h-.03zm12.29-15.52c0 .15-.31.4-.47.44v-.48c0-.16.16-.36.47-.29v.33zm9.91-11.41c0 .15-.16.19-.32.24 0-.17-.15-.13 0-.32l.32-.08v.16zm9.42-10.17l-.15.19a.937.937 0 01-.17-.44c.32-.4.48-.75 1-.88l.32.25a1.613 1.613 0 01-.97.88h-.03zm1.12-11.14c.16 0 .32-.25.47-.12-.07.06-.44.27-.44.12h-.03zm2.08-1l-.2.05a.2.2 0 00.2-.2l.15.11c.17-.02.03.16-.12.04h-.03zm-46.86 67.79l.23-.11v-.17l-.23.28zm-1.68 1.48a7.146 7.146 0 001.68-1.48 7.773 7.773 0 00-1.65 1.48h-.03zm-1 1.32a1.71 1.71 0 01.52-.56l.48-.76-.65.8a2.953 2.953 0 00-.32.52h-.03zm-.76.88c-.33.39-.48.59-.64.79.257-.233.482-.499.67-.79h-.03zm-.64.79l-.64.8c.259-.235.484-.504.67-.8h-.03zm-2.4 3l-.64.79.64-.64c.137-.32.358-.596.64-.8l.48-.75-.64.79-.48.61zm29.55 31.27l-.48-11.54a23.06 23.06 0 00-1.44-7.47c-1-2.14-2.24-4.07-3.36-6.18a7.062 7.062 0 00-4.14-3.75c-1.61-.4-2.24-1.68-2.24-3.44.035-.518.139-1.03.31-1.52l-.79.2a.522.522 0 01-.17-.75l1.76-2.68c.48-.76 1-1.36 1.44-2.28.32-.56 0-1.11-.79-.92a5.049 5.049 0 00-1.45.36 7.32 7.32 0 011.28-3 1.87 1.87 0 000-2.22 1.996 1.996 0 00-1.122-.888 1.996 1.996 0 00-1.428.088l-1.43.84c-.65.31-1.44 1.15-2.24.71a18.832 18.832 0 001.59-1.68c.32-.24.17-.35-.16-.44-.47.28-1.11.61-1.6.88l-1.44.84c-.31.08-.63.15-.79 0-.32-.24 0-.64.32-.88l2.88-2.15c1.11-.76 1.27-1.76.48-2.35a5.896 5.896 0 00-6.56.34 59.541 59.541 0 00-5.75 4.47c-2.54 2.39-4.63 5-6.87 7.31-1.43 1.47-2.54 3.18-3.82 4.78-3.2 4.16-5.59 8.58-8.47 12.81a23.333 23.333 0 00-3 6 15.48 15.48 0 01-1 2.15l-6.23 10.82c-.63 1.28-1.11 2.35-1.59 3.59a84.626 84.626 0 01-3.52 8.39 56.283 56.283 0 00-4.3 9.69 61.058 61.058 0 01-3.36 8.34 22.83 22.83 0 00-1.12 2.68 62.067 62.067 0 01-3.2 7.33 10.156 10.156 0 01-3.66 4.75l-3.67 2.36a26.892 26.892 0 00-3.2 2.39c-1.76 1.88-3.52 3.75-5.28 5.46a6.398 6.398 0 00-1.91 5.91c0 .48.48.52 1 .25a4.794 4.794 0 001-.88l5.76-4.79c1.11-.92 2.24-1.68 3.35-2.43.16-.21.64-.17.64.16.16.11-.16.68-.31.87a9.134 9.134 0 01-1.44 1.16c-1.76 1.39-3.52 2.79-5.11 4.15a11.082 11.082 0 00-2.89 3.12 24.836 24.836 0 004.32-3.16c1.12-.92 2.07-2.43 3.68-2.51-.17 1.8-2.08 2.11-3 3.14-.401.405-.828.783-1.28 1.13l-3.09 2.85a2.807 2.807 0 00-.65 2.71 2 2 0 002.09 1.08l1.43-.36c1-.4 1.11-.11.8.77a6.44 6.44 0 00-.47 2.35c.31 1.36-.17 2.91-.48 4.42-.48 1.25-.8 2.45-1.13 3.64a11.273 11.273 0 000 6.07c.8 1.87 1.92 3 4.48 2.08.63-.32 1-.08 1.11.52.11.6.17 1.07.17 1.72.31 1.84 1.44 2.66 3 3.23a1.41 1.41 0 001.6-.55 3.9 3.9 0 00.63-.8c1-1 1.12-1.08 1.76-.12.16.12.16.12.16.27.8 1.24 1.44 1.24 2.56-.15.63-.64 1.27-1.6 2.23-1.84a2.06 2.06 0 001.76-1.88 44.444 44.444 0 012.39-7.14c1.28-3.2 2.56-6.38 3.83-9.42l6.23-14.8c.21-.521.482-1.014.81-1.47a24.31 24.31 0 014.63-5.48c.48-.44.79 0 1 .4l10.05-4.9a15.136 15.136 0 012.39-1.07.726.726 0 01.711-.067.712.712 0 01.419.577v2.07a23.58 23.58 0 01-.8 3.41c-.64 2.71-1 5.5-2.07 8.17-1.93 4.48-2.57 9.11-4.16 13.65a6.232 6.232 0 00.64 5.11c.47.69 1.28.65 2.07 0l1.45-1.47a.497.497 0 01.47 0c.16 0 .16.28.16.44-.32.88-.63 1.76-1 2.95 1-1 1.59-1.67 2.07-2.27l.33-.07c.15.11.32.23.32.38l-.65 1.76c-.63 1.92-.31 3.12 1 3.92 1.31.8 2.39.37 3.52-1 .463-.503.891-1.038 1.28-1.6.79-1.16 1.75-2.36 2.7-3.55.33-.4.8-1 1.28-.65.33.25 0 .81-.31 1.21l-2.4 4.42c-.31.57-.64 1.28 0 1.61.48.19 1-.08 1.43-.52a8.778 8.778 0 001.61-1.68c.8-1.32 1.59-2.47 2.24-3.76 2.422-4.666 4.5-9.502 6.22-14.47 2.24-6 4.31-12.27 6.39-18.21 0-.16.31-.24.63-.48a19.84 19.84 0 01-1.76 6.51 138.547 138.547 0 00-4.46 13.25 21.455 21.455 0 01-1.12 3.16c-1.44 3.54-3 7-4.47 10.37-.435.921-.809 1.87-1.12 2.84a14.91 14.91 0 002.23-3.44 97.523 97.523 0 005.59-13.52c.33-1.36 1-2.8 1.44-4.2a120.367 120.367 0 004.8-14.93 10.2 10.2 0 01.79-2.27 86.15 86.15 0 003.15-10.55l3.36-11.54c1.12-4.43 2.56-9.1 2.08-13.46.032-.467.137-.926.31-1.36 0-.79.17-1.63.17-2.43h-.03zM527.739 474a.213.213 0 01-.16.19c0-.15-.15-.11 0-.31 0-.17.16-.2.33-.08a.208.208 0 01-.17.2zm52.7-82.13a.796.796 0 01.32-.23c.15 0 .32.08.15.44-.15 0-.31.23-.47.27v-.48zm-21.24 8.5v.16l-.64 1.28c.185-.502.398-.993.64-1.47v.03zm-13.41 28.89c-.16.67 0 1.11-.48 1.72-.48-.56.32-1.08.48-1.75v.03zm1.59 32c-.48 1.4-1 2.63-1.44 3.71l-7.66 18c-.95 2.15-1.59 4.23-2.39 6.34-.17.21-.32.72-.65.48-.15 0-.15-.44-.15-.75l1-3.44c1.76-5.06 4-9.94 6.06-14.92l3.83-8.94a2.402 2.402 0 011-1.36c.17-.21.32-.08.48 0-.08.39.09.62-.08.87v.01zm1.93-39a2.7 2.7 0 00-.48.77c-.192.488-.409.965-.65 1.43l-.48 1.23.48-1.4c.17-.35.48-.91.65-1.26 0-.33.15-.52.15-.84.16-.2.16-.37.33-.41v.48zm3.35-8c-.65.48.15-1.47 1.59-3.43-.31 1.17-.48 2.51-1.59 3.43zm12.13 31.31a81.435 81.435 0 01-10.06 5.43c-.48 0-.79 0-.79-.44a.73.73 0 01.15-.51c.48-.29 1-.88 1.44-1 2.87-1.36 5.91-2.76 8.78-3.95.31-.24.64-.32.79.12a.473.473 0 01-.31.35zm17.21-50.29a12.33 12.33 0 00-.32 1.67c-1.12 4.27-2.07 8.51-3.2 12.78-.16 1.15-.48 2.36-.63 3.35a42.344 42.344 0 01-2.57 11.34 35.885 35.885 0 01-1.11 3.94c-.63 2.09-1.28 2.72-3 2.68-1.939-.1-3.881.116-5.75.64l-1.76.11c-.48-.19-.79-.44-.64-1.11.037-.283.091-.563.16-.84 2.08-4.52 3.67-9.06 6.39-13.41a9.366 9.366 0 001.44-2.92c1.12-2.35 2.23-4.71 3.52-6.93 1.11-2.05 2.23-4.23 3.19-6.24.16-.35.31-.87.16-.83-.48-.36-.65.16-1 .56a32.676 32.676 0 00-2.24 3.91c-1.59 3.11-3 6.35-4.63 9.62a30.474 30.474 0 01-2.24 4.22 50.634 50.634 0 00-4.15 8.38c-.64 1.61-1.44 3.24-2.23 4.88a3.303 3.303 0 01-1.12 1.23c-.16 0-.33-.08-.48 0-.15.08-.16-.12-.16-.28.16-.35.16-.83.31-1.19 2.89-5.67 5.11-11.66 8.63-17.48 2.24-3.76 4.16-7.75 6.07-11.58.63-1.11 1.28-2.4 2.08-3.55a3.51 3.51 0 012.55-1.91c1-.08 1-1 1.44-1.64.32-.39.48-.6.8-.52.192.203.353.432.48.68l.01.44zm11.81 49.27c-.15.21-.48.44-.48.28-.15 0-.32-.24-.32-.4.8-2.28 1.76-4.75 2.56-7.18.16-.21.32-.4.48-.44a.245.245 0 01.111-.002.252.252 0 01.102.044.253.253 0 01.107.188 26.377 26.377 0 01-2.52 7.51h-.04zm6.55-22.88c.038.293-.018.591-.16.85 0 .16-.17.36-.32.55v-.48l.48-.92c.17-.51.17-1.3.64-1.74.47-.44.2.59-.6 1.74h-.04zM671.3 452.23a7.743 7.743 0 00.64-1.92c-.17.53-.48 1.24-.64 1.92zm-2.4 10.17c1-3.43 2.09-6.74 2.4-10.17a26.385 26.385 0 00-2.4 10.17zm-3.5-108.51v.65c.12-.18.224-.371.31-.57v-.48c-.16.21-.31.25-.31.4zm-.65 2.57a4.89 4.89 0 00.48-1.57c-.31.57-.96 1.05-.48 1.57zm42.64-10.64c0-.63-.8-.76-1.28-.15-.48.27-.63.95-1.28 1.11.035-.887.142-1.77.32-2.64a9.185 9.185 0 00-.48-4.19c-.32-.88-.8-1.88-1.75-1.8-1.12-.19-2.07-1.23-3.68 0-.15.21-.63.32-.63 0a.72.72 0 010-.8 1.69 1.69 0 00.582-1.375 1.68 1.68 0 00-.742-1.295c-1.76-1.16-3.67-.68-5.43 1.35-1 1-1.76 2.35-2.72 3.39a32.53 32.53 0 00-5.74 8.78c-1.76 3.6-3.56 7.22-5.56 10.8a23.488 23.488 0 00-1.28 2.72c-.81 1.78-1.44 3.54-2.24 5.18a40.301 40.301 0 00-2.23 6.78 22.713 22.713 0 01-1.12 3.47c-.64 1.76-1.44 3.4-2.07 5.15a5.74 5.74 0 01-3.68 3.79 78.734 78.734 0 01-11.5 3.2c-1.43.19-1.91-.5-1.43-2a57.035 57.035 0 013.19-8.3l1.92-4.62c1.43-3.72 2.71-7.55 4.15-11.43.15-.35.15-.82.32-1.19a.44.44 0 00-.17-.28.74.74 0 00-.47.28c-.33.08-.48.44-.81.68.33-.88.33-1.67.65-2.4 1.44-3.39 2.39-6.66 4.15-10 .517-.91.741-1.958.64-3-.16-.6-1-.71-1.44-.12a18.186 18.186 0 00-2.07 2.6 31.113 31.113 0 001.44-6.11c.15-2.6-.8-3.8-3.37-4.28l-.95-.23c-1.12-.53-1.27-.32-1.92.63l-.79 1.48a.77.77 0 01-.8.52c-.15 0-.15-.29-.32-.41a3.787 3.787 0 011.28-3.19l.63-.79c.48-.76.32-1.51-.48-1.64-1-.24-1.91-.16-2.87-.4-1.28-.48-2.07 0-3.19 1.43-.64.8-1.27 1.92-2.07 2.76a27.156 27.156 0 00-4.64 6.58 25.425 25.425 0 01-3.52 5.19 23.412 23.412 0 00-2.39 3.62c-1.44 2.6-2.55 5.44-4.15 8.06a81.422 81.422 0 00-6.4 15.58l-5.76 16.44a7.362 7.362 0 01-3.67 4.27c-1.75.92-3.35 2-5.11 3-1.11.76-2.4 1.72-3.51 2.62a3.27 3.27 0 00-1.12 3 7.847 7.847 0 001.76 3.08c.16.27.64.31.95.23.48-.12 1-.4 1.44-.52 1.28-.48 1.6-.23 1.12 1-.16.36-.64.95-.47 1.24.47 1.47-.17 3.39.47 5a8.18 8.18 0 01.32 3.43 18.096 18.096 0 01-1.12 5.71c-1.43 4.19-2.07 8.67-3.67 13.05a15.381 15.381 0 00-.64 3.68 41.202 41.202 0 01-1.28 6.22c-1.11 3.63-1.43 7.39-2.71 10.89a9.398 9.398 0 00-.31 1.84 6.426 6.426 0 00.166 3.739 6.425 6.425 0 002.224 3.011.711.711 0 00.79 0c1-1.36 1.76-1.07 2.4-.11.184-.049.351-.15.48-.29.48-.27.79-.19 1 .08l.48 2a2.72 2.72 0 001.59 1.83c1 .56 2.08.12 2.87-1a15.41 15.41 0 001.61-2.64.994.994 0 011-.71c.47 0 .47.35.31.86a11.185 11.185 0 01-.31 2.17.634.634 0 00.47.67l.79-.2a6.19 6.19 0 001.76-2.51 46.183 46.183 0 002.72-8c1.11-4.27 2.24-8.55 3.52-12.86 2.39-8.25 5.11-16.44 7.66-24.58.48-1.24.8-2.43 1.28-3.67.23-.511.494-1.005.79-1.48.181-.161.402-.271.64-.32.16 0 .33.24.33.4-.17.36-.17.84-.33 1.2-1.12 2.84-1.91 5.75-2.87 8.7-3.19 10.37-6.54 20.63-9.43 30.93-.63 2.39-1.27 4.79-1.75 7.14-.16.21.16.29.16.44l.48-.42a54.893 54.893 0 011.6-5.36c1.27-4.46 2.4-8.9 3.83-13.4 1.28-4.64 2.87-9.19 4.31-13.71l3.74-11.9a34.186 34.186 0 011.76-3.94 4.63 4.63 0 012.24-2.47c.79-.21 1.43-.52 2.24-.73 2.54-1 5.11-1.75 7.81-2.59 1.44-.36 2.89-.88 4.15-1.19 1.28-.16 1.92.31 1.92 1.59a6.781 6.781 0 01-.79 3.39 35.369 35.369 0 00-1.44 4.36c-.17 1-.48 2.19-.8 3.39a62.21 62.21 0 00-1.6 7.11 23.66 23.66 0 01-2.07 7.22 20.393 20.393 0 00-1.28 4.32c-.64 2.7-1.27 5.42-1.75 8.1a35.765 35.765 0 00-.8 7.22 5.986 5.986 0 00.268 2.359c.245.761.64 1.465 1.162 2.071.8.92.8 1.08 2.24-.23.48-.28.79-.36 1 .08.21.44.15 1.39.48 1.32.79 0 .63-1 .95-1.52l.48-.76c.134.937.187 1.884.16 2.83a3.998 3.998 0 002.08 3.16c1.11.84 2.23.23 3-1.24.368-.93.796-1.835 1.28-2.71a.999.999 0 011-.72c.48 0 .63.48.48 1l-.48 2.2c-.16.51-.33 1 .32 1 .288-.132.555-.307.79-.52a8.872 8.872 0 002.08-3.39c.48-1.55.79-3.08 1.28-4.63 1.12-4.42 2.23-9 3.66-13.53 3.37-10.26 6.87-20.56 10.23-30.65 1.12-3.31 2.39-6.51 3.67-9.7.48-1.23 1-1.84 1.28-1.59.32.55 0 1.11-.15 1.79l-1 2.8c-4.48 12.29-8.63 24.5-12.62 37a21.31 21.31 0 00-1.28 5.58 102.405 102.405 0 003.83-10.54c1.28-4.15 2.55-8.3 4-12.49 1.44-3.55 2.55-7.18 4-10.9 1.44-4.19 3-8.42 4.48-12.61a14.297 14.297 0 012.39-4.1c1.12-.92 2.4-2.05 1.44-3.4-.15-.28.16-.83.32-1.2.424-1.06.759-2.154 1-3.27a9.496 9.496 0 01.79-2.75c1.13-3 2.41-5.86 3.67-8.91.65-1.59 1.44-3.23 2.09-4.82 1.43-4 2.87-8.06 4.15-12.06a66.082 66.082 0 003.18-12c.196-1.797.229-3.607.1-5.41zm-92.45 110.54c-.005.06-.005.12 0 .18l-.16.2v-.16a.2.2 0 00.16-.19.633.633 0 01.15-.34c0 .12 0 .13-.15.31zm2.39-9.52c.111-.472.251-.936.42-1.39-.18.55-.3 1-.42 1.39zm9.58-.95c-.16.2-.33.4-.33.56 0-.16-.15-.44 0-.48l.48-.92a2.119 2.119 0 00-.15.84zm2.39-7.46c-.15.19-.31.08-.31.23-.17-.11-.17-.11-.17-.27a1.414 1.414 0 010-.8 8.834 8.834 0 011.28-2.59l.16-.05c.32.44-.26 2.68-.96 3.48zm5-16.56c-.16.35-.48.59-.48.9V422a1.368 1.368 0 01.48-1.25c.28-.24.28.39-.04 1.12h.04zm7.18-50.51a92.7 92.7 0 01-4.55 11.23c0 .21-.06.43-.09.63l-.15-.13c.094-.16.174-.327.24-.5a28.457 28.457 0 014.71-12.23c-.2.37-.04.64-.2 1h.04zm19.63-7.61a6.807 6.807 0 01-1.88 4 6.558 6.558 0 011.84-4h.04zm-6.7-18.45a3.35 3.35 0 01-.63.81l.63-.81zm-11.21 21.64l-.33.07v-.15A4.187 4.187 0 01644 365a5.008 5.008 0 01-.8 1.94zm3-6.51a.648.648 0 00-.32.24.855.855 0 000 .16c-.189.318-.35.653-.48 1l.33-.94.16-.2a.569.569 0 01.15-.36c0-.32.17-.36.32-.23.15.13-.12.17-.12.33h-.04zm2.07-4.5c-.16.51-.48.91-.64 1.43.147-.504.362-.985.64-1.43.32-.73.8-1.32 1.11-2.05a20.043 20.043 0 01-1.07 2.05h-.04zm2.56 33.21c-.18.169-.406.28-.65.32-.15-.12-.32-.25-.32-.4.17-.52.17-.84.32-1.2 2.39-5.23 4.15-10.46 6.72-15.57.55-1 1-1.82 1.53-2.66a14.018 14.018 0 01-1.06 4l-4.8 11.89a13.898 13.898 0 01-1.7 3.62h-.04zm6.7 65.87c-.16.37-.32.41-.48.44v-.32a1.078 1.078 0 01.48-1.07l.15.11a7.482 7.482 0 01-.11.83l-.04.01zm23.79-47.76c-1.43 4.66-2.72 9.29-4.63 13.92-2.72 6.75-4.48 13.73-6.7 20.52a12.783 12.783 0 01-1.92 4.31 11.75 11.75 0 01.79-4.67c2.72-8.18 5.28-16.33 7.83-24.47 1.11-3.31 2.39-6.51 3.52-9.66.22-.412.484-.797.79-1.15 0-.16.32-.25.48-.29.16.13.16.29.16.61-.055.304-.149.6-.28.88h-.04zM685 367a.686.686 0 01-.17.36c0-.15-.16-.27 0-.48.2-.224.365-.477.49-.75l-.32.87zm2.23-5c-.64-1.13.48-1.88.79-2.6.37.9-.27 1.7-.75 2.6h-.04zM698 340.5c.188-.139.363-.297.52-.47a2.393 2.393 0 00-.36.59c-.194.14-.368.305-.52.49.145-.188.265-.393.36-.61zm-.48.77a3.168 3.168 0 01-.64.79 3.52 3.52 0 01.61-.79h.03zm2.23 31.06l-8.14 19.59a1.775 1.775 0 01-.8 1c0-.15-.31-.23-.31-.4.63-1.74 1-3.43 1.59-5.18 1.28-3.36 2.72-6.75 4.31-10 .8-1.63 1.28-3 2.08-4.67l1-2a.702.702 0 01.31-.25c.17.13.32.25.32.4a5.26 5.26 0 01-.39 1.51h.03zm1.91-7.19a5.798 5.798 0 011-2.63c0-.17.16-.21.32-.09l.16.13a5.69 5.69 0 01-1.51 2.59h.03zm3.2-8c-.16.21-.31-.07-.31-.23a1.063 1.063 0 01.79-1.16c0-.16.17.13.32.24-.18.53-.35 1.01-.83 1.16l.03-.01zM755.24 324.36l.22-.11v-.15l-.22.26zm-1.701 1.5a7.184 7.184 0 001.701-1.5 7.512 7.512 0 00-1.701 1.5zm-1 1.31c.132-.221.309-.412.521-.56l.479-.75-.63.79a2.886 2.886 0 00-.37.52zm-.759.87c-.32.41-.48.6-.63.81.251-.25.463-.537.63-.85v.04zm-.63.81l-.65.79a3.43 3.43 0 00.65-.79zm-2.4 3l-.64.8.64-.65c.127-.322.351-.598.64-.79l.48-.76-.641.8c-.17.18-.319.39-.479.59v.01zm29.539 31.28l-.479-11.54a22.756 22.756 0 00-1.43-7.47c-1-2.16-2.24-4.07-3.36-6.19a7.11 7.11 0 00-4.15-3.76c-1.6-.4-2.24-1.68-2.24-3.42.032-.524.143-1.04.33-1.53l-.81.21a.517.517 0 01-.15-.77l1.75-2.68c.47-.75 1-1.34 1.43-2.26.33-.56 0-1.12-.79-.92a4.96 4.96 0 00-1.43.35 7.044 7.044 0 011.259-3 1.88 1.88 0 000-2.23 1.997 1.997 0 00-2.539-.81l-1.44.84c-.65.33-1.44 1.16-2.24.72a21.999 21.999 0 001.59-1.67c.33-.25.17-.36-.15-.44-.48.28-1.111.59-1.591.88l-1.44.84c-.32.08-.65.15-.8 0-.33-.25.001-.65.321-.88l2.869-2.16c1.12-.75 1.271-1.75.481-2.36a5.894 5.894 0 00-6.54.36 55.545 55.545 0 00-5.761 4.47c-2.55 2.39-4.629 5-6.859 7.29-1.43 1.48-2.56 3.2-3.84 4.79-3.18 4.15-5.59 8.58-8.46 12.81a23.673 23.673 0 00-3 6 17.465 17.465 0 01-1 2.16l-6.23 10.82a37.987 37.987 0 00-1.59 3.58 86.98 86.98 0 01-3.521 8.38 58.885 58.885 0 00-4.31 9.71 58.5 58.5 0 01-3.349 8.33 18.009 18.009 0 00-1.11 2.68 69.94 69.94 0 01-3.2 7.34 10.378 10.378 0 01-3.67 4.75l-3.681 2.36a27.594 27.594 0 00-3.19 2.38c-1.76 1.87-3.509 3.75-5.269 5.47a6.328 6.328 0 00-1.911 5.91c0 .48.47.52 1 .24a5.052 5.052 0 001-.88l5.741-4.79c1.13-.92 2.24-1.67 3.35-2.43.17-.2.65-.16.65.16.16.12-.17.68-.32.87a9.978 9.978 0 01-1.44 1.17c-1.76 1.39-3.521 2.79-5.111 4.14a11.143 11.143 0 00-2.87 3.11 24.392 24.392 0 004.31-3.15c1.11-.91 2.071-2.44 3.671-2.51-.15 1.8-2.08 2.12-3 3.15-.393.407-.818.781-1.27 1.12l-3 2.83a2.844 2.844 0 00-.63 2.72 1.994 1.994 0 002.07 1.07l1.44-.35c.95-.4 1.12-.11.8.75a6.353 6.353 0 00-.48 2.36c.32 1.36-.161 2.92-.481 4.43a31.625 31.625 0 00-1.11 3.64 11.08 11.08 0 000 6.07c.79 1.87 1.911 3 4.461 2.07.65-.31 1-.08 1.13.53 0 .48.149 1.07.149 1.71a4.003 4.003 0 003 3.23 1.385 1.385 0 001.601-.56c.25-.231.466-.497.64-.79 1-1 1.119-1.08 1.759-.12.15.12.151.12.151.28.8 1.24 1.44 1.24 2.56-.16.64-.64 1.29-1.6 2.24-1.83a2.079 2.079 0 001.75-1.88 44.388 44.388 0 012.41-7.14c1.26-3.2 2.54-6.39 3.82-9.42l6.23-14.81a7.198 7.198 0 01.8-1.48 24.399 24.399 0 014.63-5.46c.48-.44.79 0 1 .4l10.05-4.9a17.515 17.515 0 012.4-1.09.714.714 0 01.707-.057.732.732 0 01.413.577v2.08a20.876 20.876 0 01-.8 3.39c-.63 2.72-1 5.52-2.07 8.19-1.92 4.47-2.56 9.1-4.15 13.65a6.26 6.26 0 00.63 5.11c.48.68 1.28.64 2.08 0l1.44-1.47a.489.489 0 01.48 0c.15 0 .15.27.15.44-.32.88-.63 1.74-1 3 1-1 1.59-1.68 2.07-2.28l.319-.08c.17.12.32.25.32.4l-.639 1.76c-.64 1.92-.31 3.11 1 3.91 1.11.69 2.39.36 3.5-1 .465-.501.892-1.036 1.28-1.6.8-1.16 1.76-2.35 2.72-3.55.31-.4.789-1 1.269-.64.32.24 0 .81-.31 1.21l-2.399 4.42c-.32.56-.64 1.28 0 1.59.48.21 1-.08 1.44-.52a9.259 9.259 0 001.59-1.66c.8-1.32 1.609-2.48 2.239-3.76a106.239 106.239 0 006.221-14.49c2.24-6 4.31-12.25 6.39-18.2 0-.15.329-.23.639-.48a19.911 19.911 0 01-1.75 6.51c-1.6 4.4-3.359 8.82-4.479 13.25a19.309 19.309 0 01-1.11 3.15c-1.45 3.56-3.001 7-4.471 10.38a21.589 21.589 0 00-1.119 2.83 15.23 15.23 0 002.229-3.42 100.467 100.467 0 005.591-13.54c.32-1.36 1-2.79 1.43-4.19a115.088 115.088 0 004.799-14.93c.177-.781.442-1.539.791-2.26a84.516 84.516 0 003.2-10.55l3.36-11.53c1.11-4.43 2.55-9.1 2.07-13.45.034-.467.142-.926.32-1.36-.15-.85.009-1.69.009-2.48v.01zM702.13 430.5a.23.23 0 01-.052.128.224.224 0 01-.118.072c0-.15-.16-.11 0-.32 0-.16.17-.2.32-.08a.21.21 0 01-.15.19v.01zm52.69-82.12a.796.796 0 01.31-.25c.17 0 .329.09.169.44-.17 0-.319.25-.479.29v-.48zm-21.24 8.49v.13l-.64 1.28c.177-.489.391-.963.64-1.42v.01zm-13.421 28.89c-.15.68.001 1.12-.479 1.72-.48-.48.319-1.05.479-1.73v.01zm1.611 32c-.48 1.39-1 2.64-1.44 3.71l-7.671 18c-1 2.16-1.589 4.23-2.399 6.35-.15.19-.32.71-.63.48-.17 0-.17-.44-.17-.77l1-3.43c1.76-5.07 4-9.93 6.07-14.93l3.84-8.94a2.392 2.392 0 011-1.35c.15-.2.309-.08.479 0-.08.41.071.69-.079.89v-.01zm1.91-39a2.975 2.975 0 00-.48.75c-.188.493-.405.974-.65 1.44l-.47 1.24.47-1.4c.17-.36.48-.92.65-1.28 0-.31.16-.51.16-.84 0-.33.15-.35.32-.39v.48zm3.35-8c-.63.48.16-1.49 1.59-3.44-.31 1.23-.48 2.55-1.62 3.47l.03-.03zm12.139 31.3a82.053 82.053 0 01-10.07 5.38c-.48 0-.789 0-.789-.44a.73.73 0 01.159-.52c.48-.27.951-.87 1.431-1 2.88-1.36 5.92-2.75 8.79-3.95.32-.23.63-.31.8.13a.494.494 0 01-.321.43v-.03zm17.24-50.29c-.15.36-.149 1-.319 1.68-1.11 4.27-2.071 8.5-3.181 12.77-.17 1.16-.499 2.35-.649 3.35a42.613 42.613 0 01-2.55 11.43c-.32 1.19-.65 2.7-1.12 3.94-.64 2.07-1.29 2.72-3 2.68a17.692 17.692 0 00-5.76.63l-1.75.12c-.47-.21-.8-.44-.64-1.12a7.1 7.1 0 01.17-.83c2.07-4.52 3.659-9.07 6.369-13.42a8.618 8.618 0 001.44-2.91c1.13-2.35 2.241-4.71 3.521-7 1.11-2 2.24-4.23 3.19-6.22.16-.36.309-.88.159-.84-.48-.36-.63.17-1 .56a34.899 34.899 0 00-2.239 3.92c-1.59 3.1-3.001 6.34-4.631 9.61a31.419 31.419 0 01-2.219 4.23 48.877 48.877 0 00-4.161 8.38c-.64 1.59-1.429 3.24-2.229 4.87-.266.503-.654.93-1.13 1.24-.15 0-.31-.08-.48 0-.17.08-.15-.13-.15-.28.15-.37.15-.85.32-1.21 2.87-5.66 5.11-11.64 8.62-17.48 2.23-3.75 4.15-7.73 6.06-11.56.65-1.13 1.28-2.4 2.09-3.56a3.494 3.494 0 012.55-1.92c.95-.07.95-1 1.43-1.63.33-.4.479-.59.799-.51.201.192.364.419.481.67l.009.41zm11.81 49.28c-.15.19-.469.44-.469.27-.16 0-.31-.23-.31-.4.78-2.27 1.739-4.75 2.539-7.18.17-.2.331-.4.481-.44a.266.266 0 01.116-.006.258.258 0 01.213.246 26.29 26.29 0 01-2.57 7.54v-.03zm6.551-22.88c.034.292-.018.587-.15.85 0 .15-.161.34-.331.55v-.48l.481-.92c.17-.51.169-1.32.649-1.76.48-.44.151.59-.649 1.79v-.03zM861.32 245.65l.33-.56a1.145 1.145 0 00-.33.56zm-.47.43c.15-.2.32-.24.47-.43-.15.03-.32.23-.47.43zm-1.76 2.36l.32-.56a1.13 1.13 0 00-.32.56zm-.48.44l.48-.44c-.16.04-.32.23-.48.44zm-5 5.71l.48-.44c-.09.03-.27.23-.43.44h-.05zm-3.51 3.9l-1.44 1.8a5.14 5.14 0 001.76-2 .675.675 0 01-.27.2h-.05zm-2.4 3h.16l.32-.55-.48.55zm-2.55 2.87a10.085 10.085 0 002.71-2.91 7.99 7.99 0 00-2.66 2.9l-.05.01zm-1.92 1.76c.32-.08.32-.24.47-.44-.1.03-.26.23-.42.43l-.05.01zm-12.72-18.22c0 .15-.16.2-.33.4.17 0 .17.11.17 0 .16 0 .16 0 .31-.25a.11.11 0 00-.15-.15zm44.55-7.6a4.606 4.606 0 01-.64-1.59c-.16-1.4-1-1.53-2.24-.72a14.657 14.657 0 00-3 3 25.237 25.237 0 01-3 3.8 6.287 6.287 0 01-2.22 1.51 40.727 40.727 0 015.26-6.74l1.44-1.48c.15-.19.32-.55 0-.63l-.48.12a21.766 21.766 0 00-1.76 1.55c-1.59 1.84-3.35 3.56-4.94 5.38-4 5-8.15 9.86-12.14 14.85l-5.11 5.58a7.998 7.998 0 01-2.08 1.8c-.64.32-.8 0-.8-.6a1.792 1.792 0 01-1.492.107 1.797 1.797 0 01-1.058-1.057 12.401 12.401 0 01-1.59-4.25c-.33-3.75-2.09-6.82-3.37-10.18-.63-2.07-2.22-2.15-4.31-1.48l-2.23 1c-1 .56-1.12.76-1.12 1.88a36.16 36.16 0 01.48 4.19 24.84 24.84 0 003.35 11.94 38.414 38.414 0 008.63 10.94 10.834 10.834 0 003.51 2 5.94 5.94 0 003.35.28 5.105 5.105 0 003.52-2c.63-.8 1.43-1.63 2.24-2.47a49.978 49.978 0 003.35-4c1.91-2.87 3.35-5.94 5.43-8.69.79-1 1.27-2.24 2.55-3 .63-.32.8-1.16 1.11-1.88a41.574 41.574 0 012.72-4.19c.8-1 1.44-1.95 2.24-3.12.8-1.17 1.59-2.47 2.56-3.67a16.289 16.289 0 001.91-3.51 4.067 4.067 0 00-.07-4.67zm-29.7 28.8a.245.245 0 01-.111.002.252.252 0 01-.102-.044.253.253 0 01-.107-.188.696.696 0 01.16-.52l3.19-3a.465.465 0 01.47.05c.17.12.17.27 0 .48a6.834 6.834 0 01-3.5 3.22zm2.55 7.35l-.16-.27c0-.17.16-.36.16-.52a7.556 7.556 0 012.24-1.53.47.47 0 01.32.09.114.114 0 01.055-.001.134.134 0 01.05.023.124.124 0 01.045.098 4.56 4.56 0 01-2.71 2.11zm13.41-17.87a11.169 11.169 0 01-.8 1.48c-2.87 3.58-5.26 7.22-8 10.61a7.758 7.758 0 01-3.35 2.58 5.172 5.172 0 00-1.28 1.13l-.48.12c-.16 0 0-.33.32-.56.448-.29.932-.522 1.44-.69a88.996 88.996 0 008.63-10.45 20.22 20.22 0 013.5-4.22c0-.17.17-.36.33-.57a1.106 1.106 0 01-.31.57zm4-4.84c-.65.81-1.12 1.88-2.08 2.13a5.787 5.787 0 011.6-2.48c.46-.443.884-.921 1.27-1.43-.31.55-.48 1.23-.79 1.78zm4-6.09c-.16.19-.16.52-.31.87l-.48.44c-.48-.2 0-.48.15-.68l.64-.63a8.996 8.996 0 012.56-3.84c.62-.48-.66 1.93-2.57 3.84h.01zm-41.2 1.16c-.15.2-.15.37-.32.41.17.11.32.23.32.07.16 0 .16-.19.33-.23l-.33-.25zm59.4 48.59c-.48-.2-.48-.68 0-1.29l.65-.63c1.59-1.67 1.76-2.51 1-3.91a18.622 18.622 0 00-1.6-2.48c-.63-1.44-1.75-2.59-1.27-4.46a1.568 1.568 0 00-.32-1.69 7.002 7.002 0 00-5.44-3.27 23.273 23.273 0 00-7.5.75c-6.22 1.4-12.29 3.39-18.53 5.42-5.26 1.79-10.53 3.43-16 5.58-1.76.75-3.51 1.36-5.27 2.26a21.138 21.138 0 01-5.74 2.09c-.72.2-1.418.475-2.08.82a25.36 25.36 0 01-5.27 2.44 169.804 169.804 0 00-16.29 7.89 35.318 35.318 0 00-6.54 4.82 10.085 10.085 0 00-3.83 8.31 17.272 17.272 0 01-.33 6.31 3.415 3.415 0 000 1.75c0 1.28.64 1.6 1.92 1.45a6.265 6.265 0 001.76-.29.864.864 0 01.63.48 2.093 2.093 0 00-.15.52l-.48.44c-.48.44-1 .88-.65 1.44.35.56.65.47 1.28.47a9.923 9.923 0 002.87-1c7.35-3.58 14.86-7.37 22.2-10.48 1-.4 1.76-1.24 2.72-.84.31.4-.65 1.28-2.39 2-.17 0-.17.21-.33.25-6.39 2.7-12.61 5.86-18.85 8.85-.988.442-1.946.947-2.87 1.51a13.17 13.17 0 004.15-1.36c4.79-2.3 9.75-4.5 14.53-6.82a34.378 34.378 0 013.37-1.15c1.11-.27 1.59.56 1.11 1.64-.63 1.44-1.44 2.59-2.07 4a99.52 99.52 0 01-4.48 9.74 49.952 49.952 0 00-2.39 5.07c-1 3.27-2.56 6.55-3.67 9.86l-4.79 13.33a93.023 93.023 0 00-3.68 10.81c-.64 2.4-1.43 4.83-2.23 7.27-1.6 5-3.52 10.13-5 15.28a27.146 27.146 0 01-1.27 5.11 55.12 55.12 0 00-3 12.9c-.4 1.896-.4 3.854 0 5.75a4.793 4.793 0 002.09 3.15 6.389 6.389 0 012.7 3.47c.314.981.93 1.839 1.76 2.45a1.998 1.998 0 002.24.23c.32-.23.63-.31 1.11-.6 1.28-.48 1.44-.36 1.91.8.48 1 .81 1.08 1.76.52a9.582 9.582 0 013.2-1.43c1.44-.2 1.76-.6 2.08-2.11.174-1.6.509-3.177 1-4.71a5.644 5.644 0 00.31-3.6 2.286 2.286 0 01.8-2.28v-.15c.81.27 1-.56 1.12-1.09 2.23-6 4.32-11.77 6.39-17.71.8-2.12 1.43-4.35 2.39-6.51 2.24-5.34 4.48-10.7 6.39-16.29a40.703 40.703 0 012.39-5.7 15.813 15.813 0 001.92-5.27c-.63 1.12-1.44 2.28-2.24 3.43-.15.36-.48.6-.63.48-.48 0-.33-.56-.16-.92.79-1.32 1.44-2.75 3-3 1.76-3.46 3.52-6.94 4.15-10.62l-.48.13a10.77 10.77 0 011.76-4 27.636 27.636 0 003-5.86 3.69 3.69 0 01-1.06.84c.28-.361.644-.649 1.06-.84.62-1.09 1.1-2 .67-3.09 1.27-2.21 3-4.39 2.69-6.84.044-.266.154-.517.32-.73a22.184 22.184 0 002.08-5.47 17.641 17.641 0 011.59-5.5c.15 0 .15-.21.15-.36 0-.33-.47-.69-.78-.44l-.81.67c-.32.25-.47.44-.8.36-.48-.19-.31-.71-.15-1.07a4.1 4.1 0 00.32-.88 29.552 29.552 0 002.55-9.42c.15-1.95.48-2.51 2.56-3.35l6.55-2.43c1.91-.8 3.83-1.76 5.74-2.4a132.3 132.3 0 0112.96-3.78c2.07-.35 4-1 6.07-.72 1.91.17 3.67-.75 5.42-2.14.64-.48.8-1.17.32-1.52-.48-.35-.98-.24-1.3-.64h.01zm-70.43 109.22a2.955 2.955 0 01-.31 1l-.48.44c-.17-.12-.32-.4-.17-.44.005-.455.175-.892.48-1.23 0-.17.17-.21.48-.13v.36zm5.28-15.21c-.17.2-.17.35-.32.24 0-.16.15-.2.15-.37 0-.17.25-.2.3-.27a1.561 1.561 0 00-.13.4zm.63-1.12l-.48.61a.75.75 0 00.16-.53c.17-.35.32-.39.32-.24v.16zm-14.22-79.17c4.48-2.39 9.11-4.51 13.9-6.66 5.28-2.11 10.7-4.43 16.13-6.57 7.18-2.76 14.38-5.67 21.71-7.82 2.89-.88 5.91-2.11 9-2.87 2.07-.35 4.16-.87 6.07-1.19.79 0 1.44-.19 2.07-.19.33.07.8.11.8.44s-.64.63-.95.71a1.918 1.918 0 01-1.28.32c-6.55 1.48-13.1 3.74-19.64 5.86-10.07 3.15-20.12 7.09-30 11.31-4.46 1.76-8.77 3.79-13.09 5.67l-4.5 2.07c-.32.07-1.12.28-1.12.11-.21-.75.43-.92.9-1.19zm-8.77 8.1c-.17.2-.32.08-.48.12.16 0 .16-.21.31-.4a1 1 0 00.65-.33l-.48.61zm26.34 62.57c0 .17-.15.52-.32.55-.16.21-.31.25-.31-.07.045-.213.153-.408.31-.56 0-.16 0-.16.17-.19s.31.07.15.27zm2.88-67c-.636.518-1.331.958-2.07 1.31-8.31 3.67-16.77 7.37-25.08 11.83l-1 .25-.15-.12c0-.16-.17-.44 0-.47a4.925 4.925 0 012.07-1.8c3.52-1.84 7-3.68 10.54-5.35 4.47-2.23 9.1-4.19 13.58-6.26a8.911 8.911 0 011.91-.63c.32-.08.48 0 .48.52-.034.265-.13.519-.28.74v-.02zm4.8 48.31a.922.922 0 01-.48.75c-.17 0-.33-.08-.17-.27a.768.768 0 01.48-.77c.14-.01.32.1.14.31l.03-.02zm10.69-63.36c-11 4-22 9-33.22 13.72 0-1 .65-1 1.13-1.24 7.81-3.87 15.64-7.42 23.79-10.56 5.11-1.92 10.22-4 15.33-5.9 5.59-2.19 11.18-3.91 16.92-5.66a39.78 39.78 0 019.59-1.43c-11.19 3.33-22.36 6.88-33.54 11.09v-.02zm30.5 2.46a14.114 14.114 0 01-4.15 1.36l-1.6.39a54.277 54.277 0 00-9.58 3 87.43 87.43 0 01-8.14 3.15 1.665 1.665 0 01-.8 0c-.16 0-.48 0-.48-.21s.15-.51.32-.55A27.976 27.976 0 01854 308l6.39-2.55c4.78-1.67 9.74-2.91 14.69-4.14.31-.07.64 0 .64.48-.18.21-.35.39-.5.43v-.02zm3.35-4.51c-1.289.527-2.63.916-4 1.16a194.711 194.711 0 00-23.8 7.69 9.015 9.015 0 01-3.36 1c-.48.12-1.27.33-1.44-.44-.15-.59.65-1 1.28-1.28s1-.4 1.44-.67c7.67-2.87 15.49-5.62 23.31-7.89a16.06 16.06 0 017.83-.68 1.523 1.523 0 01-1.26 1.13v-.02zM927.11 259.58a4.39 4.39 0 001.13-2.68c0-1.75.63-3.51.15-5.15a2.374 2.374 0 00-.8-1.07 6.237 6.237 0 01-2.07-4.12c-.8-3.15-4.48-3.52-7.18-.6a72.455 72.455 0 00-7.52 9.7 144.748 144.748 0 00-7 13.09c-1.75 3.95-3.35 8-5.27 11.85a75.21 75.21 0 00-4.15 10.78 26.806 26.806 0 01-1.44 3.7 127.93 127.93 0 00-5.59 17.36c-.8 3.08-1.43 6.11-2.39 9.07a88.425 88.425 0 00-2.87 12.54 11.685 11.685 0 00.48 7.85 38.939 38.939 0 012.39 5.64c.32.88.48 1.8 1.44 2 .8.29 1.43-.84 2.24-1a2.238 2.238 0 011.43-.36c.48.36-.32.88-.63 1.28 0 .15-.17.36-.17.51a.625.625 0 00-.033.733.634.634 0 00.683.267 4.34 4.34 0 001.74-1.07l3.2-3.2a7 7 0 001.76-3.79 69.898 69.898 0 012.07-7.86c.48-2 1.45-4 1.93-6.06a24.7 24.7 0 012.7-6.75 33.611 33.611 0 003-7.62 42.471 42.471 0 013-7.47c.521-.938.899-1.95 1.12-3a23.095 23.095 0 013-7.62c1.76-3.15 3.2-6.23 4.63-9.3l-.63.16a.471.471 0 00-.33-.08.927.927 0 01.48-.29.657.657 0 01.48.21 20.91 20.91 0 002.24-6.47 12.738 12.738 0 012.72-5.63A8.366 8.366 0 00925 271a3.437 3.437 0 01.8-2.11c1.12-1.87 1.27-4 1.92-5.91.32-.71 0-1.11-.65-1.28-.79.05-1-.39-.48-1.15.142-.339.316-.664.52-.97zm-32.41 85.21c-.15 0-.32.24-.48.28a1.325 1.325 0 01-.47 0c-.17-1.24.63-2.24 1.43-3.23 0 0 .16 0 .16.11.17 0 .17.12.17.12a3.823 3.823 0 01-.81 2.72zm28.58-76.12c-.15-.11-.31-.23-.31-.4.16-.51.48-1.07 1-1 .15 0 .15.28.31.4-.2.49-.67 1.09-1 1zM889.11 378a.789.789 0 00-.8-.92c-1.59.08-1.59.08-1.28-1.44l.17-1.15a4.135 4.135 0 00-1.13-3.72 2.372 2.372 0 00-2.87-1.19c-1 .23-1-.57-1-1.21-.63-.15-1.28-.15-1.43-.59-1-1.84-3-1.49-4.79-1.53a3.999 3.999 0 00-3.67 2.36 9.174 9.174 0 00-1 2.16c-1.28 2.54-1.76 5.22-2.72 8a103.269 103.269 0 00-4.15 16.2 31.393 31.393 0 00-.32 9.34c.16 1.39.32 3 1.6 3.44a7.188 7.188 0 013 4.34 4.67 4.67 0 001.6 2.49 1.36 1.36 0 001.92.15c1.59-1.19 3.67-2 5.11-3.83.32-.4.63-.95 1.28-.95.31-.08 0 .95-.65 1.6-.382.565-.81 1.097-1.28 1.59-.404.382-.775.797-1.11 1.24a.713.713 0 00-.33.87c0 .33.33.25.65 0l1.44-.83c2.24-1.68 3.83-3.52 4-6.26.33-1.181.492-2.403.48-3.63a3.831 3.831 0 01.48-2.53 16.588 16.588 0 002.24-5.82c.8-2.75 1.76-5.55 2.87-8.38.199-.366.309-.774.32-1.19 0-.17-.15-.29-.48 0-.8.67-.8.19-.63-.49l1.92-3.83c.8-1.48-.16-2.51.47-4l.09-.29z" fill="#000"/>
  </g>
  <defs>
    <clipPath id="clip7">
      <path fill="#fff" d="M0 0h961.44v694.79H0z"/>
    </clipPath>
  </defs>
</svg>
