<svg viewBox="0 0 1001 1001" fill="none" xmlns="http://www.w3.org/2000/svg">
  <g clip-path="url(#clip10)">
    <path d="M1000.38 500c0 146.87-63.32 279-164.15 370.44-2.85 2.57-5.72 5.13-8.63 7.64A498.088 498.088 0 01500.38 1000c-276.14 0-500-223.85-500-500a499.003 499.003 0 01147.1-354.19 459.19 459.19 0 017.93-7.74 387.75 387.75 0 018.43-7.85 486.301 486.301 0 0129.75-25A497.74 497.74 0 01500.38 0c276.15 0 500 223.86 500 500z" fill="#fff"/>
    <path d="M193.62 105.2a509.918 509.918 0 00-29.75 25 468.98 468.98 0 00-8.43 7.85 483.554 483.554 0 00-7.94 7.72 61.458 61.458 0 01-33.486 100.046A61.461 61.461 0 0172.9 240.52l-.13-.07a498.247 498.247 0 00-28.7 54.36l.18.1a122.916 122.916 0 00153.106-33.11 122.916 122.916 0 00-3.736-156.6z" fill="#2E66FF"/>
    <path d="M716.22 419.67c40.77 0 73.82-33.05 73.82-73.82 0-40.77-33.05-73.82-73.82-73.82-40.769 0-73.82 33.05-73.82 73.82 0 40.77 33.051 73.82 73.82 73.82z" fill="#2CEBAD"/>
    <path d="M289.85 505.35v.12a1.37 1.37 0 01.2-.34 1.985 1.985 0 00-.2.22zm-8.14 8c.12 0 .12 0 .12-.16l-.12.16zm-6.18 5.24a6.291 6.291 0 00-.74.92 20.819 20.819 0 006.55-5.82c-2.1 1.31-3.83 3.25-5.81 4.86v.04zm-3.82 3.3c-1.11.89-2.1 1.88-3.21 2.65-4.07 2.74-7.9 5.92-12.1 8.32-.49.37-.86.71-1.23.93a18.592 18.592 0 005.06-2.75c3.21-2.15 6.29-4.4 9.38-6.66 1.85-1.44 3.83-2.8 5.18-4.87a20.369 20.369 0 00-3.08 2.34v.04zm-17 12.14c-.24.06-.24.06-.12.16h.12c.1-.12.12-.15.18-.17l-.18.01zm-4.93 2.1a.79.79 0 00-.5.24c-.12.16 0 .25.13.22a.758.758 0 00.61-.4c-.16-.01-.16-.13-.28-.1l.04.04zm-12.47 18.53v.13c.142-.381.309-.751.5-1.11a4.547 4.547 0 00-.54.94l.04.04zm66.28-74.78a35.023 35.023 0 00-2.71-13c-2.6-6.14-7.53-9.23-14.44-9.73h-1.61c-1.11.15-2.1.4-3.21.55a47.174 47.174 0 00-15.18 4.4 56.202 56.202 0 00-10.24 5.64 27.52 27.52 0 00-2.47 1.48c-1.533.8-2.946 1.81-4.2 3-.49.5-1.11.9-1.6 1.39l-4.2 3.64a10.042 10.042 0 00-2.59 4.1 2.178 2.178 0 00-.12 2.13c.209.572.291 1.183.24 1.79-.24 1.54-.12 1.64 1.36 1.88.25.07.49 0 .62.34.37 1.15.49 1.11 1.48.62.99-.49 1.73-1.05 2.59-1.51 1.36-.83 2.71-1.54 4.07-2.37.13 0 .5-.12.5.12s-.13.4-.25.43c-.74.56-1.36 1.08-2.1 1.64.37-.09.74-.31 1.11-.4 1-.12 1.36.4.74 1.29a37.628 37.628 0 00-3 5.43 43.752 43.752 0 01-1.85 4c-1.24 2.66-2.59 5.34-3.7 8-.74 1.42-1.24 2.9-1.85 4.29-1.36 3.3-3 6.54-4.32 9.84-3.46 8.15-6.79 16.26-9.51 24.59-.74 2.16-1.6 4.35-2.34 6.51a12.124 12.124 0 00-.87 3.54c-.25 2 0 4 1.73 4.88.515.408.901.957 1.11 1.58.105.469.269.923.49 1.35.62 1.21.87 1.39 2.47.75.74-.31 1.11-.4 1.48.37.25.55.5.61 1.24.06s1.48-1.23 2.47-1.11v-.12a8.81 8.81 0 00.86-2.44h.12a.722.722 0 01-.333-.917.708.708 0 01.213-.283 6.936 6.936 0 001.48-2.84c-.37 0-.49-.25-.49-.62a5.821 5.821 0 011.11-2 17.019 17.019 0 003.11-6.37h-.43c.06-.13.08-.28.18-.3.25-.18.25.19.25.31a26.457 26.457 0 002.46-5.8h-.09a6 6 0 012.07-2.33c1.48-.86 3-1.73 4.44-2.47 7.28-3.29 13.83-8.38 20.37-13.22.238-.071.449-.21.61-.4 3.58-3.36 7.41-6.17 10.87-9.74.271-.198.519-.427.74-.68a4.264 4.264 0 012.46-1.24 2.384 2.384 0 001.49-.86 17.582 17.582 0 003.45-3.58c-.757.47-1.461 1.02-2.1 1.64-.37.34-.86.71-1.35 1.08-.13.15-.37.09-.5.12a.817.817 0 01.13-.52c1.23-1.18 2.46-2.72 4.32-2.93 1.6-1.27 2.71-3 4.19-4.38 2.22-2.16 3.46-5.06 5.56-7.43.12-.16.12-.41.37-.71a22.16 22.16 0 003.06-12.52l.04.04zm-64.18 68.34c0 .12-.25.3-.25.3v-.37c.197-.176.366-.382.5-.61-.083.219-.18.433-.29.64l.04.04zm3.58-8.3s.12-.16.12 0c.025-.007.051-.01.077-.007a.192.192 0 01.163.147c-.23-.06-.35.02-.35-.18l-.01.04zM256 472.06a7.506 7.506 0 012.22-1.66 75.364 75.364 0 0115.56-7 20.387 20.387 0 016.66-.92 3.822 3.822 0 01-1.85.7c-3.58 1-7.28 2.31-10.86 3.7a67.767 67.767 0 00-6.3 2.68 25.177 25.177 0 01-5.43 2.46 7.67 7.67 0 01-2.34 1.58 7.695 7.695 0 012.34-1.54zm15.43 1a7.746 7.746 0 01-1.6.4c-.37.09-.74.19-1-.12s.25-.8 1-1a32.725 32.725 0 0110-2.37c.25.06.5 0 .37.4 0 .13-.24.31-.37.34-1.72.43-3.33 1-5.06 1.51l-3.34.84zm.5 1.85a.552.552 0 01-.38.47c-.12 0-.24-.19-.37-.16l.37-.34c.148-.03.301-.03.45 0l-.07.03zm-16.39-.91a24.105 24.105 0 018.52-4.47 4.618 4.618 0 011.85-1.2 55.774 55.774 0 0110.24-3.67c.12.1.37 0 .87 0a8.236 8.236 0 01-2.84 1.45c-2.47.87-5.06 1.88-7.66 2.77a5.996 5.996 0 01-2.46.62 43.373 43.373 0 01-8.52 4.5zm2.34 33.23c-.043.483-.26.935-.61 1.27-.27-.5.37-.8.61-1.23v-.04zm-8.14-23.64c-1.11.77-2.35 1.45-3.46 2.22-.37.22-.62.28-.86.46l-.25-.18v-.25c.12-.15.25-.31.37-.34a82.848 82.848 0 018.15-5.49 4.52 4.52 0 011.11-.4c.12 0 .12.1.25.07v.32a3.192 3.192 0 01-1.12 1c-1.48 1-2.83 1.8-4.19 2.63v-.04zm4.93 30.61l-.24.44c-.25-.27.12-.36.24-.4v-.04zm-2 9c-.12 0-.12.16-.25.31a1.74 1.74 0 00-.5.18l.38-.39c.15-.11.28-.02.4-.05l-.03-.05zM251 526c.22 0 .43-.2.73-.3l.13-.15v.12h-.14a3.791 3.791 0 01-.6.64c-.25.18-.37.09-.37-.16.1.03.1-.09.25-.15zm9.88.38a44.38 44.38 0 01-11.24 7.12 5.433 5.433 0 01-1.85.58c-.24-.06-.49-.12-.37-.4.037-.201.123-.39.25-.55.223-.276.522-.481.86-.59a83.386 83.386 0 0011.61-6.47c.61-.4 1.35-.71 2-1.11-.404.506-.835.99-1.29 1.45l.03-.03zm3.58-2.75a7.284 7.284 0 01-1.23.55l-.13.16-.49.3.49-.42h.13a9.827 9.827 0 011-1.1 1.278 1.278 0 011.11-.4c.2-.08-.17.51-.91.94l.03-.03zm27.27-21h-.12l.12-.16c.146-.183.314-.347.5-.49a2.562 2.562 0 00-.53.69l.03-.04zm1.36-25.52a14.16 14.16 0 01-1.36 2.19c-3.21 4.13-6.17 8.45-10 12-1.49 1.48-2.72 3.14-4.08 4.59a94.41 94.41 0 01-12.34 11.84c-1.73 1.42-3.46 2.84-5.06 4.35a27.285 27.285 0 01-3.46 2.84c-.61.4-1.23.06-1.11-.71.25-1 .74-2.16.5-3.09-.13-.46.24-.8.61-1a3.87 3.87 0 001.36-1.57c1.36-2.81 3-5.68 4.07-8.55h-.05a.814.814 0 00-.07.13.234.234 0 00-.07-.07 3.276 3.276 0 01-.79.28c.22-.61.55-.54.79-.28a.908.908 0 00.14-.06c1.2-2.36 2.3-4.57 3.39-6.9a8.673 8.673 0 001-3.34 1.68 1.68 0 01.13-.77c1.23-1.66 1.48-3.58 2.59-5.21a14.55 14.55 0 001.36-4.29c.12-.65-.37-.65-.74-.92s-.37-.9.12-1.39a10.285 10.285 0 013.33-1.82 40.667 40.667 0 0110.74-1.94 21.073 21.073 0 015.8.41 7.363 7.363 0 012.72 1.05c.82.57.94 1.12.45 2.27l.03-.04zM361.071 493.89v.74c.12-.28.25-.56.37-.83l-.37.09zm-7.65-46h.12c.15-.179.274-.377.37-.59a3.003 3.003 0 01-.49.61v-.02zm0 0a2.128 2.128 0 00-.37.58c.129-.228.295-.434.49-.61l-.12.03zm-.87 1.2a2.79 2.79 0 01.5-.62 1.431 1.431 0 00-.5.64v-.02zm-.86.71c.49.25.62-.28.86-.71a2.85 2.85 0 00-.86.73v-.02zm-8.52 13.85c.144-.38.311-.75.5-1.11a3.381 3.381 0 00-.5 1.13v-.02zm10.25-15.76a2.128 2.128 0 00-.37.58c.129-.228.295-.434.49-.61.15-.179.274-.377.37-.59-.134.234-.299.45-.49.64v-.02zm-.87 1.2a2.79 2.79 0 01.5-.62 1.431 1.431 0 00-.5.64v-.02zm-.86.71c.49.25.62-.28.86-.71a2.85 2.85 0 00-.86.73v-.02zm-8 12.74a3.372 3.372 0 00-.5 1.11c.138-.373.298-.736.48-1.09l.02-.02zm29.49-4.15c.309-1.648.437-3.324.38-5a8.007 8.007 0 00-.62-3.05 16.614 16.614 0 00-6.17-7.72 2.674 2.674 0 00-2.72-.43 1.828 1.828 0 01-1.6-.47 14.135 14.135 0 00-1.61-1.2 5.582 5.582 0 00-3.08-1.33 1.87 1.87 0 00-1.85.58 2.274 2.274 0 01-2.72.8l-.86-.28c-.62-.33-1.12.16-1.61.77 0 .25.13.59-.12.9-.13.15-.25.31-.5.25s-.12-.22 0-.37c.238-.233.446-.495.62-.78-1.28.79-2.67 1.6-4.07 2.31a10.26 10.26 0 013.7-3.32c.5-.25 1.11-.53 1.11-1.27-.12-.58-.74-.68-1.11-.83a2.467 2.467 0 00-1.6.15c-.726.235-1.429.537-2.1.9a38.403 38.403 0 00-8 6.69 17.223 17.223 0 01-1.86 2.06 55.979 55.979 0 00-9.13 10.42 21.043 21.043 0 01-2.34 2.94c-.75.92-1.49 1.85-2.1 2.74-1 1.6-1.85 3.18-3 4.69-.74 1.17-1.6 2.37-2.22 3.51a66 66 0 00-3.95 7.9l-.74 1.42a34.56 34.56 0 00-3.95 8.14 20.569 20.569 0 01-1.23 2.78 65.734 65.734 0 00-3.95 10.24l-.37 2c-.37 2.19-.62 4.47-1 6.66-1.11 6.45-.12 11.88 3 16.54a63.91 63.91 0 006.92 8.28c2.59 2.31 5.92 3.33 9.5 3.8a23.21 23.21 0 005.18-.43c6.05-1.39 11-5 15.18-10.45a89.112 89.112 0 007-10.77 25.861 25.861 0 002.92-5.68c.324-.42.615-.864.87-1.33a57.614 57.614 0 003.95-8.39 3.6 3.6 0 01.49-1.36c1.48-2.09 2.1-4.35 3.09-6.57-.62-.09-.62-.21.12-.89l.37-.09a8.328 8.328 0 011.6-4c.228-.285.357-.635.37-1-.37-1 .25-1.67 1-2.59.465-.506.768-1.14.87-1.82a14.906 14.906 0 012-4.81c.149-.197.236-.433.25-.68a9.712 9.712 0 011.48-4.44c1.36-2.56 1.6-5.22 2.34-7.87l.37-1.7a.195.195 0 00-.076-.149.192.192 0 00-.164-.031c-.62.27-.87 0-.5-.5a12.39 12.39 0 002.22-5.85l.02-.02zm-20.24-14c.37-.21.74-.55.87-.58.37-.22.49-.25.61 0a.18.18 0 01-.034.1.18.18 0 01-.086.06 1.678 1.678 0 01-.439.629 1.675 1.675 0 01-.671.371c-.12 0-.37.09-.37 0-.27-.06-.02-.37.1-.52l.02-.06zm-18.63 14.27l.25-.31a2.08 2.08 0 00-.25.44v-.13zm0 19.75c-.13.53-.13 1.14-.87 1.45-.39.14.1-.58.85-1.39l.02-.06zm-5.06 47.8a.337.337 0 01-.25-.06.486.486 0 01-.13-.34l.62-.9a88.886 88.886 0 006-6.69c.186-.163.394-.298.62-.4.12 0 .37 0 .37.15a.854.854 0 01-.13.53c-1.85 2.56-3.7 5.24-6.41 7.28a2.496 2.496 0 01-.71.49l.02-.06zm2.71.06a.77.77 0 01-.49.25s-.13 0-.13-.1l-.12-.09c.098-.249.222-.487.37-.71 1.73-1.91 3.46-3.82 5.06-5.7.25-.31.49-.37.62-.28a.384.384 0 010 .49 28.691 28.691 0 01-5.33 6.2l.02-.06zm4.94 7.53c-.13 0-.13-.21-.13-.34a2.09 2.09 0 01.87-.83c.084-.012.17.01.24.06-.02.56-.76 1.36-1 1.17l.02-.06zm.86-4.41a18.626 18.626 0 01-2.71 2.41c-.25.06-.5.12-.62 0a.577.577 0 010-.62 7.467 7.467 0 011.11-1.51 94.688 94.688 0 007.78-9.59c.213-.299.461-.571.74-.81l.24-.06a.102.102 0 01.091.016.104.104 0 01.039.084.684.684 0 01-.13.52c-2.12 3.33-3.84 6.72-6.56 9.62l.02-.06zm12.22-13c-1.48 2.34-2.84 4.78-4.32 7.12a51.622 51.622 0 01-4.69 6.11c-.37.46-.86.83-1.23 1.29-.37-.4 0-.74.12-1 3.58-4.72 6.66-9.69 9.87-14.69.62-.89 1.24-1.78 1.86-2.56a.632.632 0 01.397-.331.637.637 0 01.513.071c-.86 1.3-1.69 2.6-2.5 4.01l-.02-.02zm7.41-65.91c-.5 2.84-.74 5.49-1.48 8.27-1 4.2-2.23 8.33-3.34 12.56l-.74 1.91a66.024 66.024 0 00-2.59 8.42 17.256 17.256 0 01-1.73 4.51c-1.11 2.37-2.1 4.72-3 7a25.114 25.114 0 01-2.22 5c-.154.22-.278.458-.37.71-1.11 3.23-3.21 6.1-5.06 9.16a7.855 7.855 0 00-.62 1.14c-1.11 2.62-3.08 5-4.94 7.4a40.387 40.387 0 01-6.54 6.45c-2.34 1.81-3.21 1.41-3.58-1.21-.259-2.33.039-4.688.87-6.88a78.746 78.746 0 002.59-8.92c.49-1.48 1-3.08 1.36-4.53.49-1.61.86-3.3 1.23-4.88a1.41 1.41 0 01.37-1.32c.25-.56.62-1 .86-1.58.25-.3.37-.71.13-.89-1.11-.71-.37-1.51.37-2.07a6.455 6.455 0 002-3.08c1.73-4.38 4.08-8.67 6.05-13 .378-.76.712-1.541 1-2.34l-.74.55c-.13 0-.37.09-.37 0v-.37l1.11-1v.87c2-2.84 3.58-5.83 5.18-8.7l-2.84 2.93c.427-.941.922-1.85 1.48-2.72l2.84-4.41a7.99 7.99 0 012.6-2.87c.61-.4 1.11-.89 1-1.48a3.757 3.757 0 011-2.46c.74-1.05 1.61-1.89 2.35-2.93v.12a13.748 13.748 0 012.59-4 .932.932 0 011.11-.52 2.447 2.447 0 012.22 2.65c.007.846-.05 1.692-.17 2.53l.02-.02zm-4.32-2c.129-.228.295-.434.49-.61.15-.179.274-.377.37-.59-.136.227-.3.436-.49.62a2.131 2.131 0 00-.39.59l.02-.01zm-.5.62a2.79 2.79 0 01.5-.62 1.427 1.427 0 00-.52.63l.02-.01zm-.86.71c.49.25.62-.28.86-.71a2.864 2.864 0 00-.88.72l.02-.01zm-8.52 13.85c.144-.38.311-.75.5-1.11a3.37 3.37 0 00-.52 1.12l.02-.01zM439.07 386.31l.25-.43c-.12.12-.25.31-.25.43zm-.37.34c.13-.15.25-.18.37-.34-.07.03-.24.19-.37.34zm-.24 91c.12-.15.12-.28.24-.43V477a1.69 1.69 0 01-.24.68v-.03zm-.5 1c.209-.311.377-.647.5-1l-.5 1zm-.61-90.2l.24-.43a.907.907 0 00-.24.45v-.02zm-.37.34l.37-.34c-.13.05-.25.21-.35.36l-.02-.02zm-3.83 4.41l.37-.34c-.12.05-.25.21-.37.36v-.02zm-2.72 3l-1.11 1.39a3.782 3.782 0 001.36-1.57.498.498 0 01-.25.22v-.04zm-1.85 2.32h.13l.24-.44-.37.44zm-2 2.22a8.381 8.381 0 002.1-2.25 5.914 5.914 0 00-2.07 2.29l-.03-.04zm-1.48 1.35c.24-.06.24-.18.37-.34-.1.07-.22.25-.34.38l-.03-.04zm-9.88-14.07c0 .12-.12.15-.24.3.12 0 .12.1.12 0s.12 0 .25-.18a.102.102 0 00-.01-.034.092.092 0 00-.054-.043c-.012-.003-.024-.004-.036-.003l-.03-.04zm21.11 92.73a79.303 79.303 0 01-7.28 9.72c-2.84 3.42-5.68 6.72-8.77 9.84-1.85 1.82-3.7 3.64-5.43 5.42-.45.304-.798.736-1 1.24a.294.294 0 00.036.119c.021.036.05.067.084.091h.12a3.374 3.374 0 001-.74c2.72-2.77 5.55-5.46 8.15-8.32 2.46-2.47 4.69-5 6.91-7.65 1.73-2.16 3.33-4.41 4.81-6.63a12.832 12.832 0 002.47-4.57 15.003 15.003 0 01-1.07 1.52l-.03-.04zm13.33-98.6a3.392 3.392 0 01-.49-1.24c-.13-1.08-.75-1.17-1.73-.56a11.023 11.023 0 00-2.35 2.32 20.753 20.753 0 01-2.34 2.93 5.153 5.153 0 01-1.73 1.17 31.507 31.507 0 014.07-5.21l1.11-1.14c.13-.16.25-.44 0-.5l-.37.09c-.49.37-1 .87-1.35 1.21-1.24 1.42-2.6 2.74-3.83 4.16-3.09 3.85-6.3 7.62-9.38 11.47l-3.95 4.32a6.23 6.23 0 01-1.61 1.39c-.49.24-.61 0-.61-.47a1.405 1.405 0 01-1.171.092 1.392 1.392 0 01-.829-.832 9.767 9.767 0 01-1.23-3.27c-.25-2.9-1.61-5.28-2.59-7.87-.5-1.61-1.73-1.67-3.34-1.14l-1.72.8c-.74.43-.87.58-.87 1.45a26.73 26.73 0 01.37 3.24 19.114 19.114 0 002.59 9.22 29.507 29.507 0 006.67 8.46 8.439 8.439 0 002.71 1.55c.829.315 1.73.391 2.6.22a4 4 0 002.71-1.54c.5-.62 1.11-1.27 1.73-1.92a33.166 33.166 0 002.59-3.11c1.48-2.22 2.59-4.6 4.2-6.73a8.458 8.458 0 012-2.34c.5-.25.62-.89.87-1.45a30.04 30.04 0 012.1-3.24c.61-.77 1.11-1.51 1.72-2.4.61-.89 1.24-1.92 2-2.84a12.798 12.798 0 001.48-2.71 3.157 3.157 0 000-3.54l-.03-.04zm-23 22.26a.191.191 0 01-.089.002.19.19 0 01-.139-.105.204.204 0 01-.022-.087.531.531 0 01.13-.4l2.47-2.34a.413.413 0 01.37 0c.12.09.12.22 0 .37a5.408 5.408 0 01-2.65 2.6l-.07-.04zm2 5.68l-.13-.22c0-.12.13-.28.13-.4a6.01 6.01 0 011.72-1.17.342.342 0 01.25.06.093.093 0 01.044-.004.08.08 0 01.04.017.09.09 0 01.036.077 3.531 3.531 0 01-2.04 1.68l-.05-.04zm10.36-13.82a9.817 9.817 0 01-.61 1.14c-2.22 2.78-4.08 5.58-6.17 8.21a6.193 6.193 0 01-2.6 2 3.73 3.73 0 00-1 .86l-.37.1c-.13 0 0-.25.24-.44a4.626 4.626 0 011.11-.52 68.243 68.243 0 006.67-8.08 15.866 15.866 0 012.71-3.27.933.933 0 01.25-.43.85.85 0 01-.18.47l-.05-.04zm3.09-3.73c-.49.62-.86 1.45-1.6 1.63a4.469 4.469 0 011.23-1.91 9.232 9.232 0 001-1.11c-.21.47-.33 1-.58 1.43l-.05-.04zm3.09-4.72c-.13.15-.13.4-.25.68l-.37.34c-.37-.16 0-.37.12-.53l.5-.49a6.904 6.904 0 012-3c.51-.29-.47 1.56-1.95 3.04l-.05-.04zm-31.85.9c-.12.16-.12.28-.25.31.13.1.25.19.25.07s.13-.16.25-.19l-.25-.19zm-10.12 80.78c.141-.38.304-.75.49-1.11a5.04 5.04 0 00-.44 1.15l-.05-.04zm8.27 39.78c0-.12-.25.06-.37.09-1 .87-2.1 1.76-3 2.59a6.705 6.705 0 01-2.1 1.39l-3.7 3.88a6.147 6.147 0 01-3 2h.13l-1.48 1.85a6.181 6.181 0 002.59-1.51l3.58-3.12A17.994 17.994 0 01407 514a41.28 41.28 0 004.45-4.2c.1-.11.35-.29.1-.48l-.05-.04zm-14.44-26c1-1.73 2.22-3.39 2.34-5.28a11.901 11.901 0 00-2.29 5.3l-.05-.02zm-.25.31l-.12.15c.12.09.12.09.25-.06.025-.109.058-.216.1-.32.01.08-.04.13-.18.25l-.05-.02zm-.24 38.69c.345-.187.679-.394 1-.62l-1 .62zm-1.84 1.63l.11-.09a.113.113 0 00-.045.047.115.115 0 00-.015.063l-.05-.02zm0 .07a.165.165 0 010-.07l-.51.44c.3-.17.42-.2.54-.35l-.03-.02zm8.52-54.46c.141-.38.304-.75.49-1.11a5.022 5.022 0 00-.46 1.13l-.03-.02zm-3.8 8.48a11.914 11.914 0 00-2.34 5.28c.99-1.71 2.22-3.37 2.34-5.28zm-2.71 5.74c.12.09.12.09.25-.06.025-.109.058-.216.1-.32 0 .06-.13.11-.23.23l-.12.15zM444 454.32a5.052 5.052 0 01-.25-1.91 24.946 24.946 0 00-.61-5.28 61.665 61.665 0 00-7-19 17.521 17.521 0 00-5.92-6.42 16.429 16.429 0 00-10.86-3c-2.809.113-5.59.601-8.27 1.45-.474.216-.97.38-1.48.49a22.348 22.348 0 00-7.53 3.48c-.634.394-1.304.729-2 1a47.516 47.516 0 00-10 6.44 9.036 9.036 0 00-1.85 2.19 3.092 3.092 0 00-.49 2.84 3.712 3.712 0 010 2.59 1.272 1.272 0 00.49 1.6c.74.31 1.85.16 2.22 1.05 0 .25.5.13.87.16l1.6-.4c1.36-.22 2 .49 1.36 2a16.532 16.532 0 01-2.47 4.81 16.523 16.523 0 00-1.85 3.42 141.978 141.978 0 00-6.42 15.43c-1.85 5.39-4.32 10.7-6.66 16.1-1.36 3-3.09 6.2-4.45 9.38-1.23 3-2.59 5.95-3.95 8.88l-2.83 5.89a4.916 4.916 0 00-.38 3.43c.25 1 .87 1.14 1.61.34l1.85-2.07c.12 0 .37-.09.37 0 .12 0 .12.22 0 .37-.49.87-1 1.61-1.36 2.44-.12.28-.24.55 0 .62 0 .12.25-.07.37-.1l2-2.09c.25-.19.49-.37.62-.16a.388.388 0 010 .5c-.5.74-1.11 1.51-1.61 2.37-.86 1.45-.86 2.07 0 3 .359.21.694.458 1 .74.62.59.37 1.27-.37 1.83-.62.4-1.24.67-1.85 1.07-.61.4-1.61.65-2.47 1.11-1.61.9-2.1 2.13-1.61 3.49a2.35 2.35 0 001.12 1.2 3.995 3.995 0 011.48 2.23c.74 2.77 2.71 4.13 5.55 4.54l2.22.55a6.238 6.238 0 003.46.13 11.702 11.702 0 003.21-1.3c2-1 3.82-2.31 5.92-2.71a4.913 4.913 0 001.48-1 86.707 86.707 0 019.14-7.59 5.627 5.627 0 012.09-1.26c1.86-2.44 3.83-4.66 6.67-5.86a6.74 6.74 0 011.73-2.16c3.82-3.67 7.53-7.31 11.11-11.16a182.241 182.241 0 0017-20.54 18.288 18.288 0 001.85-3.18 8.377 8.377 0 011.36-2.43c1-1.11 1.85-2.07 1.6-3.49a5.131 5.131 0 01.74-1.54 8.849 8.849 0 001.11-3.37 6.405 6.405 0 01.74-2.9c.195-.459.319-.944.37-1.44.264-2.256.341-4.531.23-6.8zm-52.45-19.87c-.13-.22 0-.37.24-.56a5.325 5.325 0 011-.74 71.218 71.218 0 0115.68-7.48c.227-.145.478-.25.74-.31l.49-.13c.86-.09 1.48 0 1.23.31-.24.56-.74.56-1.23.81a84.92 84.92 0 00-16.42 7.54l-1.35.59c-.13.03-.37.09-.37-.03h-.01zm15.55-6.1a4.893 4.893 0 01-1.85 1.08c-4.08 1.75-8 3.73-12.1 5.85-.25.19-.62.28-.86.46s-.13-.09-.25-.06 0-.24.12-.4c.463-.376.959-.71 1.48-1a71.173 71.173 0 0110.87-5.43 6.443 6.443 0 012.6-.5h-.01zm-13.83 11.84a1.876 1.876 0 00-.74.31.869.869 0 01-.49 0 .191.191 0 01-.089.002.19.19 0 01-.139-.105.204.204 0 01-.022-.087c-.12-.09 0-.37.13-.4a3.54 3.54 0 01.74-.68 104.829 104.829 0 0114.81-5.79c.368-.06.743-.06 1.11 0a.093.093 0 01.044-.004.08.08 0 01.04.017.09.09 0 01.036.077v.25l-.37.34c-.515.258-1.05.476-1.6.65-4.56 1.6-9 3.45-13.45 5.42h-.01zm5.68-.8v.25c-.12 0-.25.18-.37.21s-.25-.18 0-.37l.37-.09zm-14.81 67.13a12.84 12.84 0 01.86-1.69c1-1.73 2-3.46 3-5.06a4.07 4.07 0 01.86-1.08c0-.12.25-.18.37-.21a.765.765 0 00.12.33c-.136.381-.3.752-.49 1.11a66.452 66.452 0 01-4.2 7c-.12.15-.37.46-.49.24a.575.575 0 01-.02-.64h-.01zm-7.9-7.28h.12c.13.09.13.09.13.21a3.995 3.995 0 01-.87 1.45c.161-.571.371-1.126.63-1.66h-.01zm-2.59 16.94a.412.412 0 01-.5-.13.379.379 0 010-.49c.25-.31.5-.74.75-1l3.82-4c.25-.18.5-.25.62-.4.12-.15.25-.06.25.06s.12.22.12.34c-1.35 2.1-2.71 4.17-5.05 5.62h-.01zm6.29 3.61c-.49.25-1 .37-1.35.59-.13 0-.25.06-.25-.07v-.37l2-1.72c5.31-4 10.25-8.23 15.18-12.67 4.69-4.38 9.14-8.82 13.46-13.48 1.23-1.3 2.47-2.59 3.58-3.85a9.204 9.204 0 012-1.73c-.601.95-1.27 1.855-2 2.71a181.446 181.446 0 01-26.29 25.94c-2.12 1.63-4.1 3.23-6.27 4.65h-.06zm3.58-.89a.535.535 0 01.13-.4c.265-.262.553-.5.86-.71A260.92 260.92 0 00407.35 497a15.84 15.84 0 012.84-2.56 6.34 6.34 0 012-1.85l.49-.62a2.774 2.774 0 01-.49.62 5.166 5.166 0 01-1.85 1.94 7.142 7.142 0 01-1.73 2.28 165.673 165.673 0 01-21.48 19.92 17.287 17.287 0 01-3.21 2.16c-.14.19-.26.11-.39.01h-.01zm43-31.32c-1.23 1.66-2.46 3.2-3.7 4.75-4.44 5.18-9 10-13.82 14.8l-3.83 3.54c-3.95 3.58-7.77 7-11.85 10.24a55.905 55.905 0 01-6.66 4.62l-1.61.77c-.24.07-.61.16-.61-.21s.12-.53.24-.68c.218-.256.467-.484.74-.68a133.667 133.667 0 0013.7-10.7c6.79-6.13 13.46-12.48 19.75-19.24l5.93-6.41a4.477 4.477 0 011.72-1.54l.25-.07a.339.339 0 01.13.22c-.17.15-.17.4-.42.59h.04zM423 477.21a6.657 6.657 0 011.36-1.7l.49-.62c-.13.231-.295.44-.49.62a4.49 4.49 0 01-1 1.73c-.12.15-.25.18-.25.06l-.11-.09zm7.31-33.21a68.827 68.827 0 01-1.73 8.21 106.192 106.192 0 01-5.3 12.18 12.372 12.372 0 01-2.1 3.12c-1 1.48-2 3-2.84 4.41a6.76 6.76 0 01-1.11 1.76c-2.72 2.89-4.69 6.35-7.53 9.15a30.207 30.207 0 00-4.57 5.22c-.49.61-1.23 1.29-1.85 1.94-2.59 2.74-5.18 5.61-7.78 8.23-2.34 2.32-4.69 4.26-7 6.45-.25.18-.49.24-.62.15s-.12-.34-.12-.46a9.256 9.256 0 011.36-3.3 23.289 23.289 0 002.47-6.17 6.263 6.263 0 01-1 .86c-.13.16-.37.22-.37.09-.25-.43.12-.77.37-1.08.25-.31.49-.49.74-.18l.25.31a34.809 34.809 0 002.59-5c.12-.15 0-.25 0-.37-.37.09-.5.37-.74.68-.37.46-.62 1.26-1.36 1.33a2.495 2.495 0 01.49-1.61c.267-.65.602-1.27 1-1.85a20.855 20.855 0 001.73-3.52 39.342 39.342 0 012.22-4.87 4.197 4.197 0 011.23-1.79.581.581 0 01.74.06 21.642 21.642 0 002.6-5.09c.49-1.11.86-2.31 1.23-3.39-.49.25-.86.34-.74-.31a8.08 8.08 0 011.6-3.24 2.806 2.806 0 00.62-1.88 5.43 5.43 0 01.74-2.65c1-2.1 1-4.32 1.36-6.39.12-.77-.12-1.2-.86-1.26-.74-.06-.74-.44-.74-.93a21.224 21.224 0 00-.25-2.78 6.146 6.146 0 00-.74-2.53 3.377 3.377 0 00-2-2 2.345 2.345 0 01-2-1.73 3 3 0 00-1.73-1.92c-.62-.34-.49-1.11.37-1.57 1.73-.68 3.33-1.94 5.18-2a14.357 14.357 0 003.71-1.29 5.544 5.544 0 012.71-.68l6.54-.52a19.535 19.535 0 018.15 1.31 8.836 8.836 0 014.44 3.7c.609.948.838 2.091.64 3.2zm-30.36 31a.56.56 0 00.12-.4c.12-.15.25-.31.25-.18s0 .12-.13.27l-.24.31zm3.33-5.52c.141-.38.304-.75.49-1.11a5.025 5.025 0 00-.49 1.17v-.06zm-3.83 8.52a11.914 11.914 0 00-2.34 5.28c.99-1.71 2.22-3.37 2.34-5.28zm-2.71 5.74c.12.09.12.09.25-.06.025-.109.058-.216.1-.32 0 .06-.13.11-.23.23l-.12.15zM508.32 445.08l.86-1.45a3.82 3.82 0 00-.86 1.45zm-1.73 3c-.25.31-.37.71-.62 1 0 .25-.12.4-.12.52l.37-.46c.12-.36.78-.64.37-1.04v-.02zm-3.09 5.83c.13-.15.25-.18.37-.34v-.24a2.123 2.123 0 01-.37.6v-.02zM503 455c.233-.335.399-.712.49-1.11-.11.44-.36.75-.49 1.11zm-.86 1.58c.24-.44.61-1 .86-1.58-.24.6-.61 1.06-.85 1.62l-.01-.04zm-.5 1.11c.145-.38.312-.75.5-1.11-.21.362-.374.748-.49 1.15l-.01-.04zm-.49.84l.49-.84c-.18.31-.33.62-.48.88l-.01-.04zm-.5.88l.5-.88a5.245 5.245 0 01-.5.76v.12zm-2.34 4.29a14.347 14.347 0 002.34-4.29 15.938 15.938 0 00-2.33 4.33l-.01-.04zm-.49 1h.12c.09-.21.19-.49.28-.73a3.251 3.251 0 01-.39.76l-.01-.03zm0 0a1.445 1.445 0 01-.33.48c.161-.16.312-.33.45-.51l-.12.03zm-2.47 4.19c-3.33 6.64-6.3 13.42-9.38 20.12a8.768 8.768 0 00-.74 2.28 115.886 115.886 0 005.18-10.55c1.85-4.29 3.95-8.51 6.05-12.86.358-.745.646-1.522.86-2.32-.73 1.2-1.32 2.35-1.96 3.36l-.01-.03zm-10.62 23l.5-.5v-.12l-.5.62zm-.49 1.11c.209-.309.374-.645.49-1v-.12c-.11.46-.36.76-.48 1.17l-.01-.05zm-21.11-19.67a35.513 35.513 0 003.34-8.73 57.457 57.457 0 00-3.33 8.78l-.01-.05zm-.49 1.11c.233-.335.399-.712.49-1.11-.136.396-.296.784-.48 1.16l-.01-.05zm-.49 1.11h.12l.25-.73c-.1.269-.221.529-.36.78l-.01-.05zm-1.61 3.73c-2.1 5.58-4.07 11.14-6.05 16.81a34.863 34.863 0 00-2.09 6.94 23.172 23.172 0 001.85-4.53c1.11-3.36 2.34-6.88 3.58-10.27 1.35-3.8 2.71-7.47 4.07-11.26l.37-1.45a14.27 14.27 0 00-1.72 3.81l-.01-.05zm-9.13 27.09c.54-.84.837-1.812.86-2.81a7.952 7.952 0 00-.85 2.86l-.01-.05zm88.74-102v.13c-.86.21-1.48.12-1.6-.72-.12-.84-.13-1.32-.13-2.06a5.602 5.602 0 00-.86-2.5 1.94 1.94 0 00-2-.62 3.286 3.286 0 01-1 .37c-.87.34-1.11.15-1-.74a5.074 5.074 0 01.12-1.39 1.777 1.777 0 00-.24-1.17c-1.11-1.45-3.58-1.09-5.06.64l-.74 1.17a9.378 9.378 0 01-4.82 3.8 9.615 9.615 0 00-4.07 2.62 18.431 18.431 0 00-3.33 4.41l-1.11 1.75a189.35 189.35 0 00-11.36 18l-1.48 2.22c-1.36 2.19-2.84 4.41-4.07 6.69a43.263 43.263 0 01-4.45 7.16c-.37.58-.74 1.29-1.48 1.48-.37.09-.49-.62-.37-1.89a.156.156 0 01.035-.095.166.166 0 01.085-.055c1.12-4.6 1.12-9 2.1-13.48a2.869 2.869 0 00-.12-1.82 4.11 4.11 0 010-3c.12-.27.12-.65.25-1.05.12-3.36.24-6.72.12-10a3.194 3.194 0 00-.86-2.63 8.846 8.846 0 01-.62-1.69c-.49-2.23-.87-4.48-3.09-5.53 0-.12-.12-.22-.24-.31a3.673 3.673 0 00-3-1.85 1.782 1.782 0 01-1.72-1.18c-.25-.68-.74-.8-1.36-1a4.453 4.453 0 00-3.83.84 9.22 9.22 0 00-2.47 2.59 37.185 37.185 0 01-4.32 5.76 6.687 6.687 0 00-1 1.48c-1 1.73-1.73 3.4-2.84 5a35.835 35.835 0 00-3.33 6.51c-1.36 3.3-2.72 6.6-4.2 9.93a83.436 83.436 0 00-3.46 8.76c-.49 1.61-1.11 3.24-1.73 4.75-.24.81-.61 1.52-.86 2.19-.936 3.5-2.047 6.951-3.33 10.34-1.24 3.15-2.35 6.39-3.46 9.62-.61 1.76-1.36 3.68-1.85 5.53-1 4.07-2.34 8.11-3.58 12.24-1.11 3.24-2.1 6.57-3 9.88-.62 2.62-1 5.3-1.48 7.89a5.153 5.153 0 00.86 4.36c.5.74 1.36.64 2.1.71.49 0 .62-.53.86-.84.24-.31.5-.24.5 0s.12.84.24 1.18a2.287 2.287 0 001 1.73c.87.52 1.61.34 2.22-.8.374-.665.788-1.306 1.24-1.92 0-.12.25-.18.37-.21s.25.18.25.31c0 .49-.25 1-.25 1.66a.536.536 0 00.12.59l.62-.16a4.866 4.866 0 001.6-2.37c.62-2 1.11-3.86 1.86-5.89 1.6-4.85 3.2-9.69 5.06-14.59 3.2-8.95 6.54-17.8 10-26.81.62-1.76 1.36-3.43 2.1-5.22a9.673 9.673 0 011.85-2.8c-.37 2.43-1.6 4.84-2.47 7.28a19.683 19.683 0 00-1.72 5 15.024 15.024 0 001.6-3.61 4.321 4.321 0 012.1-2.5 6.99 6.99 0 010 3.21l-.37 2.19c-.5 4.93-1.36 10-1.61 14.84.018.384-.022.768-.12 1.14-.49 2.22-.62 4.35-1 6.54-.61 3.73-.24 7.22-.61 10.89a4.642 4.642 0 001 3.46c1 1.11 1.61 1.08 3.09-.28.37-.33.62-.27.74.07l.37 1.76a1.689 1.689 0 00.74 1.42c.86.89 2 .61 2.84-.83a6.86 6.86 0 00.86-1.58c.25-.43.62-.77 1-.61.38.16.37.4.25.8l-.37 1.2a.67.67 0 00.12.83.859.859 0 001-.37c.325-.414.613-.855.86-1.32a14.74 14.74 0 00.87-1.82c.24-.43.37-1 .86-.83.49.17.25.55.37.89l3.21-7.09c-.25.18-.49.86-1 .74-.25-.19 0-.62 0-.87l1.11-2.62c2.59-5.58 5.06-11 7.66-16.47 4.93-10 10.24-20 15.55-29.68.86-1.57 1.6-3 2.47-4.44.12-.28.37-.83.86-.83s.12.59 0 1c-.1.248-.224.486-.37.71-.49 1-.86 2.06-1.36 3.05l.74-.68c.74-.43 1.36-.09 1.24.56a12.637 12.637 0 01-.5 2 35.69 35.69 0 00-1.6 5.71c-1.24 6-1.85 11.94-3.46 17.89v.5a107.347 107.347 0 00-1 10.74 7.738 7.738 0 001 4.44 2.518 2.518 0 001.73 1.42 3.137 3.137 0 012.35 1.51c.377.53.832.998 1.35 1.39a1.753 1.753 0 002.1 0c.74-.43 1.36-.71 2-.24.61.21 1.11 0 1.72-.68a8.829 8.829 0 002.35-4.66c.62-4.1 1.36-8.23 2.34-12.31.13-.27.25-.68-.12-.71a11.476 11.476 0 00-1.23 3.27c-.13.28-.25.31-.37.22a.093.093 0 01-.047.01.106.106 0 01-.045-.016.098.098 0 01-.03-.037.086.086 0 01-.008-.047c.016-.483.1-.961.25-1.42.62-2.63 1.11-5.22 1.85-7.75 1.36-5.52 3-11.1 4.44-16.66.157-.724.364-1.435.62-2.13 1.61-4.35 3.21-8.82 4.81-13.17l2.23-6c.12-.28.24-.8.61-.65.37.15.13.59 0 .86-2.34 5.9-4.19 11.79-6.17 17.71-1.48 4.81-2.84 9.6-4.32 14.41-.61 2.25-1.23 4.38-1.72 6.6a3.61 3.61 0 00-.25 1.67l.12.09.25-.06c.101-.341.225-.675.37-1l2.84-10.21c.74-2.65 1.36-5.4 2.22-8.08 1.85-5.28 3.82-10.58 5.55-15.83.25-1.05.74-1.91 1-2.84a40.633 40.633 0 002.45-8.14c.485-.995.857-2.042 1.11-3.12.12-.52-.12-.83-.62-.83.232-1.06.567-2.095 1-3.09.328-.58.539-1.219.62-1.88a14.244 14.244 0 011-4.44 6.831 6.831 0 00.32-3.43l-.01-.06zm-85.9 83.5a68.02 68.02 0 01-2.72 7.59 1.578 1.578 0 010-1.48l2.22-6.11a.424.424 0 01.25-.43c.38-.03.26.25.26.49l-.01-.06zm5.3-34.64a.681.681 0 01.25-.45v-.11l.12-.15v.12l-.12.14c-.009.186-.05.368-.12.54 0 .12-.13.15-.25.31a.55.55 0 01.13-.34l-.01-.06zm.87 17.68l-4.45 12c0 .12-.24.18-.37.34l-.12-.47c.37-.95.62-2 1-3.08a113.9 113.9 0 014.32-10.83c-.059.72-.183 1.433-.37 2.13l-.01-.09zm7.16-39.06c.37-.22.12.46-.74 1.66.25-.51.25-1.11.75-1.6l-.01-.06zm-5.06 32.73c0 .13-.25.44-.25.56a1.312 1.312 0 01.12-.65.377.377 0 01.25-.31c-.11.22.01.31-.11.46l-.01-.06zm1.85-4.41a19.842 19.842 0 011.85-6.75 5.07 5.07 0 011.6-2.13 85.049 85.049 0 01-3.44 8.94l-.01-.06zm5.3-14.28c.25-.43.25-.93.75-1.17.5-.24.01.43-.74 1.28l-.01-.11zm-.32-17.9c0 .07 0 .14-.05.22l-.12.15v-.12l.17-.25a10.006 10.006 0 012.05-4.5 10.47 10.47 0 01-2.04 4.56l-.01-.06zm3.53-7.22l-.24.07c0-.13-.13-.1-.13-.22a4.483 4.483 0 011-1.48 10.062 10.062 0 00-.62 1.69l-.01-.06zm13.21 60.52l-.37 1-.12.15v-.12a3.37 3.37 0 00.49-1.11c.111-.141.208-.291.29-.45-.081.202-.174.4-.28.59l-.01-.06zm3.21-32.27l-.37.09-.12-.09c.12-.4.12-.77.24-1.17 0-.13.25-.31.37-.22l.25.31c-.14.373-.26.754-.36 1.14l-.01-.06zm2.59-17.31c0-.12.25-.19.25-.31l.25.31c-.13.28-.13.4-.25.68l-.12.15-.25-.18a1.093 1.093 0 01.13-.59l-.01-.06zm-.86 6.88c0-.12.24-.31.37-.22s.12.22.12.34a5.113 5.113 0 01-1 2.47 3.812 3.812 0 01.48-2.53l.03-.06zm.78 18.16a.965.965 0 000 .17 3.406 3.406 0 01-.95 1.56 3.827 3.827 0 01.95-1.56.855.855 0 000-.16v-.05a3.456 3.456 0 01.95-1.56 4.998 4.998 0 01-.94 1.66l-.01-.06zm12.79-22.29v-.24a.333.333 0 00.16-.1 1.175 1.175 0 01-.15.4l-.01-.06zm2.84-5.1c0 .08 0 .1-.12.23a2.51 2.51 0 01.12-.23v-.05l.07-.06a.418.418 0 00-.06.17l-.01-.06zm.62-.82l-.37.46c0 .1-.07.14-.16.22 0-.08.11-.15.16-.22l.37-.7v.24zm11 50.09h-.13c-.37-.28 0-1.48.5-2 0 0 .12 0 .12.09.37.4.12 1.57-.49 1.97v-.06zm4.69-75.23h-.13l.38-.4a1.917 1.917 0 00-.25.46v-.06zm12.71 18.43c-.25.31-.37.84-.87.84-.24.06-.24-.31-.12-.47.36-.92.49-1 1.29-.95l-.3.58zm1.6-13.6c-.12 0-.24.06-.24-.06a.096.096 0 00-.039-.084.103.103 0 00-.043-.019.098.098 0 00-.048.003 2.858 2.858 0 01.74-1.54c.13-.15.13-.15.25-.18l.12.09a3.602 3.602 0 01-.74 1.85v-.06zm-57 91.87l-.12.26c.06.03.06-.09.06-.2l.06-.06zM558.921 450.24a14.774 14.774 0 001.86-4.91 12.23 12.23 0 00-1.86 4.91zm-1.11 3.23l.62-.89a5.6 5.6 0 00.49-2.34 7.668 7.668 0 00-1.11 3.23zm18.52-55.34c.42-.256.874-.452 1.35-.58 1.73-.56 3.46-1.11 5.19-1.54a62.463 62.463 0 0113.33-2.46c1.24-.076 2.475-.22 3.7-.43 1.24-.19 1.61-.77 1.48-2.1-.24-1-.49-2-1.6-2.32-.5-.12-.37-.52-.13-.95.24-.43 0-.37-.24-.43a15.816 15.816 0 00-2.47-.13c-2.587.28-5.18.68-7.78 1.2l-14.07 3.51c-.49.12-1.23.55-1.6-.1-.25-.31.49-.74 1.73-1.17l9.62-2.4a41.451 41.451 0 0112.22-1.69 15.56 15.56 0 002.35-.21c.49-.12 1-.74.74-1.17-.87-1.52-2-2.84-4.2-2.78a45.592 45.592 0 00-10.86 1.35c-1.23.43-2.34.58-3.58.89a242.813 242.813 0 01-12.59 3.14c-.37.09-.74.31-1.11.4-1.73.68-3.33 1.08-4.94 1.6-.716.152-1.415.37-2.09.65-1.49.74-2.84 2.56-2.84 3.79-.13 1 .37 1.39 1.23 1.17.86-.22 1.61-.52 2.35-.71 1.48-.36 2.83-.83 4.19-1.16.74-.19 1 0 .87.27a1.364 1.364 0 01-.74.8c-.5.13-1.12.41-1.61.53l-4.2 1.42a3.239 3.239 0 00-1 .36.55.55 0 00-.37.47c0 .12.24.18.37.15 1.23-.31 2.34-.71 3.58-1.14a4.915 4.915 0 012.22-.55c.12 0 .37 0 .37.15s-.12.4-.25.43a3.22 3.22 0 01-1.6.78l-3.21 1.17a5.466 5.466 0 00-1.36.58 3.002 3.002 0 00-1.36 2.68c.13 1 .5 1.61 1.61 1.58h1c.62 0 .87.4.37 1a5.148 5.148 0 00-1.11 2.5 10.117 10.117 0 01-1 2.59c-1.36 2.44-2.35 4.9-3.46 7.28a37.91 37.91 0 01-2.22 4.75 50.787 50.787 0 00-3.83 7.86c-.74 1.55-1.23 3-2.1 4.48-.479.936-.89 1.905-1.23 2.9-1.6 4.84-3.58 9.65-5.55 14.46-1.61 3.86-3.58 7.69-4.82 11.7-.74 2-1.48 4.07-2.34 6.14a41.61 41.61 0 00-2.22 7.71 6.986 6.986 0 00.12 2.81 7.394 7.394 0 002.22 3.52 10.763 10.763 0 013 3.21 6.562 6.562 0 004.32 2.62c1.753.301 3.535.395 5.31.28a10.046 10.046 0 005.06-1.63 17.063 17.063 0 012.72-1.42c1.11-.52 2.09-1.14 3.21-1.78l2.83-1.82a17.418 17.418 0 004.2-2.9 3.12 3.12 0 011.36-.71 9.145 9.145 0 002.22-1.29c.62-.4 1.23-.68 1.73-1 1-.49 2-1 3-1.6a33.94 33.94 0 018.27-3.67 4.532 4.532 0 002.22-1.17c.74-.68 1-1.61.37-2.07a6.761 6.761 0 01-1.23-2.16 4.339 4.339 0 00-1.424-2.319 4.339 4.339 0 00-2.526-1.011 3.066 3.066 0 01-2-1.12 3.113 3.113 0 00-2.84-1.51 11.446 11.446 0 00-4.19.31 30.411 30.411 0 00-6.91 2.71c-1.73.92-3.34 1.57-5.06 2.37-.74.43-1.49.74-2-.13-.12-.09-.37 0-.62.16s-.74.18-.61-.22c.49-1.85.61-3.86 1.48-5.68l2-5.05c.87-2.57 1.61-5.09 2.47-7.66.25-.67.62-1.26.86-1.82.13-.27.5-.49.62-.27.12.22.13.34.13.58a4.276 4.276 0 001-2.59c.204-.263.372-.552.5-.86a4.314 4.314 0 013.82-3.05 23.404 23.404 0 006-2.13 24.475 24.475 0 012.72-1.05 25.656 25.656 0 004.93-1.84 17.764 17.764 0 016.05-1.39l1.85-.09a3.667 3.667 0 002.2-1.11 3.4 3.4 0 00.74-1c.13-.52-.24-.67-.61-.83-.37-.16-.5-.62-.37-1.14.13-.52.12-.77.24-1.17a2.575 2.575 0 00-.61-2.69l-.62-.59a6.586 6.586 0 01-2.47-3.08 2.407 2.407 0 00-1.11-1.21 6.34 6.34 0 00-4.07-1.2c-1.075.04-2.147.141-3.21.3-2.02.269-4.023.65-6 1.14-.86.22-1.36-.28-1.23-1.05 0-.25.12-.52.12-.77 1-3.95 2.22-8 3.33-11.82a4.796 4.796 0 013.7-3.63 7.008 7.008 0 002.84-1.33 9.362 9.362 0 00-1.85.34l-1.85.46a.65.65 0 01-.37-.15c.12-.16.12-.41.25-.44a8.847 8.847 0 011.6-.64 79.94 79.94 0 0112.65-3.19.395.395 0 01.37 0 .196.196 0 01.225.096.21.21 0 01.025.084.874.874 0 01-.25.44 18.142 18.142 0 01-3.45.86 32.819 32.819 0 00-3.33.7c-.25.07-.74.07-.87.59 4.2-.92 8.4-2 12.59-2.52a7.552 7.552 0 004.08-2c.12-.16.37-.34.24-.56-.13-.22-.24-.31-.49-.37a15.326 15.326 0 00-4.32.09 69.618 69.618 0 00-6.91 1.35c-3.46.74-6.79 1.57-10.12 2.4l-2.35.59c-.25.06-.74.06-.62-.34s.26-.4.51-.59zm-14.94 44.33c.24-.42.25 0 .36 0-.12.05-.23-.03-.36 0zm14-49c-.25.06-.49-.12-.37-.4a.351.351 0 01.25-.31c.219-.159.472-.265.74-.31 4.93-1.35 9.87-2.71 14.93-3.72a13.87 13.87 0 012.22-.19c.13 0 .25.19.25.31a.352.352 0 01-.25.31l-3.33.83-5.31 1c-2.47.73-4.81 1.44-7.28 2.06a9.646 9.646 0 01-1.9.4l.05.02zM697.78 381.67c.484-.319.939-.68 1.36-1.08-.37.34-.87.34-1.36 1.08zm-15.18 62.79a84.675 84.675 0 00-5.06 5.83 9.994 9.994 0 002-1.36c1.73-1.91 3.7-3.64 5.06-5.95a5.728 5.728 0 00-2 1.48zm-9.75 9.83a10.62 10.62 0 004.69-4 23.085 23.085 0 00-4.69 4zm-6.05 3.86a15.005 15.005 0 006.05-3.86 19.392 19.392 0 00-6.05 3.86zm-2.35 1.57c1-.12 1.61-.9 2.35-1.57-1.61.64-2.8 1.57-2.35 1.57zm-21.6-21.4v1a7.861 7.861 0 001.61-2.5c-.62.51-1.11 1.01-1.61 1.5zm63.81-68.86a19.329 19.329 0 01-.24-2.78 9.413 9.413 0 00-.62-2.56c-.62-1.7-1.23-3.39-2-5.06a6.912 6.912 0 00-5.68-4.14 15.593 15.593 0 00-5.56.28 67.545 67.545 0 00-14.65 4.8 75.22 75.22 0 00-10.12 5.36 76.906 76.906 0 00-8.89 5.79c-1.85 1.45-3.7 2.78-5.56 4.48-.61.52-1.23 1-2 1.6a18.12 18.12 0 00-1.45 1.14 21.945 21.945 0 00-2.75 2.87c-3.08 3.73-4.32 7.49-3.58 11.5.441 1.971.689 3.981.74 6a8.125 8.125 0 001 4.32 16.994 16.994 0 008 7.63c4.94 2.47 9.88 4.94 15.43 6.4a25.531 25.531 0 014.94 2.35c1.36.77 1.48 1.72.62 3.54l-.13.16a37.92 37.92 0 01-9.38 11.35 18.745 18.745 0 00-2.59 2.12 24.098 24.098 0 01-6.17 4.38 20.17 20.17 0 00-3.46 1.6 17.464 17.464 0 01-5.43 1.36 8.071 8.071 0 01-4.07-.47c-1.11-.21-1.36-.77-1-2 .183-.74.43-1.463.74-2.16v-1a4.476 4.476 0 011.24-2.65c.483-.626.934-1.277 1.35-1.95.13-.15 0-.37 0-.37s-.24-.06-.49 0c-.222.109-.43.243-.62.4a9.98 9.98 0 01-1.48 1 .286.286 0 01-.385.099.293.293 0 01-.105-.099.38.38 0 010-.49l.49-.87A12.7 12.7 0 00644 432c.74-1.18.74-2.41 0-3-.74-.59-1.48-.37-2.22.19l-.86.58a6.603 6.603 0 01-2.62 1.23 28.83 28.83 0 013.19-2.91c-1.11.65-2.22 1.18-3.45 1.85-.25.06-.49 0-.49-.24a.55.55 0 01.12-.4l2.47-2.1c.74-.56.74-1.3 0-1.61a4.593 4.593 0 00-5.06.9 25.31 25.31 0 00-3.34 3.54 8.186 8.186 0 00-1.85 4.41 17.06 17.06 0 00.25 5.62 41.538 41.538 0 003.21 9.44 19.994 19.994 0 003.33 5.1 23.792 23.792 0 007.65 5.62 20.086 20.086 0 0010.87 2 12.375 12.375 0 007.4-2.83 11.257 11.257 0 011.85-1.21 55.945 55.945 0 006.42-4.19 36.064 36.064 0 005.55-4.84c2.6-2.62 5.31-5.15 7.9-7.89a16.538 16.538 0 004.2-6.85l.74-3.77c-1.11-.09-1.23-.18-.86-1.14.24-.68.74-1.29.61-2.13a34.255 34.255 0 00-2-9.5 41.64 41.64 0 00-2.47-5.26 36.495 36.495 0 00-2.1-3.35 23.532 23.532 0 00-6.54-6.89 34.737 34.737 0 00-7.53-3.92c-2.1-.84-4.19-1.67-6.29-2.63-.994-.493-.994-1.233 0-2.22a8.358 8.358 0 011-1c1.6-1.26 3.2-2.77 4.81-4a74.586 74.586 0 017.53-5.7c1.36-.83 2.71-1.79 4.07-2.62 3.09-1.76 6.17-3.39 9.26-4.78.37-.09.61-.27 1-.37.87-.21 1.24-.06 1.36.9.3 1.337.468 2.7.5 4.07 0 1.36.61 1.58 2 .87l1.85-.83c.13 0 .37-.1.37 0s0 .37-.12.4l-1.85 1.45c-.13 0-.25.31-.25.43s.25.31.5.25a8.998 8.998 0 002.71-1.42l5.68-4.13c.24-.19.61-.53.86-.09-.86 1.2-2.22 1.91-3.21 3a12.914 12.914 0 003.58-2.5 4.19 4.19 0 001.61-1.76c.95-2.14 2.07-4.27 1.32-6.31zm-69.61 62.65c-.35 0 .08-.47 1-.93-.34.41-.57.82-1 .93zm19 16.12c.12-1 1-1.23 1.48-1.6 3-2 6.05-3.85 8.89-6.16a9.717 9.717 0 013.08-1.76 46.293 46.293 0 01-7 6.2 26.484 26.484 0 01-4.57 2.74 3.528 3.528 0 01-1.87.58h-.01zm5.31-1.32c2.1-1.39 4.32-2.93 6.42-4.44.24-.06.61-.4.86-.09a22.335 22.335 0 01-8.89 6.29 6.115 6.115 0 011.62-1.76h-.01zm13 .47c0 .13-.13.28-.25.43a39.65 39.65 0 01-11.85 8.64c-.265.047-.517.15-.74.3-.12-.09-.37 0-.49 0s-.25-.18-.25-.3 0-.38.12-.41a3.836 3.836 0 011.61-1.38c3.45-2.22 6.79-4.66 10.24-7.12.384-.311.8-.583 1.24-.81.12 0 .37 0 .37.16a.382.382 0 01-.03.49h.03zm-5.56-76.5a60.216 60.216 0 015.68-3.51 88.485 88.485 0 0112.34-5.67 45.718 45.718 0 016.79-1.69c.25-.06.5-.12.5.25a1.061 1.061 0 01-.38.34l-2.71 1-7 2.5a137.96 137.96 0 00-13.7 6.5l-1.35.71s-.13 0-.13-.09-.19-.22-.07-.34h.03zm22.34-7.79c-.49.74-1.23.68-2 1-4.69 1.91-9.38 3.82-13.95 6.07-.25.18-.49.24-.74.43-.12 0-.49.12-.49-.12a.917.917 0 01.24-.44 5.26 5.26 0 011.11-.64 90.46 90.46 0 0111.36-5.39c.805-.3 1.631-.543 2.47-.73.61-.08 1.36-1.01 1.97-.18h.03zm-34.19 18.28c0 .37-.24.55-.49.86a21.056 21.056 0 01-2.84 2.31c1.58-2.12 1.58-2.12 3.3-3.17h.03zm34.44-8.22a5.404 5.404 0 01-1.73 1.05 77.82 77.82 0 00-10.66 5.49 95.188 95.188 0 00-15.18 11.06 10.475 10.475 0 01-3.21 2.28 8.538 8.538 0 012.22-2.65 94.453 94.453 0 0115.06-11.16 87.43 87.43 0 0112-6.07c.394-.28.88-.401 1.36-.34.12 0 .12.1.12.1l.02.24zm3.33-3.91a3.496 3.496 0 01-1.73.8 88.976 88.976 0 00-15.42 6.81c-3 1.6-5.81 3.42-8.52 5.21a5.702 5.702 0 01-1.61 1l-.12-.09a.297.297 0 01-.12-.22l1-1a72.121 72.121 0 019-6.2 65.483 65.483 0 0113.2-6.25 13.155 13.155 0 014.2-1.17c.25-.07.49.12.62.46-.146.24-.325.459-.53.65h.03zM741.47 357.45c0-.62-.12-1-.86-.77-.74.23-.87-.16-.87-.65a34.477 34.477 0 00-.12-3.55c0-1.48-.25-2.9-2.1-2.81-.61 0-.61-.46-.49-1-.62.16-1.24.56-1.85.46-.25.07-.37-.15-.13-.46 0-.25.25-.43.37-.58.74-.93.74-1.42 0-1.73-1.85-1.15-4.56-.34-6.29 1.81a70.79 70.79 0 00-6.91 11 8.496 8.496 0 01-1.48 2.35A11.654 11.654 0 00718 366a69.526 69.526 0 01-3.21 6.48l-1.11 2.62c-1 2.35-2 4.57-2.84 6.88-.336.795-.623 1.61-.86 2.44a15.122 15.122 0 01-1.36 3.79 34.043 34.043 0 00-2.84 6.51 22.234 22.234 0 01-1.73 4.63 35.857 35.857 0 00-3 8.27c-.37 1.32-.74 2.4-1.11 3.61-.64 2.09-1.42 4.15-2 6.15-.21.68-.4 1.36-.56 2a40.183 40.183 0 01-2.22 6.48c-.87 2.07-.87 3.67.24 5.12.25.31.5.87.74 1.17.25.68.62.59 1.24.07.37-.34.62-.77 1-.87.38-.1.61.34.74.68s.49.13.74.07a.536.536 0 01.525.067.545.545 0 01.215.483c.101.476.141.964.12 1.45a2.47 2.47 0 001.48 2.22c1.11.59 2 .25 3.09-1.14a6.267 6.267 0 011.23-1.66c.37-.22.87-.09.87.28a14.109 14.109 0 00-.25 2.4c-.12.41.49.62.86.53a3.251 3.251 0 001.73-1.67 24.68 24.68 0 001.85-3.91c1.36-3.83 2.87-7.7 4.41-11.52.43-1 .85-2.08 1.27-3.11 1.85-4.28 3.7-8.69 5.31-13 .188-.321.352-.655.49-1 1.36-3.18 2.72-6.48 4.2-9.69a72.585 72.585 0 013.45-8c.74-1.42 1.36-2.93 2-4.44a28.693 28.693 0 012-4.2c0-.12.25-.3.37-.33.12-.03.25.3.13.58a2.75 2.75 0 01-.25.68c-1.73 3.27-2.84 6.76-4.32 10.09-2.71 6.23-5.18 12.4-7.65 18.57l-5.75 13.89-.92 2.21c-1.35 3.18-2.59 6.45-3.7 9.56-.12.65-.62 1.27-.25 1.92.87-.34.87-1.21 1.11-1.88 1-2.72 2-5.43 3.09-8.06.52-1.25 1.05-2.5 1.58-3.76 1.76-4.13 3.56-8.3 5.08-12.46.319-.894.689-1.769 1.11-2.62 2.224-4.622 4.2-9.358 5.92-14.19.325-.895.695-1.773 1.11-2.63a46.356 46.356 0 003.33-7.74c.87-2.07 1.61-4.1 2.47-6.17.452-1.093.745-2.244.87-3.42-.5 1-1.11 1.88-1.73 2.9a3.622 3.622 0 01.075-1.63 3.63 3.63 0 01.785-1.43c.5-.49.74-.18.87.16a6.507 6.507 0 001-2 43.05 43.05 0 001.86-6.51c.373-1.461.565-2.962.57-4.47zm-29.25 41.48c.164-.89.454-1.752.86-2.56a6.73 6.73 0 01-.86 2.56c-.12.4-.37.71-.49 1.11.114-.39.279-.763.49-1.11zm-8.39 22.58c-.37-.4.12-.89.37-1.32-.13.52 0 .86-.37 1.32zm.86-2.43c.034-.098.061-.198.08-.3a8.95 8.95 0 01.41-1.18l.37-1.58c.06-.08.11-.17.16-.25.183-1.733.81-3.39 1.82-4.81a9.917 9.917 0 01-1.82 4.81v.34a7.982 7.982 0 00-.5 1.49 9.998 9.998 0 01-.39 1.18l-.13.3zM720 379.59a.826.826 0 01-.25.55v.13l-.06.06a27.657 27.657 0 01-2.78 6.69l-.37 1.33a1.426 1.426 0 01-.37.71c-.25.19-.25-.18 0-.74l.74-1.3a19.67 19.67 0 011.36-4.41 6.71 6.71 0 011.42-2.28l.06-.19a.826.826 0 01.12-.52.941.941 0 01.25-.43.56.56 0 01-.12.4zm1.11-3c.114-.39.279-.763.49-1.11-.12.41-.37.72-.49 1.12v-.01zm1.08-2.4c.09-.29.18-.57.27-.78l-.27.78zm12.74-23.14c-.139.185-.304.35-.49.49a.395.395 0 01-.37 0v-.12c.131-.231.296-.44.49-.62.12 0 .37-.09.49 0a.57.57 0 00-.12.26v-.01zm4 15.8c-.149.222-.274.46-.37.71 0-.25.12-.53.12-.77s.13-.28.25-.19v.25zM277.82 656.47v.12a1.31 1.31 0 01.32-.48c-.118.11-.225.23-.32.36zm-8.15 7.95c.13 0 .13 0 .13-.15l-.13.15zm0 0l-.36.33c.129-.092.247-.2.35-.32l.01-.01zm-6.16 5.23a6.321 6.321 0 00-.74.93 20.783 20.783 0 006.54-5.83c-2.11 1.4-3.84 3.31-5.81 4.91l.01-.01zm-3.83 3.3c-1.11.9-2.09 1.88-3.2 2.65-4.08 2.75-7.9 5.92-12.1 8.33-.392.329-.803.636-1.23.92a18.277 18.277 0 005.06-2.74c3.2-2.16 6.29-4.41 9.38-6.66 1.85-1.45 3.82-2.81 5.18-4.87a21.205 21.205 0 00-3.1 2.42l.01-.05zm-17 12.15c-.25.06-.25.06-.12.15h.12c.09-.11.11-.14.17-.16l-.17.01zm-4.94 2.09a.77.77 0 00-.49.25c-.12.15 0 .25.12.22s.5-.13.62-.4c-.16.04-.16-.09-.29-.06l.04-.01zm-12.46 18.54v.12c.141-.379.305-.75.49-1.11a4.357 4.357 0 00-.53 1l.04-.01zM291.52 631a34.887 34.887 0 00-2.72-13c-2.59-6.14-7.53-9.23-14.44-9.73h-1.6c-1.11.16-2.1.4-3.21.56a47.189 47.189 0 00-15.18 4.4 55.14 55.14 0 00-10.25 5.64c-.85.447-1.674.941-2.47 1.48a17.786 17.786 0 00-4.19 3c-.5.49-1.11.89-1.61 1.39l-4.19 3.64a10.089 10.089 0 00-2.6 4.1 2.211 2.211 0 00-.12 2.13c.219.57.305 1.182.25 1.79-.25 1.54-.13 1.63 1.36 1.88.24.06.49 0 .61.34.37 1.14.5 1.11 1.48.62.98-.49 1.73-1.05 2.6-1.51 1.35-.83 2.71-1.54 4.07-2.38.12 0 .49-.12.49.13s-.12.4-.24.43c-.74.56-1.36 1.08-2.1 1.63.37-.09.74-.3 1.11-.4 1-.12 1.36.41.74 1.3a36.763 36.763 0 00-3 5.43 42.301 42.301 0 01-1.86 4c-1.23 2.65-2.59 5.34-3.7 8-.74 1.42-1.23 2.9-1.85 4.29-1.36 3.3-3 6.54-4.32 9.84-3.46 8.14-6.79 16.25-9.5 24.58-.74 2.16-1.61 4.35-2.35 6.51a12.212 12.212 0 00-.86 3.55c-.25 2 0 4 1.73 4.88.516.404.902.95 1.11 1.57.101.474.265.931.49 1.36.62 1.2.86 1.39 2.47.74.74-.31 1.11-.4 1.48.37.25.56.49.62 1.23.06s1.49-1.23 2.47-1.1v-.13a9.024 9.024 0 00.87-2.43h.12a.712.712 0 01-.12-1.2 6.991 6.991 0 001.48-2.84c-.37 0-.5-.24-.5-.61a5.736 5.736 0 011.12-2 16.649 16.649 0 003.08-6.32h-.42c.06-.13.08-.28.17-.3.25-.19.25.18.25.31a26.19 26.19 0 002.47-5.8h-.1a6.113 6.113 0 012.07-2.34c1.49-.86 3-1.72 4.45-2.46 7.28-3.3 13.82-8.38 20.36-13.23.244-.065.461-.205.62-.4 3.58-3.36 7.41-6.16 10.86-9.74.28-.187.53-.417.74-.68a4.323 4.323 0 012.47-1.23 2.356 2.356 0 001.48-.86 17.322 17.322 0 003.46-3.58 12.458 12.458 0 00-2.1 1.63c-.37.34-.86.71-1.36 1.08-.12.16-.37.1-.49.13a.909.909 0 01.12-.53c1.24-1.17 2.47-2.71 4.32-2.93 1.61-1.26 2.72-3 4.2-4.38 2.22-2.15 3.45-5.05 5.55-7.43.13-.15.13-.4.37-.71a22.211 22.211 0 003.13-12.54zm-64.18 68.33c0 .13-.25.31-.25.31v-.37c.195-.18.36-.389.49-.62-.12.24-.12.49-.24.64v.04zm3.58-8.3s.12-.15.12 0a.187.187 0 01.078-.002.19.19 0 01.13.081.183.183 0 01.032.071c-.2-.07-.36.02-.36-.18v.03zM244 623.18a7.532 7.532 0 012.22-1.66 76.176 76.176 0 0115.55-7 21.018 21.018 0 016.67-.92 3.778 3.778 0 01-1.85.71c-3.58 1-7.29 2.31-10.87 3.7a66.525 66.525 0 00-6.29 2.68 25.345 25.345 0 01-5.43 2.46 7.56 7.56 0 01-2.35 1.57 7.703 7.703 0 012.35-1.54zm15.43 1a7.82 7.82 0 01-1.61.4c-.37.09-.74.18-1-.13s.24-.8 1-1a32.523 32.523 0 0110-2.37c.25.06.49 0 .37.4 0 .12-.25.31-.37.34-1.73.43-3.33 1-5.06 1.51l-3.33.85zm.49 1.85a.536.536 0 01-.37.46c-.12 0-.25-.18-.37-.15l.37-.34c.123-.021.248-.021.37 0v.03zm-16.41-.85a24.005 24.005 0 018.51-4.46 4.79 4.79 0 011.85-1.21 55.842 55.842 0 0110.25-3.66c.12.09.37 0 .86 0a8.315 8.315 0 01-2.84 1.45c-2.47.86-5.06 1.88-7.65 2.77a5.987 5.987 0 01-2.47.62 42.969 42.969 0 01-8.51 4.46v.03zm2.34 33.24c-.039.484-.26.934-.62 1.26-.23-.58.37-.86.62-1.29v.03zm-8.15-23.64c-1.11.77-2.34 1.45-3.45 2.22-.298.136-.589.29-.87.46l-.24-.19V637c.12-.16.24-.31.37-.34a82.184 82.184 0 018.14-5.49c.347-.19.722-.325 1.11-.4.13 0 .13.09.25.06v.25a3.248 3.248 0 01-1.11 1c-1.48 1-2.84 1.84-4.2 2.67v.03zm4.94 30.61l-.25.43c-.24-.34.13-.43.25-.46v.03zm-2.34 9.1c.12-.15.24-.06.37-.09-.13 0-.13.15-.25.31a1.194 1.194 0 00-.62.27l.5-.49zm-1.36 2.68c.22 0 .43-.2.73-.29l.12-.16v.13h-.13a3.499 3.499 0 01-.61.63c-.24.19-.37.1-.37-.15.14-.03.14-.15.26-.19v.03zm9.87.38a43.796 43.796 0 01-11.23 7.12 5.295 5.295 0 01-1.85.59c-.25-.06-.49-.13-.37-.4.031-.206.118-.399.25-.56.223-.277.522-.482.86-.59a81.317 81.317 0 0011.6-6.47c.62-.4 1.36-.71 2-1.11-.388.491-.809.955-1.26 1.39v.03zm3.58-2.74c-.388.22-.796.4-1.22.54a2.298 2.298 0 00-.14.17l-.69.43a5.8 5.8 0 00.69-.56h.14a9.066 9.066 0 011-1.1 1.305 1.305 0 011.11-.4c.22-.13-.15.46-.89.89v.03zm27.28-21h-.12l.12-.15c.14-.185.305-.35.49-.49a2.72 2.72 0 00-.49.61v.03zm1.33-25.54a14.84 14.84 0 01-1.36 2.19c-3.21 4.13-6.17 8.45-10 12-1.48 1.48-2.71 3.15-4.07 4.6a95.582 95.582 0 01-12.34 11.84c-1.73 1.42-3.46 2.83-5.06 4.35a28.702 28.702 0 01-3.46 2.83c-.62.4-1.23.06-1.11-.71.25-1.05.74-2.16.49-3.08-.12-.47.25-.81.62-1a3.863 3.863 0 001.36-1.57c1.36-2.81 3-5.68 4.07-8.55h-.06l-.06.12-.06-.06a3.409 3.409 0 01-.81.28c.23-.63.57-.54.81-.28a.33.33 0 00.12-.06c1.21-2.36 2.3-4.57 3.39-6.91a8.464 8.464 0 001-3.33 1.793 1.793 0 01.12-.77c1.24-1.67 1.48-3.58 2.6-5.21a14.472 14.472 0 001.35-4.29c.13-.65-.37-.65-.74-.93s-.37-.89.13-1.39a10.392 10.392 0 013.33-1.82 40.588 40.588 0 0110.74-1.93c1.943-.13 3.894.004 5.8.4.958.161 1.878.5 2.71 1 .89.58 1.01 1.17.49 2.28zM349.41 644.91l-.41.09h-.13.12v.74c.17-.27.29-.55.42-.83zm-8-45.89h.13c.147-.177.271-.372.37-.58-.15.21-.328.399-.53.56l.03.02zm0 0a2.91 2.91 0 00-.37.59c.137-.229.305-.438.5-.62l-.13.03zm-.86 1.21c.131-.231.296-.44.49-.62a1.363 1.363 0 00-.52.62h.03zm-.87.71c.5.24.62-.28.87-.71a2.764 2.764 0 00-.9.71h.03zm-8.51 13.84c.141-.379.305-.75.49-1.11a3.39 3.39 0 00-.52 1.11h.03zM341.38 599a2.91 2.91 0 00-.37.59c.137-.229.305-.438.5-.62.147-.177.271-.372.37-.58a2.792 2.792 0 01-.5.61zm-.86 1.21c.131-.231.296-.44.49-.62a1.362 1.362 0 00-.49.64v-.02zm-.87.71c.5.24.62-.28.87-.71a2.782 2.782 0 00-.87.73v-.02zm-8 12.73a3.388 3.388 0 00-.49 1.11c.135-.372.292-.736.47-1.09l.02-.02zm29.5-4.14a23.54 23.54 0 00.37-5 8.1 8.1 0 00-.62-3.06 16.596 16.596 0 00-6.17-7.72 2.708 2.708 0 00-2.71-.43 1.853 1.853 0 01-1.61-.46 13.17 13.17 0 00-1.6-1.21 5.679 5.679 0 00-3.09-1.33 1.889 1.889 0 00-1.85.59c-.86 1.2-1.85 1-2.71.8l-.87-.28c-.62-.34-1.11.15-1.6.77 0 .25.12.59-.13.9-.12.15-.24.3-.49.24s-.12-.21 0-.37c.235-.232.443-.491.62-.77-1.28.78-2.67 1.6-4.07 2.31.87-1.56 2.29-2.38 3.7-3.33.49-.24 1.11-.52 1.11-1.26s-.74-.68-1.11-.84a2.442 2.442 0 00-1.61.16c-.724.236-1.426.534-2.1.89a39.009 39.009 0 00-8 6.69 17.139 17.139 0 01-1.85 2.07 55.335 55.335 0 00-9.13 10.42 19.712 19.712 0 01-2.35 2.93c-.74.93-1.48 1.85-2.1 2.75-1 1.6-1.85 3.17-3 4.68-.74 1.18-1.6 2.38-2.22 3.52a64.683 64.683 0 00-3.95 7.9l-.74 1.42a33.86 33.86 0 00-3.95 8.14 21.067 21.067 0 01-1.23 2.78 65.496 65.496 0 00-3.95 10.24l-.37 1.94c-.38 2.19-.62 4.47-1 6.67-1.11 6.44-.13 11.88 3 16.54a62.446 62.446 0 006.91 8.27c2.59 2.32 5.93 3.34 9.51 3.8a22.677 22.677 0 005.18-.43c6.05-1.38 11-5 15.18-10.45a89.195 89.195 0 007-10.76 26.132 26.132 0 002.92-5.69c.325-.414.613-.855.86-1.32a57.001 57.001 0 003.95-8.39c.076-.482.246-.944.5-1.36 1.48-2.1 2.09-4.35 3.08-6.57-.62-.09-.62-.22.12-.89l.37-.09a8.178 8.178 0 011.6-4c.218-.271.348-.603.37-.95-.37-1 .25-1.67 1-2.59a3.494 3.494 0 00.86-1.82 15.167 15.167 0 012-4.82c.147-.197.231-.434.24-.68a9.763 9.763 0 011.48-4.44c1.36-2.56 1.61-5.21 2.35-7.87l.37-1.69c0-.03-.008-.06-.021-.087a.2.2 0 00-.058-.068.193.193 0 00-.081-.037.21.21 0 00-.09.002c-.61.28-.86 0-.49-.49a12.411 12.411 0 002.25-5.85l.02-.02zm-20.24-14c.37-.22.74-.56.86-.59.37-.21.5-.25.62 0a.158.158 0 01-.12.15 1.632 1.632 0 01-1.11 1c-.13 0-.37.1-.37 0-.27-.07-.02-.35.1-.5l.02-.06zm-18.64 14.27l.28-.34a2.3 2.3 0 00-.28.46v-.12zm0 19.75c-.12.52-.12 1.14-.86 1.45-.41.15.1-.59.84-1.39l.02-.06zm-5.06 47.79a.357.357 0 01-.25-.06c-.12-.09-.12-.34-.12-.34l.62-.89c2.1-2.13 4.19-4.38 6.05-6.69.186-.161.391-.299.61-.41.13 0 .37 0 .37.16a.877.877 0 01-.12.52c-1.85 2.56-3.7 5.25-6.42 7.28a2.179 2.179 0 01-.76.49l.02-.06zm2.72.07a.79.79 0 01-.5.24s-.12 0-.12-.09l-.12-.09c.092-.252.216-.49.37-.71 1.72-1.91 3.45-3.83 5.06-5.71.24-.31.49-.37.61-.27a.35.35 0 010 .49 28.638 28.638 0 01-5.32 6.2l.02-.06zm4.93 7.53c-.12 0-.12-.22-.12-.34.195-.358.496-.647.86-.83a.342.342 0 01.25.06c-.02.55-.76 1.35-1.01 1.19l.02-.08zm.87-4.41A17.955 17.955 0 01323 683c-.24.06-.49.12-.62 0a.56.56 0 010-.61 8.013 8.013 0 011.12-1.52 94.455 94.455 0 007.77-9.59c.219-.291.467-.559.74-.8l.25-.06a.093.093 0 01.044-.004.091.091 0 01.068.051.737.737 0 01-.112.573c-2.11 3.23-3.84 6.63-6.55 9.53l.02-.06zm12.22-13.05c-1.48 2.35-2.84 4.78-4.32 7.13a51.597 51.597 0 01-4.69 6.1c-.37.47-.87.84-1.24 1.3-.37-.4 0-.74.13-1 3.58-4.72 6.66-9.68 9.87-14.68.62-.89 1.23-1.79 1.85-2.56a.67.67 0 01.93-.27c-.87 1.34-1.71 2.63-2.55 4.04l.02-.06zm7.4-65.9c-.49 2.84-.74 5.49-1.48 8.27-1 4.19-2.22 8.33-3.33 12.55l-.74 1.92a63.177 63.177 0 00-2.59 8.42 16.976 16.976 0 01-1.73 4.5 120.782 120.782 0 00-3 7 24.849 24.849 0 01-2.23 5 4.515 4.515 0 00-.37.71c-1.11 3.24-3.21 6.11-5.06 9.16a9.817 9.817 0 00-.61 1.14c-1.11 2.63-3.09 5-4.94 7.41a40.653 40.653 0 01-6.54 6.44c-2.35 1.82-3.21 1.42-3.58-1.2a14.85 14.85 0 01.86-6.89 79.058 79.058 0 002.59-8.91c.5-1.48 1-3.09 1.36-4.54.36-1.45.87-3.3 1.24-4.87a1.412 1.412 0 01.37-1.33c.24-.55.61-1 .86-1.57.25-.31.37-.71.12-.9-1.11-.71-.37-1.51.37-2.06a6.498 6.498 0 002-3.09c1.73-4.38 4.07-8.66 6.05-13 .382-.762.716-1.547 1-2.35l-.74.56c-.12 0-.37.09-.37 0v-.37l1.11-1v.86c2-2.84 3.58-5.83 5.19-8.7l-2.84 2.93c.428-.938.922-1.843 1.48-2.71l2.84-4.41a8.121 8.121 0 012.59-2.87c.62-.4 1.11-.89 1-1.48a3.708 3.708 0 011-2.47c.74-1 1.6-1.88 2.34-2.93v.22a13.715 13.715 0 012.59-4 1.005 1.005 0 011.11-.53 2.484 2.484 0 012.23 2.66 15.6 15.6 0 01-.17 2.49l.02-.06zm-4.32-2c.137-.229.305-.438.5-.62.147-.177.271-.372.37-.58a2.792 2.792 0 01-.5.61c-.161.195-.295.41-.4.64l.03-.05zm-.49.62c.131-.231.296-.44.49-.62a1.364 1.364 0 00-.51.67l.02-.05zm-.87.71c.5.24.62-.28.87-.71a2.77 2.77 0 00-.89.76l.02-.05zm-8.51 13.84c.141-.379.305-.75.49-1.11a3.407 3.407 0 00-.51 1.16l.02-.05zM423.21 614.41l.87-1.45c-.39.416-.687.91-.87 1.45zm-1.72 3c-.25.3-.37.71-.62 1-.026.18-.066.357-.12.53l.37-.46c.12-.37.74-.64.37-1.04v-.03zm-3.09 5.83c.12-.16.25-.19.37-.34v-.25a2.546 2.546 0 01-.37.62v-.03zm-.49 1.11a3.37 3.37 0 00.49-1.11c-.12.43-.4.76-.49 1.14v-.03zM417 626c.25-.43.62-1 .87-1.57-.21.5-.58.96-.87 1.57zm-.49 1.11c.14-.38.304-.75.49-1.11a4.945 4.945 0 00-.45 1.06l-.04.05zm-.49.85l.49-.85c-.15.24-.3.53-.45.8l-.04.05zm-.5.88l.5-.88a7.135 7.135 0 01-.5.75v.13zm-2.34 4.29a14.682 14.682 0 002.34-4.29 15.092 15.092 0 00-2.3 4.24l-.04.05zm-.5 1h.13c.09-.21.18-.49.27-.73a2.916 2.916 0 01-.36.66l-.04.07zm0 0a1.31 1.31 0 01-.32.48c.163-.158.314-.328.45-.51l-.13.03zm-2.47 4.2c-3.33 6.63-6.29 13.42-9.38 20.11a9.106 9.106 0 00-.74 2.28 114.56 114.56 0 005.19-10.55c1.85-4.28 3.95-8.51 6.05-12.86.353-.743.641-1.516.86-2.31-.7 1.1-1.32 2.24-1.94 3.26l-.04.07zm-10.61 23l.49-.49v-.13l-.49.62zm-.49 1.11c.206-.311.37-.647.49-1v-.12c-.08.35-.33.68-.45 1.06l-.04.06zM378 642.71a35.461 35.461 0 003.33-8.73 58.213 58.213 0 00-3.33 8.73zm-.49 1.11a3.37 3.37 0 00.49-1.11c-.128.379-.278.749-.45 1.11h-.04zm-.5 1.11h.13l.27-.8a4.786 4.786 0 01-.36.8h-.04zm-1.6 3.73c-2.1 5.59-4.07 11.14-6.05 16.82a34.63 34.63 0 00-2.1 6.94 22.147 22.147 0 001.85-4.54c1.11-3.36 2.35-6.88 3.58-10.27 1.36-3.79 2.72-7.47 4.08-11.26l.37-1.45a14.39 14.39 0 00-1.69 3.76h-.04zm-9.13 27.09a5.405 5.405 0 00.86-2.81 7.796 7.796 0 00-.82 2.81h-.04zm88.74-102v.12c-.87.21-1.48.12-1.61-.71-.13-.83-.12-1.33-.12-2.07a5.602 5.602 0 00-.86-2.5 1.998 1.998 0 00-2-.62c-.31.181-.648.306-1 .37-.86.34-1.11.16-1-.74a5.074 5.074 0 01.12-1.39 1.732 1.732 0 00-.25-1.17c-1.11-1.45-3.58-1.08-5.06.64l-.74 1.18a9.33 9.33 0 01-4.81 3.79 9.817 9.817 0 00-4.07 2.62 19.154 19.154 0 00-3.34 4.41l-1.11 1.76a190.977 190.977 0 00-11.35 18l-1.48 2.22c-1.36 2.19-2.84 4.41-4.08 6.69a42.587 42.587 0 01-4.44 7.16c-.37.59-.74 1.3-1.48 1.48-.37.09-.5-.62-.37-1.88a.16.16 0 01.034-.099.167.167 0 01.086-.061c1.11-4.59 1.11-9 2.1-13.48.15-.604.108-1.24-.12-1.82a4.08 4.08 0 010-3c.12-.28.12-.65.24-1.05.13-3.37.25-6.73.13-10a3.166 3.166 0 00-.87-2.62 8.409 8.409 0 01-.61-1.7c-.5-2.22-.87-4.48-3.09-5.53 0-.12-.12-.21-.25-.31a3.678 3.678 0 00-3-1.85 1.802 1.802 0 01-1.73-1.17c-.24-.68-.74-.8-1.35-1a4.425 4.425 0 00-3.83.83 9.345 9.345 0 00-2.47 2.59 37.443 37.443 0 01-4.32 5.77 7.051 7.051 0 00-1 1.48c-1 1.72-1.73 3.39-2.84 5a37.025 37.025 0 00-3.33 6.51c-1.36 3.3-2.71 6.6-4.19 9.94a81.27 81.27 0 00-3.46 8.76c-.49 1.6-1.11 3.24-1.73 4.75-.25.8-.62 1.51-.86 2.19-1 3.45-2 6.91-3.33 10.33-1.24 3.15-2.35 6.39-3.46 9.63-.62 1.76-1.36 3.67-1.85 5.52-1 4.07-2.35 8.11-3.58 12.25-1.11 3.24-2.1 6.57-3 9.87-.62 2.62-1 5.31-1.48 7.9a5.092 5.092 0 00.86 4.35c.49.74 1.36.65 2.1.71.49 0 .61-.52.86-.83.25-.31.49-.25.49 0s.13.83.25 1.17a2.294 2.294 0 001 1.73c.86.53 1.6.34 2.22-.8.431-.652.902-1.276 1.41-1.87 0-.13.25-.19.38-.22s.24.19.24.31c0 .49-.24 1.05-.24 1.67-.13.15 0 .49.12.58l.62-.15a5.003 5.003 0 001.6-2.38c.62-2 1.11-3.85 1.85-5.89 1.61-4.84 3.21-9.69 5.06-14.59 3.21-8.95 6.54-17.8 10-26.81.62-1.76 1.36-3.42 2.1-5.21a9.574 9.574 0 011.85-2.81c-.37 2.44-1.6 4.85-2.47 7.28a20.227 20.227 0 00-1.73 5 14.98 14.98 0 001.61-3.61 4.352 4.352 0 012.1-2.5 7.246 7.246 0 010 3.21l-.37 2.19c-.5 4.94-1.36 10-1.61 14.84a3.81 3.81 0 01-.12 1.14c-.5 2.23-.62 4.36-1 6.55-.62 3.73-.25 7.22-.62 10.89a4.649 4.649 0 001 3.45c1 1.12 1.61 1.09 3.09-.27.37-.34.61-.28.74.06l.37 1.76a1.634 1.634 0 00.74 1.42c.86.9 2 .62 2.84-.83.35-.486.639-1.013.86-1.57.25-.44.62-.78 1-.62.38.16.37.4.24.8l-.37 1.2a.712.712 0 00.13.84.88.88 0 001-.37c.321-.42.609-.864.86-1.33.335-.582.623-1.191.86-1.82.25-.43.37-.95.87-.83s.24.56.37.89l3.21-7.09c-.25.19-.5.86-1 .74-.25-.19 0-.62 0-.86l1.11-2.63c2.59-5.58 5.06-11 7.65-16.47 4.94-10 10.25-20 15.55-29.67.87-1.58 1.61-3 2.47-4.44.13-.28.37-.84.87-.84s.12.59 0 1c-.1.248-.224.486-.37.71-.5 1-.87 2.07-1.36 3.05l.74-.67c.74-.44 1.36-.1 1.23.55-.104.68-.268 1.349-.49 2a35.136 35.136 0 00-1.6 5.7c-1.24 6-1.86 11.94-3.46 17.9v.49c-.518 3.56-.852 7.145-1 10.74a7.634 7.634 0 001 4.44 2.494 2.494 0 001.73 1.42 3.131 3.131 0 012.34 1.52c.383.528.841.996 1.36 1.39a1.758 1.758 0 002.1 0c.74-.43 1.36-.71 2-.25.62.22 1.11 0 1.73-.68a8.85 8.85 0 002.35-4.65c.61-4.11 1.35-8.24 2.34-12.31.12-.28.25-.68-.12-.71a11.476 11.476 0 00-1.24 3.27c-.12.27-.24.31-.37.21a.093.093 0 01-.044.004.08.08 0 01-.04-.017.09.09 0 01-.036-.077c.012-.483.096-.962.25-1.42.61-2.62 1.11-5.21 1.85-7.74 1.36-5.53 3-11.11 4.44-16.66.15-.725.357-1.437.62-2.13 1.6-4.35 3.21-8.82 4.81-13.17l2.22-6c.13-.28.25-.8.62-.65.37.15.12.59 0 .87-2.34 5.89-4.2 11.78-6.17 17.71-1.48 4.81-2.84 9.59-4.32 14.4-.62 2.25-1.23 4.38-1.73 6.6a3.9 3.9 0 00-.25 1.67l.13.09.25-.06c.094-.343.217-.678.37-1l2.83-10.22c.74-2.65 1.36-5.4 2.23-8.08 1.85-5.27 3.82-10.58 5.55-15.82.25-1 .74-1.92 1-2.84a41.027 41.027 0 002.45-8.15c.486-.991.858-2.035 1.11-3.11.12-.53-.13-.84-.62-.84.227-1.058.563-2.09 1-3.08a5.407 5.407 0 00.61-1.88 14.547 14.547 0 011-4.45 6.813 6.813 0 00.19-3.51l-.04-.02zm-85.91 83.5a68.236 68.236 0 01-2.71 7.59 1.578 1.578 0 010-1.48l2.22-6.11c0-.25.12-.4.25-.43.41-.08.28.18.28.45l-.04-.02zm5.56-35.21l.12-.15v.11a.824.824 0 01-.13.14.51.51 0 00.05-.08l-.04-.02zm-.25.56a.699.699 0 01.24-.44c0 .183-.041.365-.12.53 0 .13-.12.16-.24.31a.56.56 0 01.16-.38l-.04-.02zm.86 17.68l-4.44 12c0 .12-.25.19-.37.34l-.12-.46c.37-1 .61-2 1-3.09a110.903 110.903 0 014.32-10.83 13.175 13.175 0 01-.35 2.06l-.04-.02zm7.16-39.06c.37-.21.13.46-.74 1.67.3-.54.3-1.15.78-1.65l-.04-.02zM377.42 634c0 .12-.24.43-.24.55a1.324 1.324 0 01.12-.65.351.351 0 01.25-.3c-.13.13 0 .22-.13.4zm1.85-4.41a19.905 19.905 0 011.86-6.76 4.998 4.998 0 011.6-2.13 83.127 83.127 0 01-3.46 8.87v.02zm5.31-14.29c.25-.43.25-.92.74-1.17.49-.25 0 .35-.74 1.15v.02zm-.32-17.91c0 .07 0 .15-.05.23l-.12.16v-.13l.17-.26a9.918 9.918 0 012.05-4.49 10.424 10.424 0 01-2.05 4.47v.02zm3.53-7.2l-.25.06c0-.12-.12-.09-.12-.22a4.503 4.503 0 011-1.48 9.135 9.135 0 00-.63 1.62v.02zm13.21 60.5l-.37.95-.13.16v-.13c.234-.336.403-.712.5-1.11.169-.211.304-.447.4-.7a6.212 6.212 0 01-.4.83zm3.21-32.28l-.37.09-.13-.09c.13-.4.13-.77.25-1.17 0-.12.25-.31.37-.22l.25.31c-.146.352-.27.713-.37 1.08zm2.59-17.31c0-.12.25-.18.25-.31l.24.31c-.12.28-.12.41-.24.68l-.13.16-.24-.19a1.094 1.094 0 01.12-.65zm-.87 6.88c0-.12.25-.3.38-.21s.12.21.12.34a5.2 5.2 0 01-1 2.47 3.9 3.9 0 01.5-2.58v-.02zm.79 18.16a.965.965 0 000 .17c-.173.598-.5 1.14-.95 1.57.184-.593.51-1.132.95-1.57a1.068 1.068 0 000-.16v-.05c.171-.59.495-1.125.94-1.55a4.795 4.795 0 01-.94 1.59zm12.93-22.62c-.03.12-.077.234-.14.34v-.25a.239.239 0 00.14-.09.733.733 0 01.11-.22.332.332 0 01-.11.22zm2.7-4.76c0 .07 0 .1-.12.23a1.62 1.62 0 01.12-.23s0-.05.06-.06l-.06.06zm.62-.82l-.37.46c0 .09-.07.13-.16.21.047-.074.101-.144.16-.21l.37-.71v.25zM434 648h-.12c-.37-.27 0-1.48.49-2 0 0 .13 0 .13.09.32.36.07 1.53-.5 1.91zm4.69-75.22h-.12l.4-.5c-.13.16-.241.334-.33.52l.05-.02zm12.72 18.43c-.25.31-.37.83-.87.83-.25.06-.25-.31-.12-.46.36-.94.48-1 1.3-1l-.31.63zm1.6-13.61c-.12 0-.25.06-.25-.06a.09.09 0 00-.077-.094.09.09 0 00-.043.004 2.782 2.782 0 01.74-1.55c.12-.15.12-.15.25-.18l.12.09a3.562 3.562 0 01-.75 1.81l.01-.02zm-57 91.85l-.13.28c.06-.01.06-.13.06-.26l.07-.02zM535.29 505.87c.86-1.2.74-1.66-.13-2.19l-.86-.15c-.12-.09 0-.13-.12-.34.24-.68.24-.68-.25-.43l-2.1.52-.25-.19c0-.24.13-.27.25-.43.68-.309 1.382-.567 2.1-.77a.781.781 0 00.12-1 13.34 13.34 0 00-1.6-.58 3.572 3.572 0 00-2.59.27c-.429.288-.843.599-1.24.93a21.807 21.807 0 00-4.19 3.76c-2.1 2-3.83 4.41-5.93 6.41l-.25.31c-2.22 2.78-4.44 5.31-6.54 7.93-.261.417-.549.818-.86 1.2-.87 1.2-1.73 2.28-2.47 3.45-1.73 2.29-3.21 4.51-4.69 6.73a11.68 11.68 0 00-1.85 5 30.742 30.742 0 01-.12 4.72c-.13.52.24.8.86.77a3.576 3.576 0 011.73.43c-.25.31-1 .5-.87 1s.87 0 1.24-.06.37-.22.61-.28a5.214 5.214 0 001.809-.999 5.216 5.216 0 001.281-1.621 42.252 42.252 0 012.47-3.82 13.03 13.03 0 011.48-2.1 45.282 45.282 0 014.69-5.49c.204-.379.452-.731.74-1.05.677-.91 1.466-1.73 2.35-2.44a6.113 6.113 0 001.35-1.57c.13-.65.74-1 1.24-1.42.399-.212.772-.47 1.11-.77a.778.778 0 00.49-.86 1.226 1.226 0 01.148-.658c.109-.202.273-.369.472-.482a34.178 34.178 0 003.33-3.55c1.85-1.82 3.58-3.85 5.43-5.8a.538.538 0 00.13-.27c0-.25-.25-.19-.5-.13s-.49.12-.61 0c0-.37.37-.46.61-.52.281-.17.571-.324.87-.46a1.56 1.56 0 001.23-1.42 1.7 1.7 0 01-.12-1.58zM505.17 542c.25-.31.49-.62.87-.59.38.03-.13.3-.87.59zm9.5-12c0 .12-.24.31-.37.34V530a.271.271 0 01.37-.22v.22zm7.66-8.82c0 .12-.13.15-.25.19 0-.13-.12-.1 0-.25l.25-.06v.12zm7.28-7.86l-.12.15a.734.734 0 01-.13-.34c.25-.31.37-.58.74-.68l.25.19a1.257 1.257 0 01-.74.7v-.02zm.86-8.61c.13 0 .25-.19.37-.09-.12.05-.37.23-.37.11v-.02zm1.61-.77h-.15c.08 0 .15-.07.15-.16l.12.09c.13.03 0 .18-.12.13v-.06zm-36.22 52.4l.18-.09v-.13l-.18.22zm-1.3 1.14c.49-.311.928-.695 1.3-1.14-.489.319-.927.71-1.3 1.16v-.02zm-.77 1c.1-.171.237-.318.4-.43l.37-.59-.5.62a2.361 2.361 0 00-.27.44v-.04zm-.59.68c-.25.3-.37.46-.49.61.187-.169.351-.36.49-.57v-.04zm-.49.61l-.5.62c.192-.17.36-.365.5-.58v-.04zm-1.86 2.32l-.49.61.49-.49c.105-.25.279-.464.5-.62l.37-.58-.5.61-.37.47zm22.84 24.17l-.37-8.92a17.812 17.812 0 00-1.11-5.77c-.74-1.66-1.73-3.15-2.6-4.78a5.46 5.46 0 00-3.2-2.9c-1.24-.31-1.73-1.3-1.73-2.66.025-.399.106-.793.24-1.17l-.61.15a.381.381 0 01-.199-.26.39.39 0 01.069-.32l1.36-2.07c.37-.59.74-1.05 1.11-1.76.25-.43 0-.86-.61-.71-.385.035-.763.13-1.12.28.147-.85.49-1.654 1-2.35a1.448 1.448 0 000-1.72 1.577 1.577 0 00-2-.62l-1.11.65c-.5.24-1.11.89-1.73.55.437-.408.847-.842 1.23-1.3.25-.18.13-.27-.12-.34-.37.22-.86.47-1.24.68l-1.11.65c-.24.06-.49.12-.61 0s0-.49.24-.68l2.23-1.66c.86-.59 1-1.36.37-1.82a4.556 4.556 0 00-5.07.27 44.06 44.06 0 00-4.44 3.45c-2 1.85-3.58 3.86-5.31 5.65-1.11 1.14-2 2.46-3 3.7-2.47 3.21-4.32 6.63-6.54 9.9a18.014 18.014 0 00-2.34 4.66 11.353 11.353 0 01-.75 1.66l-4.81 8.36c-.49 1-.86 1.82-1.23 2.78a67.2 67.2 0 01-2.72 6.48 44.097 44.097 0 00-3.33 7.49 46.664 46.664 0 01-2.59 6.45 17.06 17.06 0 00-.87 2.07 48.55 48.55 0 01-2.47 5.67 7.88 7.88 0 01-2.83 3.67l-2.77 1.89a21.276 21.276 0 00-2.47 1.85c-1.36 1.45-2.72 2.9-4.08 4.22a4.94 4.94 0 00-1.45 4.57c0 .37.37.4.74.19.278-.19.527-.419.74-.68l4.45-3.7c.86-.71 1.73-1.3 2.59-1.88.12-.16.49-.13.49.12.13.09-.12.53-.24.68a6.656 6.656 0 01-1.11.89c-1.36 1.08-2.72 2.16-3.95 3.21a8.671 8.671 0 00-2.23 2.41 19.218 19.218 0 003.34-2.44c.86-.71 1.6-1.88 2.84-1.94-.13 1.39-1.61 1.63-2.35 2.43-.314.311-.648.602-1 .87l-2.34 2.19a2.166 2.166 0 00-.5 2.09 1.556 1.556 0 001.61.84l1.11-.28c.74-.31.86-.09.62.59a5.008 5.008 0 00-.37 1.82A8.558 8.558 0 01447 643a28.162 28.162 0 00-.87 2.81 8.687 8.687 0 000 4.69c.62 1.45 1.48 2.35 3.46 1.61.49-.25.74-.06.86.4s.13.83.13 1.33a3.072 3.072 0 002.34 2.5 1.092 1.092 0 001.24-.43c.19-.184.355-.393.49-.62.74-.8.86-.83 1.36-.09.12.09.12.09.12.21.62 1 1.11 1 2-.12.49-.49 1-1.23 1.72-1.42a1.578 1.578 0 001.36-1.45 35.19 35.19 0 011.85-5.52c1-2.47 2-4.93 3-7.28l4.82-11.44c.162-.403.37-.785.62-1.14a18.961 18.961 0 013.58-4.23c.37-.34.61 0 .74.31l7.77-3.79a12.03 12.03 0 011.85-.83.561.561 0 01.87.4v1.6c-.139.891-.346 1.77-.62 2.63a38.753 38.753 0 01-1.6 6.32c-1.49 3.46-2 7-3.21 10.55a4.827 4.827 0 00.49 4c.37.53 1 .5 1.6 0l1.12-1.14a.413.413 0 01.37 0c.12 0 .12.22.12.34-.25.68-.49 1.36-.74 2.28.74-.8 1.23-1.29 1.6-1.75l.25-.06c.12.09.25.18.25.3l-.5 1.36c-.49 1.48-.24 2.41.74 3 .98.59 1.85.28 2.72-.8.363-.389.697-.803 1-1.24.61-.89 1.35-1.82 2.09-2.74.25-.31.62-.77 1-.5s0 .62-.24.93l-1.86 3.42c-.24.44-.49 1 0 1.24s.74-.06 1.11-.4a6.587 6.587 0 001.24-1.3c.62-1 1.23-1.91 1.73-2.9a82.992 82.992 0 004.81-11.19c1.73-4.63 3.33-9.48 4.94-14.07 0-.13.24-.19.49-.37a15.475 15.475 0 01-1.36 5 107.276 107.276 0 00-3.45 10.24 15.846 15.846 0 01-.87 2.44c-1.11 2.74-2.34 5.39-3.45 8a18.512 18.512 0 00-.87 2.19 11.406 11.406 0 001.73-2.66 76.456 76.456 0 004.32-10.45c.25-1.05.74-2.16 1.11-3.24a92.032 92.032 0 003.63-11.48c.135-.608.34-1.199.61-1.76a66.6 66.6 0 002.47-8.14l2.59-8.92c.87-3.42 2-7 1.61-10.4a3.61 3.61 0 01.24-1.05c.04-.61.17-1.26.17-1.88v-.04zm-58.88 52.08a.158.158 0 01-.12.15c0-.12-.12-.09 0-.24s.12-.16.25-.06a.138.138 0 010 .064.16.16 0 01-.024.059.163.163 0 01-.106.067v-.04zm40.73-63.48a.657.657 0 01.25-.18c.12 0 .25.06.12.34-.12 0-.24.18-.37.21v-.37zm-16.41 6.57v.12l-.5 1c.146-.369.313-.73.5-1.08v-.04zm-10.37 22.37c-.12.52 0 .86-.37 1.33-.39-.41.25-.81.37-1.33zm1.24 24.75c-.37 1.08-.74 2-1.11 2.87L463 645.36c-.74 1.66-1.23 3.27-1.85 4.9-.13.16-.25.56-.5.37-.12 0-.12-.34-.12-.58l.74-2.66c1.36-3.91 3.09-7.68 4.69-11.53l3-6.91c.114-.427.377-.799.74-1.05.13-.16.25-.06.37 0-.07.28.05.49-.07.65zm1.49-30.12a2.247 2.247 0 00-.37.59c-.146.379-.313.749-.5 1.11l-.37 1 .37-1.08c.13-.27.37-.71.5-1 .13-.29.12-.4.12-.65s.12-.28.25-.31v.34zm2.59-6.2c-.5.37.12-1.14 1.23-2.65a4.488 4.488 0 01-1.24 2.65h.01zm9.38 24.2a63.248 63.248 0 01-7.78 4.16c-.37 0-.61 0-.61-.34a.56.56 0 01.12-.4c.37-.22.74-.68 1.11-.77 2.22-1.05 4.57-2.13 6.79-3.05.24-.19.49-.25.61.09a.376.376 0 01-.079.192.378.378 0 01-.171.118h.01zm13.33-38.87c-.111.424-.194.855-.25 1.29-.86 3.3-1.6 6.58-2.47 9.88-.12.89-.37 1.82-.49 2.59a32.594 32.594 0 01-2 8.76 27.893 27.893 0 01-.86 3c-.49 1.61-1 2.1-2.34 2.07-1.5-.08-3.003.085-4.45.49l-1.36.09c-.37-.15-.61-.34-.49-.86.028-.219.068-.436.12-.65 1.61-3.49 2.84-7 4.94-10.36a7.109 7.109 0 001.11-2.26c.87-1.82 1.73-3.64 2.72-5.36.99-1.72 1.73-3.27 2.47-4.82.12-.27.24-.67.12-.64-.37-.28-.5.12-.74.43a25.812 25.812 0 00-1.73 3c-1.23 2.41-2.34 4.91-3.58 7.44a23.532 23.532 0 01-1.73 3.26 39.494 39.494 0 00-3.21 6.48c-.49 1.24-1.11 2.5-1.72 3.77a2.57 2.57 0 01-.87.95c-.12 0-.25-.06-.37 0s-.12-.09-.12-.22.12-.64.24-.92c2.23-4.38 3.95-9 6.67-13.51 1.73-2.9 3.21-6 4.69-9 .49-.86 1-1.85 1.61-2.74a2.704 2.704 0 012-1.48c.74-.06.74-.8 1.11-1.27.25-.3.37-.46.62-.4.148.158.273.337.37.53l-.01.46zm9.13 38.08c-.12.16-.37.34-.37.22 0-.12-.25-.19-.25-.31.62-1.76 1.36-3.67 2-5.55a.886.886 0 01.37-.34.2.2 0 01.226.096.208.208 0 01.024.084 20.297 20.297 0 01-2.01 5.8h.01zM511 598a1.08 1.08 0 01-.12.65c0 .13-.13.28-.25.43v-.37l.37-.71c.13-.4.13-1 .5-1.35.37-.35.09.42-.5 1.35zM565.77 621.58c.234-.472.402-.973.5-1.49-.13.41-.37.96-.5 1.49zm-1.85 7.86a44.736 44.736 0 001.85-7.86 20.446 20.446 0 00-1.85 7.86zm-2.71-83.87v.5c.096-.137.176-.285.24-.44v-.37c-.12.16-.24.19-.24.31zm-.5 2a3.55 3.55 0 00.37-1.21c-.24.42-.74.79-.37 1.19v.02zm33-8.22c0-.49-.62-.59-1-.12-.37.21-.49.74-1 .86.028-.672.112-1.341.25-2a7.18 7.18 0 00-.37-3.24c-.25-.68-.62-1.45-1.36-1.39-.86-.15-1.6-.95-2.84 0-.12.16-.49.25-.49 0a.577.577 0 010-.62 1.287 1.287 0 00-.12-2.06c-1.36-.9-2.84-.53-4.2 1-.74.8-1.36 1.82-2.1 2.62a25.283 25.283 0 00-4.44 6.79c-1.36 2.81-2.72 5.61-4.32 8.36-.376.679-.71 1.38-1 2.1-.62 1.38-1.11 2.74-1.73 4a31.128 31.128 0 00-1.72 5.24 18.18 18.18 0 01-.87 2.68c-.49 1.36-1.11 2.63-1.6 4a4.437 4.437 0 01-1.062 1.812 4.443 4.443 0 01-1.778 1.118 60.565 60.565 0 01-8.89 2.47c-1.11.15-1.48-.38-1.11-1.58a44.394 44.394 0 012.47-6.42l1.48-3.57c1.11-2.87 2.1-5.83 3.21-8.83.12-.27.12-.64.25-.92a.343.343 0 00-.13-.22.57.57 0 00-.37.22c-.25.06-.37.34-.62.52.25-.68.25-1.29.5-1.85 1.11-2.62 1.85-5.15 3.21-7.71a3.887 3.887 0 00.49-2.35c-.12-.46-.74-.55-1.11-.09a14.003 14.003 0 00-1.6 2c.529-1.532.9-3.113 1.11-4.72.12-2-.62-2.94-2.6-3.31l-.74-.18c-.86-.41-1-.25-1.48.49l-.61 1.14a.581.581 0 01-.62.4c-.12 0-.12-.22-.25-.31a2.925 2.925 0 011-2.47l.49-.61c.37-.59.25-1.17-.37-1.27-.62-.1-1.48-.12-2.22-.31-1-.37-1.6 0-2.47 1.11-.49.62-1 1.48-1.6 2.13a21.149 21.149 0 00-3.58 5.09 20.102 20.102 0 01-2.72 4 17.439 17.439 0 00-1.85 2.8c-1.11 2-2 4.2-3.21 6.23a62.607 62.607 0 00-4.93 12.1l-4.45 12.71a5.713 5.713 0 01-2.84 3.3c-1.35.71-2.59 1.51-3.95 2.34-.86.59-1.85 1.33-2.71 2a2.527 2.527 0 00-.87 2.32c.267.886.732 1.7 1.36 2.38a.725.725 0 00.74.18c.37-.09.74-.31 1.11-.4 1-.37 1.24-.18.87.77-.13.28-.5.74-.37 1 .37 1.14-.13 2.62.37 3.86.267.856.348 1.76.24 2.65a14.078 14.078 0 01-.86 4.41c-1.11 3.24-1.6 6.7-2.84 10.09a11.755 11.755 0 00-.49 2.84 32.604 32.604 0 01-1 4.81c-.86 2.81-1.11 5.71-2.1 8.42-.125.465-.206.94-.24 1.42a5.005 5.005 0 001.85 5.22.56.56 0 00.61 0c.74-1.05 1.36-.83 1.86-.09a.793.793 0 00.37-.22c.37-.21.61-.15.74.06l.37 1.52c.082.316.235.608.448.855.214.246.481.439.782.565.74.43 1.61.09 2.22-.8.478-.625.893-1.294 1.24-2a.77.77 0 01.74-.55c.37 0 .37.27.24.67a8.184 8.184 0 01-.24 1.67.489.489 0 00.37.52l.61-.15a4.804 4.804 0 001.36-1.94 35.95 35.95 0 002.1-6.2c.86-3.3 1.73-6.61 2.72-9.94 1.85-6.38 3.95-12.71 5.92-19 .37-1 .62-1.88 1-2.84.178-.393.382-.774.61-1.14.14-.129.313-.216.5-.25.12 0 .25.19.25.31-.13.28-.13.65-.25.93-.87 2.19-1.48 4.44-2.22 6.72-2.47 8-5.06 16-7.29 23.91-.49 1.85-1 3.7-1.35 5.52-.13.16.12.22.12.34l.37-.33c.34-1.401.754-2.783 1.24-4.14 1-3.45 1.85-6.88 3-10.36 1.15-3.48 2.22-7.1 3.33-10.59l3-9.13c.386-1.045.84-2.064 1.36-3.05a3.631 3.631 0 011.73-1.91c.61-.16 1.11-.4 1.73-.56 2-.74 4-1.35 6-2 1.11-.28 2.23-.68 3.21-.92s1.48.24 1.48 1.23a5.285 5.285 0 01-.61 2.62 27.166 27.166 0 00-1.11 3.37c-.13.77-.37 1.69-.62 2.62a47.716 47.716 0 00-1.24 5.49 18.195 18.195 0 01-1.6 5.58 16.424 16.424 0 00-1 3.34c-.49 2.09-1 4.19-1.35 6.26a27.697 27.697 0 00-.62 5.58 4.654 4.654 0 001.11 3.43c.62.71.62.83 1.73-.18.37-.22.61-.28.74.06s.12 1.08.37 1c.61 0 .49-.74.74-1.17l.37-.59c.101.725.141 1.458.12 2.19a3.065 3.065 0 001.61 2.44c.86.65 1.72.18 2.34-1 .29-.717.624-1.415 1-2.09a.796.796 0 01.74-.56c.37 0 .49.37.37.77l-.37 1.7c-.12.4-.25.8.25.8.222-.103.427-.238.61-.4a6.904 6.904 0 001.61-2.62c.37-1.2.61-2.38 1-3.58.86-3.42 1.72-7 2.83-10.46 2.6-7.93 5.31-15.89 7.9-23.69.87-2.56 1.85-5 2.84-7.5.37-1 .74-1.42 1-1.23.25.43 0 .86-.12 1.39l-.74 2.16c-3.46 9.5-6.67 18.94-9.75 28.6a16.127 16.127 0 00-1 4.31 78.802 78.802 0 003-8.14c1-3.21 2-6.42 3.09-9.66 1.11-2.74 2-5.55 3.08-8.42 1.11-3.24 2.35-6.51 3.46-9.75a11.064 11.064 0 011.85-3.17c.86-.71 1.85-1.58 1.11-2.63-.12-.21.12-.64.25-.92.315-.822.563-1.668.74-2.53.094-.737.3-1.455.61-2.13.87-2.31 1.86-4.53 2.84-6.88.5-1.23 1.11-2.5 1.61-3.73 1.11-3.12 2.22-6.23 3.21-9.32a51.708 51.708 0 002.46-9.25c.136-1.426.143-2.862.02-4.29l.04.02zm-71.46 85.44a.818.818 0 000 .14l-.12.15v-.12a.158.158 0 00.12-.15.47.47 0 01.12-.26c-.04.07-.04.08-.16.22l.04.02zm1.85-7.36c.082-.363.189-.721.32-1.07-.18.38-.27.75-.36 1.05l.04.02zm7.4-.73a.933.933 0 00-.25.43c0-.12-.12-.34 0-.37l.37-.71a1.57 1.57 0 00-.16.63l.04.02zm1.85-5.77c-.12.15-.24.06-.24.18-.13-.09-.13-.09-.13-.21a1.057 1.057 0 010-.62 6.643 6.643 0 011-2h.12c.2.28-.29 2.01-.79 2.63l.04.02zm3.83-12.8c-.12.27-.37.46-.37.7v-.61a1.051 1.051 0 01.37-1c.21-.16.21.33-.04.89l.04.02zm5.55-39a71.733 71.733 0 01-3.51 8.68c0 .16 0 .33-.07.49l-.12-.1c.072-.126.135-.256.19-.39a21.869 21.869 0 013.64-9.45c-.17.22-.04.44-.17.71l.04.06zm15.18-5.88a5.294 5.294 0 01-1.46 3.07 5.063 5.063 0 011.42-3.13l.04.06zm-5.18-14.26a2.56 2.56 0 01-.49.62l.49-.62zm-8.64 16.72l-.25.06v-.12a3.206 3.206 0 01.87-1.45 3.659 3.659 0 01-.66 1.45l.04.06zm2.35-5a.475.475 0 00-.24.19.482.482 0 000 .12 4.764 4.764 0 00-.37.76l.17-.78.13-.15a.458.458 0 01.11-.28c0-.25.13-.28.25-.18.12.1-.09.11-.09.23l.04.09zm1.6-3.48c-.12.4-.37.71-.49 1.11.114-.39.278-.763.49-1.11.25-.56.62-1 .86-1.58a15.113 15.113 0 01-.9 1.49l.04.09zm2 25.67a.908.908 0 01-.5.25c-.12-.09-.25-.19-.25-.31.13-.4.13-.65.25-.93 1.85-4 3.21-8.08 5.19-12 .43-.76.77-1.41 1.19-2.06a11.076 11.076 0 01-.82 3.08l-3.77 9.07a10.919 10.919 0 01-1.33 2.81l.04.09zm5.18 50.92c-.12.28-.25.31-.37.34v-.25a.848.848 0 01.37-.83l.12.09c-.051.19-.111.376-.18.56l.06.09zm18.39-36.92c-1.11 3.6-2.1 7.18-3.58 10.76-2.1 5.22-3.46 10.61-5.18 15.86a10 10 0 01-1.48 3.33 9.158 9.158 0 01.61-3.61c2.1-6.32 4.08-12.62 6.05-18.91.86-2.56 1.85-5 2.72-7.47.171-.317.376-.616.61-.89 0-.12.25-.19.37-.22s.13.22.13.47a2.964 2.964 0 01-.31.59l.06.09zm2.84-31.08a.537.537 0 01-.13.28c0-.12-.12-.21 0-.37a2.4 2.4 0 00.38-.58l-.25.67zm1.73-3.88c-.5-.87.37-1.45.61-2 .21.58-.3 1.2-.67 1.91l.06.09zm8.27-16.63c.144-.111.278-.235.4-.37a2.3 2.3 0 00-.28.46 2.15 2.15 0 00-.4.38 2.64 2.64 0 00.22-.56l.06.09zm-.37.59a2.488 2.488 0 01-.5.61c.105-.253.247-.488.42-.7l.08.09zm1.72 24l-6.35 15.1a1.396 1.396 0 01-.62.77c0-.12-.24-.18-.24-.31.49-1.35.74-2.65 1.23-4 1-2.59 2.1-5.21 3.33-7.74.62-1.26 1-2.34 1.61-3.61l.74-1.54a.586.586 0 01.24-.19c.13.1.25.19.25.31a4.056 4.056 0 01-.25 1.13l.06.08zm1.48-5.56a4.396 4.396 0 01.75-2c0-.13.12-.16.24-.07l.13.1a4.488 4.488 0 01-1.18 1.89l.06.08zm2.47-6.17c-.12.16-.24-.06-.24-.18a.833.833 0 01.61-.9c0-.12.13.1.25.19-.18.32-.31.72-.68.81l.06.08zM630.65 522.74l.17-.08v-.12c-.06.07-.11.14-.17.2zm-1.31 1.16a5.2 5.2 0 001.31-1.16 5.96 5.96 0 00-1.31 1.16zm-.77 1c.1-.171.237-.318.4-.43l.37-.58-.49.61a2.154 2.154 0 00-.28.41v-.01zm-.59.68l-.49.62a2.79 2.79 0 00.51-.61l-.02-.01zm-.49.62l-.5.61c.197-.173.366-.375.5-.6v-.01zm-1.85 2.31l-.5.62.5-.5c.098-.248.269-.461.49-.61l.37-.59-.49.62c-.13.16-.25.32-.37.47v-.01zm22.83 24.18l-.37-8.92A17.51 17.51 0 00647 538c-.74-1.67-1.73-3.15-2.59-4.79a5.517 5.517 0 00-3.21-2.9c-1.24-.31-1.73-1.3-1.73-2.65.023-.404.108-.802.25-1.18l-.62.16a.384.384 0 01-.199-.267.39.39 0 01.079-.323l1.35-2.07c.399-.564.77-1.148 1.11-1.75.25-.43 0-.87-.61-.71a3.766 3.766 0 00-1.11.27 5.453 5.453 0 011-2.34 1.469 1.469 0 000-1.73 1.577 1.577 0 00-2-.62l-1.11.65c-.5.25-1.11.89-1.73.55.434-.407.844-.837 1.23-1.29.25-.19.13-.28-.12-.34-.37.22-.86.46-1.23.68l-1.11.65c-.25.06-.5.12-.62 0s0-.5.25-.68l2.22-1.67c.86-.58 1-1.35.37-1.82a4.556 4.556 0 00-5.06.28 42.897 42.897 0 00-4.45 3.45c-2 1.85-3.58 3.85-5.3 5.64-1.11 1.14-2 2.47-3 3.7-2.46 3.21-4.32 6.63-6.54 9.9a18.5 18.5 0 00-2.34 4.66 12.564 12.564 0 01-.74 1.67l-4.82 8.36c-.49 1-.86 1.82-1.23 2.77a64.842 64.842 0 01-2.72 6.48 46.176 46.176 0 00-3.33 7.5 45.207 45.207 0 01-2.59 6.44c-.336.668-.624 1.36-.86 2.07a52.433 52.433 0 01-2.47 5.68 7.996 7.996 0 01-2.84 3.67l-2.81 1.9a22.048 22.048 0 00-2.47 1.84c-1.36 1.45-2.71 2.9-4.07 4.23a4.904 4.904 0 00-1.48 4.57c0 .37.37.4.74.18.276-.193.525-.421.74-.68l4.44-3.7c.87-.71 1.73-1.29 2.59-1.88.13-.15.5-.12.5.13.12.09-.13.52-.25.67a7.27 7.27 0 01-1.11.9c-1.36 1.08-2.72 2.16-3.95 3.2a8.663 8.663 0 00-2.22 2.41 19.004 19.004 0 003.33-2.44c.86-.7 1.6-1.88 2.84-1.94-.12 1.39-1.61 1.64-2.35 2.44a8.997 8.997 0 01-1 .86l-2.35 2.19a2.182 2.182 0 00-.49 2.1 1.53 1.53 0 001.6.83l1.11-.27c.74-.31.87-.09.62.58a5.008 5.008 0 00-.37 1.82 8.274 8.274 0 01-.37 3.43c-.343.918-.63 1.857-.86 2.81a8.59 8.59 0 000 4.69c.61 1.45 1.48 2.34 3.45 1.6.5-.24.74-.06.87.41s.12.83.12 1.32a3.075 3.075 0 002.34 2.5 1.082 1.082 0 001.24-.43 2.72 2.72 0 00.49-.61c.74-.81.87-.84 1.36-.1.12.1.12.1.12.22.62 1 1.11 1 2-.12.49-.5 1-1.24 1.73-1.42a1.603 1.603 0 001.35-1.45 34.19 34.19 0 011.86-5.52c1-2.47 2-4.94 3-7.28l4.81-11.45c.162-.403.37-.785.62-1.14a18.887 18.887 0 013.58-4.22c.37-.34.61 0 .74.31l7.77-3.79a13.215 13.215 0 011.85-.84.561.561 0 01.87.4v1.61a16.466 16.466 0 01-.62 2.62 38.868 38.868 0 01-1.6 6.33c-1.48 3.45-2 7-3.21 10.55a4.854 4.854 0 00.49 4c.37.52 1 .49 1.61 0l1.11-1.14a.386.386 0 01.37 0c.12 0 .12.21.12.34-.25.68-.49 1.35-.74 2.28.74-.8 1.23-1.3 1.6-1.76l.25-.06c.13.09.25.19.25.31l-.5 1.36c-.49 1.48-.24 2.4.75 3 .99.6 1.85.28 2.71-.8.363-.385.697-.796 1-1.23.62-.9 1.36-1.82 2.1-2.75.24-.31.61-.77 1-.49s0 .62-.24.93l-1.85 3.42c-.25.43-.5 1 0 1.23.5.23.74-.06 1.11-.4.462-.377.876-.81 1.23-1.29.62-1 1.24-1.91 1.73-2.9a82.555 82.555 0 004.81-11.2c1.73-4.63 3.33-9.47 4.94-14.07 0-.12.25-.18.49-.37a15.334 15.334 0 01-1.35 5 106.414 106.414 0 00-3.46 10.24 15.263 15.263 0 01-.86 2.44c-1.12 2.75-2.35 5.4-3.46 8a16.862 16.862 0 00-.86 2.19 11.643 11.643 0 001.72-2.65 76.68 76.68 0 004.25-10.48c.25-1 .74-2.16 1.11-3.24a89.937 89.937 0 003.71-11.54c.135-.605.34-1.192.61-1.75a64.885 64.885 0 002.47-8.15l2.6-8.91c.86-3.43 2-7 1.6-10.4.03-.344.114-.682.25-1 0-.63.12-1.32.12-1.93v-.01zm-58.87 52.08a.17.17 0 01-.13.16c0-.12-.12-.09 0-.25s.13-.15.25-.06a.162.162 0 01-.12.15zm40.73-63.47a.586.586 0 01.24-.19c.13 0 .25.07.13.34-.13 0-.25.19-.37.22v-.37zm-16.42 6.56v.14l-.49 1c.135-.392.299-.773.49-1.14zm-10.37 22.33c-.12.53 0 .87-.37 1.33-.37-.4.25-.8.37-1.33zm1.24 24.75c-.37 1.08-.74 2-1.11 2.87l-5.93 13.94c-.74 1.67-1.23 3.27-1.85 4.91-.12.15-.25.55-.49.37-.13 0-.13-.34-.13-.59l.74-2.65c1.36-3.92 3.09-7.68 4.69-11.54l3-6.91c.113-.427.375-.8.74-1.05.12-.15.24-.06.37 0-.03.28.09.5-.03.65zm1.48-30.11a2.152 2.152 0 00-.37.58c-.144.38-.311.75-.5 1.11l-.37 1 .37-1.08c.13-.28.37-.71.5-1 .13-.29.12-.4.12-.65s.12-.27.25-.3v.34zm2.59-6.2c-.49.37.12-1.15 1.23-2.66a4.49 4.49 0 01-1.23 2.66zm9.38 24.19a63.248 63.248 0 01-7.78 4.16c-.37 0-.61 0-.61-.34a.57.57 0 01.12-.4c.37-.21.74-.67 1.11-.77 2.22-1.05 4.57-2.12 6.79-3.05.25-.18.49-.24.62.1a.369.369 0 01-.25.3zM631.56 544c-.12.28-.12.77-.25 1.3-.86 3.3-1.6 6.57-2.46 9.87-.13.9-.38 1.82-.5 2.59a33.066 33.066 0 01-2 8.77c-.25.92-.5 2.09-.87 3-.49 1.6-1 2.1-2.34 2.07-1.5-.085-3.004.081-4.45.49l-1.35.09c-.37-.16-.62-.34-.5-.87.032-.216.075-.429.13-.64 1.6-3.49 2.83-7 4.93-10.37a6.752 6.752 0 001.11-2.25c.87-1.82 1.73-3.64 2.72-5.37.86-1.57 1.73-3.27 2.47-4.81.12-.28.24-.68.12-.65-.37-.28-.49.13-.74.43a27.386 27.386 0 00-1.73 3c-1.23 2.4-2.34 4.9-3.58 7.43a23.585 23.585 0 01-1.72 3.27 37.566 37.566 0 00-3.21 6.48c-.5 1.23-1.11 2.5-1.73 3.76a2.511 2.511 0 01-.87 1c-.12 0-.24-.06-.37 0s-.12-.1-.12-.22c.12-.28.12-.65.25-.93 2.22-4.38 4-9 6.66-13.51 1.73-2.9 3.21-6 4.69-8.94.5-.87 1-1.85 1.61-2.75a2.72 2.72 0 012-1.48c.74-.06.74-.8 1.11-1.26.37-.46.37-.46.62-.4.151.152.276.327.37.52v.38zm9.13 38c-.12.15-.37.34-.37.21-.12 0-.24-.18-.24-.31.61-1.75 1.35-3.67 2-5.55.13-.15.25-.31.37-.34a.21.21 0 01.171.034.214.214 0 01.058.069.203.203 0 01.021.087 20.43 20.43 0 01-2.01 5.8zm5.06-17.68c.028.224-.014.451-.12.65a.89.89 0 01-.25.43v-.37l.37-.71c.13-.4.13-1 .5-1.36.37-.36.12.5-.5 1.4v-.04zM712.651 461.9l.25-.43a.924.924 0 00-.25.43zm-.37.34c.12-.16.25-.19.37-.34a.874.874 0 00-.37.34zm-1.36 1.82l.25-.43c-.12.15-.25.3-.25.43zm-.37.34l.37-.34c-.12.03-.24.18-.37.34zm-3.82 4.41l.37-.34c-.1.03-.25.18-.37.34zm-2.72 3l-1.11 1.39a3.904 3.904 0 001.36-1.58.494.494 0 01-.26.21l.01-.02zm-1.85 2.31h.12l.25-.43-.37.43zm-2 2.22a7.91 7.91 0 002.09-2.25 6.1 6.1 0 00-2.06 2.27l-.03-.02zm-1.49 1.36c.25-.06.25-.19.37-.34-.04.05-.21.2-.34.36l-.03-.02zm-9.87-14.08c0 .12-.12.16-.25.31.13 0 .13.09.13 0s.12 0 .24-.19a.092.092 0 00-.053-.092.099.099 0 00-.037-.008l-.03-.02zm34.44-5.87a3.524 3.524 0 01-.5-1.23c-.12-1.08-.74-1.18-1.73-.56a11.31 11.31 0 00-2.34 2.31 19.841 19.841 0 01-2.35 2.93 4.78 4.78 0 01-1.72 1.17 31.454 31.454 0 014.07-5.21l1.11-1.14c.12-.15.25-.43 0-.49l-.37.09c-.49.37-1 .86-1.36 1.2-1.23 1.42-2.59 2.75-3.82 4.16-3.09 3.86-6.3 7.62-9.38 11.48l-4 4.31a6.209 6.209 0 01-1.61 1.39c-.49.25-.62 0-.62-.46a1.396 1.396 0 01-1.68-.229 1.386 1.386 0 01-.32-.511 9.726 9.726 0 01-1.23-3.28c-.25-2.9-1.61-5.27-2.6-7.87-.49-1.6-1.72-1.66-3.33-1.14l-1.73.8c-.74.43-.86.59-.86 1.45.184 1.072.307 2.154.37 3.24a19.137 19.137 0 002.59 9.23 29.774 29.774 0 006.67 8.46 8.3 8.3 0 002.71 1.54c.824.32 1.723.396 2.59.22a3.948 3.948 0 002.72-1.54c.49-.62 1.11-1.26 1.73-1.91a36.615 36.615 0 002.59-3.12c1.48-2.22 2.59-4.59 4.2-6.72a7.999 7.999 0 012-2.34c.49-.25.62-.9.86-1.45a31.962 31.962 0 012.1-3.24c.62-.77 1.11-1.51 1.73-2.41.62-.9 1.23-1.91 2-2.84a13.123 13.123 0 001.48-2.71 3.157 3.157 0 00.06-3.56l-.03-.02zm-23 22.26a.2.2 0 01-.226-.096.208.208 0 01-.024-.084.528.528 0 01.13-.4l2.46-2.35a.378.378 0 01.37 0c.13.09.13.21 0 .37a5.334 5.334 0 01-2.64 2.55l-.07.01zm2 5.68l-.12-.21c0-.13.12-.28.12-.4a5.89 5.89 0 011.73-1.18.327.327 0 01.25.07.09.09 0 01.084.013c.012.009.021.02.027.034a.08.08 0 01.009.043 3.531 3.531 0 01-2.06 1.65l-.04-.02zm10.37-13.81c-.179.386-.383.76-.61 1.12-2.22 2.77-4.07 5.58-6.17 8.2a6.003 6.003 0 01-2.59 2c-.38.232-.718.526-1 .87l-.37.09c-.12 0 0-.25.25-.43a4.66 4.66 0 011.11-.53 68.243 68.243 0 006.67-8.08 15.55 15.55 0 012.71-3.26c0-.13.13-.28.25-.44a.875.875 0 01-.21.48l-.04-.02zm3.09-3.74c-.5.62-.87 1.45-1.61 1.64a4.415 4.415 0 011.24-1.91 9.157 9.157 0 001-1.11c-.22.45-.33.97-.59 1.4l-.04-.02zm3.08-4.71c-.12.15-.12.4-.24.67l-.37.34c-.37-.15 0-.37.12-.52l.49-.49a7 7 0 012-3c.51-.32-.48 1.57-1.96 3.02l-.04-.02zm-31.84.9c-.12.15-.12.28-.25.31.13.09.25.18.25.06s.12-.15.25-.18l-.25-.19zm45.91 37.55c-.37-.15-.37-.52 0-1l.5-.49c1.23-1.29 1.36-1.94.74-3a14.9 14.9 0 00-1.24-1.92c-.49-1.11-1.35-2-1-3.45a1.2 1.2 0 00-.25-1.3 5.374 5.374 0 00-4.2-2.53 18.006 18.006 0 00-5.8.58c-4.81 1.08-9.5 2.62-14.32 4.19-4.07 1.38-8.14 2.65-12.34 4.31-1.36.58-2.71 1.05-4.07 1.75a16.241 16.241 0 01-4.44 1.61 8.698 8.698 0 00-1.61.64 19.51 19.51 0 01-4.07 1.88 131.627 131.627 0 00-12.59 6.1 27.105 27.105 0 00-5.06 3.73 7.787 7.787 0 00-2.271 2.85 7.783 7.783 0 00-.729 3.57 13.36 13.36 0 01-.25 4.88 2.536 2.536 0 000 1.35c0 1 .49 1.24 1.48 1.12.461-.01.919-.084 1.36-.22a.667.667 0 01.49.37 1.604 1.604 0 00-.12.4l-.37.34c-.37.34-.74.68-.5 1.11.24.43.5.37 1 .37a7.921 7.921 0 002.22-.8c5.68-2.77 11.48-5.7 17.16-8.1.74-.31 1.36-1 2.1-.65.24.31-.5 1-1.85 1.57-.13 0-.13.16-.25.19-4.94 2.09-9.75 4.53-14.57 6.84-.764.343-1.506.733-2.22 1.17a10.372 10.372 0 003.21-1.05c3.7-1.78 7.53-3.48 11.23-5.27a24.069 24.069 0 012.6-.89c.86-.21 1.23.43.86 1.27-.49 1.11-1.11 2-1.6 3.11a76.758 76.758 0 01-3.46 7.53 38.814 38.814 0 00-1.85 3.92c-.74 2.53-2 5.06-2.84 7.62l-3.7 10.3a72.021 72.021 0 00-2.84 8.36c-.5 1.85-1.11 3.73-1.73 5.62-1.23 3.88-2.72 7.83-3.83 11.81a21.426 21.426 0 01-1 4 42.335 42.335 0 00-2.35 10 10.715 10.715 0 000 4.44 3.682 3.682 0 001.61 2.44 4.925 4.925 0 012.09 2.68c.242.758.718 1.42 1.36 1.89.238.198.529.321.837.354.308.032.619-.029.893-.174.25-.18.49-.24.86-.46 1-.37 1.11-.28 1.48.62.37.9.62.83 1.36.4a7.384 7.384 0 012.47-1.11c1.11-.15 1.36-.46 1.61-1.63.126-1.235.374-2.454.74-3.64a4.347 4.347 0 00.24-2.78 1.766 1.766 0 01.057-.969c.11-.311.305-.585.563-.791v-.12c.62.21.74-.43.86-.84 1.73-4.62 3.34-9.1 4.94-13.69.62-1.64 1.11-3.36 1.85-5 1.73-4.13 3.46-8.27 4.94-12.59a29.99 29.99 0 011.85-4.41 12.258 12.258 0 001.48-4.07c-.49.86-1.11 1.76-1.73 2.65-.12.28-.37.46-.49.37-.37 0-.25-.43-.12-.71.61-1 1.11-2.13 2.34-2.31a30.018 30.018 0 003.21-8.21l-.37.1a8.24 8.24 0 011.36-3.06 21.39 21.39 0 002.34-4.53 3.004 3.004 0 01-.82.65c.215-.281.497-.504.82-.65a2.663 2.663 0 00.52-2.39c1-1.71 2.32-3.39 2.08-5.29.033-.203.115-.396.24-.56a16.903 16.903 0 001.61-4.23 13.744 13.744 0 011.23-4.25c.12 0 .12-.16.12-.28 0-.12-.37-.53-.61-.34l-.62.52c-.25.19-.37.34-.62.28s-.24-.55-.12-.83c.111-.215.195-.444.25-.68a22.772 22.772 0 002-7.28c.12-1.51.37-1.94 2-2.59l5.06-1.88c1.48-.62 3-1.36 4.44-1.85a102.7 102.7 0 0110-3 15.34 15.34 0 014.69-.55 6 6 0 004.19-1.66c.5-.37.62-.9.25-1.17-.37-.27-.68-.28-.93-.59l-.04-.02zm-54.43 84.42a2.22 2.22 0 01-.24.8l-.37.34c-.13-.09-.25-.31-.13-.34a1.44 1.44 0 01.37-1c0-.13.13-.16.37-.1v.3zm4.08-11.75c-.13.15-.13.27-.25.18-.12-.09.12-.15.12-.28 0-.13.19-.16.23-.21a1.239 1.239 0 00-.06.33l-.04-.02zm.49-.87l-.37.47a.586.586 0 00.12-.41c.13-.27.25-.3.25-.18v.12zm-11-61.19c3.46-1.85 7-3.49 10.74-5.15 4.08-1.63 8.27-3.42 12.47-5.08 5.55-2.13 11.11-4.38 16.78-6 2.23-.68 4.57-1.63 6.92-2.22 1.6-.27 3.21-.67 4.69-.92.61 0 1.11-.15 1.6-.15.25.06.62.09.62.34s-.5.49-.74.55c-.293.2-.648.289-1 .25-5 1.12-10.07 2.89-15.07 4.51-7.78 2.43-15.55 5.48-23.21 8.74-3.45 1.36-6.78 2.93-10.12 4.38l-3.45 1.6c-.25.06-.87.22-.87.09-.17-.58.32-.71.65-.92l-.01-.02zm-6.78 6.26c-.13.15-.25.06-.37.09.12 0 .12-.16.24-.31a.753.753 0 00.5-.25l-.37.47zm20.36 48.36c0 .13-.12.4-.25.43-.13.03-.24.19-.24-.06a.89.89 0 01.24-.43c0-.12 0-.12.13-.15s.29.1.17.23l-.05-.02zm2.22-51.77a7.776 7.776 0 01-1.6 1c-6.42 2.84-13 5.7-19.38 9.15l-.74.19-.12-.09c0-.13-.13-.34 0-.37a3.834 3.834 0 011.6-1.39c2.72-1.42 5.43-2.84 8.15-4.13 3.45-1.73 7-3.24 10.49-4.84.474-.217.97-.381 1.48-.49.25-.06.37 0 .37.4a1.23 1.23 0 01-.2.59l-.05-.02zm3.71 37.34a.718.718 0 01-.37.58c-.13 0-.25-.06-.13-.21a.59.59 0 01.37-.59c.18-.01.3.08.18.24l-.05-.02zm8.27-49c-8.52 3.11-17 7-25.68 10.6 0-.74.5-.74.87-1 6-3 12.09-5.73 18.39-8.16 4-1.48 7.9-3.08 11.85-4.56 4.32-1.69 8.64-3 13.08-4.37a30.604 30.604 0 017.41-1.11c-8.6 2.62-17.23 5.39-25.87 8.65l-.05-.05zm23.57 1.9a10.888 10.888 0 01-3.21 1.05l-1.13.37a42.434 42.434 0 00-7.41 2.34 66.25 66.25 0 01-6.29 2.44 1.326 1.326 0 01-.62 0c-.12 0-.37 0-.37-.16s.12-.4.25-.43c.796-.419 1.618-.79 2.46-1.11l4.94-2c3.7-1.29 7.53-2.25 11.36-3.2.24-.06.49 0 .49.37-.17.19-.3.35-.42.38l-.05-.05zm2.59-3.49c-.991.412-2.024.714-3.08.9a151.57 151.57 0 00-18.34 6.01 7.006 7.006 0 01-2.6.77c-.37.09-1 .25-1.11-.34-.11-.59.5-.74 1-1s.74-.31 1.11-.52c5.93-2.22 12-4.34 18-6.1a12.397 12.397 0 016.05-.52 1.167 1.167 0 01-.96.85l-.07-.05zM763.501 472.67a3.403 3.403 0 00.87-2.07c0-1.35.49-2.71.12-4a1.884 1.884 0 00-.62-.83 4.839 4.839 0 01-1.6-3.18c-.62-2.44-3.46-2.72-5.55-.47a56.215 56.215 0 00-5.81 7.5 111.747 111.747 0 00-5.43 10.12c-1.35 3.05-2.59 6.2-4.07 9.16a57.647 57.647 0 00-3.21 8.33 21.332 21.332 0 01-1.11 2.86 97.028 97.028 0 00-4.32 13.42c-.62 2.38-1.11 4.72-1.85 7a69.019 69.019 0 00-2.22 9.69 9.076 9.076 0 00.37 6.07 29.63 29.63 0 011.85 4.36c.25.68.37 1.39 1.11 1.57.74.18 1.11-.65 1.73-.8a1.789 1.789 0 011.11-.28c.37.28-.25.68-.49 1 0 .12-.13.28-.13.4a.483.483 0 00.5.74 3.402 3.402 0 001.35-.83l2.47-2.47a5.433 5.433 0 001.36-2.93 53.617 53.617 0 011.6-6.08c.37-1.57 1.12-3.11 1.49-4.68a19.302 19.302 0 012.09-5.22 25.87 25.87 0 002.35-5.89 32.807 32.807 0 012.34-5.77 8.337 8.337 0 00.87-2.31 17.801 17.801 0 012.34-5.89c1.36-2.44 2.47-4.82 3.58-7.19l-.49.12a.365.365 0 00-.25-.06.667.667 0 01.37-.22c.13 0 .25.07.37.16a16.31 16.31 0 001.73-5 9.854 9.854 0 012.1-4.35 6.485 6.485 0 001.48-3.21 2.603 2.603 0 01.62-1.63c.86-1.45 1-3.09 1.48-4.57.25-.55 0-.86-.5-1-.61 0-.74-.3-.37-.89.101-.238.225-.465.37-.68zm-25 65.86c-.12 0-.25.19-.37.22a1.045 1.045 0 01-.37 0 3.4 3.4 0 011.11-2.5s.12 0 .12.09a.09.09 0 01.046-.009.09.09 0 01.045.015.092.092 0 01.039.084 2.944 2.944 0 01-.67 2.1h.05zm22.09-58.83c-.12-.09-.24-.18-.24-.31.12-.4.37-.83.74-.8.12 0 .12.22.24.31-.17.4-.54.87-.79.8h.05zm-26.41 84.47a.624.624 0 00-.36-.656.631.631 0 00-.26-.054c-1.23.06-1.23.06-1-1.11l.13-.89a3.208 3.208 0 00-.87-2.88 1.85 1.85 0 00-2.22-.92c-.74.18-.74-.44-.74-.93-.49-.12-1-.12-1.11-.46-.74-1.42-2.34-1.15-3.7-1.18a3.075 3.075 0 00-2.84 1.82 7.4 7.4 0 00-.74 1.67 47.903 47.903 0 00-2.1 6.2 79.328 79.328 0 00-3.21 12.52 24.15 24.15 0 00-.25 7.22c.13 1.08.25 2.29 1.24 2.66a5.557 5.557 0 012.34 3.36 3.606 3.606 0 001.24 1.92.998.998 0 001.48.12c1.23-.92 2.84-1.57 4-3 .25-.31.49-.74 1-.74.24-.06 0 .74-.5 1.24-.301.436-.635.847-1 1.23a7.946 7.946 0 00-.86 1 .536.536 0 00-.25.67c0 .25.25.19.5 0l1.11-.64c1.73-1.3 3-2.72 3.08-4.84.253-.915.378-1.861.37-2.81a2.923 2.923 0 01.37-2 12.822 12.822 0 001.73-4.5 76.068 76.068 0 012.22-6.48c.154-.283.239-.598.25-.92 0-.13-.12-.22-.37 0-.62.52-.62.15-.49-.38l1.48-3c.62-1.14-.12-1.94.37-3.05l-.04-.19z" fill="#000"/>
    <path d="M604.46 823.43a5.66 5.66 0 100-11.32 5.66 5.66 0 000 11.32zM634.96 823.43a5.66 5.66 0 100-11.32 5.66 5.66 0 000 11.32zM665.471 823.43a5.66 5.66 0 10-.001-11.321 5.66 5.66 0 00.001 11.321zM604.46 796.57a5.66 5.66 0 100-11.32 5.66 5.66 0 000 11.32zM634.96 796.57a5.66 5.66 0 100-11.32 5.66 5.66 0 000 11.32zM665.471 796.57a5.66 5.66 0 10-.001-11.321 5.66 5.66 0 00.001 11.321zM604.46 769.72a5.66 5.66 0 100-11.32 5.66 5.66 0 000 11.32zM634.96 769.72a5.66 5.66 0 100-11.32 5.66 5.66 0 000 11.32zM665.471 769.72a5.66 5.66 0 10-.001-11.321 5.66 5.66 0 00.001 11.321z" fill="#1D1D1B"/>
  </g>
  <defs>
    <clipPath id="clip10">
      <path fill="#fff" d="M0 0h1000.38v1000.35H0z"/>
    </clipPath>
  </defs>
</svg>
