<svg viewBox="0 0 716 477" fill="none" xmlns="http://www.w3.org/2000/svg">
  <g clip-path="url(#clip11)" fill="#fff">
    <path d="M100.94 206.36v.15a2.03 2.03 0 01.26-.44c-.1.1-.2.2-.26.29zm-10.53 10.3c.16 0 .16 0 .16-.21l-.16.21zm-8 6.78a7.817 7.817 0 00-1 1.19 27.133 27.133 0 008.47-7.53c-2.66 1.78-4.88 4.25-7.46 6.34h-.01zm-5 4.27c-1.43 1.15-2.71 2.43-4.15 3.42-5.27 3.55-10.22 7.66-15.65 10.77-.64.48-1.12.92-1.59 1.2a23.839 23.839 0 006.54-3.56c4.15-2.78 8.14-5.69 12.14-8.61 2.39-1.87 4.95-3.62 6.7-6.3a25.923 25.923 0 00-3.93 3.08h-.06zm-22 15.7c-.31.08-.31.08-.16.21h.16c.13-.15.15-.19.23-.22l-.23.01zm-6.38 2.72a1.078 1.078 0 00-.65.31c-.15.21 0 .32.17.28a1.004 1.004 0 00.79-.51c-.13.04-.13-.12-.29-.08h-.02zm-16.13 24v.17c.175-.493.39-.971.64-1.43a5.541 5.541 0 00-.62 1.23l-.02.03zm85.75-96.74a45.331 45.331 0 00-3.51-16.85c-3.36-7.94-9.74-11.94-18.68-12.59h-2.08c-1.44.2-2.72.52-4.16.71a61.202 61.202 0 00-19.64 5.7c-4.47 2.08-9.09 4.19-13.24 7.29a35.348 35.348 0 00-3.2 1.92 23.818 23.818 0 00-5.43 3.9c-.64.65-1.44 1.17-2.07 1.8L41.22 170a13.1 13.1 0 00-3.35 5.31 2.788 2.788 0 00-.15 2.75c.27.741.376 1.533.31 2.32-.31 2-.16 2.12 1.76 2.43.32.09.63 0 .8.44.48 1.49.63 1.44 1.91.8 1.12-.59 2.24-1.36 3.35-1.95 1.76-1.08 3.51-2 5.27-3.07.17 0 .65-.15.65.16s-.17.51-.33.55c-.95.73-1.76 1.4-2.71 2.13.48-.12 1-.41 1.43-.52 1.28-.16 1.76.52 1 1.67a48.442 48.442 0 00-3.83 7c-.8 1.8-1.44 3.56-2.39 5.23-1.61 3.44-3.35 6.91-4.79 10.3-1 1.83-1.6 3.75-2.39 5.55-1.76 4.27-3.85 8.46-5.59 12.73-4.48 10.54-8.79 21-12.31 31.81-.95 2.8-2.07 5.63-3 8.42a15.757 15.757 0 00-1.13 4.58c-.32 2.64 0 5.11 2.24 6.32a4.356 4.356 0 011.43 2c.14.607.355 1.195.64 1.75.8 1.56 1.12 1.8 3.19 1 1-.4 1.44-.52 1.92.48.32.71.65.79 1.6.07 1.12-.76 1.92-1.59 3.2-1.43v-.16a11.19 11.19 0 001.05-3.13h.16a.936.936 0 01-.492-.727A.932.932 0 0131 274a9.007 9.007 0 001.92-3.68c-.48 0-.64-.32-.64-.8a7.528 7.528 0 011.44-2.59 22.068 22.068 0 004-8.19c-.16 0-.3-.05-.56 0 .08-.17.1-.36.23-.39.33-.23.33.25.33.4a34.848 34.848 0 003.18-7.5h-.12c.78-1.14 1.41-2.4 2.68-3 1.92-1.11 3.83-2.24 5.75-3.2 9.41-4.25 17.89-10.84 26.35-17.1.308-.093.583-.274.79-.52 4.63-4.34 9.59-8 14.06-12.6a5.475 5.475 0 001-.88c1-.72 1.91-1.6 3.18-1.6a3.105 3.105 0 001.93-1.11 22.675 22.675 0 004.46-4.64 16.275 16.275 0 00-2.71 2.13c-.48.44-1.12.91-1.75 1.39-.17.2-.48.12-.65.16a1 1 0 01.17-.67c1.59-1.53 3.18-3.52 5.59-3.79 2.07-1.65 3.51-3.92 5.42-5.67 2.87-2.8 4.48-6.55 7.19-9.61.16-.21.16-.53.48-.92a28.627 28.627 0 003.95-16.26l-.02.03zm-83 88.41c0 .16-.32.39-.32.39v-.48c.258-.227.477-.494.65-.79a6.72 6.72 0 01-.35.85l.02.03zm4.61-10.8s.16-.2.16 0a.258.258 0 01.31.19c-.25-.01-.47.1-.47-.19zm16.93-87.74a9.64 9.64 0 012.87-2.15 97.094 97.094 0 0120.13-9 26.33 26.33 0 018.62-1.11 5.011 5.011 0 01-2.4.9c-4.63 1.32-9.41 3-14 4.79-2.71 1-5.43 2.15-8.15 3.47a32.726 32.726 0 01-7 3.18 9.823 9.823 0 01-3 2 9.983 9.983 0 012.93-2.05v-.03zm20 1.25a9.843 9.843 0 01-2.07.52c-.48.12-1 .25-1.28-.15-.16-.44.32-1 1.28-1.28A42.255 42.255 0 0188 160.56c.33.08.65 0 .48.52 0 .17-.31.4-.48.44-2.22.55-4.3 1.24-6.54 1.95l-4.27 1.04zm.65 2.4a.732.732 0 01-.49.61c-.16 0-.31-.25-.48-.21l.48-.44c.153-.001.305.023.45.07l.04-.03zm-21.25-1.09a31.143 31.143 0 0111-5.78 5.93 5.93 0 012.41-1.52 71.222 71.222 0 0113.25-4.75c.15.13.48 0 1.12 0a10.746 10.746 0 01-3.67 1.87c-3.2 1.13-6.55 2.43-9.91 3.59a7.793 7.793 0 01-3.18.8 56.212 56.212 0 01-11.06 5.82l.04-.03zm3 43a2.501 2.501 0 01-.79 1.65c-.33-.71.47-1.07.78-1.63l.01-.02zm-10.54-30.56c-1.44 1-3 1.87-4.48 2.87-.48.29-.8.36-1.11.6l-.32-.24v-.32c.15-.19.32-.4.48-.44a107.19 107.19 0 0110.54-7.1 6 6 0 011.44-.52c.15 0 .15.13.32.09v.31a4.005 4.005 0 01-1.45 1.32c-1.91 1.28-3.66 2.35-5.42 3.43zm6.38 39.6l-.31.57c-.33-.43.15-.52.31-.57zm-2.55 11.66c-.16 0-.16.2-.32.4-.227.043-.446.12-.65.23l.49-.5c.16-.21.32-.09.48-.13zm-2.24 3.59c.29-.06.56-.25 1-.38l.17-.19v.15l-.18.06c-.23.3-.491.575-.78.82-.32.24-.48.12-.48-.2.12-.06.12-.22.27-.26zm12.78.5c-4.47 3.66-9.26 7.09-14.54 9.21a7.08 7.08 0 01-2.39.75c-.31-.08-.64-.16-.48-.52.048-.259.158-.503.32-.71.29-.36.68-.624 1.12-.76a108.49 108.49 0 0015-8.38c.79-.51 1.74-.91 2.54-1.43a22.09 22.09 0 01-1.57 1.84zm4.63-3.56a9.238 9.238 0 01-1.59.71l-.16.21-.64.38c.2-.15.39-.32.64-.54a.43.43 0 00.16-.05c.385-.506.81-.981 1.27-1.42a1.638 1.638 0 011.44-.52c.32-.09-.17.67-1.12 1.23zm35.29-27.16h-.16l.16-.21c.188-.235.403-.446.64-.63a3.07 3.07 0 00-.64.84zm1.76-33a19.174 19.174 0 01-1.76 2.83c-4.16 5.34-8 10.93-12.93 15.52-1.93 1.92-3.52 4.07-5.28 5.94a122.022 122.022 0 01-16 15.32c-2.24 1.84-4.48 3.67-6.55 5.63a34.75 34.75 0 01-4.48 3.67c-.78.52-1.59.08-1.43-.92.32-1.35 1-2.79.65-4-.17-.6.31-1 .78-1.32a5.01 5.01 0 001.76-2c1.76-3.64 3.83-7.35 5.27-11.07h-.06c-.037.054-.07.111-.1.17a.26.26 0 00-.09-.09 3.826 3.826 0 01-1 .36c.29-.79.71-.7 1-.36a.772.772 0 00.19-.08c1.55-3.05 3-5.91 4.38-8.92a11.164 11.164 0 001.27-4.33 2.14 2.14 0 01.17-1c1.59-2.15 1.91-4.63 3.35-6.74 1.11-1.88 1.28-3.68 1.76-5.55.15-.84-.48-.84-1-1.19-.65-.33-.48-1.17.16-1.8a13.308 13.308 0 014.3-2.36 52.973 52.973 0 0113.9-2.51 27.37 27.37 0 017.5.53 9.595 9.595 0 013.52 1.36c1.19.7 1.35 1.46.72 2.9v.01zM193.081 191.53v1c.16-.36.33-.72.48-1.07l-.48.07zm-9.89-59.48h.15c.199-.231.361-.49.48-.77a3.672 3.672 0 01-.63.77zm0 0c-.203.22-.365.474-.48.75.163-.297.376-.565.63-.79l-.15.04zm-1.13 1.55c.176-.298.395-.567.65-.8a1.874 1.874 0 00-.65.8zm-1.11.92c.63.32.8-.37 1.11-.92a3.571 3.571 0 00-1.06.92h-.05zm-11 17.91c.185-.489.398-.967.64-1.43-.306.432-.53.917-.66 1.43h.02zm13.26-20.38c-.203.22-.365.474-.48.75.163-.297.376-.565.63-.79.199-.231.361-.49.48-.77a3.678 3.678 0 01-.65.81h.02zm-1.13 1.55c.176-.298.395-.567.65-.8a1.87 1.87 0 00-.67.8h.02zm-1.11.92c.63.32.8-.37 1.11-.92a3.578 3.578 0 00-1.08.92h-.03zm-10.4 16.48a4.297 4.297 0 00-.64 1.43c.185-.489.398-.967.64-1.43zm38.16-5.37c.402-2.146.566-4.329.49-6.51a10.527 10.527 0 00-.8-3.94 21.432 21.432 0 00-8-10 3.445 3.445 0 00-3.52-.56 2.365 2.365 0 01-2.07-.61 18.807 18.807 0 00-2.08-1.55 7.218 7.218 0 00-4-1.72 2.437 2.437 0 00-2.4.75c-1.12 1.57-2.4 1.24-3.52 1l-1.11-.37c-.8-.42-1.45.21-2.08 1 0 .32.17.76-.16 1.16-.17.2-.32.41-.64.33-.16 0-.16-.29 0-.48.304-.301.573-.637.8-1-1.66 1-3.46 2.07-5.27 3 1.13-2 3-3.08 4.79-4.3.65-.32 1.44-.68 1.44-1.64-.16-.75-1-.88-1.44-1.07a3.159 3.159 0 00-2.07.19c-.941.302-1.852.69-2.72 1.16a49.55 49.55 0 00-10.37 8.69 22.593 22.593 0 01-2.41 2.67c-4.62 3.86-8.29 8.61-11.81 13.48a28.332 28.332 0 01-3 3.8c-1 1.19-1.93 2.39-2.72 3.54-1.28 2.07-2.39 4.12-3.84 6.07-1 1.52-2.07 3.07-2.87 4.54a84.497 84.497 0 00-5.11 10.22l-1 1.84a44.934 44.934 0 00-5.11 10.53 27.357 27.357 0 01-1.59 3.6 85.463 85.463 0 00-5.11 13.25l-.48 2.52c-.48 2.83-.8 5.78-1.28 8.62-1.44 8.34-.16 15.37 3.83 21.4a83.616 83.616 0 009 10.71c3.35 3 7.66 4.31 12.29 4.91a29.89 29.89 0 006.7-.55c7.83-1.8 14.22-6.42 19.64-13.52a113.783 113.783 0 009.11-13.94c1.41-2.38 3-4.65 3.78-7.34h.05c.417-.546.794-1.121 1.13-1.72a74.92 74.92 0 005.11-10.86 4.69 4.69 0 01.63-1.76c1.92-2.7 2.72-5.62 4-8.5-.8-.11-.8-.27.15-1.15l.48-.11c.23-1.868.944-3.643 2.07-5.15.289-.355.457-.793.48-1.25-.48-1.31.33-2.16 1.28-3.35a4.444 4.444 0 001.13-2.35c.63-2.07 1.11-4.27 2.55-6.22.188-.257.299-.562.32-.88 0-2.09 1-3.91 1.92-5.75 1.75-3.31 2.07-6.75 3-10.18l.48-2.2a.248.248 0 00-.101-.188.25.25 0 00-.209-.042c-.8.35-1.12 0-.65-.65 1.93-2.38 2.41-5.05 2.89-7.57zm-26.19-18.06c.48-.27 1-.71 1.13-.75.47-.29.63-.32.79 0a.21.21 0 01-.16.2 2.136 2.136 0 01-1.44 1.32c-.15 0-.47.12-.47 0-.33-.18 0-.58.15-.77zm-24.1 18.43l.32-.4c-.13.176-.238.367-.32.57V146zm0 25.55c-.17.69-.17 1.48-1.13 1.88-.48.16.16-.8 1.13-1.85v-.03zm-6.55 61.84a.436.436 0 01-.32-.07.625.625 0 01-.17-.44l.8-1.17a112.318 112.318 0 007.83-8.65c.238-.214.508-.389.8-.52.16 0 .48 0 .48.19.021.242-.039.485-.17.69-2.39 3.31-4.79 6.78-8.29 9.42a3.217 3.217 0 01-.96.58v-.03zm3.51.08a1.007 1.007 0 01-.64.33s-.16 0-.16-.13l-.16-.12a5.06 5.06 0 01.48-.92c2.24-2.47 4.47-4.94 6.54-7.37.33-.4.64-.48.81-.37a.511.511 0 010 .64 37.312 37.312 0 01-6.87 7.97v-.03zm6.39 9.74c-.17 0-.17-.27-.17-.44a2.754 2.754 0 011.13-1.07.416.416 0 01.31.08c0 .68-.96 1.71-1.27 1.46v-.03zm1.11-5.7a24.592 24.592 0 01-3.51 3.12c-.32.07-.64.15-.8 0a.772.772 0 010-.81 9.52 9.52 0 011.44-1.95 123.366 123.366 0 0010.06-12.41 6.583 6.583 0 011-1.05l.31-.07a.13.13 0 01.062-.005c.02.004.04.012.057.025.016.013.03.03.039.049.009.019.013.04.012.061a.858.858 0 01-.17.67c-2.75 4.26-4.98 8.65-8.5 12.4v-.03zm15.81-16.87c-1.91 3-3.67 6.18-5.59 9.21a66.18 66.18 0 01-6.07 7.9c-.48.6-1.11 1.08-1.59 1.67-.48-.51 0-.95.16-1.3 4.63-6.11 8.61-12.54 12.77-19 .8-1.15 1.6-2.3 2.4-3.31a.839.839 0 011.18-.34c-1.09 1.69-2.16 3.37-3.26 5.2v-.03zm9.59-85.27c-.65 3.67-1 7.1-1.92 10.7-1.28 5.43-2.88 10.77-4.32 16.25l-1 2.47a87.897 87.897 0 00-3.35 10.89c-.467 2.038-1.217 4-2.23 5.83a120.035 120.035 0 00-3.83 9.1 32.883 32.883 0 01-2.88 6.47 4.498 4.498 0 00-.48.92c-1.43 4.18-4.15 7.89-6.54 11.85a9.767 9.767 0 00-.8 1.47c-1.44 3.39-4 6.42-6.39 9.58a52.655 52.655 0 01-8.47 8.34c-3 2.34-4.15 1.83-4.63-1.56a19.075 19.075 0 011.13-8.9 103.805 103.805 0 003.41-11.52c.63-1.91 1.28-4 1.76-5.86.63-2.08 1.11-4.27 1.59-6.31a1.819 1.819 0 01.48-1.71c.32-.72.8-1.32 1.11-2 .32-.39.48-.92.17-1.15-1.44-.92-.48-2 .48-2.68a8.341 8.341 0 002.55-4c2.23-5.66 5.27-11.21 7.82-16.8.486-.974.913-1.976 1.28-3l-.95.71c-.17 0-.48.12-.48 0-.17-.11 0-.32 0-.48l1.43-1.31v1.12a131.194 131.194 0 006.71-11.26l-3.68 3.8a26.412 26.412 0 011.92-3.52l3.67-5.71a10.49 10.49 0 013.36-3.71c.79-.52 1.44-1.15 1.27-1.92-.15-1.23.65-2.22 1.28-3.18 1-1.36 2.09-2.44 3-3.79v.16a17.804 17.804 0 013.35-5.15 1.219 1.219 0 011.44-.68 3.18 3.18 0 012.87 3.43 22.719 22.719 0 01-.13 3.14v-.03zm-5.59-2.6c.163-.297.376-.565.63-.79.199-.231.361-.49.48-.77a3.666 3.666 0 01-.63.81 2.533 2.533 0 00-.48.78v-.03zm-.65.8c.176-.298.395-.567.65-.8a1.875 1.875 0 00-.65.83v-.03zm-1.11.92c.63.32.8-.37 1.11-.92a3.595 3.595 0 00-1.06.95l-.05-.03zm-11 17.91c.185-.489.398-.967.64-1.43-.31.441-.533.936-.66 1.46l.02-.03zM294 52.35l.32-.56c-.15.21-.32.4-.32.56zm-.48.44c.17-.19.32-.23.48-.44-.16.04-.31.25-.48.44zm-.31 117.77c.15-.19.15-.36.31-.56v-.32a2.29 2.29 0 01-.31.88zm-.65 1.28c.271-.397.49-.827.65-1.28l-.65 1.28zm-.79-116.7l.31-.55a1.193 1.193 0 00-.31.55zm-.48.44l.48-.44c-.17.04-.32.25-.48.44zm-5 5.71l.48-.44c-.11.04-.28.25-.43.44h-.05zm-3.52 3.91l-1.39 1.8a4.765 4.765 0 001.76-2 .634.634 0 01-.32.2h-.05zm-2.39 3h.16l.32-.57-.48.57zm-2.55 2.87a10.784 10.784 0 002.71-2.91 7.57 7.57 0 00-2.66 2.91h-.05zM276 72.82c.31-.08.31-.24.48-.44-.21.04-.36.24-.48.44zm-12.82-18.21c0 .16-.15.2-.31.39.16 0 .16.13.16 0 .15 0 .15 0 .32-.23a.122.122 0 00-.022-.147.12.12 0 00-.148-.013zm27.31 120a102.961 102.961 0 01-9.42 12.58c-3.67 4.42-7.35 8.69-11.34 12.73-2.4 2.35-4.79 4.71-7 7a3.524 3.524 0 00-1.27 1.61.364.364 0 00.16.27h.15a4.504 4.504 0 001.29-1c3.51-3.58 7.18-7.06 10.54-10.76 3.18-3.2 6.07-6.47 8.94-9.9 2.24-2.79 4.31-5.7 6.22-8.58 1.28-1.76 2.72-3.71 3.2-5.91-.449.673-.94 1.318-1.47 1.93v.03zM307.74 47a4.349 4.349 0 01-.64-1.61c-.16-1.39-1-1.51-2.23-.72a13.879 13.879 0 00-3 3 26.813 26.813 0 01-3 3.79 6.627 6.627 0 01-2.31 1.54 40.345 40.345 0 015.27-6.74l1.43-1.48c.17-.21.33-.57 0-.65l-.48.12c-.63.48-1.27 1.13-1.74 1.57-1.61 1.83-3.37 3.54-5 5.38-4 5-8.15 9.86-12.13 14.84l-5.12 5.59a8.003 8.003 0 01-2.08 1.79c-.63.32-.79 0-.79-.6a1.803 1.803 0 01-2.157-.338 1.803 1.803 0 01-.403-.662 12.819 12.819 0 01-1.59-4.23c-.32-3.75-2.08-6.83-3.35-10.18-.65-2.09-2.24-2.16-4.32-1.48l-2.23 1c-1 .55-1.12.75-1.12 1.87.245 1.385.406 2.785.48 4.19A24.63 24.63 0 00264.62 75a37.996 37.996 0 008.63 11 10.614 10.614 0 003.5 2 6.1 6.1 0 003.37.29 5.19 5.19 0 003.5-2c.65-.81 1.44-1.65 2.24-2.49a42.733 42.733 0 003.35-4c1.92-2.87 3.35-5.95 5.43-8.71.81-1 1.29-2.22 2.55-3 .65-.32.81-1.15 1.13-1.87a37.42 37.42 0 012.68-4.28c.79-1 1.43-2 2.22-3.11.79-1.11 1.61-2.48 2.56-3.67a16.777 16.777 0 001.92-3.51 4.067 4.067 0 00.04-4.65zM278 75.82a.263.263 0 01-.22-.048.253.253 0 01-.073-.09.244.244 0 01-.027-.112.68.68 0 01.17-.51l3.19-3a.518.518 0 01.48 0c.16.11.16.28 0 .48a7 7 0 01-3.52 3.28zm2.56 7.35l-.16-.29c0-.15.16-.36.16-.52a7.91 7.91 0 012.23-1.51.417.417 0 01.32.08.12.12 0 01.16.12 4.59 4.59 0 01-2.68 2.12h-.03zM294 65.29a13.16 13.16 0 01-.79 1.47c-2.87 3.6-5.28 7.22-8 10.62a8.086 8.086 0 01-3.35 2.62 5.052 5.052 0 00-1.27 1.11l-.47.13c-.17 0 0-.32.31-.57a6.13 6.13 0 011.43-.67 88.009 88.009 0 008.63-10.45 20.344 20.344 0 013.51-4.26c.054-.212.164-.406.32-.56a1.09 1.09 0 01-.32.56zm4-4.83c-.64.8-1.12 1.88-2.07 2.11a5.61 5.61 0 011.59-2.47c.463-.447.891-.928 1.28-1.44-.33.56-.48 1.25-.8 1.8zm4-6.11c-.16.2-.16.52-.32.88l-.48.44c-.48-.2 0-.47.16-.68l.64-.64a8.997 8.997 0 012.55-3.82c.63-.48-.64 1.91-2.55 3.82zm-41.2 1.17c-.16.21-.16.36-.33.4.17.13.33.25.33.09.17 0 .17-.21.32-.25l-.32-.24zM247.69 160c.187-.491.401-.972.64-1.44a6.845 6.845 0 00-.64 1.44zm10.7 51.47c0-.16-.32.07-.48.11-1.28 1.13-2.71 2.28-3.82 3.35a8.551 8.551 0 01-2.72 1.8l-4.79 5a7.924 7.924 0 01-3.84 2.56h.17L241 226.7a8.006 8.006 0 003.35-2l4.63-4a23.156 23.156 0 013.51-3.11 54.15 54.15 0 005.76-5.43c.14-.16.47-.42.14-.66v-.03zm-18.68-33.67c1.28-2.24 2.87-4.38 3-6.83a15.46 15.46 0 00-3 6.86v-.03zm-.32.4l-.16.2c.16.11.16.11.33-.08.028-.141.072-.279.13-.41-.06.09-.17.17-.3.32v-.03zm-.31 50.06c.48-.29 1-.56 1.27-.8l-1.27.8zm-2.38 2.11l.14-.12a.147.147 0 00-.14.15v-.03zm0 .09a.195.195 0 010-.09l-.7.63c.36-.28.52-.32.67-.51l.03-.03zm11-70.46c.187-.491.401-.972.64-1.44-.272.453-.49.936-.65 1.44h.01zm-4.95 11a15.448 15.448 0 00-3 6.83c1.25-2.24 2.83-4.38 2.99-6.83h.01zm-3.51 7.43c.16.11.16.11.33-.08.028-.141.072-.279.13-.41-.06.07-.17.14-.3.29l-.16.2zm61.16-38.09a6.334 6.334 0 01-.32-2.47 32.773 32.773 0 00-.79-6.83 80.013 80.013 0 00-9.11-24.56 22.806 22.806 0 00-7.66-8.31 21.3 21.3 0 00-14.05-3.84 40.766 40.766 0 00-10.7 1.88 9.176 9.176 0 01-1.92.63 29.086 29.086 0 00-9.74 4.5c-.813.505-1.67.937-2.56 1.29A60.96 60.96 0 00230.6 111a11.77 11.77 0 00-2.39 2.83 3.99 3.99 0 00-.63 3.67 4.9 4.9 0 010 3.36 1.641 1.641 0 00.63 2.07c1 .4 2.39.2 2.87 1.35 0 .33.65.17 1.13.21l2.07-.52c1.76-.28 2.56.64 1.76 2.6a21.339 21.339 0 01-3.2 6.23 21.115 21.115 0 00-2.39 4.42 184.103 184.103 0 00-8.31 20c-2.39 7-5.59 13.85-8.61 20.83-1.76 3.95-4 8-5.76 12.14-1.59 3.91-3.35 7.7-5.11 11.49l-3.66 7.54a6.271 6.271 0 00-.49 4.44c.32 1.35 1.12 1.47 2.08.44l2.39-2.68c.16 0 .48-.12.48 0 .16 0 .16.28 0 .48-.63 1.12-1.28 2.08-1.76 3.15-.15.36-.31.71 0 .8 0 .16.32-.09.48-.13l2.56-2.7c.32-.25.64-.48.8-.21a.502.502 0 010 .65c-.64 1-1.43 1.95-2.08 3.07-1.11 1.87-1.11 2.68 0 3.83a7.57 7.57 0 011.28.95c.8.77.48 1.65-.48 2.37-.8.52-1.6.87-2.39 1.39-1 .4-2.08.84-3.2 1.43-2.08 1.17-2.71 2.76-2.08 4.52a3 3 0 001.45 1.55 5.135 5.135 0 011.91 2.88c1 3.59 3.51 5.35 7.18 5.88l2.88.71a8.01 8.01 0 004.47.17 15.157 15.157 0 004.16-1.68c2.55-1.27 4.94-3 7.66-3.51a6.503 6.503 0 001.91-1.27A111.88 111.88 0 01240 226a7.268 7.268 0 012.7-1.63c2.41-3.15 4.95-6 8.63-7.58a8.726 8.726 0 012.24-2.79c4.94-4.75 9.74-9.46 14.37-14.44A234.931 234.931 0 00290 173a23.527 23.527 0 002.4-4.11 10.61 10.61 0 011.76-3.14c1.28-1.44 2.39-2.68 2.07-4.52.2-.716.521-1.393.95-2a11.426 11.426 0 001.44-4.36 8.19 8.19 0 011-3.75c.249-.597.41-1.227.48-1.87.13-2.96.61-5.95.29-8.91h.01zm-67.86-25.71c-.17-.28 0-.48.31-.72.384-.384.814-.72 1.28-1a92.54 92.54 0 0120.29-9.68 3.068 3.068 0 011-.4l.63-.17c1.11-.11 1.91 0 1.59.4-.31.73-1 .73-1.59 1.05a109.967 109.967 0 00-21.24 9.76l-1.75.76c-.22.08-.53.16-.53 0h.01zm20.12-7.89a6.507 6.507 0 01-2.39 1.4c-5.28 2.26-10.39 4.82-15.66 7.57-.32.24-.8.36-1.11.59-.17 0-.17-.12-.32-.08-.15.04 0-.31.15-.51a13.05 13.05 0 011.92-1.27 91.735 91.735 0 0114.06-7 8.274 8.274 0 013.34-.7h.01zm-17.89 15.32c-.36.055-.702.192-1 .4a1.09 1.09 0 01-.63 0 .272.272 0 01-.224-.048.268.268 0 01-.106-.202c-.15-.11 0-.48.17-.51a4.079 4.079 0 011-.88 136.066 136.066 0 0119.16-7.5 4.572 4.572 0 011.43 0 .103.103 0 01.057-.012c.02.001.039.008.056.019a.12.12 0 01.038.045.115.115 0 01.009.058v.33l-.48.44c-.668.332-1.36.613-2.07.84-5.92 2.08-11.67 4.47-17.42 7.02h.01zm7.35-1v.33c-.16 0-.33.23-.48.27-.33.08-.33-.24 0-.48l.48-.12zm-19.17 86.85c.321-.752.696-1.481 1.12-2.18 1.28-2.24 2.56-4.48 3.84-6.55a5.143 5.143 0 011.11-1.4c0-.15.33-.23.48-.27a.995.995 0 00.16.43c-.177.492-.391.97-.64 1.43a85.772 85.772 0 01-5.43 9c-.16.2-.48.6-.64.32a.78.78 0 01-.01-.82l.01.04zm-10.22-9.42h.16c.17.11.17.11.17.27a5.162 5.162 0 01-1.13 1.87c.202-.748.466-1.477.79-2.18l.01.04zm-3.35 21.92c-.15 0-.48.12-.64-.17a.47.47 0 010-.63c.32-.4.64-1 1-1.36l4.94-5.23c.32-.23.65-.32.8-.51.16 0 .32-.08.32.07 0 .15.16.29.16.44-1.8 2.8-3.56 5.47-6.59 7.35l.01.04zm8.14 4.67c-.63.32-1.27.48-1.75.76-.16 0-.32.08-.32-.09v-.47L218 223c6.87-5.23 13.26-10.65 19.64-16.39 6.07-5.67 11.82-11.41 17.41-17.44 1.59-1.68 3.2-3.35 4.63-5a11.893 11.893 0 012.55-2.24 30.145 30.145 0 01-2.55 3.5 234.509 234.509 0 01-34 33.57c-2.74 2.13-5.3 4.2-8.17 6l.01.08zm4.63-1.15a.69.69 0 01.17-.52 8.814 8.814 0 011.11-.92A337.491 337.491 0 00253 195.61a20.356 20.356 0 013.67-3.31 8.265 8.265 0 012.57-2.4l.63-.8a3.781 3.781 0 01-.63.8 6.619 6.619 0 01-2.4 2.51 9.19 9.19 0 01-2.24 3 214.207 214.207 0 01-27.79 25.77 22.333 22.333 0 01-4.15 2.8c-.19.14-.35.02-.52-.09l.01.04zm55.57-40.52c-1.59 2.15-3.18 4.14-4.79 6.14-5.74 6.71-11.65 13-17.88 19.15l-4.95 4.58c-5.11 4.63-10.05 9.06-15.33 13.25a72.8 72.8 0 01-8.62 6l-2.08 1c-.31.09-.79.21-.79-.27-.17-.28.15-.68.31-.88a5.44 5.44 0 011-.88 173.84 173.84 0 0017.72-13.84c8.78-7.93 17.41-16.15 25.55-24.89l7.67-8.3a5.821 5.821 0 012.23-2l.32-.09a.44.44 0 01.17.29c-.25.13-.25.45-.54.7l.01.04zM273.25 170a8.417 8.417 0 011.76-2.2l.63-.8c-.17.296-.383.565-.63.8a5.887 5.887 0 01-1.29 2.24c-.15.2-.32.23-.32.08l-.15-.12zm9.41-43a88.797 88.797 0 01-2.23 10.62c-1.75 5.38-4.47 10.69-6.86 15.76a16.024 16.024 0 01-2.72 4c-1.28 1.92-2.56 3.83-3.67 5.71a8.737 8.737 0 01-1.44 2.28c-3.52 3.74-6.07 8.21-9.74 11.84a38.491 38.491 0 00-5.91 6.75c-.64.79-1.59 1.67-2.4 2.51-3.35 3.54-6.7 7.26-10.06 10.65-3 3-6.07 5.51-9.1 8.34-.32.23-.63.31-.8.2-.17-.11-.15-.44-.15-.6.3-1.525.898-2.976 1.76-4.27 1.26-2.56 2.7-5.15 3.19-8a7.913 7.913 0 01-1.28 1.11c-.17.21-.48.29-.48.12-.32-.56.16-1 .48-1.4.32-.4.63-.63 1-.23l.32.4a45.52 45.52 0 003.35-6.43c.16-.2 0-.33 0-.48-.48.12-.64.48-1 .88-.47.59-.8 1.63-1.75 1.72a3.177 3.177 0 01.63-2.08c.34-.843.769-1.648 1.28-2.4a26.984 26.984 0 002.24-4.55 50.698 50.698 0 012.87-6.3c.316-.9.865-1.7 1.59-2.32a.76.76 0 011 .08c1.6-2 2.41-4.42 3.36-6.58.64-1.44 1.12-3 1.59-4.39-.63.32-1.11.44-.95-.4a10.365 10.365 0 012.07-4.19 3.68 3.68 0 00.8-2.44 6.92 6.92 0 011-3.42c1.28-2.72 1.28-5.59 1.76-8.27.15-1-.16-1.55-1.12-1.63-.8 0-1-.57-1-1.2a26.644 26.644 0 00-.33-3.6 7.734 7.734 0 00-1-3.27 4.327 4.327 0 00-2.56-2.55 3.053 3.053 0 01-2.55-2.24 3.903 3.903 0 00-2.23-2.49c-.81-.44-.64-1.43.48-2 2.23-.88 4.3-2.51 6.7-2.64a18.773 18.773 0 004.8-1.66 7.055 7.055 0 013.5-.88l8.46-.68a25.372 25.372 0 0110.55 1.7 11.363 11.363 0 015.74 4.78 5.79 5.79 0 01.81 4.14zm-39.27 40.13a.741.741 0 00.15-.52c.16-.19.32-.4.32-.23s0 .16-.16.35l-.31.4zm4.3-7.14c.187-.491.401-.972.64-1.44a6.8 6.8 0 00-.64 1.45v-.01zm-4.95 11a15.448 15.448 0 00-3 6.83c1.26-2.23 2.84-4.37 3-6.82v-.01zm-3.51 7.43c.16.11.16.11.33-.08.028-.141.072-.279.13-.41-.06.07-.17.14-.3.29l-.16.2zM383.59 128.38l1.11-1.87a4.99 4.99 0 00-1.11 1.87zm-2.24 3.91c-.32.4-.48.92-.8 1.32a4.054 4.054 0 01-.15.67l.47-.59c.13-.52.96-.88.48-1.4zm-4 7.54c.16-.19.32-.23.47-.44v-.31a2.793 2.793 0 01-.46.75h-.01zm-.64 1.44c.301-.436.518-.925.64-1.44-.15.52-.47.92-.63 1.44h-.01zm-1.11 2c.31-.57.79-1.32 1.11-2-.31.73-.79 1.32-1.1 2.04l-.01-.04zm-.65 1.44c.191-.491.408-.972.65-1.44a6.939 6.939 0 00-.6 1.48l-.05-.04zm-.63 1.09l.63-1.09c-.23.42-.43.79-.62 1.13l-.01-.04zm-.65 1.14l.65-1.14a6.99 6.99 0 01-.65 1v.14zm-3 5.55a18.563 18.563 0 003-5.55 20.652 20.652 0 00-3.02 5.59l.02-.04zm-.63 1.28h.15c.12-.27.25-.64.37-1-.14.37-.328.72-.56 1.04l.04-.04zm0 0a2.006 2.006 0 01-.43.62c.212-.203.406-.424.58-.66l-.15.04zm-3.2 5.42c-4.3 8.59-8.15 17.36-12.13 26a11.39 11.39 0 00-1 3 149.948 149.948 0 006.7-13.65c2.4-5.55 5.11-11 7.83-16.64.462-.964.833-1.968 1.11-3-.93 1.53-1.72 3.02-2.53 4.33l.02-.04zM353.08 189l.65-.65v-.15l-.65.8zm-.63 1.44c.268-.396.48-.826.63-1.28V189c-.15.53-.47.92-.63 1.45v-.01zM325.14 165a46.33 46.33 0 004.32-11.3 74.432 74.432 0 00-4.32 11.3zm-.63 1.43c.297-.433.511-.918.63-1.43a14.56 14.56 0 01-.63 1.43zm-.64 1.44h.16l.32-.94a7.841 7.841 0 01-.48.94zm-2.08 4.83c-2.72 7.21-5.27 14.41-7.83 21.74a45.453 45.453 0 00-2.7 9c1-1.864 1.801-3.828 2.39-5.86 1.44-4.35 3-8.9 4.63-13.29 1.75-4.91 3.51-9.66 5.27-14.56l.48-1.88a18.21 18.21 0 00-2.24 4.85zm-11.81 35a7.008 7.008 0 001.11-3.63 10.229 10.229 0 00-1.09 3.67l-.02-.04zm114.8-131.91V76c-1.11.27-1.91.16-2.07-.93 0-1-.16-1.71-.16-2.67a7.236 7.236 0 00-1.12-3.23 2.48 2.48 0 00-2.56-.8 4.394 4.394 0 01-1.27.48c-1.12.44-1.43.19-1.28-1a6.41 6.41 0 01.16-1.8 2.29 2.29 0 00-.31-1.51c-1.44-1.88-4.63-1.41-6.55.82l-1 1.52a12.111 12.111 0 01-6.23 4.91 12.51 12.51 0 00-5.27 3.39 24.156 24.156 0 00-4.31 5.71l-1.43 2.26a245.123 245.123 0 00-14.7 23.32l-1.91 2.87c-1.76 2.83-3.68 5.71-5.27 8.66-1.76 3.15-3.36 6.43-5.76 9.26-.48.75-.95 1.67-1.91 1.91-.48.12-.63-.8-.48-2.44a.21.21 0 01.16-.2c1.44-6 1.44-11.69 2.71-17.44a3.72 3.72 0 00-.15-2.35 5.3 5.3 0 010-3.84c.15-.35.15-.84.32-1.36.16-4.35.31-8.7.16-13 0-1.28-.16-2.67-1.12-3.4a10.988 10.988 0 01-.8-2.18c-.63-2.89-1.12-5.8-4-7.16 0-.15-.15-.28-.31-.4a4.729 4.729 0 00-3.8-2.4 2.29 2.29 0 01-2.22-1.53c-.33-.88-1-1-1.76-1.32a5.78 5.78 0 00-5 1.09 12.003 12.003 0 00-3.2 3.35 48.564 48.564 0 01-5.58 7.45 8.685 8.685 0 00-1.23 1.96c-1.28 2.24-2.24 4.4-3.68 6.51a45.897 45.897 0 00-4.3 8.43c-1.76 4.26-3.52 8.53-5.44 12.84a106.553 106.553 0 00-4.47 11.34c-.64 2.08-1.44 4.19-2.24 6.14-.31 1.05-.79 2-1.12 2.83a138.42 138.42 0 01-4.3 13.38c-1.61 4.08-3 8.27-4.48 12.45-.79 2.27-1.76 4.76-2.39 7.15-1.28 5.27-3 10.49-4.64 15.84-1.43 4.19-2.71 8.5-3.83 12.78-.8 3.39-1.28 6.86-1.91 10.21a6.675 6.675 0 001.11 5.64c.65 1 1.76.83 2.72.92.63 0 .8-.69 1.11-1.09.31-.4.65-.31.65 0 .15.44.15 1.09.31 1.53a2.992 2.992 0 001.28 2.24c1.13.67 2.08.44 2.87-1a24.01 24.01 0 011.61-2.48c0-.16.32-.24.48-.28.16-.04.32.24.32.41 0 .63-.32 1.34-.32 2.14a.696.696 0 00.15.77l.8-.21a6.252 6.252 0 002.07-3.07c.81-2.6 1.44-5 2.41-7.62 2.07-6.27 4.14-12.53 6.55-18.87 4.14-11.58 8.46-23 12.92-34.69.8-2.28 1.76-4.44 2.72-6.75a12.353 12.353 0 012.39-3.62c-.48 3.14-2.07 6.26-3.19 9.41a25.392 25.392 0 00-2.23 6.47 19.378 19.378 0 002.07-4.67 5.566 5.566 0 012.72-3.23 9.09 9.09 0 010 4.15l-.48 2.83c-.65 6.38-1.76 12.89-2.08 19.2.024.499-.03.998-.16 1.48-.63 2.87-.8 5.63-1.28 8.46-.79 4.83-.31 9.34-.79 14.09a5.973 5.973 0 00.183 2.368c.218.77.587 1.488 1.087 2.112 1.28 1.43 2.08 1.39 4-.37.47-.42.8-.35.95.09l.48 2.28a2.187 2.187 0 001 1.84c1.11 1.15 2.56.79 3.67-1.08a8.77 8.77 0 001.12-2c.32-.56.8-1 1.28-.79.48 0 .48.52.32 1L343 203a.847.847 0 00.16 1.07 1.113 1.113 0 001.28-.48c.42-.533.791-1.101 1.11-1.7.426-.762.803-1.55 1.13-2.36.31-.56.47-1.24 1.11-1.07.48 0 .32.71.48 1.15l4.15-9.17c-.32.23-.63 1.11-1.28 1-.32-.24 0-.8 0-1.12l1.44-3.39c3.35-7.22 6.54-14.25 9.91-21.31 6.37-12.94 13.24-25.82 20.11-38.4 1.12-2 2.07-3.87 3.2-5.74.15-.37.48-1.08 1.11-1.08.64.16.16.77 0 1.28a4.907 4.907 0 01-.48.92c-.63 1.27-1.11 2.67-1.76 4l1-.88c1-.56 1.76-.12 1.61.72a17.112 17.112 0 01-.65 2.55 45.948 45.948 0 00-2.07 7.39c-1.61 7.75-2.39 15.45-4.48 23.14v.65c-.63 4.63-1.11 9.23-1.28 13.9a10.006 10.006 0 001.28 5.74 3.306 3.306 0 002.24 1.84 3.997 3.997 0 013 1.95 8.078 8.078 0 001.75 1.8 2.258 2.258 0 002.71 0c1-.56 1.76-.92 2.57-.31.78.27 1.43 0 2.22-.88a11.37 11.37 0 003-6c.8-5.3 1.76-10.65 3-15.92.17-.35.32-.88-.16-.92-.95 1.36-1.11 2.83-1.59 4.23-.17.36-.32.4-.48.28a.11.11 0 01-.16-.11 6.469 6.469 0 01.32-1.84c.8-3.4 1.43-6.76 2.39-10 1.76-7.14 3.83-14.36 5.75-21.55.199-.938.466-1.861.8-2.76 2.08-5.63 4.15-11.41 6.22-17l2.89-7.73c.15-.37.31-1 .79-.84.47 0 .16.76 0 1.11-3 7.63-5.42 15.25-8 22.91-1.91 6.22-3.67 12.42-5.59 18.64-.78 2.91-1.59 5.67-2.22 8.54a4.635 4.635 0 00-.32 2.16l.15.12.32-.08c.137-.422.297-.836.48-1.24l3.84-13.44c.95-3.43 1.76-7 2.87-10.45 2.39-6.83 4.94-13.69 7.18-20.48.32-1.36 1-2.47 1.28-3.68 1.26-3.45 2.68-6.94 3.17-10.53a19.258 19.258 0 001.43-4c.16-.67-.15-1.07-.8-1.07a21.678 21.678 0 011.28-4 6.62 6.62 0 00.8-2.43c.119-1.97.551-3.907 1.28-5.74a8.793 8.793 0 00.29-4.6zm-111.13 108a88.292 88.292 0 01-3.52 9.82 2.002 2.002 0 010-1.91l2.87-7.91a.534.534 0 01.33-.55c.48-.09.32.27.32.58v-.03zm6.86-44.79a.917.917 0 01.32-.59v-.14l.16-.19v.15l-.16.18c-.012.24-.062.476-.15.7 0 .16-.17.2-.33.4a.672.672 0 01.16-.51zm1.12 22.87l-5.75 15.49c0 .15-.31.23-.48.44l-.16-.61c.48-1.23.8-2.59 1.28-4a146.99 146.99 0 015.59-14c-.075.91-.236 1.81-.48 2.69v-.01zm9.27-50.53c.48-.29.15.59-1 2.14.35-.7.35-1.48 1-2.13v-.01zm-6.55 42.34c0 .17-.32.57-.32.72a1.771 1.771 0 01.15-.84.5.5 0 01.33-.4c-.16.22 0 .34-.16.53v-.01zm2.39-5.71a25.706 25.706 0 012.4-8.73 6.48 6.48 0 012.07-2.75 111.785 111.785 0 01-4.47 11.51v-.03zm6.86-18.47c.32-.56.32-1.2 1-1.51.45-.28-.03.48-1 1.52v-.01zm-.41-23.16c0 .09 0 .18-.07.29l-.15.19v-.16l.22-.32a12.873 12.873 0 012.65-5.82 13.572 13.572 0 01-2.65 5.83v-.01zm4.56-9.34l-.31.09c0-.17-.17-.13-.17-.28a5.844 5.844 0 011.29-1.92 12.554 12.554 0 00-.81 2.11zm17.09 78.3l-.47 1.24-.16.19v-.15c.297-.437.511-.925.63-1.44a2.9 2.9 0 00.38-.58 6.761 6.761 0 01-.38.75v-.01zm4.16-41.74l-.48.12-.16-.12c.16-.52.16-1 .31-1.51 0-.17.33-.41.48-.29l.33.4c-.189.456-.349.924-.48 1.4zm3.35-22.4c0-.15.32-.24.32-.4l.32.4c-.16.37-.16.52-.32.88l-.15.2-.33-.24c-.037-.29.019-.584.16-.84zm-1.11 8.91c0-.16.31-.41.47-.29.16 0 .16.29.16.44a6.722 6.722 0 01-1.28 3.2 4.877 4.877 0 01.65-3.35zm1 23.49l-.05.22-.05.05a4.41 4.41 0 01-1.23 2 4.996 4.996 0 011.23-2 .724.724 0 00.05-.21.107.107 0 00.031-.025.092.092 0 00.019-.035 4.599 4.599 0 011.23-2 6.428 6.428 0 01-1.23 2zm16.55-28.84v-.31a.42.42 0 00.21-.13 1.384 1.384 0 01-.21.44zm3.68-6.6c0 .11 0 .13-.16.3.043-.105.097-.206.16-.3v-.06a.225.225 0 01.09-.08.415.415 0 00-.09.14zm.8-1.06l-.48.6c0 .13-.09.18-.21.28l.21-.28.48-.91v.31zm14.22 64.81h-.17c-.48-.37 0-1.92.64-2.55 0 0 .16 0 .16.11.48.41.16 1.92-.63 2.44zm6.06-97.33h-.16l.49-.61c-.14.186-.251.391-.33.61zM420 98.38c-.33.4-.48 1.09-1.13 1.09-.31.08-.31-.4-.15-.61.46-1.19.63-1.27 1.67-1.23l-.39.75zm2.07-17.59c-.16 0-.31.07-.31-.08a.129.129 0 00-.051-.11.13.13 0 00-.119-.02 3.688 3.688 0 011-2c.16-.2.16-.2.32-.24l.16.12a4.688 4.688 0 01-1 2.33zM348.3 199.64l-.16.34c.14-.04.16-.19.16-.34zM449.06 135.06a18.996 18.996 0 002.4-6.35 15.78 15.78 0 00-2.4 6.35zm-1.44 4.18l.8-1.15a7.25 7.25 0 00.64-3 9.846 9.846 0 00-1.44 4.15zm24-71.6a7.025 7.025 0 011.75-.75c2.23-.72 4.47-1.43 6.71-2a80.467 80.467 0 0117.25-3.18 45.4 45.4 0 004.78-.56c1.61-.25 2.09-1 1.92-2.72-.31-1.36-.64-2.56-2.07-3-.65-.15-.48-.67-.17-1.23.32-.4 0-.48-.31-.55a19.127 19.127 0 00-3.2-.17c-3.333.36-6.686.877-10.06 1.55L470 59.58c-.64.16-1.6.71-2.07-.13-.33-.4.63-1 2.23-1.51l12.45-3.11a53.627 53.627 0 0115.81-2.18 22.292 22.292 0 003-.27c.63-.16 1.28-1 1-1.52-1.13-2-2.56-3.67-5.44-3.59-4.63.19-9.26.38-14 1.74-1.523.46-3.068.845-4.63 1.15-5.5 1.52-10.92 2.84-16.35 4.07-.48.11-.95.4-1.43.51-2.24.88-4.31 1.4-6.39 2.07a16.3 16.3 0 00-2.71.84c-1.93 1-3.67 3.32-3.67 4.91-.17 1.32.48 1.8 1.59 1.51 1.11-.29 2.08-.67 3-.92 1.91-.46 3.66-1.07 5.42-1.5 1-.24 1.28 0 1.13.35a1.771 1.771 0 01-1 1c-.65.16-1.45.53-2.08.68l-5.44 1.84a4.353 4.353 0 00-1.27.46.752.752 0 00-.48.61c0 .16.32.24.48.2 1.6-.4 3-.92 4.64-1.48a6.303 6.303 0 012.87-.71c.15 0 .48 0 .48.19s-.16.52-.33.56a4.118 4.118 0 01-2.07 1l-4.15 1.51a7.29 7.29 0 00-1.76.75 3.847 3.847 0 00-1.76 3.47c.17 1.24.65 2.08 2.08 2.05h1.27c.8 0 1.13.51.48 1.31a6.753 6.753 0 00-1.44 3.24 13.046 13.046 0 01-1.26 3.35c-1.76 3.16-3 6.34-4.48 9.42a48.72 48.72 0 01-2.87 6.14 65.787 65.787 0 00-5 10.17c-.95 2-1.59 3.92-2.71 5.8a28.15 28.15 0 00-1.6 3.75c-2.07 6.26-4.63 12.49-7.18 18.71-2.08 5-4.63 10-6.23 15.14-1 2.62-1.92 5.26-3 7.94a53.545 53.545 0 00-2.87 10 9.023 9.023 0 00.15 3.64 9.54 9.54 0 002.88 4.55 13.986 13.986 0 013.83 4.16 8.53 8.53 0 005.58 3.39c2.268.388 4.574.508 6.87.36a12.994 12.994 0 006.55-2.11 21.859 21.859 0 013.52-1.84c1.44-.67 2.7-1.47 4.15-2.3l3.66-2.35a22.417 22.417 0 005.44-3.76 4.005 4.005 0 011.76-.91 11.976 11.976 0 002.87-1.67c.8-.52 1.59-.88 2.24-1.36 1.28-.64 2.55-1.28 3.83-2.07a44.01 44.01 0 0110.7-4.75 5.856 5.856 0 002.87-1.51c1-.88 1.28-2.09.48-2.68a8.612 8.612 0 01-1.59-2.8 5.628 5.628 0 00-5.05-4.29 4.007 4.007 0 01-2.57-1.44 4.003 4.003 0 00-3.67-2 14.89 14.89 0 00-5.42.4 39.635 39.635 0 00-8.94 3.51c-2.24 1.19-4.32 2-6.55 3.07-.95.55-1.92 1-2.56-.17-.15-.12-.48 0-.8.2-.48.28-1 .24-.79-.28.63-2.39.79-5 1.92-7.35l2.54-6.53c1.13-3.33 2.09-6.59 3.2-9.91.32-.87.8-1.63 1.11-2.36.17-.35.65-.63.8-.35.17.12.17.44.17.75a5.506 5.506 0 001.27-3.35c.264-.341.482-.714.65-1.11a5.601 5.601 0 014.94-4 30.015 30.015 0 007.83-2.75c1.144-.526 2.32-.98 3.52-1.36a33.268 33.268 0 006.37-2.38 23.001 23.001 0 017.83-1.8l2.39-.11a4.78 4.78 0 002.88-1.36c.402-.388.724-.85.95-1.36.17-.67-.31-.87-.79-1.08-.48-.21-.64-.8-.47-1.47.15-.52.15-1 .31-1.51a3.33 3.33 0 00-.79-3.48l-.8-.77a8.495 8.495 0 01-3.2-4 3.078 3.078 0 00-1.42-1.45 8.148 8.148 0 00-5.26-1.55c-1.393.05-2.782.18-4.16.39a72.125 72.125 0 00-7.82 1.47c-1.11.29-1.76-.36-1.59-1.36 0-.32.15-.67.15-1 1.28-5.11 2.87-10.3 4.31-15.29a6.217 6.217 0 014.79-4.7 8.99 8.99 0 003.67-1.72 11.95 11.95 0 00-2.39.44l-2.4.59c-.15 0-.32-.07-.47-.19.15-.21.15-.53.32-.57a11.63 11.63 0 012.07-.83 103.461 103.461 0 0116.44-4.1.513.513 0 01.48 0 .253.253 0 01.291.121c.018.034.028.07.029.109a1.105 1.105 0 01-.32.57c-1.447.514-2.94.886-4.46 1.11-1.44.2-2.87.56-4.31.91-.32.09-1 .09-1.13.76 5.44-1.19 10.87-2.55 16.29-3.26a9.73 9.73 0 005.28-2.58c.16-.21.48-.44.31-.73 0-.32-.31-.4-.63-.48a20.264 20.264 0 00-5.59.12 90.463 90.463 0 00-8.94 1.77c-4.48 1-8.79 2-13.09 3.1l-3 .76c-.33.08-1 .08-.81-.44-.04-.3.29-.53.61-.78h.04zM452.25 125c.31-.54.32 0 .47 0-.16.06-.3 0-.47 0zm18.05-63.43c-.32.08-.63-.15-.48-.51a.456.456 0 01.32-.4 2.294 2.294 0 011-.41c6.38-1.74 12.77-3.5 19.32-4.81a18.426 18.426 0 012.87-.24c.17 0 .32.24.32.4a.455.455 0 01-.32.4L489 57.07l-6.87 1.24c-3.19.95-6.22 1.87-9.42 2.67-.781.277-1.588.475-2.41.59zM628.71 46.35a12.762 12.762 0 001.76-1.4c-.47.44-1.13.44-1.76 1.4zm-19.64 81.23a110.66 110.66 0 00-6.55 7.54 12.413 12.413 0 002.55-1.76c2.24-2.47 4.79-4.7 6.55-7.69a7.417 7.417 0 00-2.55 1.91zm-12.62 12.72a13.617 13.617 0 006.07-5.18 30.266 30.266 0 00-6.07 5.18zm-7.82 5a19.261 19.261 0 007.82-5c-2.88 1.36-5.58 2.7-7.82 4.99v.01zm-3 2c1.28-.15 2.08-1.16 3-2-2.09.82-3.63 2.02-3.04 2.02l.04-.02zm-28-27.68v1.28a10.078 10.078 0 002.08-3.24c-.79.7-1.42 1.34-2.07 1.98l-.01-.02zm82.57-89.07a24.669 24.669 0 01-.31-3.6 12.228 12.228 0 00-.81-3.31c-.8-2.2-1.59-4.39-2.55-6.55a8.92 8.92 0 00-7.34-5.35 20.213 20.213 0 00-7.2.36c-6.38 1.11-12.61 3.45-19 6.17-4.48 1.75-8.78 4.43-13.09 6.94a98.151 98.151 0 00-11.5 7.49c-2.4 1.87-4.79 3.59-7.2 5.79-.79.68-1.59 1.35-2.55 2.07-.644.448-1.265.929-1.86 1.44a27.892 27.892 0 00-3.56 3.71c-4 4.83-5.59 9.69-4.63 14.88.587 2.544.921 5.14 1 7.75a10.403 10.403 0 001.24 5.66 22.003 22.003 0 0010.37 9.87c6.39 3.2 12.79 6.39 20 8.28a32.915 32.915 0 016.39 3c1.76 1 1.91 2.23.8 4.58l-.17.21a48.98 48.98 0 01-12.13 14.68 25.09 25.09 0 00-3.36 2.74 30.884 30.884 0 01-8 5.67 25.996 25.996 0 00-4.47 2.07 22.48 22.48 0 01-7 1.76c-1.78.253-3.594.043-5.27-.61-1.43-.27-1.75-1-1.28-2.55.253-.957.588-1.89 1-2.79v-1.28a5.778 5.778 0 011.61-3.43c.63-.8 1.26-1.76 1.74-2.52a.445.445 0 000-.48c-.15-.12-.31-.08-.63 0a3.7 3.7 0 00-.8.52c-.605.477-1.247.905-1.92 1.28a.368.368 0 01-.63 0 .483.483 0 010-.64l.63-1.12a16.182 16.182 0 001.44-1.79c.95-1.52.95-3.12 0-3.84-.79-.92-1.92-.48-2.87.24l-1.12.76a8.479 8.479 0 01-3.34 1.48 38.304 38.304 0 014.13-3.76c-1.43.84-2.87 1.52-4.46 2.39-.32.08-.64 0-.64-.31a.696.696 0 01.16-.52l3.19-2.71c1-.73 1-1.69 0-2.09-1.75-1-4.47-.63-6.54 1.17a32.225 32.225 0 00-4.32 4.58 10.595 10.595 0 00-2.4 5.7 22.031 22.031 0 00.33 7.27 53.744 53.744 0 004.07 12.19 26.025 26.025 0 004.31 6.6 30.991 30.991 0 009.9 7.27 25.999 25.999 0 0014.06 2.56c3.18-.32 6.55-1 9.57-3.66.748-.6 1.551-1.125 2.4-1.57a71.834 71.834 0 008.3-5.42 46.916 46.916 0 007.18-6.26c3.37-3.39 6.87-6.66 10.22-10.21a21.365 21.365 0 005.44-8.86l.95-4.88c-1.43-.11-1.59-.23-1.11-1.47.31-.88 1-1.67.79-2.76a44.101 44.101 0 00-2.55-12.29 54.45 54.45 0 00-3.19-6.81A48.219 48.219 0 00608.9 82a30.256 30.256 0 00-8.46-9 44.598 44.598 0 00-9.74-5c-2.72-1.09-5.42-2.17-8.14-3.41-1.28-.633-1.28-1.59 0-2.87.391-.461.819-.89 1.28-1.28 2.07-1.63 4.14-3.58 6.22-5.23a97.44 97.44 0 019.75-7.37c1.75-1.08 3.5-2.32 5.26-3.39 4-2.28 8-4.39 12-6.19.48-.11.79-.34 1.27-.47 1.12-.28 1.6-.08 1.76 1.16.389 1.731.607 3.496.65 5.27 0 1.76.78 2 2.54 1.12l2.4-1.07c.17 0 .48-.13.48 0s0 .48-.16.51l-2.39 1.88c-.17 0-.33.4-.33.56 0 .32.33.4.65.32a11.7 11.7 0 003.51-1.84l7.35-5.34c.31-.25.78-.69 1.11-.12-1.11 1.56-2.87 2.47-4.16 3.91a16.685 16.685 0 004.64-3.23 5.49 5.49 0 002.08-2.28c1.25-2.7 2.7-5.45 1.73-8.09zm-90.06 81.05c-.46 0 .1-.6 1.24-1.2-.38.53-.69 1.07-1.24 1.2zm24.59 20.86c.16-1.31 1.28-1.59 1.92-2.07 3.83-2.55 7.82-5 11.5-8a12.607 12.607 0 014-2.28 59.316 59.316 0 01-9.09 8 34.506 34.506 0 01-5.91 3.55 4.607 4.607 0 01-2.42.8zm6.87-1.71c2.72-1.8 5.59-3.79 8.31-5.74.31-.08.79-.52 1.11-.12a28.852 28.852 0 01-11.5 8.14 7.918 7.918 0 012.08-2.28zm16.77.61c0 .17-.17.36-.32.56a51.288 51.288 0 01-15.34 11.17 2.566 2.566 0 00-1 .39.938.938 0 00-.64 0c-.17-.11-.32-.23-.32-.39s0-.49.15-.53a5.082 5.082 0 012.09-1.78c4.46-2.87 8.78-6 13.25-9.21a8.806 8.806 0 011.6-1c.16 0 .48 0 .48.21a.489.489 0 01.05.58zm-7.19-99a76.016 76.016 0 017.34-4.54 114.805 114.805 0 0116-7.34 59.039 59.039 0 018.78-2.19c.33-.07.65-.15.65.33-.17.19-.32.39-.49.44-1.11.42-2.39.9-3.51 1.34l-9.11 3.24a177.46 177.46 0 00-17.72 8.41l-1.75.91s-.16 0-.16-.11c-.21-.1-.21-.26-.03-.46v-.03zm28.9-10.08c-.64 1-1.59.88-2.55 1.28-6.07 2.47-12.14 4.94-18 7.85-.32.24-.63.31-1 .56-.15 0-.63.15-.63-.16.054-.213.161-.41.31-.57a6.625 6.625 0 011.44-.82 118.02 118.02 0 0114.69-7 23.806 23.806 0 013.2-.94c.78-.04 1.75-1.25 2.54-.17v-.03zM575.84 46c0 .48-.31.71-.63 1.11a27.414 27.414 0 01-3.67 3c2.08-2.79 2.08-2.79 4.3-4.11zm44.56-10.68a6.771 6.771 0 01-2.24 1.36 101.332 101.332 0 00-13.72 7.1 123.31 123.31 0 00-19.64 14.31 13.277 13.277 0 01-4.16 2.91 11.1 11.1 0 012.88-3.42c6.22-5.35 12.48-10.42 19.48-14.4a112.87 112.87 0 0115.49-7.86 2.511 2.511 0 011.76-.44c.15 0 .15.13.15.13v.31zm4.31-5.06a4.488 4.488 0 01-2.24 1 115.297 115.297 0 00-20 8.81c-3.84 2.07-7.51 4.43-11 6.74a7.464 7.464 0 01-2.08 1.31l-.16-.12a.39.39 0 01-.15-.28l1.28-1.27a93.536 93.536 0 0111.65-8 84.323 84.323 0 0117.08-8.09 17.009 17.009 0 015.43-1.51c.33-.09.64.15.81.59-.169.3-.377.576-.62.82zM685.231 15c0-.8-.15-1.24-1.11-1-.8.19-1.13-.21-1.13-.85 0-1.6 0-3-.15-4.59 0-1.91-.32-3.75-2.72-3.63-.79 0-.79-.6-.63-1.28-.8.2-1.61.72-2.4.59-.32.09-.47-.19-.16-.59 0-.33.32-.56.48-.76 1-1.2 1-1.83 0-2.23-2.41-1.47-5.9-.42-8.14 2.34a91.393 91.393 0 00-8.94 14.2 11.023 11.023 0 01-1.92 3 15.204 15.204 0 00-3.52 5.83 89.47 89.47 0 01-4.15 8.38l-1.44 3.39c-1.28 3-2.54 5.91-3.67 8.9a25.792 25.792 0 00-1.11 3.16 19.947 19.947 0 01-1.76 4.9 44.217 44.217 0 00-3.68 8.42 28.664 28.664 0 01-2.23 6 45.952 45.952 0 00-3.85 10.75c-.48 1.71-1 3.11-1.44 4.67-.83 2.71-1.84 5.37-2.63 8-.27.88-.51 1.76-.72 2.61a52.847 52.847 0 01-2.87 8.39c-1.13 2.67-1.13 4.74.31 6.62.32.4.64 1.13 1 1.51.33.88.81.77 1.61.1.48-.44.8-1 1.28-1.13.48-.13.79.44 1 .88.15.28.63.17.95.09a.687.687 0 01.95.34c.05.117.067.244.05.37.134.617.188 1.249.16 1.88a3.199 3.199 0 001.91 2.87c1.44.76 2.56.32 4-1.48a7.985 7.985 0 011.59-2.14c.48-.29 1.13-.12 1.13.36-.2 1.022-.31 2.059-.33 3.1-.15.53.64.81 1.12.69a4.184 4.184 0 002.23-2.16 32.478 32.478 0 002.4-5.06c1.76-5 3.71-10 5.7-14.9.56-1.35 1.1-2.69 1.65-4 2.39-5.53 4.78-11.24 6.87-16.87.237-.413.448-.84.63-1.28 1.76-4.11 3.52-8.38 5.43-12.54 1.44-3.38 2.55-7 4.47-10.37.95-1.84 1.76-3.79 2.56-5.75a36.41 36.41 0 012.55-5.43c0-.15.32-.39.48-.43.32.08.32.39.16.75a3.36 3.36 0 01-.32.88c-2.24 4.23-3.67 8.75-5.59 13.06-3.5 8.06-6.7 16-9.9 24l-7.43 18-1.19 2.86c-1.75 4.12-3.36 8.35-4.79 12.37-.16.84-.8 1.64-.33 2.49 1.13-.44 1.13-1.57 1.44-2.44 1.28-3.52 2.56-7 4-10.42.67-1.62 1.36-3.24 2-4.87 2.27-5.34 4.6-10.74 6.57-16.12a32.18 32.18 0 011.34-3.43 183.775 183.775 0 007.7-18.4c.48-1.08.81-2.27 1.44-3.4a60.607 60.607 0 004.31-10c1.12-2.68 2.08-5.31 3.19-8 .585-1.412.966-2.9 1.13-4.42-.65 1.27-1.44 2.43-2.24 3.75a4.68 4.68 0 011.11-4c.65-.63 1-.23 1.13.21a8.527 8.527 0 001.23-2.52 56.696 56.696 0 002.4-8.43c.35-1.79 1-3.9.83-5.79zm-37.84 53.68a12.246 12.246 0 011.11-3.32 8.773 8.773 0 01-1.11 3.32c-.16.51-.48.92-.63 1.43.145-.503.357-.984.63-1.43zm-10.86 29.21c-.47-.52.16-1.15.48-1.71-.16.67-.01 1.11-.48 1.71zm1.12-3.14c.045-.127.078-.257.1-.39.144-.52.321-1.032.53-1.53l.48-2c.08-.11.14-.22.21-.33a13.135 13.135 0 012.35-6.22 12.828 12.828 0 01-2.32 6.18v.44c-.281.62-.499 1.266-.65 1.93-.132.52-.299 1.032-.5 1.53l-.2.39zm19.81-51.09c-.018.27-.136.523-.33.71v.17l-.08.07a35.714 35.714 0 01-3.59 8.66l-.46 1.73a1.854 1.854 0 01-.48.92c-.32.24-.32-.24 0-1l1-1.68a24.977 24.977 0 011.76-5.71 8.643 8.643 0 011.83-3 2.5 2.5 0 00.08-.24 1.085 1.085 0 01.16-.68c0-.15.17-.36.32-.55a.755.755 0 01-.21.6zm1.43-3.87a6.27 6.27 0 01.63-1.44c-.15.52-.47.92-.63 1.44zm1.4-3.11c.096-.34.213-.674.35-1l-.35 1zm16.48-29.94a2.895 2.895 0 01-.63.64.512.512 0 01-.48 0v-.2c.169-.296.381-.566.63-.8a.94.94 0 01.64 0 .742.742 0 00-.16.36zm5.11 20.45a4.974 4.974 0 00-.48.91c0-.32.16-.68.16-1 .17-.36.17-.36.32-.25v.34zM85.38 401.87v.13c.088-.235.228-.447.41-.62a3.29 3.29 0 00-.41.49zm-10.55 10.29c.17 0 .17 0 .17-.2 0 .04-.11.13-.17.2zm0 0l-.46.43a2.81 2.81 0 00.45-.42l.01-.01zm-8 6.77c-.37.369-.704.77-1 1.2a26.788 26.788 0 008.47-7.54c-2.66 1.81-4.9 4.28-7.45 6.35l-.02-.01zm-4.95 4.27c-1.44 1.16-2.71 2.43-4.14 3.43-5.28 3.55-10.22 7.65-15.66 10.77-.506.428-1.037.825-1.59 1.19a23.987 23.987 0 006.55-3.54c4.14-2.8 8.14-5.71 12.13-8.62 2.4-1.87 5-3.63 6.7-6.3a26.986 26.986 0 00-3.97 3.08l-.02-.01zm-22 15.72c-.32.07-.32.07-.15.19h.15c.12-.14.15-.18.22-.21l-.22.02zm-6.39 2.7c-.242.027-.466.14-.63.32-.16.2 0 .33.15.29.33-.09.65-.17.81-.52-.18.05-.18-.12-.35-.08l.02-.01zm-16.12 24v.15c.183-.489.397-.967.64-1.43a5.665 5.665 0 00-.66 1.28h.02zm85.75-96.75A45.008 45.008 0 0099.58 352c-3.35-7.94-9.74-11.94-18.68-12.59h-2.07c-1.43.21-2.71.52-4.15.73A60.872 60.872 0 0055 345.88c-4.48 2.07-9.11 4.18-13.26 7.3a34.234 34.234 0 00-3.2 1.91 23.008 23.008 0 00-5.38 3.91c-.64.63-1.43 1.15-2.08 1.8l-5.42 4.71a13.004 13.004 0 00-3.37 5.3 2.883 2.883 0 00-.15 2.76c.28.736.39 1.526.32 2.31-.32 2-.17 2.11 1.76 2.43.31.08.64 0 .79.44.48 1.48.65 1.44 1.92.81 1.27-.63 2.23-1.36 3.36-2 1.75-1.07 3.51-2 5.27-3.08.15 0 .63-.15.63.17 0 .16-.16.52-.31.56-1 .72-1.76 1.39-2.72 2.11.48-.12 1-.39 1.44-.52 1.28-.16 1.76.53 1 1.68a46.71 46.71 0 00-3.83 7c-.81 1.79-1.44 3.54-2.41 5.22-1.59 3.43-3.35 6.91-4.79 10.3-1 1.84-1.59 3.75-2.39 5.55-1.76 4.27-3.83 8.46-5.59 12.73-4.48 10.53-8.78 21-12.29 31.8-1 2.8-2.08 5.63-3 8.42-.6 1.469-.973 3.02-1.11 4.6-.33 2.64 0 5.11 2.23 6.31a4.282 4.282 0 011.44 2c.13.612.342 1.204.63 1.76.81 1.55 1.12 1.8 3.2 1 1-.4 1.44-.52 1.92.48.32.72.63.8 1.59.08 1.12-.75 1.92-1.6 3.19-1.43v-.17a11.57 11.57 0 001.13-3.14l.15-.05a.924.924 0 01-.503-.733.92.92 0 01.353-.817 8.997 8.997 0 001.91-3.68c-.48 0-.64-.31-.64-.79a7.42 7.42 0 011.44-2.6 21.443 21.443 0 004-8.17c-.14 0-.29-.06-.54 0 .07-.17.1-.36.22-.39.32-.24.32.24.32.41a33.899 33.899 0 003.19-7.51h-.12c.77-1.15 1.42-2.39 2.67-3 1.93-1.11 3.85-2.22 5.76-3.18 9.42-4.27 17.88-10.84 26.34-17.12.316-.082.597-.264.8-.52 4.64-4.34 9.59-8 14-12.6.38-.236.717-.534 1-.88 1-.71 1.92-1.59 3.2-1.59a3.059 3.059 0 001.91-1.11 22.441 22.441 0 004.4-4.66 15.647 15.647 0 00-2.72 2.11c-.56.495-1.148.959-1.76 1.39-.15.21-.48.13-.63.17-.02-.236.033-.473.15-.68 1.61-1.52 3.2-3.51 5.59-3.79 2.09-1.63 3.52-3.91 5.44-5.67 2.87-2.78 4.46-6.53 7.18-9.61.17-.2.17-.52.48-.92a28.762 28.762 0 003.99-16.13h.02zm-83 88.4c0 .17-.32.4-.32.4v-.48c.248-.235.46-.504.63-.8-.21.36-.21.69-.36.88h.05zm4.63-10.74s.16-.19.16 0a.272.272 0 01.31.2c-.31-.04-.52.08-.52-.2h.05zm16.87-87.73a9.78 9.78 0 012.88-2.14 98.43 98.43 0 0120.11-9 27.122 27.122 0 018.63-1.19 5 5 0 01-2.39.92c-4.63 1.32-9.43 3-14.06 4.78a87.054 87.054 0 00-8.14 3.47 32.498 32.498 0 01-7 3.18 9.461 9.461 0 01-3 2 10.009 10.009 0 012.97-2.02zm20 1.26c-.677.244-1.377.418-2.09.52-.48.11-1 .23-1.26-.17s.31-1 1.26-1.27a42.319 42.319 0 0112.94-3.07c.32.08.63 0 .48.52 0 .16-.32.4-.48.44-2.24.56-4.31 1.23-6.55 2l-4.3 1.03zm.63 2.39a.692.692 0 01-.48.6c-.15 0-.32-.24-.48-.2l.48-.44c.151-.011.303.002.45.04h.03zM41 361.35a31.004 31.004 0 0111-5.77 6.184 6.184 0 012.39-1.58 72.288 72.288 0 0113.26-4.74c.16.12.48 0 1.12 0a10.795 10.795 0 01-3.68 1.88c-3.19 1.11-6.54 2.43-9.89 3.58a7.855 7.855 0 01-3.2.8 55.648 55.648 0 01-11 5.83zm3 43a2.538 2.538 0 01-.8 1.63c-.3-.7.49-1.07.8-1.62v-.01zm-10.53-30.58c-1.43 1-3 1.88-4.46 2.87-.387.181-.764.381-1.13.6l-.31-.25v-.31c.16-.2.31-.4.48-.44a106.498 106.498 0 0110.53-7.1 5.237 5.237 0 011.44-.52c.17 0 .17.12.32.08v.3a4.162 4.162 0 01-1.43 1.32c-1.91 1.29-3.68 2.38-5.44 3.45zm6.39 39.6l-.32.56c-.31-.4.17-.52.32-.56zm-3 11.78c.15-.2.31-.08.48-.12-.17 0-.17.2-.33.4-.294.04-.57.162-.8.35l.65-.63zm-1.76 3.46c.28-.06.55-.25.94-.37l.16-.21v.17a.482.482 0 00-.17.05 4.181 4.181 0 01-.79.81c-.31.25-.48.13-.48-.19.16-.05.16-.2.32-.26h.02zm12.77.5c-4.47 3.67-9.27 7.1-14.53 9.21a6.91 6.91 0 01-2.4.76c-.32-.08-.63-.17-.47-.52.039-.265.15-.514.32-.72a2.341 2.341 0 011.11-.76 106.089 106.089 0 0015-8.37c.8-.52 1.76-.92 2.56-1.44a19.613 19.613 0 01-1.61 1.84h.02zm4.63-3.55a8.69 8.69 0 01-1.58.7 1.727 1.727 0 00-.18.22l-.89.56c.311-.225.609-.468.89-.73a.666.666 0 00.18-.05 11.19 11.19 0 011.27-1.42 1.658 1.658 0 011.43-.52c.29-.08-.18.68-1.14 1.24h.02zm35.29-27.17h-.15l.15-.19a3.5 3.5 0 01.64-.64 3.65 3.65 0 00-.66.83h.02zm1.76-33c-.5.994-1.09 1.941-1.76 2.83-4.15 5.35-8 10.93-12.94 15.51-1.91 1.92-3.5 4.08-5.26 6A123.91 123.91 0 0153.6 405c-2.23 1.84-4.47 3.66-6.54 5.63a36.54 36.54 0 01-4.48 3.66c-.8.52-1.59.08-1.44-.92.33-1.35 1-2.79.64-4-.16-.61.32-1.05.8-1.32a4.996 4.996 0 001.76-2c1.76-3.64 3.83-7.35 5.27-11.06h-.08l-.08.15-.08-.08a4.571 4.571 0 01-1 .37c.29-.82.73-.7 1-.37a.554.554 0 00.16-.07c1.56-3.06 3-5.92 4.38-8.94a11 11 0 001.29-4.31 2.39 2.39 0 01.15-1c1.6-2.16 1.92-4.63 3.36-6.74 1.12-1.88 1.27-3.67 1.75-5.55.17-.84-.48-.84-1-1.2-.63-.33-.48-1.15.17-1.8a13.545 13.545 0 014.37-2.33 52.464 52.464 0 0113.89-2.49c2.55 0 5.12-.16 7.51.52a9.88 9.88 0 013.5 1.35c1.1.69 1.27 1.5.63 2.89h.02zM178 386.92l-.48.11-.17.06h.16v.91c.17-.36.32-.72.49-1.08zm-10.39-59.37h.17c.187-.232.348-.483.48-.75a4.15 4.15 0 01-.65.75zm0 0a3.495 3.495 0 00-.48.76c.174-.299.394-.568.65-.8l-.17.04zm-1.11 1.56a3.28 3.28 0 01.63-.8 1.724 1.724 0 00-.63.8zm-1.13.92c.65.31.8-.36 1.13-.92a3.65 3.65 0 00-1.13.89v.03zm-11 17.91c.183-.493.397-.974.64-1.44-.3.438-.52.925-.65 1.44h.01zm13.25-20.39a3.495 3.495 0 00-.48.76c.174-.299.394-.568.65-.8.187-.232.348-.483.48-.75-.186.29-.408.555-.66.79h.01zm-1.11 1.56a3.28 3.28 0 01.63-.8 1.718 1.718 0 00-.64.8h.01zm-1.13.92c.65.31.8-.36 1.13-.92a3.66 3.66 0 00-1.14.89l.01.03zM155 346.5a4.502 4.502 0 00-.64 1.44c.183-.493.397-.974.64-1.44zm38.16-5.36c.394-2.143.555-4.322.48-6.5a10.442 10.442 0 00-.8-4 21.494 21.494 0 00-8-10 3.52 3.52 0 00-3.51-.56 2.36 2.36 0 01-2.08-.59 17.315 17.315 0 00-2.05-1.49 7.461 7.461 0 00-4-1.72 2.443 2.443 0 00-2.39.76c-1.12 1.56-2.4 1.23-3.51 1l-1.13-.36c-.8-.44-1.43.19-2.07 1 0 .33.16.77-.16 1.17-.16.19-.31.39-.64.31-.15 0-.15-.27 0-.48.31-.296.579-.632.8-1-1.65 1-3.45 2.07-5.26 3 1.12-2 3-3.08 4.79-4.31.63-.31 1.43-.67 1.43-1.63-.17-.76-1-.88-1.43-1.08a3.157 3.157 0 00-2.09.2c-.934.31-1.84.698-2.71 1.16a50.087 50.087 0 00-10.38 8.65 22.432 22.432 0 01-2.39 2.68c-4.64 3.87-8.31 8.62-11.82 13.48a24.42 24.42 0 01-3 3.79c-.95 1.2-1.91 2.39-2.71 3.56-1.27 2.07-2.4 4.1-3.83 6.05-1 1.53-2.07 3.08-2.87 4.56a83.255 83.255 0 00-5.16 10.21l-1 1.84a43.261 43.261 0 00-5.11 10.53A27.632 27.632 0 01109 385a84.315 84.315 0 00-5.11 13.25l-.48 2.51c-.5 2.83-.81 5.78-1.28 8.63-1.44 8.33-.17 15.37 3.83 21.4a79.734 79.734 0 008.94 10.7c3.35 3 7.67 4.32 12.3 4.92 2.248.07 4.496-.118 6.7-.56 7.83-1.79 14.21-6.42 19.64-13.52a116.041 116.041 0 009.11-13.92c1.41-2.4 3-4.67 3.78-7.36h.05c.42-.536.792-1.108 1.11-1.71a74.653 74.653 0 005.11-10.85 4.695 4.695 0 01.65-1.76c1.91-2.72 2.7-5.63 4-8.5-.8-.12-.8-.29.16-1.15l.48-.11a10.561 10.561 0 012.07-5.15 2.21 2.21 0 00.48-1.23c-.48-1.32.32-2.16 1.28-3.35a4.538 4.538 0 001.11-2.36c.65-2.08 1.13-4.28 2.56-6.23.191-.255.3-.562.31-.88 0-2.07 1-3.91 1.92-5.75 1.76-3.31 2.08-6.74 3-10.18l.48-2.19a.256.256 0 00-.107-.2.257.257 0 00-.223-.04c-.79.36-1.11 0-.63-.64 1.96-2.44 2.44-5.12 2.92-7.63zM167 323.08c.47-.28 1-.72 1.11-.76.48-.27.65-.32.8 0a.188.188 0 01-.041.122.186.186 0 01-.109.068 2.125 2.125 0 01-1.44 1.32c-.17 0-.48.13-.48 0-.34-.15-.02-.55.16-.75zm-24.12 18.46l.36-.44a3.755 3.755 0 00-.36.6v-.16zm0 25.56c-.15.67-.15 1.47-1.11 1.87-.5.12.13-.84 1.09-1.87h.02zm-6.55 61.83a.517.517 0 01-.32-.08c-.15-.12-.15-.44-.15-.44l.8-1.15c2.71-2.76 5.42-5.67 7.82-8.66.244-.204.509-.381.79-.53.17 0 .48.05.48.21.019.233-.033.467-.15.67-2.4 3.31-4.79 6.79-8.31 9.42a2.91 2.91 0 01-.98.56h.02zm3.52.09a1.004 1.004 0 01-.64.31s-.16 0-.16-.12l-.15-.12c.117-.322.275-.628.47-.91 2.23-2.48 4.47-5 6.55-7.39.31-.4.63-.48.79-.35a.447.447 0 010 .63 36.996 36.996 0 01-6.88 7.93l.02.02zm6.38 9.74c-.15 0-.15-.29-.15-.44.253-.464.64-.84 1.11-1.08a.465.465 0 01.32.08c-.02.68-.98 1.68-1.3 1.44h.02zm1.13-5.71a23.23 23.23 0 01-3.52 3.11c-.31.08-.64.15-.8 0a.711.711 0 010-.79c.399-.722.882-1.393 1.44-2 3.613-3.9 6.967-8.032 10.04-12.37a6.47 6.47 0 01.95-1l.33-.08c.15 0 .15.12.15.12a1 1 0 01-.15.68c-2.72 4.18-4.96 8.58-8.46 12.33h.02zm15.81-16.88c-1.92 3-3.68 6.18-5.59 9.22a66.18 66.18 0 01-6.07 7.9c-.48.6-1.13 1.08-1.6 1.68-.48-.52 0-1 .16-1.32 4.64-6.11 8.62-12.53 12.77-19 .81-1.16 1.59-2.32 2.4-3.32a.862.862 0 01.871-.458c.116.013.228.05.329.108-1.12 1.7-2.21 3.36-3.29 5.19h.02zm9.57-85.26c-.63 3.67-1 7.1-1.91 10.7-1.28 5.42-2.88 10.78-4.31 16.24l-1 2.48a82.31 82.31 0 00-3.35 10.89 21.868 21.868 0 01-2.24 5.83 118.994 118.994 0 00-3.83 9.09 31.99 31.99 0 01-2.88 6.47c-.187.292-.347.6-.48.92-1.44 4.19-4.15 7.9-6.55 11.85-.29.475-.554.966-.79 1.47-1.43 3.41-4 6.43-6.39 9.59a52.49 52.49 0 01-8.46 8.33c-3 2.36-4.15 1.84-4.63-1.55a19.14 19.14 0 011.11-8.91 101.727 101.727 0 003.35-11.53c.65-1.92 1.28-4 1.76-5.88.65-2.07 1.13-4.26 1.61-6.3a1.842 1.842 0 01.47-1.72c.31-.71.79-1.32 1.12-2 .32-.4.48-.92.15-1.16-1.43-.92-.48-2 .48-2.67a8.387 8.387 0 002.56-4c2.24-5.66 5.27-11.2 7.83-16.79a25.49 25.49 0 001.27-3l-1 .73c-.16 0-.48.11-.48 0-.15-.13 0-.33 0-.48l1.44-1.32v1.11c2.56-3.67 4.63-7.54 6.71-11.25l-3.67 3.79a28.153 28.153 0 011.91-3.51l3.68-5.71a10.39 10.39 0 013.35-3.71c.8-.52 1.43-1.15 1.28-1.91-.16-1.24.63-2.24 1.28-3.2 1-1.36 2.07-2.43 3-3.79v.17c.806-1.9 1.94-3.644 3.35-5.15a1.233 1.233 0 011.43-.69 3.22 3.22 0 012.89 3.45c.055 1.04.028 2.084-.08 3.12h.02zm-5.59-2.6c.174-.299.394-.568.65-.8.187-.232.348-.483.48-.75a4.107 4.107 0 01-.65.79c-.199.23-.367.486-.5.76h.02zm-.63.8a3.28 3.28 0 01.63-.8c-.293.194-.52.473-.65.8h.02zm-1.13.92c.65.31.8-.36 1.13-.92-.439.217-.83.519-1.15.89l.02.03zm-11 17.91c.183-.493.397-.974.64-1.44a4.49 4.49 0 00-.67 1.44h.03zM273.48 347.46l1.12-1.88a5.283 5.283 0 00-1.12 1.88zm-2.23 3.92c-.32.39-.48.92-.8 1.3a4.287 4.287 0 01-.15.69l.47-.6c.16-.53.96-.88.48-1.39zm-4 7.54c.15-.21.32-.25.47-.44v-.32a3.293 3.293 0 01-.46.76h-.01zm-.64 1.44c.295-.439.512-.927.64-1.44-.15.52-.47.92-.63 1.44h-.01zm-1.12 2c.32-.56.8-1.32 1.12-2-.31.71-.79 1.3-1.11 2.03l-.01-.03zm-.64 1.43c.186-.488.4-.966.64-1.43-.266.46-.477.95-.63 1.46l-.01-.03zm-.63 1.1l.63-1.1c-.23.41-.43.78-.62 1.13l-.01-.03zm-.65 1.14l.65-1.14a8.958 8.958 0 01-.65 1v.14zm-3 5.55a18.9 18.9 0 003-5.55 19.603 19.603 0 00-3.02 5.58l.02-.03zm-.64 1.27h.17c.11-.27.23-.63.34-.94a3.648 3.648 0 01-.53.97l.02-.03zm0 0a1.762 1.762 0 01-.42.62 5.2 5.2 0 00.59-.66l-.17.04zm-3.2 5.43c-4.31 8.58-8.14 17.37-12.13 26a11.834 11.834 0 00-1 2.95 146.975 146.975 0 006.71-13.65c2.4-5.54 5.11-11 7.83-16.64.462-.964.833-1.968 1.11-3-.93 1.58-1.74 3.06-2.54 4.37l.02-.03zM243 408.08l.64-.63v-.17l-.64.8zm-.63 1.44c.266-.397.478-.827.63-1.28v-.16c-.17.52-.49.92-.65 1.44h.02zM215 384.07a46.015 46.015 0 004.31-11.29 74.526 74.526 0 00-4.31 11.29zm-.63 1.44c.294-.439.507-.926.63-1.44-.12.52-.44 1.07-.59 1.44h-.04zm-.65 1.43h.17l.35-1a6.38 6.38 0 01-.48 1h-.04zm-2.07 4.83c-2.72 7.23-5.27 14.41-7.83 21.76a45.184 45.184 0 00-2.72 9 28.694 28.694 0 002.4-5.88c1.43-4.34 3-8.9 4.63-13.28 1.76-4.91 3.52-9.67 5.28-14.57l.48-1.88a18.691 18.691 0 00-2.2 4.85h-.04zm-11.81 35.05a6.99 6.99 0 001.11-3.64 9.945 9.945 0 00-1.07 3.64h-.04zm114.85-131.94v.12c-1.13.28-1.92.16-2.09-.91 0-1-.15-1.73-.15-2.68a7.28 7.28 0 00-1.12-3.24 2.576 2.576 0 00-2.56-.8 3.935 3.935 0 01-1.28.48c-1.11.44-1.43.21-1.27-1a6.489 6.489 0 01.16-1.8 2.257 2.257 0 00-.32-1.51c-1.44-1.88-4.64-1.4-6.55.83l-1 1.52a11.994 11.994 0 01-6.22 4.91 12.627 12.627 0 00-5.27 3.39 24.883 24.883 0 00-4.32 5.7l-1.43 2.28a247.09 247.09 0 00-14.69 23.3l-1.91 2.87c-1.76 2.84-3.68 5.71-5.28 8.66-1.75 3.15-3.35 6.43-5.75 9.26-.47.76-1 1.68-1.91 1.92-.48.11-.65-.81-.48-2.44a.21.21 0 01.16-.2c1.43-5.94 1.43-11.7 2.71-17.44a3.896 3.896 0 00-.15-2.36 5.273 5.273 0 010-3.83c.15-.36.15-.84.31-1.36.17-4.36.32-8.7.17-13 0-1.28-.17-2.68-1.13-3.39a11.083 11.083 0 01-.79-2.2c-.65-2.87-1.12-5.8-4-7.16 0-.15-.15-.27-.32-.4a4.766 4.766 0 00-3.83-2.39 2.353 2.353 0 01-2.24-1.51c-.31-.88-1-1-1.74-1.32a5.739 5.739 0 00-5 1.07 12.089 12.089 0 00-3.19 3.35 49.043 49.043 0 01-5.59 7.47 8.899 8.899 0 00-1.28 1.91c-1.27 2.23-2.24 4.39-3.68 6.5a47.514 47.514 0 00-4.31 8.42c-1.76 4.27-3.5 8.54-5.42 12.86-1.707 3.687-3.2 7.47-4.47 11.33-.64 2.07-1.44 4.19-2.24 6.15-.33 1-.8 2-1.11 2.83-1.29 4.46-2.57 8.94-4.31 13.36-1.61 4.08-3 8.27-4.48 12.46-.8 2.28-1.76 4.75-2.39 7.15-1.28 5.26-3 10.49-4.63 15.84-1.44 4.2-2.72 8.5-3.83 12.77-.81 3.39-1.28 6.87-1.92 10.22a6.599 6.599 0 001.11 5.63c.64 1 1.76.84 2.72.92.63 0 .79-.67 1.11-1.07.32-.4.64-.33.64 0 .17.44.17 1.07.32 1.51.034.445.166.877.387 1.265.222.387.527.72.893.975 1.11.68 2.07.44 2.87-1a26.542 26.542 0 011.59-2.47c0-.17.33-.24.5-.28.17-.04.31.24.31.4 0 .63-.31 1.36-.31 2.16-.17.19 0 .63.15.75l.8-.19a6.383 6.383 0 002.07-3.08c.81-2.59 1.44-5 2.4-7.62 2.08-6.27 4.15-12.54 6.54-18.88 4.16-11.58 8.46-23 12.94-34.69.8-2.27 1.76-4.42 2.72-6.74a12.295 12.295 0 012.39-3.63c-.48 3.16-2.07 6.27-3.19 9.42a25.97 25.97 0 00-2.24 6.47 19.353 19.353 0 002.08-4.67 5.625 5.625 0 012.72-3.24 9.346 9.346 0 010 4.15l-.48 2.84c-.65 6.39-1.76 12.9-2.08 19.2.024.495-.03.991-.16 1.47-.65 2.89-.8 5.64-1.28 8.48-.8 4.82-.32 9.34-.8 14.08a6.01 6.01 0 001.28 4.47c1.28 1.45 2.08 1.41 4-.35.48-.44.79-.36 1 .08l.48 2.27a2.106 2.106 0 001 1.84c1.11 1.17 2.55.8 3.67-1.07a9.718 9.718 0 001.12-2c.32-.57.8-1 1.28-.81.48 0 .48.52.31 1l-.48 1.55a.903.903 0 00.17 1.09 1.137 1.137 0 001.28-.48 12.9 12.9 0 001.11-1.72c.436-.754.807-1.544 1.11-2.36.33-.55.48-1.23 1.13-1.07.48 0 .31.72.48 1.15l4.15-9.17c-.32.24-.65 1.11-1.28 1-.32-.25 0-.81 0-1.12l1.44-3.4c3.35-7.22 6.54-14.24 9.89-21.31 6.39-12.92 13.26-25.82 20.12-38.38 1.13-2 2.08-3.87 3.2-5.75.17-.36.48-1.08 1.12-1.08.64.16.16.76 0 1.28a4.974 4.974 0 01-.48.91c-.64 1.29-1.12 2.68-1.76 3.95l1-.87c1-.57 1.76-.13 1.59.72a14.84 14.84 0 01-.63 2.56 45.616 45.616 0 00-2.07 7.37c-1.61 7.75-2.41 15.45-4.48 23.16v.63a138.287 138.287 0 00-1.28 13.9c-.164 1.999.283 4 1.28 5.74a3.262 3.262 0 002.24 1.84 4.046 4.046 0 013 2 8.631 8.631 0 001.76 1.8 2.274 2.274 0 002.71 0c1-.56 1.76-.92 2.55-.33.81.29 1.44 0 2.24-.88a11.406 11.406 0 003-6c.79-5.32 1.75-10.66 3-15.93.16-.36.32-.88-.16-.92-1 1.36-1.12 2.84-1.6 4.23-.16.35-.31.4-.48.28a.114.114 0 01-.055.001.134.134 0 01-.05-.023.134.134 0 01-.034-.044.14.14 0 01-.011-.054 6.26 6.26 0 01.32-1.84c.79-3.39 1.44-6.74 2.39-10 1.76-7.16 3.83-14.38 5.75-21.56a18.14 18.14 0 01.8-2.75c2.07-5.63 4.15-11.41 6.22-17l2.87-7.75c.17-.36.33-1 .81-.84.48 0 .15.76 0 1.12-3 7.62-5.44 15.24-8 22.92-1.91 6.22-3.67 12.4-5.59 18.63-.8 2.91-1.59 5.66-2.23 8.54a5.024 5.024 0 00-.33 2.16l.17.11.33-.08c.126-.418.283-.826.47-1.22l3.67-13.23c1-3.42 1.75-7 2.88-10.45 2.39-6.82 4.94-13.69 7.18-20.47.32-1.36 1-2.48 1.28-3.67 1.26-3.47 2.68-7 3.17-10.55a18.65 18.65 0 001.43-4c.16-.69-.16-1.09-.8-1.09a21.156 21.156 0 011.28-4 6.982 6.982 0 00.79-2.43 18.933 18.933 0 011.28-5.76 8.828 8.828 0 00.42-4.64zm-111.15 108a88.033 88.033 0 01-3.51 9.82 2.07 2.07 0 010-1.92l2.87-7.9c0-.33.16-.52.33-.56.48-.1.31.26.31.59v-.03zm7.19-45.56l.16-.19v.16c0 .06-.11.11-.17.18.007-.04.01-.08.01-.12v-.03zm-.32.73a.883.883 0 01.31-.57 1.616 1.616 0 01-.16.69c0 .16-.15.2-.31.4a.707.707 0 01.16-.49v-.03zm1.11 22.95l-5.74 15.49c0 .15-.33.24-.48.44l-.16-.6c.48-1.24.79-2.6 1.28-4a144.752 144.752 0 015.59-14 17.299 17.299 0 01-.49 2.67zm9.26-50.53c.48-.27.17.59-.95 2.16.32-.78.32-1.56.95-2.21v.05zm-6.54 42.36c0 .15-.31.55-.31.71a1.783 1.783 0 01.15-.84.465.465 0 01.33-.39c-.17.14 0 .26-.17.47v.05zm2.39-5.71a25.853 25.853 0 012.41-8.75 6.539 6.539 0 012.07-2.75 107.684 107.684 0 01-4.48 11.45v.05zm6.87-18.49c.32-.55.32-1.19 1-1.51.44-.34-.04.43-1 1.46v.05zm-.41-23.17c0 .09 0 .2-.07.3l-.15.21v-.17c.07-.12.15-.24.22-.34a12.8 12.8 0 012.65-5.81 13.569 13.569 0 01-2.65 5.76v.05zm4.56-9.31l-.32.07c0-.15-.15-.11-.15-.28a5.823 5.823 0 011.28-1.92 12.03 12.03 0 00-.81 2.08v.05zm17.09 78.29l-.47 1.23-.17.21v-.17c.301-.433.518-.918.64-1.43a3.18 3.18 0 00.52-.91 6.75 6.75 0 01-.52 1.02v.05zm4.16-41.76l-.48.12-.17-.12c.17-.52.17-1 .32-1.51 0-.16.33-.4.48-.29l.33.4c-.189.439-.35.89-.48 1.35v.05zm3.35-22.39c0-.16.32-.24.32-.4l.31.4c-.15.36-.15.53-.31.88l-.17.2-.31-.24a1.38 1.38 0 01.16-.89v.05zm-1.13 8.9c0-.16.33-.39.49-.27.16 0 .16.27.16.44a6.794 6.794 0 01-1.28 3.19 5.003 5.003 0 01.63-3.41v.05zm1 23.49v.22h-.05a4.55 4.55 0 01-1.23 2 5.019 5.019 0 011.23-2 .691.691 0 00.05-.2.138.138 0 000-.07 4.64 4.64 0 011.22-2 6.21 6.21 0 01-1.2 2l-.02.05zm16.73-29.26a1.671 1.671 0 01-.18.44v-.33a.29.29 0 00.18-.11.91.91 0 01.15-.29.426.426 0 01-.13.24l-.02.05zm3.5-6.16c0 .09 0 .13-.16.3.041-.106.095-.207.16-.3v-.07l.07-.07-.07.14zm.8-1.06l-.48.59c0 .12-.09.17-.21.28.062-.099.132-.193.21-.28l.48-.91v.32zm14.2 64.79h-.15c-.48-.35 0-1.92.63-2.55 0 0 .17 0 .17.12.5.35.18 1.86-.63 2.38l-.02.05zm6.07-97.32h-.15l.51-.64a3.717 3.717 0 00-.34.59l-.02.05zm16.46 23.85c-.32.4-.48 1.07-1.13 1.07-.32.08-.32-.4-.15-.59.46-1.22.62-1.28 1.68-1.25l-.4.77zm2.12-17.66c-.16 0-.32.08-.32-.08.003-.02 0-.04-.009-.058a.104.104 0 00-.038-.045.107.107 0 00-.055-.019.117.117 0 00-.058.012 3.624 3.624 0 011-2c.15-.19.15-.19.32-.23l.16.11a4.579 4.579 0 01-1 2.31zm-73.8 118.83l-.17.36c.17-.05.17-.19.17-.36zM418.48 207c1.12-1.55 1-2.15-.16-2.83l-1.12-.2c-.15-.11 0-.16-.15-.44.31-.88.31-.88-.33-.55l-2.71.67-.33-.24c0-.32.17-.35.33-.56a19.829 19.829 0 012.71-1 .996.996 0 00.16-1.32 16.874 16.874 0 00-2.07-.75 4.61 4.61 0 00-3.35.35c-.557.375-1.095.779-1.61 1.21a28.177 28.177 0 00-5.42 4.86c-2.71 2.59-4.95 5.71-7.67 8.29l-.32.4c-2.87 3.6-5.75 6.87-8.46 10.26a15.728 15.728 0 01-1.12 1.56c-1.12 1.55-2.23 2.95-3.19 4.46-2.24 3-4.15 5.83-6.07 8.71a15.004 15.004 0 00-2.39 6.5 39.954 39.954 0 01-.16 6.11c-.17.67.31 1 1.11 1a4.512 4.512 0 012.24.55c-.32.4-1.28.65-1.12 1.25.17.75 1.12 0 1.6-.08.31-.08.48-.29.79-.36a6.774 6.774 0 004-3.39 56.62 56.62 0 013.19-5 16.688 16.688 0 011.92-2.71 57.461 57.461 0 016.07-7.11c.264-.485.583-.938.95-1.35a17.543 17.543 0 013-3.16 7.891 7.891 0 001.75-2c.17-.84 1-1.36 1.61-1.84a7.552 7.552 0 001.43-1 .999.999 0 00.64-1.11 1.58 1.58 0 01.8-1.47 45.058 45.058 0 004.31-4.6c2.39-2.35 4.63-5 7-7.5a.67.67 0 00.17-.35c0-.32-.32-.25-.65-.17-.15-.11-.63.16-.79 0 0-.48.48-.59.79-.67.364-.223.742-.423 1.13-.6a2.002 2.002 0 001.59-1.83 2.222 2.222 0 01-.284-.983 2.22 2.22 0 01.184-1.007zm-39 46.77c.32-.4.63-.8 1.12-.76.4-.01-.13.39-1.08.79l-.04-.03zm12.29-15.52c0 .15-.31.4-.48.44v-.48c0-.16.17-.36.48-.29v.33zm9.91-11.41c0 .15-.17.19-.33.24 0-.17-.15-.13 0-.32l.33-.08v.16zm9.42-10.17l-.16.19a.933.933 0 01-.17-.44c.33-.4.48-.75 1-.88l.32.25c-.086.21-.215.399-.379.555a1.615 1.615 0 01-.571.355l-.04-.03zm1.11-11.14c.17 0 .32-.25.48-.12-.12.07-.44.3-.44.15l-.04-.03zm2.08-1l-.19.05c.1 0 .19-.09.19-.2l.16.11c.2-.01.04.19-.12.07l-.04-.03zm-46.86 67.79l.23-.11v-.17a2.89 2.89 0 01-.19.31l-.04-.03zm-1.68 1.48a7.146 7.146 0 001.68-1.48 7.816 7.816 0 00-1.64 1.51l-.04-.03zm-1 1.32a1.72 1.72 0 01.52-.56l.48-.76-.65.8a3.626 3.626 0 00-.31.55l-.04-.03zm-.75.88c-.32.39-.48.59-.63.79.24-.238.452-.503.63-.79zm-.63.79l-.65.8c.26-.225.489-.484.68-.77l-.03-.03zm-2.41 3l-.63.79.67-.58c.138-.322.363-.599.65-.8l.47-.75-.64.79-.52.55zm29.55 31.27l-.48-11.54a23.065 23.065 0 00-1.44-7.47c-.95-2.14-2.23-4.07-3.36-6.18a7.047 7.047 0 00-4.14-3.75c-1.6-.4-2.24-1.68-2.24-3.44a5.811 5.811 0 01.31-1.52l-.79.2a.522.522 0 01-.17-.75L380 274c.48-.76 1-1.36 1.44-2.28.32-.56 0-1.11-.79-.92a5.081 5.081 0 00-1.45.36 7.326 7.326 0 011.28-3 1.869 1.869 0 000-2.22 2.001 2.001 0 00-2.55-.8l-1.43.84c-.65.31-1.44 1.15-2.24.71a18.832 18.832 0 001.59-1.68c.32-.24.17-.35-.15-.44-.48.28-1.12.61-1.61.88l-1.43.84c-.31.08-.64.15-.79 0-.33-.24 0-.64.31-.88l2.88-2.15c1.11-.76 1.27-1.76.48-2.35a5.903 5.903 0 00-6.56.34 59.29 59.29 0 00-5.74 4.47c-2.55 2.39-4.63 5-6.87 7.31a60.886 60.886 0 00-3.83 4.78c-3.2 4.16-5.59 8.58-8.46 12.81a23.413 23.413 0 00-3 6c-.277.741-.612 1.46-1 2.15l-6.22 10.82c-.64 1.28-1.12 2.35-1.6 3.59a86.823 86.823 0 01-3.51 8.39 56.369 56.369 0 00-4.31 9.69 61.008 61.008 0 01-3.35 8.34 21.499 21.499 0 00-1.13 2.68 63.656 63.656 0 01-3.19 7.33 10.183 10.183 0 01-3.67 4.75l-3.67 2.36a26.892 26.892 0 00-3.2 2.39c-1.76 1.88-3.51 3.75-5.27 5.46a6.38 6.38 0 00-1.92 5.91c0 .48.48.52 1 .25a5.08 5.08 0 001-.88l5.75-4.79c1.12-.92 2.24-1.68 3.35-2.43.16-.21.64-.17.64.16.17.11-.16.68-.31.87a9.134 9.134 0 01-1.44 1.16c-1.76 1.39-3.52 2.79-5.11 4.15a11.088 11.088 0 00-2.88 3.12 25.199 25.199 0 004.32-3.16c1.11-.92 2.07-2.43 3.67-2.51-.17 1.8-2.08 2.11-3 3.14-.398.408-.826.785-1.28 1.13l-3 2.83a2.792 2.792 0 00-.64 2.71 2.003 2.003 0 001.89 1.07l1.43-.36c1-.4 1.12-.11.81.77a6.258 6.258 0 00-.48 2.35c.31 1.36-.17 2.91-.48 4.42-.48 1.25-.8 2.45-1.13 3.64a11.371 11.371 0 000 6.07c.81 1.87 1.92 3 4.48 2.08.63-.32 1-.08 1.11.52.11.6.17 1.07.17 1.72.31 1.84 1.44 2.66 3 3.23a1.4 1.4 0 001.6-.55c.244-.24.459-.509.64-.8 1-1 1.11-1.08 1.76-.12.15.12.15.12.15.27.8 1.24 1.44 1.24 2.56-.15.64-.64 1.27-1.6 2.23-1.84a2.058 2.058 0 001.76-1.88 45.453 45.453 0 012.39-7.14c1.28-3.2 2.56-6.38 3.83-9.42l6.24-14.8a6.98 6.98 0 01.8-1.47 24.332 24.332 0 014.63-5.48c.48-.44.79 0 1 .4l10.05-4.9a15.177 15.177 0 012.39-1.07.725.725 0 01.711-.067.714.714 0 01.419.577v2.07a23.58 23.58 0 01-.8 3.41c-.64 2.71-1 5.5-2.07 8.17-1.93 4.48-2.56 9.11-4.16 13.65a6.28 6.28 0 00.64 5.11c.48.69 1.28.65 2.07 0l1.45-1.47a.529.529 0 01.48 0c.15 0 .15.28.15.44-.32.88-.63 1.76-1 2.95 1-1 1.6-1.67 2.07-2.27l.33-.07c.15.11.32.23.32.38l-.65 1.76c-.63 1.92-.31 3.12 1 3.92 1.31.8 2.39.37 3.52-1 .463-.503.891-1.038 1.28-1.6.79-1.16 1.75-2.36 2.71-3.55.32-.4.8-1 1.28-.65.32.25 0 .81-.31 1.21l-2.38 4.39c-.31.57-.63 1.28 0 1.61.63.33 1-.08 1.44-.52a9.064 9.064 0 001.6-1.68c.8-1.32 1.59-2.47 2.24-3.76 2.426-4.664 4.505-9.5 6.22-14.47 2.24-6 4.31-12.27 6.39-18.21 0-.16.31-.24.64-.48a20.325 20.325 0 01-1.76 6.51 138.61 138.61 0 00-4.47 13.25 20.355 20.355 0 01-1.12 3.16c-1.44 3.54-3 7-4.47 10.37a24.919 24.919 0 00-1.12 2.84 15.25 15.25 0 002.24-3.44 100.026 100.026 0 005.59-13.52c.32-1.36.95-2.8 1.43-4.2a117.008 117.008 0 004.8-14.93 10.68 10.68 0 01.79-2.27 88.103 88.103 0 003.2-10.53l3.36-11.54c1.12-4.43 2.56-9.1 2.08-13.46.037-.466.142-.924.31-1.36-.02-.79.15-1.63.15-2.43l-.03-.03zm-76.18 67.38a.2.2 0 01-.15.19c0-.15-.16-.11 0-.31 0-.17.15-.2.32-.08a.21.21 0 01-.14.23l-.03-.03zm52.7-82.13a.891.891 0 01.32-.23c.16 0 .32.08.16.44-.16 0-.31.23-.48.27v-.48zm-21.23 8.5v.19l-.65 1.28c.195-.494.422-.975.68-1.44l-.03-.03zm-13.42 28.89c-.16.67 0 1.11-.48 1.72-.45-.5.35-1.02.51-1.69l-.03-.03zm1.59 32c-.48 1.4-1 2.63-1.43 3.71l-7.66 18c-1 2.15-1.6 4.23-2.4 6.34-.17.21-.32.72-.64.48-.16 0-.16-.44-.16-.75l1-3.44c1.76-5.06 4-9.94 6.07-14.92l3.83-8.94a2.34 2.34 0 01.95-1.36c.17-.21.33-.08.48 0-.01.45.16.72-.01.93l-.03-.05zm1.93-39c-.199.23-.361.49-.48.77-.187.49-.404.967-.65 1.43l-.48 1.23.48-1.4c.17-.35.48-.91.65-1.26 0-.33.16-.52.16-.84 0-.32.15-.37.32-.41v.48zm3.35-8c-.65.48.16-1.47 1.59-3.43-.28 1.25-.45 2.57-1.56 3.49l-.03-.06zm12.14 31.31a81.44 81.44 0 01-10.07 5.38c-.48 0-.79 0-.79-.44a.692.692 0 01.16-.51c.47-.29.95-.88 1.43-1 2.87-1.36 5.91-2.76 8.79-3.95.31-.24.63-.32.79.12a.483.483 0 01-.28.46l-.03-.06zm17.24-50.29a12.33 12.33 0 00-.32 1.67c-1.11 4.27-2.07 8.51-3.2 12.78-.15 1.15-.48 2.36-.63 3.35a42.343 42.343 0 01-2.48 11.4 35.87 35.87 0 01-1.12 3.94c-.63 2.09-1.28 2.72-3 2.68a17.95 17.95 0 00-5.76.64l-1.76.11c-.48-.19-.79-.44-.63-1.11.035-.282.085-.563.15-.84 2.08-4.52 3.68-9.06 6.39-13.41a9.144 9.144 0 001.44-2.92c1.12-2.35 2.24-4.71 3.52-6.93 1.11-2.05 2.24-4.23 3.19-6.24.16-.35.31-.87.16-.83-.48-.36-.65.16-1 .56a34.229 34.229 0 00-2.24 3.91c-1.59 3.11-3 6.35-4.63 9.62a29.372 29.372 0 01-2.24 4.22 51.468 51.468 0 00-4.15 8.38c-.63 1.61-1.44 3.24-2.23 4.88a3.21 3.21 0 01-1.12 1.23c-.16 0-.32-.08-.48 0-.16.08-.15-.12-.15-.28.15-.35.15-.83.31-1.19 2.88-5.67 5.11-11.66 8.62-17.48 2.24-3.76 4.16-7.75 6.07-11.58.64-1.11 1.28-2.4 2.09-3.55a3.468 3.468 0 012.54-1.91c1-.08 1-1 1.44-1.64.32-.39.48-.6.8-.52.192.203.354.432.48.68l-.06.38zm11.81 49.27c-.15.21-.48.44-.48.28-.15 0-.32-.24-.32-.4.8-2.28 1.76-4.75 2.56-7.18a1.19 1.19 0 01.48-.44.26.26 0 01.287.124c.019.033.03.069.033.106a26.08 26.08 0 01-2.53 7.57l-.03-.06zm6.56-22.82c.038.293-.018.591-.16.85-.05.211-.161.402-.32.55v-.48l.48-.92c.17-.51.17-1.3.65-1.74.48-.44.17.57-.65 1.74zM457.92 356.73a7.353 7.353 0 00.64-1.92c-.16.53-.47 1.24-.64 1.92zm-2.4 10.17c1-3.43 2.09-6.74 2.4-10.17a26.385 26.385 0 00-2.4 10.17zM452 258.39v.61c.12-.18.224-.371.31-.57V258c-.14.2-.31.24-.31.39zm-.65 2.57a4.442 4.442 0 00.48-1.57c-.29.61-.94 1.05-.46 1.61l-.02-.04zM494 250.32c0-.63-.8-.76-1.28-.15-.48.27-.63 1-1.28 1.11.033-.888.144-1.771.33-2.64a9.325 9.325 0 00-.48-4.19c-.33-.88-.81-1.88-1.76-1.8-1.12-.19-2.07-1.23-3.68 0-.15.21-.63.32-.63 0a.722.722 0 010-.8 1.666 1.666 0 00.367-2.111 1.668 1.668 0 00-.527-.559c-1.76-1.16-3.67-.68-5.43 1.35-1 1-1.76 2.35-2.72 3.39a32.735 32.735 0 00-5.74 8.78c-1.76 3.64-3.52 7.26-5.59 10.82a23.488 23.488 0 00-1.28 2.72c-.8 1.78-1.44 3.54-2.24 5.18a39.299 39.299 0 00-2.22 6.78 23.99 23.99 0 01-1.13 3.47c-.63 1.76-1.44 3.4-2.07 5.15a5.75 5.75 0 01-3.67 3.79 79.183 79.183 0 01-11.51 3.2c-1.43.19-1.91-.5-1.43-2a57.035 57.035 0 013.19-8.3l1.92-4.62c1.43-3.72 2.72-7.55 4.15-11.43.16-.35.16-.82.32-1.19a.44.44 0 00-.16-.28.736.736 0 00-.48.28c-.33.08-.48.44-.8.68.32-.88.32-1.67.64-2.4 1.44-3.39 2.4-6.66 4.16-10 .51-.913.73-1.959.63-3-.16-.6-1-.71-1.44-.12a18.186 18.186 0 00-2.07 2.6 31.184 31.184 0 001.44-6.11c.16-2.6-.8-3.8-3.36-4.28l-1-.23c-1.11-.53-1.27-.32-1.92.63l-.79 1.48a.752.752 0 01-.8.52c-.15 0-.15-.29-.32-.41a3.787 3.787 0 011.28-3.19l.63-.79c.48-.76.33-1.51-.47-1.64-1-.24-1.92-.16-2.88-.4-1.28-.48-2.07 0-3.19 1.43-.64.8-1.27 1.92-2.07 2.76a27.11 27.11 0 00-4.63 6.58 26.293 26.293 0 01-3.52 5.19 22.634 22.634 0 00-2.4 3.62c-1.43 2.6-2.55 5.44-4.15 8.06a81.446 81.446 0 00-6.38 15.66l-5.76 16.44a7.324 7.324 0 01-3.67 4.27c-1.75.92-3.35 2-5.11 3-1.11.76-2.39 1.72-3.51 2.62a3.282 3.282 0 00-1.12 3 7.823 7.823 0 001.76 3.08.918.918 0 00.95.23c.48-.12 1-.4 1.44-.52 1.28-.48 1.61-.23 1.13 1-.17.36-.65.95-.48 1.24.48 1.47-.17 3.39.48 5a8.193 8.193 0 01.31 3.43 18.096 18.096 0 01-1.12 5.71c-1.43 4.19-2.07 8.66-3.67 13.05a14.833 14.833 0 00-.63 3.68 43.798 43.798 0 01-1.28 6.22c-1.12 3.63-1.44 7.39-2.72 10.89a9.324 9.324 0 00-.31 1.84 6.44 6.44 0 002.39 6.75c.16.12.64.16.79 0 1-1.36 1.76-1.07 2.41-.11.184-.049.351-.15.48-.29.47-.27.78-.19.95.08l.48 2a2.707 2.707 0 001.59 1.83c1 .56 2.09.12 2.88-1a16.018 16.018 0 001.6-2.64.994.994 0 011-.71c.48 0 .48.35.31.86a11.185 11.185 0 01-.31 2.17.628.628 0 00.48.67l.79-.2a6.18 6.18 0 001.75-2.51 45.435 45.435 0 002.72-8c1.11-4.27 2.24-8.55 3.52-12.86 2.39-8.25 5.11-16.44 7.66-24.58.48-1.24.8-2.43 1.28-3.67.229-.511.493-1.005.79-1.48.183-.164.408-.274.65-.32.15 0 .32.24.32.4-.17.36-.17.84-.32 1.2-1.13 2.84-1.92 5.75-2.88 8.7-3.19 10.37-6.54 20.63-9.43 30.93-.63 2.39-1.27 4.79-1.74 7.14-.17.21.15.29.15.44l.48-.42a54.346 54.346 0 011.6-5.36c1.27-4.46 2.4-8.9 3.83-13.4 1.28-4.64 2.88-9.19 4.31-13.71l3.84-12a34.186 34.186 0 011.76-3.94 4.63 4.63 0 012.24-2.47c.79-.21 1.44-.52 2.24-.73 2.55-1 5.11-1.75 7.81-2.59 1.44-.36 2.89-.88 4.16-1.19 1.28-.16 1.91.31 1.91 1.59a6.781 6.781 0 01-.79 3.39 36.89 36.89 0 00-1.44 4.36 33.702 33.702 0 01-.8 3.39 62.21 62.21 0 00-1.6 7.11c-.302 2.501-1 4.939-2.07 7.22a20.393 20.393 0 00-1.28 4.32c-.64 2.7-1.27 5.42-1.75 8.1a35.765 35.765 0 00-.8 7.22 5.986 5.986 0 00.268 2.359c.245.761.64 1.465 1.162 2.071.81.92.81 1.08 2.24-.23.48-.28.79-.36 1 .08.21.44.16 1.39.48 1.32.79 0 .63-1 1-1.52l.48-.76c.125.938.175 1.884.15 2.83a3.998 3.998 0 002.08 3.16c1.12.84 2.23.23 3-1.24.368-.93.796-1.835 1.28-2.71a.996.996 0 011-.72c.48 0 .63.48.48 1l-.48 2.2c-.16.51-.32 1 .32 1 .288-.132.554-.307.79-.52a8.75 8.75 0 002.08-3.39c.48-1.55.79-3.08 1.28-4.63 1.12-4.42 2.23-9 3.67-13.53 3.36-10.26 6.87-20.56 10.22-30.65 1.12-3.31 2.39-6.51 3.67-9.7.48-1.23 1-1.84 1.28-1.6.33.56 0 1.12-.15 1.8l-1 2.8c-4.48 12.29-8.63 24.5-12.61 37a20.908 20.908 0 00-1.29 5.58 100.091 100.091 0 003.83-10.54c1.29-4.15 2.55-8.3 4-12.49 1.44-3.55 2.55-7.18 4-10.9 1.43-4.19 3-8.42 4.47-12.61a14.3 14.3 0 012.4-4.1c1.11-.92 2.39-2.05 1.43-3.4-.15-.28.16-.83.33-1.2.407-1.062.725-2.155.95-3.27a9.496 9.496 0 01.79-2.75c1.13-3 2.41-5.86 3.68-8.91.64-1.59 1.43-3.23 2.08-4.82 1.44-4 2.87-8.06 4.15-12.06a67.086 67.086 0 003.19-12c.187-1.797.217-3.608.09-5.41zm-92.44 110.54c-.005.06-.005.12 0 .18l-.16.2v-.16a.203.203 0 00.113-.067.206.206 0 00.047-.123.575.575 0 01.16-.34c0 .12 0 .13-.16.31zm2.39-9.52c.111-.472.251-.936.42-1.39-.18.52-.3 1.05-.37 1.39h-.05zm9.58-.95a1.17 1.17 0 00-.32.56c0-.16-.16-.44 0-.48l.47-.92a2.101 2.101 0 00-.15.84zm2.39-7.46c-.15.19-.31.08-.31.23-.17-.11-.17-.11-.17-.27a1.397 1.397 0 010-.8 8.84 8.84 0 011.28-2.55l.16-.05c.32.4-.31 2.64-.96 3.44zm5-16.56c-.16.35-.48.59-.48.9v-.78a1.368 1.368 0 01.48-1.25c.28-.24.28.4-.04 1.13h.04zm7.18-50.51a92.804 92.804 0 01-4.54 11.23c0 .21-.07.43-.09.63l-.16-.13a4.96 4.96 0 00.25-.5 28.197 28.197 0 014.71-12.23c-.21.37-.04.65-.21 1h.04zm19.64-7.61a6.885 6.885 0 01-1.89 4 6.51 6.51 0 011.85-4h.04zM441 249.8a3.395 3.395 0 01-.64.81l.64-.81zm-11.18 21.64l-.33.07v-.15a4.187 4.187 0 011.13-1.88 4.824 4.824 0 01-.8 1.96zm3-6.51a.587.587 0 00-.31.24.477.477 0 000 .16 5.335 5.335 0 00-.47 1l.32-.94c.05-.072.107-.138.17-.2a.604.604 0 01.14-.36c0-.32.17-.36.32-.23.15.13-.13.17-.13.33h-.04zm2.07-4.5c-.16.51-.48.91-.64 1.43.147-.504.362-.985.64-1.43.32-.73.8-1.32 1.11-2.05a20.245 20.245 0 01-1.07 2.05h-.04zm2.56 33.21c-.18.169-.407.28-.65.32-.15-.12-.32-.25-.32-.4.17-.52.17-.84.32-1.2 2.4-5.23 4.16-10.46 6.72-15.57.55-1 1-1.82 1.54-2.66a14.328 14.328 0 01-1.06 4L439.24 290a14.274 14.274 0 01-1.75 3.64h-.04zm6.7 65.87c-.15.37-.32.41-.48.44v-.32a1.078 1.078 0 01.48-1.07l.16.11a6.99 6.99 0 01-.12.84h-.04zM468 311.75c-1.43 4.66-2.71 9.29-4.63 13.92-2.72 6.75-4.47 13.73-6.7 20.52a12.783 12.783 0 01-1.92 4.31c-.047-1.594.222-3.18.79-4.67 2.72-8.18 5.28-16.33 7.83-24.47 1.11-3.31 2.4-6.51 3.52-9.66.223-.409.488-.795.79-1.15 0-.16.32-.25.48-.29.17.13.17.29.17.61a3.78 3.78 0 01-.33.88zm3.68-40.21a.686.686 0 01-.17.36c0-.15-.16-.27 0-.48.2-.224.365-.477.49-.75l-.32.87zm2.24-5c-.65-1.13.47-1.88.79-2.6.29.86-.34 1.66-.81 2.58l.02.02zM484.6 245c.183-.142.354-.299.51-.47a3.178 3.178 0 00-.36.59c-.194.14-.369.305-.52.49.148-.187.272-.392.37-.61zm-.48.77a3.43 3.43 0 01-.65.79c.174-.295.394-.562.65-.79zm2.22 31.06l-8.14 19.59a1.775 1.775 0 01-.8 1c0-.15-.31-.23-.31-.4.64-1.74 1-3.43 1.59-5.18 1.28-3.36 2.72-6.75 4.31-10 .8-1.63 1.28-3 2.08-4.67l1-2a.757.757 0 01.31-.25c.17.13.33.25.33.4a5.277 5.277 0 01-.37 1.51zm1.92-7.19a5.572 5.572 0 011-2.63c0-.17.15-.21.31-.09l.17.13a5.885 5.885 0 01-1.48 2.59zm3.19-8c-.15.21-.31-.07-.31-.23a1.073 1.073 0 01.79-1.16c0-.16.17.13.32.24-.15.51-.32 1.05-.8 1.16v-.01zM541.86 228.86l.22-.11v-.15c-.08.09-.14.18-.22.26zm-1.7 1.5a7.014 7.014 0 001.7-1.5 7.462 7.462 0 00-1.7 1.5zm-1 1.31c.128-.221.302-.412.51-.56l.48-.75-.63.79a2.371 2.371 0 00-.35.52h-.01zm-.77.87c-.32.41-.48.6-.63.81.251-.238.467-.51.64-.81h-.01zm-.63.81l-.65.79a3.45 3.45 0 00.66-.79h-.01zm-2.39 3l-.65.8.65-.65c.124-.322.344-.598.63-.79l.48-.76-.64.8c-.15.18-.31.39-.46.59l-.01.01zm29.53 31.28l-.48-11.54a22.496 22.496 0 00-1.43-7.47c-1-2.16-2.24-4.07-3.35-6.19a7.14 7.14 0 00-4.16-3.76c-1.6-.4-2.23-1.68-2.23-3.42a5.144 5.144 0 01.32-1.53l-.8.21a.513.513 0 01-.261-.347.506.506 0 01.101-.423l1.75-2.68c.518-.726.996-1.481 1.43-2.26.33-.56 0-1.12-.79-.92a5.042 5.042 0 00-1.43.35 6.997 6.997 0 011.27-3 1.88 1.88 0 000-2.23 1.998 1.998 0 00-2.55-.81l-1.44.84c-.64.33-1.43 1.16-2.24.72a22.13 22.13 0 001.6-1.67c.32-.25.16-.36-.16-.44-.48.28-1.11.59-1.59.88l-1.44.84c-.32.08-.64.15-.8 0-.32-.25 0-.65.32-.88l2.88-2.16c1.11-.75 1.26-1.75.47-2.36a5.89 5.89 0 00-6.54.36 55.427 55.427 0 00-5.76 4.47c-2.55 2.39-4.63 5-6.86 7.29-1.43 1.48-2.56 3.2-3.84 4.79-3.18 4.15-5.59 8.58-8.46 12.81a23.99 23.99 0 00-3 6 17.152 17.152 0 01-.95 2.16l-6.24 10.82a40.96 40.96 0 00-1.59 3.58 84.455 84.455 0 01-3.52 8.38 59.63 59.63 0 00-4.31 9.71 58.622 58.622 0 01-3.35 8.33c-.437.864-.808 1.76-1.11 2.68a67.566 67.566 0 01-3.2 7.34 10.37 10.37 0 01-3.67 4.75l-3.68 2.36a28.362 28.362 0 00-3.19 2.38c-1.76 1.87-3.51 3.75-5.27 5.47a6.326 6.326 0 00-1.91 5.91c0 .48.48.52.95.24a4.823 4.823 0 001-.88l5.75-4.79c1.12-.92 2.23-1.67 3.35-2.43.17-.2.64-.16.64.16.16.12-.16.68-.32.87a9.87 9.87 0 01-1.44 1.17c-1.75 1.39-3.51 2.79-5.11 4.14a11.274 11.274 0 00-2.87 3.11 24.122 24.122 0 004.31-3.15c1.11-.91 2.07-2.44 3.67-2.51-.15 1.8-2.08 2.12-3 3.15-.423.422-.881.806-1.37 1.15l-3 2.8a2.821 2.821 0 00-.64 2.72 2.004 2.004 0 002.07 1.07l1.44-.35c1-.4 1.12-.11.8.75a6.563 6.563 0 00-.48 2.36c.33 1.35-.15 2.92-.48 4.43a31.429 31.429 0 00-1.11 3.64 11.062 11.062 0 000 6.07c.79 1.87 1.92 3 4.46 2.07.65-.31 1-.08 1.13.53 0 .48.15 1.07.15 1.71a3.996 3.996 0 003 3.23 1.4 1.4 0 001.61-.56c.248-.231.46-.497.63-.79 1-1 1.13-1.08 1.76-.12.15.12.15.12.15.28.81 1.24 1.44 1.24 2.57-.16.63-.64 1.28-1.6 2.23-1.83a2.065 2.065 0 001.71-1.85 44.453 44.453 0 012.41-7.14c1.27-3.2 2.55-6.39 3.83-9.42l6.22-14.81a7.72 7.72 0 01.8-1.48 24.429 24.429 0 014.63-5.46c.48-.44.79 0 1 .4l10.05-4.9a17.998 17.998 0 012.4-1.09.718.718 0 011.12.52v2.08a20.772 20.772 0 01-.8 3.39c-.63 2.72-1 5.52-2.07 8.19-1.91 4.47-2.56 9.1-4.15 13.65a6.276 6.276 0 00.63 5.11c.48.68 1.28.64 2.08 0l1.44-1.47a.491.491 0 01.48 0c.15 0 .15.27.15.44-.32.88-.63 1.74-1 3 1-1 1.59-1.68 2.07-2.28l.32-.08c.17.12.32.25.32.4l-.64 1.76c-.64 1.92-.31 3.11 1 3.91 1.11.69 2.39.36 3.5-1 .468-.499.896-1.034 1.28-1.6.81-1.16 1.76-2.35 2.72-3.55.31-.4.79-1 1.27-.64.32.24 0 .81-.31 1.21l-2.39 4.42c-.33.56-.65 1.28 0 1.59.47.21 1-.08 1.43-.52a8.9 8.9 0 001.59-1.66c.8-1.32 1.61-2.48 2.24-3.76a106.358 106.358 0 006.22-14.49c2.24-6 4.31-12.25 6.4-18.2 0-.15.32-.23.63-.48a19.967 19.967 0 01-1.75 6.51 137.319 137.319 0 00-4.47 13.25 20.204 20.204 0 01-1.12 3.15c-1.45 3.56-3 7-4.47 10.38-.436.917-.81 1.863-1.12 2.83a14.888 14.888 0 002.23-3.42 100.332 100.332 0 005.59-13.54c.32-1.36 1-2.79 1.44-4.19a116.573 116.573 0 004.8-15.01c.177-.781.442-1.539.79-2.26a82.77 82.77 0 003.2-10.55l3.36-11.53c1.12-4.43 2.55-9.1 2.07-13.45.033-.469.145-.928.33-1.36.01-.8.16-1.64.16-2.43l-.01.01zM488.75 335a.217.217 0 01-.052.128.224.224 0 01-.118.072c0-.15-.16-.11 0-.32 0-.16.17-.2.32-.08a.209.209 0 01-.15.2zm52.69-82.12a.779.779 0 01.31-.25c.17 0 .33.09.17.44-.17 0-.32.25-.48.29v-.48zm-21.24 8.49v.15l-.63 1.28c.172-.496.383-.977.63-1.44v.01zm-13.42 28.89c-.15.68 0 1.12-.48 1.72-.47-.53.33-1.05.48-1.73v.01zm1.61 32c-.48 1.39-1 2.64-1.44 3.71l-7.67 18c-1 2.16-1.59 4.23-2.39 6.35-.16.19-.33.71-.64.48-.17 0-.17-.44-.17-.77l1-3.43c1.76-5.07 4-9.93 6.07-14.93l3.84-8.94a2.401 2.401 0 011-1.35c.15-.2.31-.08.48 0-.08.41.07.69-.08.89v-.01zm1.91-39a2.985 2.985 0 00-.48.75c-.183.493-.397.974-.64 1.44l-.48 1.24.48-1.4c.16-.36.48-.92.64-1.28 0-.31.16-.51.16-.84 0-.33.15-.35.32-.39v.48zm3.35-8c-.63.48.16-1.49 1.59-3.44-.31 1.23-.47 2.55-1.59 3.47v-.03zm12.14 31.3a82.178 82.178 0 01-10.07 5.44c-.48 0-.79 0-.79-.44a.729.729 0 01.16-.52c.48-.27 1-.87 1.44-1 2.87-1.36 5.91-2.75 8.78-3.95.32-.23.63-.31.8.13a.483.483 0 01-.32.37v-.03zM543 256.3c-.15.36-.15 1-.32 1.68-1.11 4.27-2.07 8.5-3.18 12.77-.17 1.16-.49 2.35-.65 3.35a42.601 42.601 0 01-2.55 11.35 40.1 40.1 0 01-1.12 3.94c-.64 2.07-1.28 2.72-3 2.68a17.747 17.747 0 00-5.76.63l-1.74.12c-.48-.21-.81-.44-.65-1.12.041-.28.097-.557.17-.83 2.07-4.52 3.66-9.07 6.38-13.42a8.791 8.791 0 001.43-2.91c1.13-2.35 2.24-4.71 3.52-7 1.11-2 2.24-4.23 3.2-6.22.15-.36.31-.88.15-.84-.48-.36-.63.17-1 .56a33.307 33.307 0 00-2.23 3.92c-1.6 3.1-3 6.34-4.64 9.61a30.417 30.417 0 01-2.22 4.23 48.04 48.04 0 00-4.15 8.38c-.65 1.59-1.44 3.24-2.24 4.87a3.342 3.342 0 01-1.13 1.24c-.15 0-.31-.08-.48 0-.17.08-.15-.13-.15-.28.15-.37.15-.85.32-1.21 2.87-5.66 5.11-11.64 8.62-17.48 2.24-3.75 4.15-7.73 6.07-11.56.64-1.13 1.28-2.4 2.08-3.56a3.514 3.514 0 012.55-1.92c1-.07 1-1 1.43-1.63.33-.4.48-.59.81-.51.194.195.353.421.47.67l.01.49zm11.82 49.28c-.16.19-.48.44-.48.27-.16 0-.31-.23-.31-.4.79-2.27 1.74-4.75 2.55-7.18.16-.2.32-.4.48-.44a.254.254 0 01.216.045.255.255 0 01.104.195 26.638 26.638 0 01-2.53 7.51h-.03zm6.54-22.88c.034.292-.018.587-.15.85 0 .15-.16.34-.33.55v-.48l.48-.92c.17-.51.17-1.32.65-1.76.48-.44.19.6-.62 1.76h-.03zM648 150.15l.32-.56c-.159.151-.27.346-.32.56zm-.48.43c.15-.2.32-.24.48-.43-.21.03-.38.23-.53.43h.05zm-1.76 2.36l.32-.56c-.2.2-.37.39-.37.56h.05zm-.48.44l.48-.44c-.21.06-.36.23-.53.44h.05zm-4.94 5.71l.48-.44c-.22.03-.38.23-.53.44h.05zm-3.52 3.9l-1.44 1.8c.753-.5 1.36-1.19 1.76-2a.633.633 0 01-.37.21l.05-.01zm-2.4 3h.16l.32-.55-.48.55zm-2.54 2.87c1.082-.784 2-1.773 2.7-2.91a7.841 7.841 0 00-2.75 2.9l.05.01zm-1.93 1.76c.32-.08.32-.24.48-.44-.21.03-.36.23-.53.43l.05.01zm-12.82-18.22c0 .15-.16.2-.33.4.17 0 .17.11.17 0 .16 0 .16 0 .31-.25a.105.105 0 00.013-.069.108.108 0 00-.031-.063.116.116 0 00-.063-.032.11.11 0 00-.069.014zm44.56-7.6a4.427 4.427 0 01-.65-1.59c-.16-1.4-1-1.53-2.24-.72a14.657 14.657 0 00-3 3 25.223 25.223 0 01-3 3.8 6.291 6.291 0 01-2.22 1.51 40.727 40.727 0 015.26-6.74l1.44-1.48c.15-.19.32-.55 0-.63l-.48.12c-.63.47-1.28 1.11-1.76 1.55-1.59 1.84-3.35 3.56-4.94 5.38-4 5-8.15 9.86-12.14 14.85l-5.11 5.58a7.845 7.845 0 01-2.08 1.8c-.63.32-.8 0-.8-.6a1.808 1.808 0 01-1.506.088 1.808 1.808 0 01-1.044-1.088 12.633 12.633 0 01-1.59-4.25c-.33-3.75-2.09-6.82-3.37-10.18-.63-2.07-2.22-2.15-4.3-1.48l-2.24 1c-1 .56-1.11.76-1.11 1.88.233 1.387.39 2.785.47 4.19a24.84 24.84 0 003.35 11.94 38.431 38.431 0 008.63 10.94 10.852 10.852 0 003.51 2 6.012 6.012 0 003.35.28 5.09 5.09 0 003.52-2c.63-.8 1.44-1.63 2.24-2.47a46.177 46.177 0 003.35-4c1.91-2.87 3.35-5.94 5.43-8.69.79-1 1.27-2.24 2.55-3 .64-.32.8-1.16 1.11-1.88a43.501 43.501 0 012.72-4.19c.8-1 1.44-1.95 2.24-3.12.8-1.17 1.59-2.47 2.56-3.67a16.736 16.736 0 001.92-3.51 4.114 4.114 0 00-.07-4.62zM632 173.6a.258.258 0 01-.32-.23.687.687 0 01.17-.52l3.18-3a.488.488 0 01.48.05c.17.12.17.27 0 .48a6.891 6.891 0 01-3.51 3.22zm2.55 7.35l-.16-.27c0-.17.16-.36.16-.52a7.823 7.823 0 012.24-1.53.39.39 0 01.32.09.116.116 0 01.112.017.115.115 0 01.037.045.128.128 0 01.011.058 4.584 4.584 0 01-2.74 2.16l.02-.05zM648 163.08a12.347 12.347 0 01-.81 1.48c-2.87 3.58-5.26 7.22-8 10.61a7.767 7.767 0 01-3.35 2.58 5.172 5.172 0 00-1.28 1.13l-.48.12c-.15 0 0-.33.32-.56.449-.29.933-.522 1.44-.69a88.001 88.001 0 008.63-10.45 20.267 20.267 0 013.51-4.22c.051-.216.162-.414.32-.57a1.16 1.16 0 01-.3.57zm4-4.84c-.64.81-1.12 1.88-2.08 2.13a5.806 5.806 0 011.6-2.48 11.41 11.41 0 001.27-1.43c-.37.54-.54 1.23-.85 1.78h.06zm4-6.09c-.16.19-.16.52-.31.87l-.48.44c-.48-.2 0-.48.15-.68l.64-.63a9.124 9.124 0 012.56-3.84c.56-.48-.72 1.93-2.63 3.84h.07zm-41.19 1.16c-.16.2-.16.37-.33.41.17.11.33.23.33.07s.15-.19.32-.23l-.32-.25zm59.39 48.59c-.48-.2-.48-.68 0-1.29l.65-.63c1.59-1.67 1.76-2.51 1-3.91a19.703 19.703 0 00-1.61-2.48c-.63-1.44-1.74-2.59-1.27-4.46a1.57 1.57 0 00-.32-1.69 6.993 6.993 0 00-5.43-3.27 23.281 23.281 0 00-7.51.75c-6.22 1.4-12.29 3.39-18.52 5.42-5.27 1.79-10.54 3.43-16 5.58-1.76.75-3.5 1.36-5.26 2.26a21.19 21.19 0 01-5.75 2.09c-.72.2-1.417.474-2.08.82a25.388 25.388 0 01-5.27 2.44 169.681 169.681 0 00-16.29 7.89 35.318 35.318 0 00-6.54 4.82 10.072 10.072 0 00-3.83 8.31 17.23 17.23 0 01-.33 6.31 3.415 3.415 0 000 1.75c0 1.28.64 1.6 1.92 1.45a6.259 6.259 0 001.76-.29.85.85 0 01.63.48 2.137 2.137 0 00-.15.52l-.48.44c-.48.44-1 .88-.65 1.44.35.56.65.47 1.28.47a10.116 10.116 0 002.88-1c7.34-3.58 14.85-7.37 22.2-10.48 1-.4 1.76-1.24 2.71-.84.31.4-.64 1.28-2.39 2-.17 0-.17.21-.32.25-6.4 2.7-12.62 5.86-18.85 8.85-.992.44-1.954.944-2.88 1.51a13.22 13.22 0 004.16-1.36c4.78-2.3 9.74-4.5 14.53-6.82a33.176 33.176 0 013.36-1.15c1.11-.27 1.59.56 1.11 1.64-.63 1.44-1.43 2.59-2.07 4a98.976 98.976 0 01-4.47 9.74 50.142 50.142 0 00-2.4 5.07c-1 3.27-2.56 6.55-3.67 9.86l-4.79 13.33a92.906 92.906 0 00-3.67 10.81c-.65 2.4-1.44 4.83-2.24 7.27-1.59 5-3.52 10.13-5 15.28a27.91 27.91 0 01-1.26 5.11 54.639 54.639 0 00-3 12.9 13.758 13.758 0 000 5.75 4.75 4.75 0 002.08 3.15 6.344 6.344 0 012.7 3.47 4.895 4.895 0 001.76 2.44 2.002 2.002 0 002.24.24c.32-.24.63-.31 1.11-.6 1.28-.48 1.44-.36 1.92.8.48 1 .8 1.08 1.76.52a9.445 9.445 0 013.19-1.43c1.44-.2 1.76-.6 2.09-2.11.163-1.597.481-3.175.95-4.71a5.565 5.565 0 00.31-3.6 2.28 2.28 0 01.81-2.28v-.15c.8.27 1-.56 1.11-1.09 2.24-6 4.32-11.77 6.39-17.71.8-2.12 1.44-4.35 2.39-6.51 2.24-5.34 4.48-10.7 6.39-16.29a39.58 39.58 0 012.4-5.7 16.011 16.011 0 001.91-5.27c-.63 1.12-1.43 2.28-2.24 3.43-.15.36-.48.6-.63.48-.48 0-.32-.56-.16-.92.79-1.32 1.44-2.75 3-3 1.76-3.46 3.52-6.94 4.15-10.62l-.47.13a10.471 10.471 0 011.76-4 27.59 27.59 0 003-5.86 3.677 3.677 0 01-1.06.84 2.83 2.83 0 011.06-.84c.62-1.09 1.1-2 .68-3.09 1.26-2.21 3-4.39 2.69-6.84a1.59 1.59 0 01.31-.73 22.159 22.159 0 002.08-5.47 17.687 17.687 0 011.59-5.5c.16 0 .16-.21.16-.36 0-.33-.48-.69-.79-.44l-.8.67c-.33.25-.48.44-.81.36-.48-.19-.31-.71-.15-1.07.14-.28.248-.576.32-.88a29.287 29.287 0 002.55-9.42c.16-2 .48-2.51 2.56-3.35l6.55-2.43c1.91-.8 3.83-1.76 5.74-2.4a131.932 131.932 0 0112.94-3.86c2.07-.35 4-1 6.07-.72 1.91.17 3.67-.75 5.42-2.14.65-.48.8-1.17.32-1.52-.51-.12-.99-.16-1.31-.56h.07zm-70.49 109.22c-.038.35-.143.689-.31 1l-.48.44c-.17-.12-.32-.4-.17-.44a1.87 1.87 0 01.48-1.23c0-.17.17-.21.48-.13v.36zm5.29-15.21c-.17.2-.17.35-.32.24 0-.16.15-.2.15-.37 0-.17.25-.2.3-.27a1.561 1.561 0 00-.13.4zm.63-1.12l-.47.61a.79.79 0 00.15-.53c.17-.35.32-.39.32-.24v.16zm-14.21-79.17c4.47-2.39 9.1-4.51 13.89-6.66 5.28-2.11 10.7-4.43 16.13-6.57 7.18-2.76 14.38-5.67 21.71-7.82 2.89-.88 5.92-2.11 9-2.87 2.07-.35 4.15-.87 6.06-1.19.79 0 1.44-.19 2.07-.19.33.07.81.11.81.44s-.65.63-1 .71a1.922 1.922 0 01-1.28.32c-6.55 1.48-13.09 3.74-19.64 5.86-10.07 3.15-20.12 7.09-30 11.31-4.46 1.76-8.77 3.79-13.09 5.67l-4.47 2.07c-.32.07-1.12.28-1.12.11-.2-.75.44-.92.92-1.19h.01zm-8.78 8.1c-.16.2-.32.08-.47.12.15 0 .15-.21.31-.4.32-.08.48-.12.64-.33l-.48.61zM613 286.29c0 .17-.16.52-.33.55-.15.21-.31.25-.31-.07.05-.212.157-.406.31-.56 0-.16 0-.16.17-.19s.29.07.16.27zm2.87-67c-.635.517-1.33.957-2.07 1.31-8.31 3.67-16.77 7.37-25.08 11.83l-1 .25-.16-.12c0-.16-.17-.44 0-.47a4.931 4.931 0 012.07-1.8c3.52-1.84 7-3.68 10.55-5.35 4.46-2.23 9.09-4.19 13.57-6.26a8.874 8.874 0 011.91-.63c.33-.08.48 0 .48.52a1.583 1.583 0 01-.29.74l.02-.02zm4.8 48.31a.924.924 0 01-.48.75c-.17 0-.32-.08-.17-.27a.766.766 0 01.48-.77c.15-.01.3.1.15.31l.02-.02zm10.7-63.36c-11 4-22.05 9-33.23 13.72 0-1 .65-1 1.13-1.24 7.81-3.87 15.64-7.42 23.79-10.56 5.11-1.92 10.22-4 15.33-5.9 5.59-2.19 11.18-3.91 16.92-5.66a39.788 39.788 0 019.59-1.43c-11.21 3.29-22.37 6.88-33.55 11.09l.02-.02zm30.49 2.46a14.124 14.124 0 01-4.15 1.36l-1.59.39a54.105 54.105 0 00-9.59 3 86.113 86.113 0 01-8.14 3.15 1.665 1.665 0 01-.8 0c-.16 0-.48 0-.48-.21s.16-.51.32-.55a28.012 28.012 0 013.19-1.44l6.39-2.55c4.79-1.67 9.74-2.91 14.7-4.14.31-.07.63 0 .63.48-.18.29-.34.49-.5.53l.02-.02zm3.35-4.51a19.743 19.743 0 01-4 1.16 195.169 195.169 0 00-23.8 7.69 8.93 8.93 0 01-3.36 1c-.48.12-1.27.33-1.44-.44-.15-.59.65-1 1.29-1.28.47-.27 1-.4 1.43-.67 7.67-2.87 15.49-5.62 23.32-7.89a15.996 15.996 0 017.82-.68 1.519 1.519 0 01-1.28 1.13l.02-.02zM713.73 164.08a4.39 4.39 0 001.13-2.68c0-1.75.63-3.51.15-5.15a2.3 2.3 0 00-.8-1.07 6.283 6.283 0 01-2.07-4.12c-.8-3.15-4.47-3.52-7.18-.6a72.465 72.465 0 00-7.51 9.7 144.748 144.748 0 00-7 13.09c-1.75 3.95-3.35 8-5.27 11.85a76.478 76.478 0 00-4.18 10.78 28.165 28.165 0 01-1.43 3.7 125.336 125.336 0 00-5.57 17.36c-.81 3.08-1.44 6.11-2.4 9.07a89.889 89.889 0 00-2.87 12.54 11.691 11.691 0 00.48 7.85 37.786 37.786 0 012.39 5.64c.33.88.48 1.8 1.44 2 .8.29 1.43-.84 2.24-1a2.253 2.253 0 011.43-.36c.48.36-.32.88-.63 1.28 0 .15-.17.36-.17.51a.632.632 0 00.266.976.63.63 0 00.384.024 4.277 4.277 0 001.74-1.07l3.2-3.2a7 7 0 001.76-3.79 69.898 69.898 0 012.07-7.86c.48-2 1.45-4 1.93-6.06a24.7 24.7 0 012.7-6.75 33.145 33.145 0 003-7.62 42.548 42.548 0 013-7.47c.524-.938.905-1.949 1.13-3a23.095 23.095 0 013-7.62c1.76-3.15 3.2-6.23 4.63-9.3l-.63.16a.45.45 0 00-.32-.08.855.855 0 01.48-.29c.16 0 .32.09.47.21a20.91 20.91 0 002.24-6.47 12.748 12.748 0 012.72-5.63 8.284 8.284 0 001.91-4.15 3.4 3.4 0 01.81-2.11c1.11-1.87 1.26-4 1.91-5.91.32-.71 0-1.11-.65-1.28-.79 0-1-.39-.47-1.15.146-.335.327-.653.54-.95zm-32.41 85.21c-.15 0-.32.24-.47.28a1.335 1.335 0 01-.48 0c-.17-1.24.63-2.24 1.43-3.23 0 0 .16 0 .16.11.17 0 .17.12.17.12a3.823 3.823 0 01-.81 2.72zm28.58-76.12c-.15-.11-.31-.23-.31-.4.16-.51.48-1.07 1-1 .16 0 .16.28.31.4-.19.49-.67 1.09-1 1zm-34.16 109.29a.794.794 0 00-.47-.853.795.795 0 00-.34-.067c-1.59.08-1.59.08-1.28-1.44l.17-1.15a4.152 4.152 0 00-1.12-3.72 2.388 2.388 0 00-2.88-1.19c-1 .23-1-.57-1-1.21-.64-.15-1.28-.15-1.44-.59-1-1.84-3-1.49-4.79-1.53a4.001 4.001 0 00-3.67 2.36 9.254 9.254 0 00-1 2.16c-1.28 2.54-1.76 5.22-2.72 8a103.49 103.49 0 00-4.15 16.2 31.427 31.427 0 00-.32 9.34c.17 1.39.32 3 1.6 3.44a7.188 7.188 0 013 4.34 4.673 4.673 0 001.6 2.49 1.36 1.36 0 001.92.15c1.59-1.19 3.67-2 5.11-3.83.32-.4.63-.95 1.28-.95.31-.08 0 .95-.65 1.6-.381.565-.81 1.097-1.28 1.59-.404.382-.775.797-1.11 1.24-.32.24-.48.6-.32.87 0 .33.32.25.64 0l1.44-.83c2.24-1.68 3.83-3.52 4-6.26.331-1.181.492-2.403.48-3.63a3.831 3.831 0 01.48-2.53 16.55 16.55 0 002.24-5.82c.8-2.75 1.76-5.55 2.87-8.38.2-.366.31-.774.32-1.19 0-.17-.15-.29-.47 0-.81.67-.81.19-.64-.49l1.92-3.83c.8-1.48-.16-2.51.48-4l.1-.29z"/>
  </g>
  <defs>
    <clipPath id="clip11">
      <path fill="#fff" d="M0 0h715.19v476.29H0z"/>
    </clipPath>
  </defs>
</svg>
