<svg viewBox="0 0 1055 388" fill="none" xmlns="http://www.w3.org/2000/svg">
<g clip-path="url(#clip14)">
<path d="M310.72 209.838L309.622 215.318C301.939 211.773 291.883 208.65 279.917 205.648C279.917 205.606 279.879 205.56 279.854 205.501C279.601 204.902 279.33 204.309 279.043 203.722C278.756 203.136 278.456 202.563 278.144 202.011C289.611 204.371 300.774 206.993 310.72 209.838Z" fill="#0554F1"/>
<path d="M349.1 232.17C348.446 240.895 327.75 248.335 301.661 255.151L304.119 242.864C320.042 237.49 328.983 231.483 323.125 224.536C320.194 221.118 315.62 218.092 309.61 215.326L310.708 209.847C333.473 216.342 349.886 223.997 349.1 232.17Z" fill="#0554F1"/>
<path d="M599.546 108.46L561.656 298.049H593.658L631.548 108.46H599.546Z" fill="#0554F1"/>
<path d="M673.535 108.46L635.649 298.049H667.651L705.541 108.46H673.535Z" fill="#0554F1"/>
<path d="M788.737 138.101C792.665 134.355 797.956 132.481 804.61 132.478C811.263 132.475 816.895 134.349 821.504 138.101L834.58 114.846C830.996 112.126 826.6 110.083 821.394 108.717C815.915 107.319 810.278 106.632 804.622 106.673C789.603 106.673 777.444 110.718 768.143 118.808C758.843 126.898 752.648 138.268 749.559 152.917L747.511 162.612H725.236L720.121 188.181H742.392L720.374 298.049H752.381L774.398 188.181H811.008L816.127 162.629H778.749L780.286 155.218C781.992 147.564 784.809 141.858 788.737 138.101Z" fill="#0554F1"/>
<path d="M938.509 161.604L924.174 232.385C921.609 245.503 916.488 255.338 908.813 261.891C901.137 268.444 891.493 271.724 879.881 271.729C870.829 271.729 864.043 269.599 859.524 265.339C855.004 261.079 852.743 254.949 852.74 246.949C852.734 243.43 853.076 239.92 853.763 236.47L868.87 161.604H836.864L821.761 237.241C820.575 242.611 819.975 248.093 819.97 253.592C819.97 268.243 824.45 279.615 833.409 287.705C842.369 295.795 854.359 299.84 869.381 299.84C887.982 299.84 903.429 294.22 915.723 282.98L912.652 298.053H943.125L970.523 161.609L938.509 161.604Z" fill="#0554F1"/>
<path d="M1023 108.46L985.108 298.049H1017.11L1055 108.46H1023Z" fill="#0554F1"/>
<path d="M278.824 249.84L277.135 250.261L275.526 250.632C274.23 250.936 272.921 251.235 271.598 251.53L269.131 252.078C265.832 252.812 262.479 253.532 259.1 254.241C257.411 254.599 255.679 254.961 253.964 255.315C250.319 256.074 246.666 256.82 243.029 257.562L239.65 258.249L235.642 259.092C234.316 259.366 232.99 259.632 231.676 259.906L228.72 260.513C226.38 260.993 224.077 261.474 221.81 261.954C218.989 262.553 216.074 263.156 213.101 263.758L211.31 264.121L208.911 264.606L204.667 265.449L202.842 265.815L200.401 266.309L197.964 266.806C195.531 267.303 193.102 267.809 190.703 268.315L188.317 268.825L187.13 269.082L185.952 269.339C184.778 269.596 183.612 269.853 182.463 270.119L180.149 270.612L179.304 270.81L178.459 271.013C178.434 271.008 178.408 271.008 178.383 271.013L176.795 271.396L175.701 271.662C174.979 271.839 174.261 272.024 173.556 272.206L172.504 272.475C171.3 272.787 170.13 273.108 168.994 273.424L168.314 273.618C166.963 274.003 165.662 274.39 164.412 274.781L163.626 275.034C163.14 275.186 162.667 275.346 162.207 275.502L161.987 275.573L161.4 275.776L160.83 275.978L160.184 276.21L159.546 276.45L159.145 276.598C158.9 276.69 158.659 276.783 158.423 276.88C157.945 277.066 157.485 277.255 157.037 277.445L156.378 277.732L156.04 277.879L155.745 278.018H155.698L155.555 278.081L155.208 278.246C154.786 278.452 154.364 278.667 153.971 278.87L153.633 279.042L153.304 279.22C152.995 279.38 152.695 279.536 152.412 279.696C152.294 279.755 152.18 279.822 152.07 279.881C151.732 280.067 151.407 280.252 151.095 280.438L150.744 280.653C150.257 280.934 149.805 281.215 149.388 281.496L148.941 281.808L148.725 281.959L148.518 282.115L148.345 282.25C148.092 282.444 147.851 282.638 147.631 282.836L147.446 283.005C147.31 283.128 147.184 283.251 147.065 283.371C147.01 283.426 146.956 283.481 146.909 283.536C146.653 283.806 146.417 284.095 146.204 284.4C146.194 284.42 146.181 284.438 146.166 284.455C146.14 284.497 146.111 284.539 146.09 284.581C146.071 284.604 146.055 284.63 146.043 284.657L146.022 284.687L145.971 284.775C145.942 284.821 145.921 284.868 145.895 284.914C145.881 284.941 145.868 284.97 145.857 284.998L145.752 285.209C145.722 285.272 145.697 285.327 145.676 285.386C145.621 285.524 145.575 285.665 145.536 285.808C145.536 285.858 145.507 285.913 145.494 285.964C145.482 286.014 145.473 286.065 145.456 286.116C145.439 286.166 145.456 286.153 145.456 286.17C145.441 286.238 145.43 286.307 145.422 286.377C145.42 286.416 145.42 286.456 145.422 286.495V286.651C145.422 286.744 145.422 286.836 145.422 286.929C145.422 287.022 145.422 287.102 145.422 287.19C145.42 287.211 145.42 287.233 145.422 287.254C145.42 287.284 145.42 287.315 145.422 287.346C145.426 287.414 145.433 287.482 145.444 287.549C145.442 287.561 145.442 287.574 145.444 287.587C145.444 287.637 145.444 287.684 145.465 287.734L145.503 287.924C145.503 288.004 145.541 288.084 145.562 288.16C145.56 288.187 145.56 288.213 145.562 288.24C145.6 288.392 145.65 288.543 145.705 288.699C145.743 288.788 145.777 288.881 145.815 288.969C145.853 289.058 145.912 289.201 145.967 289.315C146.022 289.429 146.056 289.496 146.102 289.585V289.606L146.204 289.787C146.232 289.843 146.263 289.898 146.297 289.951L146.394 290.111C146.432 290.175 146.47 290.234 146.516 290.301C146.563 290.369 146.597 290.423 146.643 290.487L146.804 290.714L146.972 290.929C147.006 290.98 147.044 291.022 147.082 291.072C147.12 291.123 147.251 291.279 147.34 291.38C147.623 291.701 147.931 292.025 148.269 292.341C148.362 292.434 148.459 292.527 148.561 292.615L148.856 292.877C148.996 292.999 149.143 293.121 149.279 293.243L149.321 293.277L149.536 293.45L149.578 293.479C149.836 293.686 150.111 293.901 150.389 294.091C150.668 294.28 150.841 294.402 151.074 294.563L151.281 294.693L151.399 294.773L151.821 295.056L152.472 295.482L152.894 295.726C153.033 295.81 153.177 295.89 153.316 295.97L153.76 296.219C154.089 296.396 154.419 296.569 154.769 296.746L155.192 296.957L155.914 297.311L156.514 297.593C157.003 297.821 157.51 298.049 158.03 298.272L158.541 298.487L159.056 298.702C159.305 298.807 159.563 298.913 159.825 299.014C160.087 299.115 160.349 299.225 160.619 299.326C160.889 299.427 161.155 299.537 161.43 299.638C167.562 300.135 173.833 300.385 180.242 300.388C189.765 300.434 199.276 299.698 208.679 298.188C213.297 297.43 217.872 296.431 222.385 295.195C226.667 294.022 230.878 292.602 234.996 290.942C250.53 284.644 262.473 275.777 270.825 264.34C271.327 263.645 271.822 262.945 272.299 262.232C274.915 258.348 277.095 254.188 278.799 249.827L278.824 249.84ZM283.322 221.965C283.622 222.495 283.784 223.092 283.792 223.7C283.8 224.309 283.654 224.909 283.369 225.447C283.205 225.759 283.013 226.055 282.794 226.332C277.532 232.946 252.275 237.713 225.848 242.83C185.018 250.691 133.182 257.292 99.0264 266.355L118.51 229.173C140.453 241.776 163.366 248.075 187.249 248.07C195.991 248.07 202.693 247.005 207.353 244.875C212.013 242.744 214.343 239.836 214.343 236.149C214.343 232.665 211.965 229.855 207.209 227.719C202.453 225.583 194.926 223.259 184.626 220.747C171.034 217.257 159.771 213.72 150.837 210.137C141.842 206.501 133.816 200.829 127.392 193.568C120.688 186.107 117.338 176.272 117.344 164.062C117.344 148.758 121.469 135.337 129.719 123.799C137.969 112.26 149.864 103.344 165.404 97.0494C180.944 90.7547 199.296 87.6074 220.459 87.6074C235.61 87.6074 249.738 89.1094 262.842 92.1134C275.947 95.1174 287.259 99.4295 296.779 105.05L272.02 155.041C263.875 149.922 254.983 146.097 245.661 143.703C236.01 141.176 226.073 139.901 216.096 139.909C206.57 139.909 199.19 141.266 193.956 143.981C188.721 146.695 186.1 149.895 186.091 153.579C186.091 157.254 188.471 160.16 193.229 162.296C197.988 164.431 205.801 166.761 216.67 169.284C229.876 172.392 240.998 175.686 250.036 179.165C259.044 182.645 267.084 188.23 273.481 195.452C275.275 197.457 276.833 199.658 278.127 202.015C278.445 202.577 278.747 203.149 279.031 203.73C279.316 204.312 279.584 204.905 279.838 205.509C279.864 205.557 279.887 205.606 279.905 205.657C280.962 208.189 281.768 210.817 282.313 213.505C282.38 213.843 282.444 214.18 282.503 214.513C282.562 214.846 282.63 215.187 282.68 215.533C282.731 215.879 282.79 216.216 282.832 216.557C282.862 216.734 282.887 216.92 282.908 217.092C282.972 217.586 283.027 218.075 283.077 218.572C283.115 218.926 283.141 219.276 283.17 219.63L283.196 219.929C283.196 220.052 283.217 220.186 283.225 220.309C283.234 220.431 283.225 220.557 283.225 220.684C283.225 220.81 283.225 220.882 283.246 220.983C283.293 221.295 283.318 221.636 283.322 221.965ZM487.402 158.287H416.238L370.924 198.145L388.844 108.46H330.981L310.708 209.838C333.46 216.342 349.873 223.997 349.088 232.178C348.446 240.895 327.75 248.335 301.661 255.151L293.087 298.049H350.95L356.327 271.219L371.177 257.427L395.251 298.049H463.099L417.261 221.396L487.402 158.287ZM555.249 158.287L527.344 298.049H469.734L497.639 158.287H555.249ZM564.271 108.46L557.733 140.668H500.131L506.665 108.46H564.271Z" fill="#0554F1"/>
<path d="M298.35 327.871C268.636 350.957 232.047 363.477 194.39 363.443C190.741 363.443 187.122 363.32 183.532 363.097C163.05 361.813 142.977 356.805 124.3 348.319C65.5542 321.637 24.6235 262.498 24.6235 193.994C24.6235 100.565 100.783 24.5448 194.411 24.5448C248.862 24.5448 297.408 50.2572 328.493 90.1535V89.5929H358.16C323.594 35.7571 263.095 0 194.39 0C87.2001 0 0 87.0259 0 193.994C0 264.648 38.0418 326.606 94.7603 360.53C98.3954 362.688 102.104 364.751 105.885 366.718C140.565 384.463 179.797 391.37 218.467 386.54C257.137 381.71 293.453 365.367 322.682 339.64C330.62 332.665 337.981 325.063 344.695 316.907H311.143C307.069 320.766 302.804 324.42 298.35 327.871Z" fill="#0554F1"/>
<path d="M303.908 229.666C301.653 233.746 293.146 237.3 281.667 240.529C270.47 243.673 256.448 246.514 242.62 249.25C190.061 259.653 114.848 269.242 106.434 284.868C106.208 285.556 106.169 286.292 106.32 287.001C106.743 288.999 108.631 290.933 111.473 292.817C115.304 295.347 120.875 297.783 126.915 300.143C160.479 313.21 201.984 325.468 205.473 340.786C206.74 346.055 202.787 351.244 196.452 356.348C193.656 358.612 188.258 360.863 183.519 363.092C163.043 361.806 142.974 356.8 124.3 348.318C132.971 344.179 141.389 339.888 142.174 335.412C143.239 322.998 108.255 309.88 84.3451 299.043C75.3446 295.014 69.0177 290.613 67.4507 286.137C65.8838 281.66 69.0346 277.116 79.1965 272.796C84.7294 270.503 91.4449 268.361 99.0473 266.355C133.203 257.292 185.039 250.691 225.869 242.83C252.275 237.696 277.532 232.946 282.794 226.353C283.013 226.076 283.205 225.78 283.369 225.468C283.654 224.93 283.8 224.33 283.792 223.721C283.784 223.113 283.622 222.516 283.322 221.986C283.322 221.657 283.293 221.329 283.28 221.004C283.28 220.903 283.28 220.806 283.259 220.705C283.238 220.604 283.259 220.456 283.259 220.33C283.259 220.203 283.234 220.072 283.229 219.95L283.204 219.651C283.174 219.297 283.149 218.947 283.111 218.593C283.06 218.096 283.005 217.607 282.942 217.113C282.921 216.941 282.896 216.755 282.866 216.578C282.824 216.237 282.773 215.891 282.714 215.554C282.655 215.217 282.604 214.871 282.537 214.534C282.469 214.197 282.414 213.864 282.347 213.526C297.67 218.235 307.452 223.483 303.908 229.666Z" fill="#0554F1"/>
<path d="M278.828 249.84C288.213 247.619 296.884 245.305 304.119 242.864L301.661 255.151C292.348 257.588 282.342 259.94 272.328 262.246C262.314 264.551 252.308 266.794 242.949 269.019C226.899 272.813 212.961 275.093 202.943 279.658C193.406 283.928 192.093 287.819 196.059 291.966C198.466 294.496 202.952 296.321 208.696 298.196C212.396 299.398 216.623 300.616 221.159 302.036C248.731 310.783 276.552 319.049 298.333 327.867C283.385 339.464 266.598 348.483 248.668 354.549C249.533 353.132 250.219 351.615 250.712 350.03C258.906 330.864 205.173 315.601 162.232 299.946C161.97 299.845 161.708 299.752 161.446 299.646L160.636 299.335C160.365 299.233 160.103 299.128 159.842 299.023C159.58 298.917 159.322 298.816 159.073 298.711C157.679 298.142 156.391 297.556 155.208 296.966L154.786 296.755C154.435 296.578 154.106 296.405 153.776 296.228L153.333 295.979C153.185 295.899 153.042 295.819 152.911 295.735L152.488 295.49L151.888 295.124L151.466 294.841L151.348 294.765L150.926 294.496C150.761 294.386 150.605 294.272 150.444 294.158C150.165 293.956 149.891 293.737 149.633 293.547C149.532 293.476 149.43 293.391 149.333 293.311C149.236 293.231 149.033 293.067 148.911 292.944L148.615 292.683C148.514 292.595 148.417 292.502 148.324 292.409C147.986 292.093 147.678 291.768 147.395 291.448C147.306 291.347 147.221 291.241 147.137 291.14C146.981 290.942 146.833 290.748 146.715 290.554C146.668 290.491 146.63 290.428 146.588 290.369C146.546 290.31 146.503 290.242 146.465 290.179L146.368 290.019C146.334 289.966 146.303 289.911 146.275 289.855L146.174 289.673V289.652C146.128 289.564 146.081 289.471 146.039 289.383C145.997 289.294 145.933 289.155 145.887 289.037C145.84 288.919 145.815 288.856 145.777 288.767C145.722 288.611 145.671 288.459 145.633 288.308C145.632 288.281 145.632 288.254 145.633 288.228C145.612 288.152 145.591 288.072 145.574 287.992L145.536 287.802C145.536 287.751 145.536 287.705 145.515 287.654C145.482 287.437 145.465 287.217 145.464 286.997C145.464 286.904 145.464 286.811 145.464 286.719V286.563C145.462 286.523 145.462 286.484 145.464 286.445C145.481 286.303 145.506 286.162 145.54 286.023C145.54 285.973 145.566 285.918 145.583 285.867C145.621 285.724 145.668 285.583 145.722 285.446C145.745 285.381 145.772 285.318 145.802 285.256C146.093 284.633 146.487 284.062 146.968 283.57C147.014 283.515 147.069 283.46 147.124 283.406C147.243 283.285 147.369 283.162 147.504 283.039L147.69 282.87C147.91 282.672 148.151 282.478 148.404 282.284L148.577 282.149L148.784 281.993L149 281.842L149.447 281.53C149.864 281.249 150.316 280.968 150.803 280.687L151.154 280.472C151.829 280.076 152.566 279.67 153.363 279.254L153.692 279.077L154.03 278.904C155.707 278.036 157.435 277.271 159.204 276.611C159.546 276.48 159.888 276.349 160.243 276.223L160.889 275.991L161.459 275.789C163.571 275.051 165.894 274.33 168.373 273.631L169.053 273.437C170.189 273.121 171.359 272.8 172.563 272.488L173.615 272.219C174.32 272.037 175.038 271.852 175.76 271.675L176.854 271.409C177.952 271.135 179.067 270.874 180.199 270.608L182.484 270.086C183.633 269.82 184.799 269.563 185.973 269.306L187.151 269.049L188.338 268.792L190.724 268.282C193.123 267.776 195.552 267.27 197.985 266.773L200.422 266.275L202.863 265.782L204.687 265.415L208.932 264.572L211.331 264.088C214.925 263.363 218.448 262.642 221.831 261.921C224.084 261.44 226.387 260.96 228.741 260.479L231.697 259.872L239.671 258.237C240.799 258.014 241.935 257.777 243.05 257.55C246.687 256.808 250.34 256.062 253.985 255.303C255.7 254.949 257.412 254.591 259.121 254.228C262.5 253.52 265.853 252.799 269.152 252.066L271.619 251.518C272.939 251.223 274.249 250.924 275.547 250.62L277.156 250.249L278.845 249.828L278.828 249.84Z" fill="#0554F1"/>
<path d="M399.513 349.697C397.989 349.343 396.542 348.715 395.243 347.843L397.566 343.556C398.695 344.334 399.954 344.904 401.283 345.242C402.781 345.664 404.33 345.878 405.887 345.879C407.675 345.879 409.025 345.633 409.937 345.141C410.344 344.959 410.689 344.663 410.932 344.289C411.174 343.915 411.302 343.479 411.301 343.033C411.301 342.685 411.19 342.346 410.984 342.065C410.778 341.784 410.489 341.576 410.157 341.469C408.989 341.024 407.785 340.681 406.558 340.445C405.141 340.189 403.743 339.838 402.373 339.396C401.291 339.028 400.32 338.393 399.551 337.549C398.76 336.706 398.364 335.539 398.364 334.047C398.336 332.884 398.607 331.734 399.151 330.706C399.695 329.678 400.495 328.806 401.473 328.175C403.545 326.731 406.298 326.008 409.73 326.008C411.342 326.005 412.948 326.192 414.515 326.565C415.855 326.855 417.139 327.361 418.317 328.061L416.255 332.348C415.229 331.707 414.103 331.24 412.923 330.965C411.701 330.669 410.447 330.519 409.189 330.519C407.428 330.519 406.094 330.784 405.185 331.324C404.277 331.863 403.821 332.559 403.821 333.431C403.812 333.802 403.922 334.165 404.135 334.469C404.347 334.772 404.652 334.999 405.004 335.117C406.2 335.577 407.436 335.928 408.695 336.167C410.091 336.422 411.466 336.773 412.813 337.216C413.874 337.579 414.826 338.201 415.584 339.025C416.394 339.957 416.811 341.165 416.75 342.397C416.792 343.574 416.525 344.741 415.976 345.783C415.426 346.825 414.612 347.705 413.616 348.336C411.529 349.741 408.756 350.444 405.295 350.444C403.344 350.447 401.4 350.197 399.513 349.697ZM419.786 316.899L413.029 323.016H407.948L402.757 316.899H407.234L410.765 320.204L415.107 316.899H419.786Z" fill="#0554F1"/>
<path d="M436.536 336.503L444.95 350.118H438.462L432.072 339.804L427.059 343.825L425.792 350.118H420.208L426.831 316.987H432.423L428.482 336.79L441.575 326.299H449.178L436.536 336.503Z" fill="#0554F1"/>
<path d="M452.891 349.116C451.214 348.303 449.809 347.024 448.844 345.432C447.867 343.773 447.371 341.876 447.413 339.952C447.371 337.446 447.996 334.973 449.224 332.786C450.418 330.69 452.173 328.966 454.293 327.808C456.533 326.583 459.054 325.96 461.608 326C463.723 325.956 465.82 326.399 467.736 327.294C469.423 328.092 470.838 329.365 471.808 330.957C472.783 332.617 473.279 334.513 473.24 336.437C473.277 338.939 472.644 341.405 471.407 343.581C470.203 345.676 468.451 347.404 466.338 348.581C464.103 349.822 461.581 350.454 459.023 350.414C456.905 350.471 454.803 350.026 452.891 349.116ZM463.585 344.517C464.832 343.746 465.846 342.65 466.516 341.347C467.251 339.914 467.619 338.321 467.589 336.711C467.589 334.834 467.037 333.368 465.933 332.314C464.829 331.26 463.281 330.732 461.287 330.729C459.8 330.705 458.336 331.1 457.063 331.867C455.816 332.637 454.804 333.734 454.137 335.037C453.399 336.47 453.029 338.063 453.059 339.674C453.059 341.545 453.611 343.011 454.715 344.07C455.819 345.13 457.368 345.658 459.361 345.655C460.848 345.679 462.312 345.285 463.585 344.517Z" fill="#0554F1"/>
<path d="M482.667 316.979H488.246L481.623 350.109H476.031L482.667 316.979Z" fill="#0554F1"/>
<path d="M517.072 326.278L512.321 350.119H506.999L507.489 347.666C505.402 349.512 502.808 350.435 499.705 350.435C497.846 350.457 496.009 350.023 494.358 349.17C492.765 348.351 491.444 347.087 490.557 345.533C489.602 343.821 489.124 341.885 489.171 339.926C489.134 337.426 489.742 334.959 490.937 332.761C492.058 330.69 493.73 328.967 495.768 327.783C497.854 326.579 500.227 325.962 502.636 325.995C506.454 325.995 509.168 327.26 510.779 329.789L511.451 326.261L517.072 326.278ZM505.373 344.517C506.621 343.746 507.634 342.65 508.304 341.347C509.039 339.913 509.407 338.32 509.377 336.71C509.377 334.833 508.825 333.368 507.721 332.314C506.617 331.26 505.069 330.732 503.075 330.729C501.588 330.705 500.124 331.099 498.852 331.867C497.604 332.638 496.591 333.734 495.921 335.037C495.186 336.471 494.818 338.064 494.848 339.674C494.848 341.545 495.4 343.011 496.503 344.07C497.607 345.129 499.156 345.658 501.149 345.655C502.636 345.679 504.1 345.285 505.373 344.517Z" fill="#0554F1"/>
<path d="M554.722 327.26C556.304 328.077 557.616 329.333 558.502 330.876C559.459 332.578 559.94 334.506 559.891 336.457C559.928 338.958 559.318 341.426 558.121 343.623C556.996 345.698 555.326 347.428 553.29 348.626C551.224 349.838 548.865 350.463 546.469 350.434C544.71 350.479 542.964 350.12 541.367 349.385C539.984 348.732 538.842 347.661 538.102 346.325L537.342 350.118H532.016L538.638 316.987H544.23L541.949 328.507C543.749 327.129 545.898 326.28 548.155 326.057C550.412 325.834 552.686 326.244 554.722 327.243V327.26ZM550.249 344.516C551.496 343.745 552.51 342.649 553.18 341.347C553.915 339.913 554.283 338.32 554.253 336.71C554.253 334.833 553.701 333.367 552.597 332.314C551.493 331.26 549.945 330.731 547.951 330.729C546.464 330.704 545 331.099 543.728 331.867C542.48 332.638 541.467 333.734 540.796 335.037C540.062 336.471 539.694 338.063 539.724 339.673C539.724 341.545 540.276 343.01 541.379 344.07C542.483 345.129 544.032 345.657 546.025 345.654C547.512 345.679 548.976 345.284 550.249 344.516Z" fill="#0554F1"/>
<path d="M587.361 339.851H568.389C568.482 343.751 570.779 345.701 575.282 345.701C576.592 345.712 577.895 345.492 579.129 345.052C580.255 344.661 581.29 344.046 582.17 343.244L584.498 347.13C583.222 348.259 581.72 349.104 580.092 349.609C578.349 350.168 576.53 350.452 574.699 350.452C572.546 350.501 570.41 350.057 568.456 349.154C566.756 348.359 565.331 347.076 564.364 345.47C563.387 343.798 562.892 341.89 562.932 339.956C562.894 337.456 563.502 334.988 564.697 332.79C565.837 330.702 567.544 328.976 569.622 327.812C571.787 326.604 574.233 325.987 576.713 326.025C580.053 326.025 582.728 326.955 584.738 328.815C586.749 330.676 587.748 333.229 587.737 336.474C587.731 337.61 587.605 338.742 587.361 339.851ZM571.633 331.994C570.284 333.038 569.317 334.498 568.883 336.146H582.572C582.603 334.358 582.059 332.966 580.941 331.968C579.823 330.971 578.324 330.471 576.443 330.468C574.713 330.422 573.019 330.96 571.633 331.994Z" fill="#0554F1"/>
<path d="M612.504 329.806L596.454 345.655H609.699L608.804 350.119H588.176L588.847 346.595L604.897 330.742H592.416L593.312 326.278H613.222L612.504 329.806ZM613.399 316.899L606.641 323.016H601.539L596.37 316.899H600.842L604.377 320.204L608.719 316.899H613.399Z" fill="#0554F1"/>
<path d="M638.276 339.851H619.308C619.398 343.751 621.694 345.701 626.197 345.701C627.508 345.712 628.81 345.493 630.044 345.052C631.171 344.662 632.206 344.047 633.085 343.244L635.413 347.13C634.138 348.261 632.636 349.106 631.007 349.609C629.264 350.168 627.445 350.452 625.614 350.452C623.461 350.501 621.325 350.057 619.371 349.154C617.671 348.359 616.246 347.076 615.279 345.47C614.302 343.798 613.807 341.89 613.847 339.956C613.809 337.456 614.418 334.988 615.612 332.79C616.752 330.702 618.459 328.976 620.537 327.812C622.702 326.604 625.148 325.987 627.629 326.025C630.971 326.025 633.646 326.955 635.653 328.815C637.661 330.676 638.66 333.229 638.652 336.474C638.646 337.61 638.52 338.742 638.276 339.851ZM622.556 331.994C621.205 333.037 620.237 334.497 619.802 336.146H633.495C633.523 334.358 632.978 332.966 631.861 331.968C630.743 330.971 629.242 330.471 627.358 330.468C625.631 330.423 623.939 330.961 622.556 331.994Z" fill="#0554F1"/>
<path d="M647.052 349.116C645.356 348.313 643.932 347.032 642.955 345.432C641.98 343.772 641.484 341.876 641.524 339.952C641.482 337.442 642.117 334.968 643.361 332.786C644.56 330.694 646.314 328.972 648.429 327.808C650.699 326.576 653.25 325.953 655.833 326C657.999 325.941 660.145 326.425 662.076 327.408C663.825 328.348 665.24 329.806 666.126 331.581L661.336 334.038C660.233 331.832 658.249 330.731 655.385 330.733C653.898 330.709 652.435 331.104 651.162 331.872C649.914 332.643 648.901 333.738 648.231 335.041C647.497 336.475 647.128 338.068 647.158 339.678C647.158 341.55 647.71 343.015 648.814 344.074C649.917 345.134 651.483 345.662 653.51 345.659C654.798 345.674 656.072 345.385 657.227 344.816C658.36 344.24 659.33 343.388 660.044 342.338L664.158 345.107C663.024 346.801 661.446 348.153 659.596 349.015C657.619 349.959 655.453 350.44 653.261 350.422C651.118 350.474 648.992 350.027 647.052 349.116Z" fill="#0554F1"/>
<path d="M683.421 336.503L691.83 350.118H685.343L678.944 339.804L673.935 343.825L672.668 350.118H667.076L673.699 316.987H679.291L675.35 336.79L688.443 326.299H696.046L683.421 336.503Z" fill="#0554F1"/>
<path d="M718.723 339.85H699.75C699.843 343.751 702.141 345.701 706.643 345.701C707.954 345.712 709.256 345.492 710.491 345.052C711.617 344.661 712.651 344.046 713.532 343.244L715.859 347.13C714.584 348.259 713.082 349.104 711.454 349.608C709.711 350.168 707.891 350.452 706.06 350.451C703.907 350.501 701.772 350.057 699.818 349.153C698.117 348.358 696.692 347.076 695.725 345.469C694.749 343.798 694.253 341.89 694.293 339.956C694.256 337.456 694.864 334.988 696.059 332.79C697.199 330.702 698.905 328.976 700.983 327.812C703.148 326.604 705.595 325.987 708.075 326.025C711.417 326.025 714.092 326.955 716.1 328.815C718.107 330.675 719.107 333.228 719.098 336.474C719.092 337.61 718.966 338.741 718.723 339.85ZM702.994 331.993C701.645 333.038 700.679 334.497 700.244 336.145H713.933C713.964 334.358 713.421 332.966 712.303 331.968C711.185 330.97 709.685 330.47 707.805 330.467C706.075 330.423 704.38 330.96 702.994 331.993ZM712.459 316.945H719.17L710.723 323.061H705.71L712.459 316.945Z" fill="#0554F1"/>
<path d="M745.885 328.107C747.453 329.512 748.236 331.506 748.233 334.088C748.21 335.034 748.106 335.976 747.921 336.904L745.281 350.118H739.689L742.286 337.051C742.405 336.448 742.465 335.833 742.464 335.218C742.464 332.329 740.867 330.886 737.674 330.889C735.821 330.819 734.007 331.431 732.576 332.609C731.233 333.755 730.324 335.474 729.848 337.764L727.339 350.131H721.747L728.37 317H733.962L731.635 328.655C733.696 326.899 736.321 326.02 739.512 326.02C742.206 326.012 744.331 326.707 745.885 328.107Z" fill="#0554F1"/>
<path d="M758.34 349.116C756.663 348.301 755.257 347.022 754.289 345.432C753.314 343.772 752.818 341.876 752.858 339.952C752.816 337.446 753.441 334.973 754.67 332.786C755.864 330.69 757.618 328.966 759.738 327.808C761.978 326.583 764.499 325.959 767.053 326C769.168 325.956 771.265 326.399 773.181 327.294C774.867 328.093 776.282 329.366 777.253 330.957C778.228 332.617 778.724 334.513 778.685 336.437C778.723 338.939 778.088 341.406 776.848 343.581C775.645 345.677 773.893 347.405 771.779 348.581C769.544 349.822 767.021 350.454 764.464 350.414C762.349 350.47 760.25 350.025 758.34 349.116ZM769.034 344.517C770.282 343.746 771.295 342.65 771.965 341.347C772.7 339.914 773.068 338.321 773.038 336.711C773.038 334.834 772.486 333.368 771.382 332.314C770.278 331.26 768.73 330.732 766.736 330.729C765.249 330.705 763.785 331.1 762.513 331.867C761.265 332.638 760.252 333.734 759.582 335.037C758.847 336.471 758.479 338.064 758.509 339.674C758.509 341.545 759.061 343.011 760.164 344.07C761.268 345.13 762.817 345.658 764.81 345.655C766.297 345.679 767.761 345.285 769.034 344.517Z" fill="#0554F1"/>
<path d="M800.466 316.979H806.058L799.436 350.109H793.844L800.466 316.979Z" fill="#0554F1"/>
<path d="M833.93 326.278L817.458 352.218C815.813 354.812 814.255 356.606 812.782 357.601C811.178 358.634 809.297 359.155 807.389 359.097C806.186 359.095 804.993 358.899 803.853 358.515C802.844 358.214 801.913 357.696 801.125 356.998L803.9 352.935C804.965 353.931 806.377 354.476 807.836 354.452C808.728 354.472 809.603 354.214 810.341 353.714C811.234 353.026 811.981 352.166 812.537 351.185L813.297 350.022L807.659 326.27H813.251L817.276 343.973L828.329 326.27L833.93 326.278Z" fill="#0554F1"/>
<path d="M854.51 329.806L838.461 345.655H851.706L850.811 350.119H830.183L830.854 346.595L846.904 330.742H834.423L835.314 326.278H855.228L854.51 329.806ZM855.406 316.899L848.648 323.016H843.55L838.381 316.899H842.853L846.388 320.204L850.73 316.899H855.406Z" fill="#0554F1"/>
<path d="M861.332 349.115C859.656 348.301 858.251 347.022 857.286 345.431C856.31 343.772 855.814 341.875 855.854 339.951C855.812 337.445 856.437 334.972 857.666 332.785C858.859 330.689 860.614 328.965 862.734 327.807C864.974 326.582 867.495 325.959 870.049 325.999C872.164 325.955 874.261 326.398 876.178 327.293C877.864 328.091 879.279 329.365 880.249 330.956C881.224 332.616 881.72 334.512 881.681 336.436C881.718 338.938 881.086 341.404 879.848 343.58C878.644 345.675 876.892 347.403 874.78 348.58C872.545 349.821 870.022 350.453 867.464 350.413C865.346 350.469 863.245 350.024 861.332 349.115ZM872.026 344.516C873.275 343.747 874.289 342.651 874.957 341.346C875.694 339.913 876.062 338.32 876.03 336.71C876.03 334.833 875.479 333.367 874.378 332.313C873.277 331.26 871.729 330.731 869.732 330.728C868.245 330.704 866.781 331.098 865.509 331.867C864.26 332.636 863.246 333.732 862.578 335.036C861.842 336.47 861.473 338.063 861.505 339.673C861.505 341.545 862.057 343.01 863.161 344.069C864.264 345.129 865.813 345.657 867.806 345.654C869.292 345.678 870.754 345.283 872.026 344.516Z" fill="#0554F1"/>
<path d="M910.976 326.277L895.987 350.118H890.213L884.723 326.277H890.213L894.196 344.002L905.338 326.277H910.976Z" fill="#0554F1"/>
<path d="M937.103 326.278L932.36 350.119H927.039L927.529 347.666C925.442 349.512 922.847 350.435 919.744 350.435C917.885 350.457 916.049 350.023 914.397 349.17C912.812 348.347 911.499 347.084 910.617 345.533C909.661 343.821 909.182 341.885 909.228 339.926C909.192 337.426 909.801 334.958 910.997 332.761C912.119 330.69 913.791 328.967 915.829 327.783C917.915 326.579 920.288 325.962 922.697 325.995C926.515 325.995 929.229 327.26 930.84 329.789L931.511 326.261L937.103 326.278ZM925.387 344.517C926.635 343.746 927.648 342.65 928.318 341.347C929.053 339.913 929.422 338.32 929.391 336.71C929.391 334.833 928.839 333.368 927.735 332.314C926.632 331.26 925.083 330.732 923.09 330.729C921.602 330.705 920.139 331.099 918.866 331.867C917.618 332.638 916.605 333.734 915.935 335.037C915.201 336.471 914.832 338.064 914.862 339.674C914.862 341.545 915.414 343.011 916.518 344.07C917.621 345.129 919.17 345.658 921.164 345.655C922.651 345.679 924.114 345.285 925.387 344.517Z" fill="#0554F1"/>
<path d="M963.822 328.107C965.384 329.512 966.167 331.492 966.17 334.046C966.144 335.006 966.039 335.962 965.857 336.904L963.218 350.119H957.621L960.219 337.052C960.338 336.448 960.397 335.834 960.396 335.218C960.396 332.329 958.801 330.886 955.611 330.889C953.757 330.819 951.941 331.431 950.509 332.609C949.166 333.755 948.256 335.474 947.78 337.764L945.276 350.131H939.68L944.423 326.29H949.749L949.212 328.925C951.358 326.991 954.102 326.023 957.444 326.021C960.141 326.012 962.267 326.708 963.822 328.107Z" fill="#0554F1"/>
<path d="M975.09 326.277H980.682L975.939 350.118H970.347L975.09 326.277Z" fill="#0554F1"/>
<path d="M977.118 316.899H982.71L981.527 322.43H975.931L977.118 316.899Z" fill="#0554F1"/>
<path d="M1011.52 326.29L1006.78 350.135H1001.46L1001.95 347.678C999.861 349.524 997.266 350.447 994.163 350.447C992.304 350.469 990.468 350.035 988.816 349.183C987.23 348.361 985.917 347.097 985.036 345.545C984.081 343.835 983.603 341.9 983.651 339.943C983.614 337.443 984.222 334.975 985.416 332.777C986.54 330.708 988.211 328.986 990.248 327.799C992.335 326.598 994.707 325.98 997.116 326.012C1000.93 326.012 1003.65 327.276 1005.26 329.806L1005.93 326.277L1011.52 326.29ZM999.675 344.516C1000.92 343.747 1001.93 342.65 1002.6 341.347C1003.34 339.914 1003.71 338.321 1003.68 336.71C1003.68 334.833 1003.13 333.367 1002.02 332.314C1000.92 331.26 999.371 330.731 997.377 330.729C995.89 330.704 994.427 331.099 993.154 331.867C991.906 332.638 990.893 333.734 990.223 335.037C989.488 336.471 989.12 338.063 989.15 339.673C989.15 341.545 989.702 343.01 990.805 344.07C991.909 345.129 993.458 345.657 995.451 345.654C996.938 345.678 998.402 345.284 999.675 344.516Z" fill="#0554F1"/>
</g>
<defs>
<clipPath id="clip14">
<rect width="1055" height="388" fill="white"/>
</clipPath>
</defs>
</svg>
