<svg viewBox="0 0 928 369" fill="none" xmlns="http://www.w3.org/2000/svg">
<path fill-rule="evenodd" clip-rule="evenodd" d="M172.639 15.4249L148.224 55.9778L88.4688 40.1985L122.271 95.1895C138.575 85.2729 157.245 79.9202 176.326 79.6912C195.407 79.4622 214.2 84.3653 230.737 93.8877L260.319 46.313C261.64 47.1346 263.197 47.4942 264.744 47.3352C266.292 47.1762 267.742 46.5077 268.869 45.4347C269.995 44.3616 270.733 42.9448 270.968 41.4067C271.202 39.8685 270.918 38.2962 270.162 36.9366C269.406 35.577 268.219 34.507 266.789 33.8948C265.359 33.2826 263.766 33.1627 262.261 33.5541C260.755 33.9454 259.422 34.8258 258.471 36.057C257.52 37.2882 257.005 38.8004 257.006 40.3563C256.944 40.8936 256.944 41.4363 257.006 41.9737L203.207 55.2283L179.857 15.4643C181.178 14.6781 182.205 13.4797 182.78 12.0532C183.354 10.6266 183.445 9.0509 183.037 7.56802C182.629 6.08513 181.746 4.7771 180.523 3.84486C179.3 2.91262 177.805 2.40771 176.267 2.40771C174.73 2.40771 173.235 2.91262 172.012 3.84486C170.789 4.7771 169.906 6.08513 169.498 7.56802C169.09 9.0509 169.181 10.6266 169.755 12.0532C170.33 13.4797 171.357 14.6781 172.678 15.4643" fill="#FFED00"/>
<path fill-rule="evenodd" clip-rule="evenodd" d="M25.0866 109.863L50.0931 149.903L8.99414 196.137L71.392 191.245C71.392 189.457 71.392 187.655 71.392 185.841C71.3791 167.622 76.0527 149.707 84.9634 133.817C93.8742 117.928 106.722 104.598 122.273 95.1096L92.3753 45.7597C93.7071 44.9568 94.7346 43.7345 95.2968 42.2844C95.859 40.8343 95.9239 39.2386 95.4813 37.7477C95.0388 36.2568 94.1139 34.9549 92.8518 34.0465C91.5896 33.1381 90.0616 32.6744 88.5075 32.7283C86.9535 32.7822 85.4613 33.3506 84.2651 34.3444C83.0689 35.3381 82.2364 36.7008 81.8982 38.2189C81.56 39.7369 81.7353 41.3242 82.3965 42.7319C83.0578 44.1395 84.1676 45.2877 85.5518 45.9964C86.0415 46.2391 86.5577 46.4244 87.09 46.5487L74.3501 100.632L28.3998 103.473C28.3079 101.938 27.7152 100.477 26.7127 99.3119C25.7102 98.147 24.3532 97.3433 22.85 97.024C21.3468 96.7047 19.7804 96.8876 18.3911 97.5444C17.0018 98.2013 15.8663 99.296 15.1589 100.66C14.4515 102.025 14.2113 103.584 14.4751 105.098C14.7388 106.612 15.492 107.998 16.6191 109.043C17.7462 110.087 19.1849 110.733 20.7144 110.882C22.244 111.03 23.7799 110.672 25.0866 109.863Z" fill="#F7A200"/>
<path fill-rule="evenodd" clip-rule="evenodd" d="M34.67 276.968L54.9828 234.206L14.1205 197.795C13.7124 198.246 13.2485 198.644 12.74 198.978C11.4595 199.858 9.92356 200.288 8.37266 200.201C6.82176 200.114 5.3435 199.515 4.16936 198.497C2.99521 197.48 2.19148 196.102 1.88403 194.58C1.57657 193.057 1.78274 191.475 2.47026 190.082C3.15779 188.689 4.28783 187.563 5.68345 186.881C7.07907 186.199 8.66146 185.999 10.1828 186.312C11.7042 186.626 13.0786 187.435 14.091 188.614C15.1033 189.792 15.6963 191.273 15.7771 192.824L71.2725 190.812C72.1988 210.109 78.3554 228.791 89.0829 244.857C99.8104 260.923 114.705 273.768 132.172 282.017L105.824 339.493L84.6435 280.321L38.6537 282.964C38.7236 284.5 38.2871 286.017 37.4115 287.281C36.5358 288.546 35.2693 289.488 33.8065 289.962C32.3438 290.437 30.7657 290.418 29.3147 289.908C27.8637 289.399 26.6201 288.427 25.7749 287.142C24.9297 285.857 24.5297 284.331 24.6363 282.796C24.7429 281.262 25.3503 279.805 26.3651 278.649C27.3798 277.494 28.7459 276.703 30.2534 276.4C31.7609 276.096 33.3264 276.295 34.7094 276.968" fill="#F17900"/>
<path fill-rule="evenodd" clip-rule="evenodd" d="M192.004 354.01L163.132 316.534L112.212 336.258C112.933 337.719 113.122 339.385 112.75 340.97C112.377 342.556 111.464 343.963 110.168 344.949C108.873 345.936 107.274 346.442 105.647 346.379C104.019 346.317 102.464 345.691 101.248 344.608C100.031 343.525 99.2288 342.053 98.9782 340.443C98.7275 338.834 99.0441 337.187 99.8738 335.786C100.703 334.384 101.994 333.314 103.526 332.76C105.057 332.206 106.734 332.201 108.268 332.747L131.934 281.819C149.503 290.103 169.002 293.423 188.322 291.421C207.642 289.418 226.047 282.169 241.544 270.458L275.464 313.299C276.735 312.287 278.318 311.748 279.943 311.772C281.567 311.797 283.133 312.384 284.372 313.434C285.612 314.484 286.45 315.931 286.742 317.529C287.035 319.128 286.764 320.778 285.976 322.199C285.188 323.62 283.932 324.723 282.421 325.322C280.911 325.92 279.24 325.976 277.693 325.48C276.146 324.984 274.818 323.966 273.937 322.601C273.056 321.236 272.676 319.608 272.861 317.993L217.642 310.971L199.143 353.181C200.549 353.803 201.711 354.87 202.452 356.217C203.193 357.563 203.472 359.116 203.245 360.637C203.019 362.157 202.3 363.561 201.198 364.634C200.097 365.706 198.674 366.387 197.149 366.573C195.623 366.758 194.078 366.438 192.752 365.66C191.426 364.883 190.391 363.692 189.807 362.27C189.223 360.848 189.122 359.274 189.519 357.789C189.916 356.304 190.789 354.99 192.004 354.049" fill="#EB4A00"/>
<path d="M477.606 272.194L489.439 250.97C498.168 254.111 507.426 255.518 516.694 255.113C522.698 255.396 528.688 254.303 534.206 251.917C537.689 250.512 540.556 247.91 542.292 244.58C543.592 240.775 544.18 236.763 544.027 232.745C534.993 237.2 525.03 239.445 514.958 239.294C503.498 239.633 492.299 235.839 483.404 228.603C479.095 225.049 475.674 220.538 473.415 215.429C471.155 210.321 470.119 204.755 470.388 199.175C470.12 193.235 471.197 187.311 473.54 181.846C475.882 176.381 479.43 171.517 483.917 167.616C492.928 159.757 504.543 155.538 516.497 155.782C526.155 155.543 535.697 157.929 544.106 162.685V157.438H597.748V183.75H587.335V229.629C587.618 237.613 586.687 245.594 584.574 253.298C582.615 258.899 579.081 263.816 574.398 267.46C568.998 271.741 562.68 274.712 555.939 276.139C546.403 278.279 536.64 279.233 526.87 278.979C521.466 278.979 516.654 278.979 512.395 278.466C508.135 277.953 503.323 277.559 497.88 276.77C490.984 275.854 484.195 274.268 477.606 272.036V272.194ZM514.248 199.727C514.092 204.309 515.481 208.811 518.193 212.508C519.558 214.148 521.268 215.467 523.2 216.373C525.133 217.278 527.241 217.747 529.374 217.747C531.508 217.747 533.616 217.278 535.548 216.373C537.481 215.467 539.191 214.148 540.556 212.508C543.169 208.728 544.484 204.201 544.303 199.609C544.542 194.722 543.155 189.895 540.359 185.881C539.123 184.172 537.489 182.791 535.599 181.856C533.709 180.921 531.62 180.461 529.513 180.516C527.322 180.409 525.14 180.869 523.179 181.85C521.217 182.831 519.54 184.301 518.311 186.117C515.554 190.126 514.133 194.903 514.248 199.766V199.727ZM393.436 241.108H327.37V214.796H338.138V183.75H327.37V157.438H381.328V168.05C391.038 160.24 403.103 155.944 415.564 155.86C426.292 155.86 434.299 158.819 439.742 164.736C445.185 170.654 447.63 180.161 447.63 193.297V214.757H457.53V241.069H404.362V203.909C404.771 198.47 404.06 193.005 402.271 187.853C401.343 186.475 400.054 185.378 398.544 184.682C397.035 183.986 395.364 183.719 393.712 183.908C389.233 184.125 384.914 185.647 381.288 188.287V214.599H393.397L393.436 241.108ZM260.634 133.769C260.67 131.48 261.342 129.245 262.575 127.315C263.808 125.386 265.553 123.837 267.615 122.842C272.835 119.922 278.756 118.489 284.733 118.7C290.637 118.429 296.487 119.927 301.536 123C303.37 124.125 304.891 125.695 305.96 127.563C307.028 129.431 307.609 131.539 307.649 133.69C307.66 135.916 307.054 138.1 305.898 140.001C304.742 141.902 303.082 143.446 301.102 144.46C295.999 147.297 290.21 148.662 284.378 148.405C278.452 148.618 272.567 147.343 267.26 144.697C265.226 143.701 263.52 142.141 262.346 140.204C261.171 138.267 260.577 136.034 260.634 133.769ZM314.907 241.108H255.743V214.796H264.263V183.75H255.625V157.438H307.649V214.796H314.907V241.108ZM177.095 241.108H123.019V214.796H133.708V147.458H122.822V121.106H177.095V204.737L204.31 178.07H189.085V157.438H242.53V180.161H232.709L216.932 195.506L235.825 214.836H242.609V241.148H211.449L177.095 204.737V241.108Z" fill="#12120D"/>
<path d="M882.049 206.551L888.676 184.697C889.149 183 889.583 181.186 890.056 179.332C890.53 177.478 890.924 175.623 891.358 173.769C891.792 171.915 892.186 170.101 892.581 168.404H892.817C893.409 170.969 894.079 173.691 894.75 176.294C895.42 178.898 896.17 181.896 896.919 184.618L903.23 206.551H882.049ZM900.785 157.556H885.402L860.041 240.398H872.938L880.077 216.019H905.439L912.933 240.398H926.146L900.785 157.556ZM836.178 240.634H848.76V157.793H836.178V240.634ZM772.045 167.852C773.348 167.584 774.664 167.386 775.989 167.26C777.876 167.065 779.772 166.973 781.669 166.984C786.964 166.829 792.213 168.009 796.933 170.416C801.161 172.722 804.546 176.315 806.596 180.673C808.975 185.975 810.121 191.748 809.949 197.557C810.146 204.059 808.907 210.524 806.32 216.492C804.194 221.221 800.597 225.137 796.065 227.656C791.116 230.23 785.586 231.48 780.012 231.285H775.673C774.253 231.285 772.991 231.285 771.729 230.93L772.045 167.852ZM759.463 240.358C761.79 240.674 764.432 240.91 767.351 241.068C770.27 241.226 773.662 241.305 777.369 241.305C781.947 241.333 786.517 240.923 791.016 240.082C794.956 239.347 798.786 238.114 802.415 236.413C805.687 234.89 808.685 232.837 811.29 230.338C813.795 227.878 815.922 225.06 817.601 221.975C819.4 218.499 820.726 214.797 821.545 210.969C822.566 206.479 823.069 201.886 823.044 197.281C823.059 194.137 822.821 190.997 822.334 187.892C821.838 184.718 820.991 181.609 819.809 178.622C818.599 175.596 816.951 172.765 814.918 170.219C812.697 167.501 810.029 165.18 807.03 163.355C803.507 161.234 799.674 159.676 795.671 158.74C790.618 157.55 785.439 156.98 780.249 157.043C776.331 157.043 772.584 157.214 769.008 157.556C765.418 157.872 762.145 158.266 759.147 158.779L759.463 240.358ZM746.683 230.062H713.907V202.448H742.936V192.113H713.907V168.049H744.672V157.556H701.285V240.634H746.486L746.683 230.062ZM681.446 157.556H665.669L653.836 193.967C652.206 199.227 650.733 204.171 649.418 208.8C648.104 213.428 646.933 218.017 645.908 222.567H645.592C644.567 218.044 643.423 213.428 642.161 208.721C640.899 204.013 639.518 199.135 638.019 194.085L626.187 157.556H610.41L604.77 240.398H616.602L618.456 206.156C618.666 202.264 618.877 198.319 619.087 194.322C619.297 190.325 619.482 186.38 619.639 182.487C619.639 178.543 619.915 174.874 619.994 171.403H620.31C621.362 176.399 622.584 181.567 623.978 186.906C625.372 192.244 626.923 197.623 628.632 203.04L639.992 239.885H649.418L661.764 202.291C663.526 197.031 665.182 191.771 666.733 186.511C668.285 181.251 669.705 176.202 670.993 171.363H671.309C671.309 174.795 671.309 178.464 671.309 182.33C671.309 186.196 671.545 190.219 671.743 194.164C671.94 198.109 672.098 202.054 672.295 205.801L674.464 240.634H686.297L681.446 157.556Z" fill="#EB4A00"/>
</svg>
