<svg xmlns="http://www.w3.org/2000/svg" viewBox="0 0 2109.88 777.5"><defs><style>.cls-1{fill:#0554f1;}</style></defs><title>Logo - Skillful</title><g id="Layer_2" data-name="Layer 2"><g id="Layer_1-2" data-name="Layer 1"><polygon class="cls-1" points="1199.02 217.34 1123.24 597.26 1187.25 597.26 1263.02 217.34 1199.02 217.34"/><polygon class="cls-1" points="1410.99 217.34 1346.99 217.34 1271.21 597.26 1335.21 597.26 1410.99 217.34"/><path class="cls-1" d="M1557.42,325.89l3.07-14.85q5.1-23,16.89-34.3t31.75-11.27q20,0,33.79,11.27l26.11-46.6q-10.74-8.17-26.37-12.28a131.37,131.37,0,0,0-33.53-4.1q-45.08,0-73,24.31T1499,306.43L1495,325.89H1450.4l-10.24,51.2h44.55l-44,220.17h64l44-220.17h73.21l10.25-51.2Z"/><path class="cls-1" d="M1876.91,323.84l-28.67,141.83q-7.7,39.43-30.72,59.14t-57.86,19.71q-27.15,0-40.71-12.8t-13.57-36.86a106.59,106.59,0,0,1,2-21l30.21-150h-64l-30.2,151.56a153,153,0,0,0-3.59,32.77q0,44,26.88,68.35t71.94,24.32q55.8,0,92.68-33.79l-6.14,30.21h60.92l54.79-273.42Z"/><polygon class="cls-1" points="2045.88 217.34 1970.1 597.26 2034.1 597.26 2109.88 217.34 2045.88 217.34"/><polygon class="cls-1" points="1054.64 597.26 1110.45 317.19 995.24 317.19 939.43 597.26 1054.64 597.26"/><polygon class="cls-1" points="1128.48 217.34 1013.27 217.34 1000.2 281.88 1115.41 281.88 1128.48 217.34"/><path class="cls-1" d="M926.12,597.26l-91.65-153.6L974.76,317.19H832.43L741.8,397.06l35.84-179.72H661.92L621.41,420.49c-19.9-5.7-42.23-11-65.16-15.67.14.24.26.5.39.74-.13-.24-.25-.5-.39-.74a71.35,71.35,0,0,0-9.34-13.16A120.76,120.76,0,0,0,500,359q-27.07-10.48-66.71-19.81-32.62-7.55-46.89-14t-14.27-17.47q0-11.08,15.73-19.23t44.27-8.17A232.35,232.35,0,0,1,491.29,288,186.17,186.17,0,0,1,544,310.69l49.51-100.2Q565,193.6,525.66,184.56t-84.77-9q-63.51,0-110.11,18.92t-71.36,53.6q-24.75,34.67-24.75,80.68,0,36.72,20.1,59.14a125.17,125.17,0,0,0,46.89,33.2q26.79,10.77,67.57,21.26,30.88,7.57,45.16,14t14.27,16.89q0,11.09-14,17.49t-40.21,6.4q-71.62,0-137.47-37.86l-39,74.5a318,318,0,0,0-39.69,12.91c-20.32,8.66-26.66,17.76-23.49,26.73s15.82,17.79,33.82,25.87c47.82,21.71,117.78,48,115.65,72.87-1.57,9-18.4,17.58-35.74,25.87q14.89,6.78,30.53,12.12-15.62-5.34-30.53-12.12C131.1,644.52,49.21,526,49.21,388.74c0-187.22,152.31-339.53,339.55-339.53,108.89,0,206,51.52,268.14,131.47v-1.12h59.41C647.15,71.65,526.16,0,388.76,0,174.39,0,0,174.39,0,388.74,0,530.33,76.08,654.48,189.51,722.46q10.91,6.52,22.25,12.37A388,388,0,0,0,645.3,680.6a392.31,392.31,0,0,0,44-45.56H622.25Q610,646.65,596.67,657c-43.56-17.68-99.2-34.24-154.34-51.77-9.08-2.85-17.53-5.29-24.93-7.69h0a268.84,268.84,0,0,0,27.41-6A229.64,229.64,0,0,0,470,583q46.61-18.93,71.65-53.3c1-1.4,2-2.8,3-4.22,20-4.62,40-9.34,58.67-14.21l-17.15,86H701.86l10.75-53.77,29.7-27.64,48.13,81.41Zm-368.5-96.61h0l-3.41.81-3.22.75-7.86,1.8-4.94,1.1c-6.59,1.46-13.3,2.9-20.06,4.32q-5.11,1.1-10.27,2.16-10.94,2.28-21.86,4.5l-6.79,1.38-8,1.64-7.93,1.63-5.9,1.22c-4.67,1-9.29,1.93-13.82,2.89l-4.74,1-1.72.36-3.1.64-2.19.46-2.28.46-3.38.69-3.58.73-4.81,1-8.48,1.72-3.65.73-4.88,1-4.87,1c-4.87,1-9.73,2-14.53,3l-4.77,1-2.37.52-2.36.52c-2.35.51-4.67,1-7,1.55l-4.56,1.06-1.71.39-1.66.4-.15,0-3.18.77-2.18.53c-1.45.36-2.88.72-4.29,1.09l-2.11.54q-3.6.94-7,1.9l-1.36.39-3.91,1.14-.47.14-3.26,1-.16,0-1.57.51-.52.17-1.69.56-.63.21-.44.14-1.17.41-1.14.4-1.3.47-1.27.47-.8.3-1.45.57-.46.19-1.77.72-.53.22-1.31.57h0l-.68.3-.59.28-.09,0-.29.13-.7.33-.06,0c-.84.4-1.64.81-2.41,1.21l-.67.35-.67.35c-.61.33-1.21.64-1.78,1l-.35.19-.25.14-.08.05c-.68.37-1.32.74-1.95,1.11l-.71.43c-1,.57-1.87,1.15-2.7,1.72l-.9.63-.43.3-.41.31-.35.27c-.51.39-1,.78-1.43,1.18l-.37.34c-.27.24-.52.49-.76.74a3.11,3.11,0,0,0-.31.32c-.27.28-.51.56-.74.84s-.3.39-.44.58l-.2.27,0,0-.08.11c-.05.08-.11.16-.15.24a1.19,1.19,0,0,0-.09.15l0,.07-.1.17h0l-.05.09-.1.18s0,0,0,0a1.4,1.4,0,0,0-.09.17c-.07.14-.14.28-.2.42l0,0-.15.36a5.92,5.92,0,0,0-.27.81,2,2,0,0,0-.08.31c0,.11-.05.21-.08.31a.38.38,0,0,0,0,.1,3.34,3.34,0,0,0-.07.42,2,2,0,0,0,0,.24l0,.31c0,.19,0,.37,0,.56s0,.34,0,.52a.57.57,0,0,0,0,.13c0,.06,0,.12,0,.18s0,.27.05.41a.31.31,0,0,0,0,.08c0,.09,0,.19,0,.29s0,.25.07.38l.12.48s0,.1,0,.15c.08.31.19.62.3.92s.13.37.21.55.2.46.31.69.17.36.27.54c0,0,0,0,0,.05s.13.24.2.35.12.22.19.33a3.45,3.45,0,0,0,.2.32,4,4,0,0,0,.24.38c.08.13.16.25.25.37s.21.31.32.46l.34.44c.07.09.15.18.22.28l.52.62c.56.64,1.18,1.29,1.85,1.93l.58.54.6.52c.28.25.57.5.87.74l.09.07.43.35.08.06c.52.41,1.07.82,1.63,1.22.32.23.63.45,1,.67l.37.25,0,0,.12.08.29.19.24.16.89.56,1.19.74.85.49c.28.17.57.33.86.49l.89.49c.65.36,1.32.71,2,1.06l.84.43c.47.23.95.47,1.45.7l.17.08.59.28.43.21.22.09c1.06.49,2.15,1,3.28,1.46l.56.24c.33.15.68.29,1,.43l1.54.63,1.58.62c.54.22,1.08.42,1.63.63h0l1.56.6c85.88,31.37,193.3,62,177,100.37a41.07,41.07,0,0,1-4.09,9.05,337.69,337.69,0,0,1-108.58,17.81q-11,0-21.71-.69c9.48-4.48,20.27-9,25.86-13.52,12.67-10.23,20.57-20.63,18-31.18-7-30.7-90-55.24-157.12-81.45-12.08-4.73-23.22-9.6-30.89-14.68-5.68-3.77-9.45-7.65-10.3-11.66a8.21,8.21,0,0,1,.23-4.27c16.8-31.31,167.2-50.52,272.33-71.38,27.66-5.47,55.7-11.17,78.09-17.47,23-6.47,40-13.59,44.48-21.77,7.09-12.39-12.48-22.9-43.16-32.38a84.49,84.49,0,0,0-4.82-15.73,3,3,0,0,0-.13-.29c-.24-.57-.49-1.14-.74-1.71.25.57.5,1.14.74,1.71a1.43,1.43,0,0,1,.13.3c24,6,44,12.27,59.41,19.37,12,5.54,21.16,11.6,27,18.46,11.7,13.94-6.19,25.95-38,36.72C593.73,491.57,576.39,496.2,557.62,500.65Z"/><polygon class="cls-1" points="817.87 639.85 802.82 639.85 818.01 659.37 836.72 659.37 857.19 639.85 841.47 639.85 828.31 650.02 817.87 639.85"/><path class="cls-1" d="M813.47,685.68c2.39-1.36,5.9-2,10.5-2q12.62,0,21.56,5.56l7.6-15.45a44.94,44.94,0,0,0-12.21-4.48,67,67,0,0,0-14.78-1.63q-16.39,0-26.5,6.78a21.48,21.48,0,0,0-10.1,18.85q0,6.91,3.73,10.91a21.51,21.51,0,0,0,8.81,5.77A93.91,93.91,0,0,0,815,713.2a62.72,62.72,0,0,1,10,2.58q3.12,1.22,3.12,3.93,0,3.39-3.53,5.22t-10.71,1.83a51.08,51.08,0,0,1-13.76-1.9,40.9,40.9,0,0,1-11.59-5l-8.14,15.32q4.75,3.39,13.22,5.49a74,74,0,0,0,18,2.11q16.26,0,26.5-6.65a21.18,21.18,0,0,0,10.24-18.84q0-6.78-3.66-10.71a20.86,20.86,0,0,0-8.61-5.63,97.79,97.79,0,0,0-12.68-3.19A63.16,63.16,0,0,1,813,695q-3.12-1.28-3.12-4.13Q809.87,687.71,813.47,685.68Z"/><polygon class="cls-1" points="949.52 668.73 922 668.73 887.02 697.34 898.27 641.07 877.12 641.07 857.05 741.67 878.21 741.67 881.73 724.05 894.61 713.34 911.97 741.67 936.51 741.67 911.42 700.46 949.52 668.73"/><path class="cls-1" d="M1006.2,671.71a43.5,43.5,0,0,0-19.39-4.07,46,46,0,0,0-22.64,5.56,40.88,40.88,0,0,0-15.73,15.19,41.77,41.77,0,0,0-5.7,21.69,32,32,0,0,0,4.55,17.15,30.22,30.22,0,0,0,12.88,11.46,43.53,43.53,0,0,0,19.32,4.07,46.41,46.41,0,0,0,22.71-5.56A40.38,40.38,0,0,0,1017.92,722a42.18,42.18,0,0,0,5.63-21.69,32.07,32.07,0,0,0-4.54-17.15A30.38,30.38,0,0,0,1006.2,671.71Zm-6.78,42a20.65,20.65,0,0,1-7.6,8.48,20.3,20.3,0,0,1-11,3q-7.86,0-12.27-4.34t-4.4-11.8a27.47,27.47,0,0,1,2.71-12.47,20.27,20.27,0,0,1,18.71-11.53q7.86,0,12.2,4.34t4.34,11.8A27.6,27.6,0,0,1,999.42,713.74Z"/><polygon class="cls-1" points="1030.06 741.67 1051.21 741.67 1071.27 641.07 1050.12 641.07 1030.06 741.67"/><path class="cls-1" d="M1136.35,678.63q-6.91-11-23.72-11a39,39,0,0,0-20.34,5.49,39.66,39.66,0,0,0-14.58,15.19,44.24,44.24,0,0,0-5.35,21.76,34.16,34.16,0,0,0,4.27,17.42,29.26,29.26,0,0,0,11.46,11.32,32.12,32.12,0,0,0,15.72,3.94q13.29,0,22.37-8.27l-1.35,7.18h20.06l14.51-72.94h-21.15ZM1129,713.74a20.27,20.27,0,0,1-18.71,11.53q-7.86,0-12.27-4.34t-4.41-11.8a27.47,27.47,0,0,1,2.72-12.47,20.27,20.27,0,0,1,18.71-11.53q7.86,0,12.27,4.34t4.4,11.8A27.47,27.47,0,0,1,1129,713.74Z"/><path class="cls-1" d="M1274,671.58a32.5,32.5,0,0,0-15.79-3.94,31.81,31.81,0,0,0-21,7.33l6.78-33.9h-21.15l-20.07,100.6h20.07l2.17-10.84a21.44,21.44,0,0,0,9.63,8.94,33.88,33.88,0,0,0,14.77,3,39.19,39.19,0,0,0,20.48-5.5,39.61,39.61,0,0,0,14.57-15.18,44.25,44.25,0,0,0,5.36-21.76,34.16,34.16,0,0,0-4.27-17.42A29.17,29.17,0,0,0,1274,671.58Zm-8.34,42.16A20.27,20.27,0,0,1,1247,725.27q-7.86,0-12.2-4.34t-4.34-11.8a27.47,27.47,0,0,1,2.72-12.47,20.56,20.56,0,0,1,7.59-8.48,20.3,20.3,0,0,1,11-3q7.86,0,12.27,4.34t4.41,11.8A27.47,27.47,0,0,1,1265.69,713.74Z"/><path class="cls-1" d="M1359.18,671.58a40.21,40.21,0,0,0-18.37-3.94,44.58,44.58,0,0,0-22.24,5.49,39.47,39.47,0,0,0-15.25,15.19,43.38,43.38,0,0,0-5.49,21.76,32.41,32.41,0,0,0,4.54,17.22,29.62,29.62,0,0,0,13,11.46,45.87,45.87,0,0,0,19.73,4,55.67,55.67,0,0,0,16.54-2.44,42.12,42.12,0,0,0,14-7.33l-8.82-14a27.22,27.22,0,0,1-8.88,5,32.36,32.36,0,0,1-10.64,1.76q-17.76,0-18.85-14.92h55.86a56.58,56.58,0,0,0,1.23-11.11,33,33,0,0,0-4.28-16.95A28.46,28.46,0,0,0,1359.18,671.58Zm-39.25,27a21.46,21.46,0,0,1,7.32-11,19.92,19.92,0,0,1,12.61-4q7.46,0,11.86,4t4.41,11Z"/><polygon class="cls-1" points="1415.65 659.37 1434.36 659.37 1454.83 639.85 1439.1 639.85 1425.95 650.02 1415.51 639.85 1400.46 639.85 1415.65 659.37"/><polygon class="cls-1" points="1388.13 685 1423.24 685 1378.23 728.93 1375.65 741.67 1440.73 741.67 1443.98 725.4 1406.56 725.4 1451.58 681.47 1454.02 668.73 1391.38 668.73 1388.13 685"/><polygon class="cls-1" points="1546.89 668.73 1519.37 668.73 1484.39 697.34 1495.64 641.07 1474.49 641.07 1454.42 741.67 1475.58 741.67 1479.1 724.05 1491.98 713.34 1509.34 741.67 1533.88 741.67 1508.79 700.46 1546.89 668.73"/><path class="cls-1" d="M1603.56,671.71a43.43,43.43,0,0,0-19.38-4.07,46,46,0,0,0-22.65,5.56,40.92,40.92,0,0,0-15.72,15.19,41.77,41.77,0,0,0-5.7,21.69,32,32,0,0,0,4.54,17.15,30.28,30.28,0,0,0,12.88,11.46,43.59,43.59,0,0,0,19.32,4.07,46.35,46.35,0,0,0,22.71-5.56A40.34,40.34,0,0,0,1615.29,722a42.18,42.18,0,0,0,5.63-21.69,32.16,32.16,0,0,0-4.54-17.15A30.35,30.35,0,0,0,1603.56,671.71Zm-6.78,42a20.56,20.56,0,0,1-7.59,8.48,20.3,20.3,0,0,1-11,3q-7.86,0-12.27-4.34t-4.41-11.8a27.6,27.6,0,0,1,2.71-12.47A20.3,20.3,0,0,1,1583,685.13q7.86,0,12.2,4.34t4.34,11.8A27.47,27.47,0,0,1,1596.78,713.74Z"/><polygon class="cls-1" points="1691.15 668.73 1660.51 718.49 1649.93 668.73 1629.05 668.73 1645.19 741.67 1667.02 741.67 1712.3 668.73 1691.15 668.73"/><path class="cls-1" d="M1769.92,678.63q-6.92-11-23.73-11a39,39,0,0,0-20.33,5.49,39.66,39.66,0,0,0-14.58,15.19,44.24,44.24,0,0,0-5.35,21.76,34.16,34.16,0,0,0,4.27,17.42,29.24,29.24,0,0,0,11.45,11.32,32.16,32.16,0,0,0,15.73,3.94q13.29,0,22.37-8.27l-1.35,7.18h20.06L1793,668.73h-21.15Zm-7.32,35.11a20.27,20.27,0,0,1-18.71,11.53q-7.86,0-12.27-4.34t-4.41-11.8a27.6,27.6,0,0,1,2.71-12.47,20.3,20.3,0,0,1,18.71-11.53q7.88,0,12.28,4.34t4.4,11.8A27.47,27.47,0,0,1,1762.6,713.74Z"/><path class="cls-1" d="M1854.93,667.64q-14.23,0-24,9l1.63-7.86h-20.07L1798,741.67h21.15l7.32-37q1.89-9.36,7.25-14A19.81,19.81,0,0,1,1847.2,686q6.24,0,9.36,3t3.11,8.68a21.86,21.86,0,0,1-.54,5l-7.86,39h21.15l8.13-40.4a40.64,40.64,0,0,0,1-8.81q0-11.94-7.18-18.38T1854.93,667.64Z"/><polygon class="cls-1" points="1891.67 741.67 1912.69 741.67 1927.19 668.73 1906.18 668.73 1891.67 741.67"/><path class="cls-1" d="M1930.92,638a13.13,13.13,0,0,0-9-3,14.25,14.25,0,0,0-10.1,3.59,11.79,11.79,0,0,0-3.87,9,10.17,10.17,0,0,0,3.46,7.79,12.55,12.55,0,0,0,8.88,3.19,14.51,14.51,0,0,0,10.17-3.59,12.18,12.18,0,0,0,3.93-9.43A9.62,9.62,0,0,0,1930.92,638Z"/><path class="cls-1" d="M1997.83,678.63q-6.91-11-23.73-11a39,39,0,0,0-20.33,5.49,39.66,39.66,0,0,0-14.58,15.19,44.24,44.24,0,0,0-5.35,21.76,34.16,34.16,0,0,0,4.27,17.42,29.24,29.24,0,0,0,11.45,11.32,32.16,32.16,0,0,0,15.73,3.94q13.29,0,22.37-8.27l-1.35,7.18h20.06l14.51-72.94h-21.15Zm-7.32,35.11a20.27,20.27,0,0,1-18.71,11.53q-7.86,0-12.27-4.34t-4.41-11.8a27.47,27.47,0,0,1,2.71-12.47,20.3,20.3,0,0,1,18.71-11.53q7.88,0,12.27,4.34t4.41,11.8A27.47,27.47,0,0,1,1990.51,713.74Z"/></g></g></svg>