<svg viewBox="0 0 877 235" fill="none" xmlns="http://www.w3.org/2000/svg">
<path fill-rule="evenodd" clip-rule="evenodd" d="M112.479 80.5625C119.923 80.5625 125.959 86.5902 125.959 94.0259C125.959 101.461 119.923 107.488 112.479 107.488C105.035 107.488 98.9994 101.461 98.9994 94.0259C98.9994 86.5902 105.035 80.5625 112.479 80.5625ZM112.502 40.6531C151.156 40.6531 182.492 71.9497 182.492 110.556C182.492 136.052 168.822 158.358 148.405 170.569V153.182H153.176V129.35C153.176 124.107 148.88 119.817 143.632 119.817H136.627C134.467 119.817 132.469 120.545 130.865 121.764V153.182H131.853V177.75C128.871 178.606 125.806 179.266 122.675 179.721V152.779H128.551V123.419C128.551 116.961 123.26 111.678 116.794 111.678H108.164C101.698 111.678 96.4069 116.961 96.4069 123.419V152.779H102.283V179.714C99.2528 179.272 96.2839 178.639 93.393 177.82V153.182H94.0956V121.555C92.5427 120.461 90.6529 119.817 88.6197 119.817H81.6144C76.3653 119.817 72.0712 124.107 72.0712 129.35V153.182H76.8401V170.711C56.2905 158.532 42.5131 136.153 42.5131 110.556C42.5131 71.9497 73.8476 40.6531 112.502 40.6531ZM85.1171 94.561C91.1598 94.561 96.0593 99.4533 96.0593 105.49C96.0593 111.525 91.1598 116.417 85.1171 116.417C79.0743 116.417 74.1749 111.525 74.1749 105.49C74.1749 99.4533 79.0743 94.561 85.1171 94.561ZM140.13 94.561C146.172 94.561 151.071 99.4533 151.071 105.49C151.071 111.525 146.172 116.417 140.13 116.417C134.086 116.417 129.187 111.525 129.187 105.49C129.187 99.4533 134.086 94.561 140.13 94.561ZM103.646 19.3247C110.443 19.3247 117.079 20.0137 123.489 21.3254C120.868 21.1 118.217 20.9772 115.538 20.9772C65.1921 20.9772 24.3795 61.739 24.3795 112.023C24.3795 162.306 65.1921 203.068 115.538 203.068C146.271 203.068 173.45 187.877 189.964 164.606C173.271 195.077 140.876 215.742 103.646 215.742C91.9759 215.742 80.7813 213.707 70.3953 209.98L70.3931 209.984L26.2672 233.965L38.0243 190.675L38.0275 190.67C17.9496 172.691 5.31543 146.587 5.31543 117.533C5.31543 63.2943 49.3398 19.3247 103.646 19.3247Z" fill="url(#paint0_linear)"/>
<path fill-rule="evenodd" clip-rule="evenodd" d="M187.152 10.103C170.561 10.103 155.293 15.758 143.172 25.2424C180.005 36.9336 206.692 71.3633 206.692 112.023C206.692 126.335 203.381 139.875 197.489 151.924C200.343 151.51 203.142 150.927 205.874 150.187L205.871 150.193L239.775 172.173L230.997 137.638L230.995 137.635C247.749 124.592 258.525 104.246 258.525 81.386C258.525 42.0171 226.57 10.103 187.152 10.103Z" fill="url(#paint1_linear)"/>
<path fill-rule="evenodd" clip-rule="evenodd" d="M294.201 47.5923V27.3182H304.927C312.771 27.3182 316.116 31.2352 316.116 37.4552C316.116 43.6763 312.771 47.5923 304.927 47.5923H294.201ZM336.184 37.4552C336.184 22.5958 326.265 11.4215 306.427 11.4215H274.479V92.2872H294.201V63.2593H306.427C327.073 63.2593 336.184 50.8182 336.184 37.4552ZM426.146 51.6247C426.146 27.3182 407.808 10.27 384.74 10.27C361.789 10.27 343.104 27.3182 343.104 51.6247C343.104 75.9301 361.789 93.0936 384.74 93.0936C407.692 93.0936 426.146 75.9301 426.146 51.6247ZM363.287 51.6247C363.287 37.2256 371.592 28.1247 384.74 28.1247C397.658 28.1247 406.078 37.2256 406.078 51.6247C406.078 65.793 397.658 75.1236 384.74 75.1236C371.592 75.1236 363.287 65.793 363.287 51.6247ZM520.953 92.2872H540.675V43.6763L558.898 92.2872H574.815L592.922 43.7917V92.2872H612.644V11.4215H589.462L566.972 67.406L544.25 11.4215H520.953V92.2872ZM676.426 11.4215H626.831V92.2872H639.498V85.6089H676.426V76.5058H646.554V58.7665H672.966V43.561H646.554V27.2039H676.426V11.4215ZM772.501 68.2125C772.501 41.1415 732.479 47.4769 732.479 33.4239C732.479 28.3554 736.054 25.936 740.784 26.0513C746.088 26.1667 749.779 29.2772 750.126 34.4611H771.463C770.656 19.0248 758.776 10.27 741.129 10.27C724.175 10.27 711.603 18.7941 711.603 34.115C711.373 62.7979 751.856 54.7342 751.856 69.709C751.856 74.4325 748.165 77.3123 742.398 77.3123C736.862 77.3123 732.941 74.3171 732.363 68.0971H711.373C711.95 84.4542 725.559 93.0936 742.975 93.0936C761.889 93.0936 772.501 81.8051 772.501 68.2125ZM856.145 79.6228L831.438 11.4215H808.601L779.306 92.2872H799.951L804.795 78.0034H835.013L835.036 78.0707L846.417 85.6409L856.145 79.6228ZM829.938 62.7979H809.985L819.904 33.1932L829.938 62.7979ZM437.103 17.7708V92.2872H467.437C493.272 92.2872 509.88 75.8147 509.88 51.8543C509.88 30.5751 496.903 15.3268 476.048 12.0731V16.192L455.024 26.8941L437.103 17.7708ZM456.826 75.239V28.24H466.168C481.046 28.24 489.812 36.9949 489.812 51.8543C489.812 66.7149 481.046 75.239 466.168 75.239H456.826Z" fill="#DD7176"/>
<path d="M455.019 10.6945L437.142 0.672852V14.2655L455.019 23.3653L472.896 14.2655V0.672852L455.019 10.6945Z" fill="#DD7176"/>
<path d="M846.417 89.3373L831.963 80.3955V86.4286L846.417 95.2625L860.871 86.4286V80.3955L846.417 89.3373Z" fill="#DD7176"/>
<path d="M316.521 118.873C316.521 128.03 311.019 134.709 298.723 134.709H283.514V103.359H298.615C311.343 103.359 316.521 109.392 316.521 118.873ZM275.963 97.0036V172.308H283.514V140.85H297.429L316.09 172.308H325.151L305.735 140.312C318.463 137.942 324.288 129.216 324.288 118.873C324.288 106.484 316.09 97.0036 298.615 97.0036H275.963ZM412.834 134.603C412.834 112.086 396.761 96.1416 375.512 96.1416C354.37 96.1416 338.19 112.086 338.19 134.603C338.19 157.226 354.37 173.062 375.512 173.062C396.761 173.062 412.834 157.226 412.834 134.603ZM345.956 134.603C345.956 114.887 358.792 102.821 375.512 102.821C392.231 102.821 405.067 114.887 405.067 134.603C405.067 154.317 392.231 166.491 375.512 166.491C358.792 166.491 345.956 154.317 345.956 134.603ZM469.463 97.0036H423.297V103.683H460.618L422.65 166.275V172.308H470.003V165.629H431.495L469.463 103.037V97.0036ZM493.968 133.741V103.359H509.177C521.906 103.359 526.867 108.962 526.867 118.658C526.867 127.922 521.9 133.741 509.177 133.741H493.968ZM534.634 118.658C534.634 106.268 526.646 97.0036 509.177 97.0036H486.417V172.308H493.968V140.204H509.177C526.867 140.204 534.634 130.832 534.634 118.658ZM590.173 118.873C590.173 128.03 584.665 134.709 572.375 134.709H557.165V103.359H572.267C584.995 103.359 590.173 109.392 590.173 118.873ZM549.615 97.0036V172.308H557.165V140.85H571.081L589.742 172.308H598.803L579.387 140.312C592.114 137.942 597.94 129.216 597.94 118.873C597.94 106.484 589.734 97.0036 572.267 97.0036H549.615ZM669.887 172.308H677.868L650.471 97.9725H641.949L614.442 172.308H622.425L629.005 154.425H663.306L669.887 172.308ZM661.041 148.176H631.27L646.155 107.454L661.041 148.176ZM710.121 164.121L685.419 97.0036H677.221L705.806 172.308H714.435L743.02 97.0036H735.038L710.121 164.121ZM796.745 172.308H804.727L777.329 97.9725H768.807L741.3 172.308H749.283L755.863 154.425H790.164L796.745 172.308ZM787.899 148.176H758.128L773.013 107.454L787.899 148.176ZM811.414 103.251H832.448V172.308H839.999V103.251H860.925V97.0036H811.414V103.251Z" fill="#DD7176"/>
<path fill-rule="evenodd" clip-rule="evenodd" d="M641.759 87.9424H676.465V94.9999H641.759V87.9424Z" fill="#DD7176"/>
<path d="M290.625 196.784C282.028 196.784 276.141 202.456 276.141 210.781C276.141 219.159 282.028 224.883 290.625 224.883C299.169 224.883 305.057 219.159 305.057 210.781C305.057 202.456 299.169 196.784 290.625 196.784ZM290.625 201.883C295.575 201.883 299.066 205.578 299.066 210.886C299.066 216.245 295.575 219.887 290.625 219.887C285.623 219.887 282.132 216.245 282.132 210.886C282.132 205.578 285.623 201.883 290.625 201.883ZM331.16 196.784C326.834 196.784 323.501 198.553 321.469 201.78V186.065H315.477V224.675H321.469V219.887C323.501 223.114 326.834 224.883 331.263 224.883C339.183 224.883 344.393 219.211 344.393 210.937C344.393 202.508 339.027 196.784 331.16 196.784ZM329.908 219.784C324.96 219.784 321.469 216.089 321.469 210.73C321.469 205.526 324.96 201.78 329.908 201.78C334.858 201.78 338.349 205.578 338.349 210.73C338.349 216.038 334.858 219.784 329.908 219.784ZM357.21 185.544L362.836 193.35H368.776L374.403 185.544H369.089L365.806 190.383L362.524 185.544H357.21ZM374.09 205.161L377.373 201.311C374.82 198.397 370.912 196.784 365.91 196.784C357.678 196.784 351.948 202.508 351.948 210.886C351.948 219.211 357.678 224.883 365.91 224.883C371.173 224.883 375.185 223.01 377.685 219.731L374.351 216.402C372.476 218.586 369.662 219.731 366.171 219.731C361.378 219.731 357.939 216.141 357.939 210.886C357.939 205.629 361.378 202.039 366.171 202.039C369.506 201.987 372.162 203.184 374.09 205.161ZM390.815 185.492C388.835 185.492 387.324 187.001 387.324 189.082C387.324 191.112 388.835 192.621 390.815 192.621C392.794 192.621 394.306 191.112 394.306 189.082C394.306 187.001 392.794 185.492 390.815 185.492ZM387.845 196.992V224.675H393.785V196.992H387.845ZM429.074 224.675L429.022 206.515C428.97 200.426 424.949 196.784 417.803 196.784C412.541 196.784 409.728 197.98 405.872 200.27L408.321 204.433C411.082 202.559 413.844 201.623 416.5 201.623C420.885 201.623 423.126 203.704 423.126 207.191V208.024H414.729C408.06 208.075 404.256 211.301 404.256 216.35C404.256 221.241 408.008 224.936 414 224.936C418.011 224.936 421.199 223.738 423.178 221.292V224.675H429.074ZM415.25 220.2C411.915 220.2 409.884 218.586 409.884 216.089C409.884 213.436 411.707 212.394 415.615 212.394H423.126V214.944C422.814 217.963 419.531 220.2 415.25 220.2ZM457.191 196.784C452.502 196.784 448.959 198.449 446.979 202.3V196.992H440.988V224.675H446.979V209.949C447.396 205.629 450.261 202.456 454.846 202.403C459.014 202.403 461.516 204.953 461.516 209.116V224.675H467.507V207.452C467.507 200.843 463.652 196.784 457.191 196.784ZM495.225 203.965L497.413 199.542C494.913 197.772 491.213 196.731 487.722 196.731C482.408 196.731 477.51 199.125 477.51 204.745C477.458 214.737 492.046 211.562 492.046 217.234C492.046 219.315 490.067 220.2 487.514 220.2C484.491 220.2 480.637 218.899 478.24 216.765L476.104 221.033C478.866 223.53 483.19 224.883 487.254 224.883C492.828 224.883 497.882 222.334 497.882 216.662C497.934 206.618 483.19 209.377 483.19 204.277C483.19 202.3 484.908 201.519 487.254 201.519C489.702 201.519 492.776 202.456 495.225 203.965ZM526.902 224.675H533.987L522.942 207.711L533.206 196.992H526.328L514.086 209.377V186.065H508.093V224.675H514.086V216.922L518.774 211.979L526.902 224.675ZM563.911 224.675L563.859 206.515C563.806 200.426 559.786 196.784 552.639 196.784C547.377 196.784 544.565 197.98 540.709 200.27L543.157 204.433C545.919 202.559 548.68 201.623 551.337 201.623C555.722 201.623 557.962 203.704 557.962 207.191V208.024H549.566C542.896 208.075 539.093 211.301 539.093 216.35C539.093 221.241 542.845 224.936 548.836 224.936C552.848 224.936 556.035 223.738 558.015 221.292V224.675H563.911ZM550.087 220.2C546.752 220.2 544.721 218.586 544.721 216.089C544.721 213.436 546.543 212.394 550.451 212.394H557.962V214.944C557.65 217.963 554.368 220.2 550.087 220.2ZM598.332 185.492C596.353 185.492 594.841 187.001 594.841 189.082C594.841 191.112 596.353 192.621 598.332 192.621C600.313 192.621 601.823 191.112 601.823 189.082C601.823 187.001 600.313 185.492 598.332 185.492ZM595.363 196.992V224.675H601.302V196.992H595.363ZM630.27 196.784C625.581 196.784 622.038 198.449 620.058 202.3V196.992H614.067V224.675H620.058V209.949C620.475 205.629 623.341 202.456 627.926 202.403C632.095 202.403 634.595 204.953 634.595 209.116V224.675H640.586V207.452C640.586 200.843 636.731 196.784 630.27 196.784ZM655.487 185.492C653.507 185.492 651.996 187.001 651.996 189.082C651.996 191.112 653.507 192.621 655.487 192.621C657.468 192.621 658.978 191.112 658.978 189.082C658.978 187.001 657.468 185.492 655.487 185.492ZM652.518 196.992V224.675H658.457V196.992H652.518ZM690.759 205.161L694.042 201.311C691.489 198.397 687.581 196.784 682.58 196.784C674.348 196.784 668.616 202.508 668.616 210.886C668.616 219.211 674.348 224.883 682.58 224.883C687.842 224.883 691.854 223.01 694.354 219.731L691.02 216.402C689.145 218.586 686.331 219.731 682.84 219.731C678.047 219.731 674.608 216.141 674.608 210.886C674.608 205.629 678.047 202.039 682.84 202.039C686.174 201.987 688.832 203.184 690.759 205.161ZM707.483 185.492C705.504 185.492 703.993 187.001 703.993 189.082C703.993 191.112 705.504 192.621 707.483 192.621C709.464 192.621 710.974 191.112 710.974 189.082C710.974 187.001 709.464 185.492 707.483 185.492ZM704.514 196.992V224.675H710.453V196.992H704.514ZM745.743 224.675L745.691 206.515C745.639 200.426 741.619 196.784 734.473 196.784C729.209 196.784 726.397 197.98 722.541 200.27L724.99 204.433C727.751 202.559 730.512 201.623 733.17 201.623C737.555 201.623 739.796 203.704 739.796 207.191V208.024H731.398C724.729 208.075 720.926 211.301 720.926 216.35C720.926 221.241 724.677 224.936 730.669 224.936C734.681 224.936 737.867 223.738 739.847 221.292V224.675H745.743ZM731.919 220.2C728.585 220.2 726.553 218.586 726.553 216.089C726.553 213.436 728.376 212.394 732.283 212.394H739.796V214.944C739.482 217.963 736.2 220.2 731.919 220.2ZM771.828 218.327C770.214 219.108 768.911 219.523 767.661 219.523C765.785 219.523 764.69 218.639 764.69 215.777V202.508H772.87V198.032H764.69V190.436H758.752V198.032H754.844V202.508H758.752V216.87C758.752 222.542 762.346 224.936 766.514 224.936C768.858 224.936 771.151 224.207 773.34 222.906L771.828 218.327ZM787.772 185.284L782.249 192.985H787.563L793.919 187.886L787.772 185.284ZM782.77 196.992V224.675H788.709V196.992H782.77ZM797.097 196.992L807.83 224.675H814.03L824.658 196.992H818.667L811.06 218.795L803.349 196.992H797.097ZM854.477 224.675L854.426 206.515C854.373 200.426 850.353 196.784 843.207 196.784C837.943 196.784 835.131 197.98 831.275 200.27L833.724 204.433C836.486 202.559 839.246 201.623 841.904 201.623C846.289 201.623 848.53 203.704 848.53 207.191V208.024H840.133C833.463 208.075 829.66 211.301 829.66 216.35C829.66 221.241 833.411 224.936 839.403 224.936C843.415 224.936 846.601 223.738 848.582 221.292V224.675H854.477ZM840.654 220.2C837.319 220.2 835.287 218.586 835.287 216.089C835.287 213.436 837.11 212.394 841.018 212.394H848.53V214.944C848.217 217.963 844.935 220.2 840.654 220.2Z" fill="#8D5898"/>
<defs>
<linearGradient id="paint0_linear" x1="146.069" y1="34.2921" x2="49.3994" y2="219.097" gradientUnits="userSpaceOnUse">
<stop stop-color="#663286"/>
<stop offset="1" stop-color="#DD7176"/>
</linearGradient>
<linearGradient id="paint1_linear" x1="145.657" y1="56.5102" x2="255.961" y2="125.889" gradientUnits="userSpaceOnUse">
<stop stop-color="#DD7176"/>
<stop offset="1" stop-color="#DD7176"/>
</linearGradient>
</defs>
</svg>
