<svg viewBox="0 0 743 231" fill="none" xmlns="http://www.w3.org/2000/svg">
<g clip-path="url(#clip0)">
<path d="M169 0H140.89C110.38 0 92.6 15.76 78.89 36.74C61.09 64.08 0 161.08 0 161.08H57.52L72.64 134.9L92 101.52L127.2 40.61H127.64L137.12 101.52L143 134.9L147.28 161.08H204.81L169 0Z" fill="#1D1D1B"/>
<path d="M285.52 161.08L311.46 36.08H377.76C377.76 36.08 362.21 111.69 358.76 127.54C355.31 143.39 351.81 161.06 351.81 161.06H513.16L521.16 126.31H412.76C412.76 126.31 419.68 92.47 423.94 72.31C428.2 52.15 431.72 34.71 431.72 34.71H539.19L546.55 0H197.33L189.89 36.1H257.77L231.83 161.1L285.52 161.08Z" fill="#1D1D1B"/>
<path d="M742.34 0H678.5L639.92 43.32L610.62 0H546.78L602.02 77.38L514.71 161.08H581.27L625.48 112.35L658.62 161.08H725.17L663.84 77.38L742.34 0Z" fill="#1D1D1B"/>
<path d="M446.3 97.2298H528.25L535.25 63.8398H486.08C445.73 63.8398 446.3 97.2298 446.3 97.2298Z" fill="#1D1D1B"/>
<path d="M626.23 224.14C625.775 224.129 625.322 224.212 624.901 224.385C624.479 224.557 624.098 224.814 623.78 225.14C623.451 225.477 623.193 225.876 623.022 226.314C622.85 226.752 622.768 227.22 622.78 227.69C622.765 228.079 622.828 228.467 622.965 228.831C623.102 229.195 623.312 229.528 623.58 229.81C623.847 230.083 624.168 230.297 624.523 230.439C624.878 230.58 625.258 230.645 625.64 230.63C626.095 230.643 626.549 230.561 626.971 230.389C627.393 230.217 627.774 229.958 628.09 229.63C628.418 229.289 628.676 228.886 628.847 228.445C629.019 228.004 629.101 227.533 629.09 227.06C629.107 226.676 629.047 226.292 628.913 225.931C628.779 225.57 628.574 225.24 628.31 224.96C628.037 224.69 627.712 224.48 627.354 224.342C626.996 224.205 626.613 224.143 626.23 224.16V224.14ZM611.23 220.21L601.06 201.7H595.18L589.47 230.26H595.63L599.34 211.78L609.46 230.26H615.34L621.05 201.7H614.93L611.23 220.21ZM580.37 201.7L574.66 230.26H581.15L586.86 201.7H580.37ZM559.37 223.41L556.97 201.7L550.68 201.75L541.1 223.49L538.69 201.7H531.7L536.39 230.26H543.05L552.35 209.66L554.71 230.26H561.36L575.52 201.7H568.91L559.37 223.41ZM508.37 224.14C507.915 224.129 507.462 224.212 507.041 224.385C506.619 224.557 506.238 224.814 505.92 225.14C505.591 225.477 505.333 225.876 505.162 226.314C504.99 226.752 504.908 227.22 504.92 227.69C504.905 228.079 504.968 228.467 505.105 228.831C505.242 229.195 505.452 229.528 505.72 229.81C505.986 230.084 506.308 230.298 506.663 230.439C507.017 230.581 507.398 230.646 507.78 230.63C508.235 230.643 508.689 230.561 509.111 230.389C509.532 230.217 509.914 229.958 510.23 229.63C510.559 229.289 510.816 228.887 510.988 228.445C511.16 228.004 511.242 227.533 511.23 227.06C511.247 226.676 511.188 226.293 511.055 225.933C510.923 225.572 510.721 225.242 510.46 224.96C510.187 224.69 509.862 224.48 509.504 224.342C509.146 224.205 508.763 224.143 508.38 224.16L508.37 224.14ZM484.42 201.7L483.36 207.17H492.05L487.4 230.26H493.84L498.54 207.17H507.27L508.33 201.7H484.42ZM479.48 201.7H473L469.65 218.31C469.315 220.183 468.352 221.887 466.92 223.14C465.531 224.331 463.749 224.965 461.92 224.92C460.497 225 459.098 224.531 458.01 223.61C457.524 223.152 457.145 222.593 456.898 221.973C456.651 221.353 456.542 220.686 456.58 220.02C456.594 219.445 456.661 218.873 456.78 218.31L460.09 201.7H453.7L450.4 218.31C450.21 219.221 450.112 220.149 450.11 221.08C450.048 222.389 450.286 223.695 450.806 224.897C451.326 226.1 452.114 227.168 453.11 228.02C455.11 229.71 457.83 230.55 461.29 230.55C464.843 230.671 468.321 229.502 471.08 227.26C473.76 224.959 475.55 221.792 476.14 218.31L479.48 201.7ZM430.61 206.89C432.018 206.868 433.404 207.243 434.61 207.97C435.795 208.698 436.76 209.735 437.4 210.97C438.083 212.263 438.427 213.708 438.4 215.17C438.41 216.924 437.954 218.649 437.08 220.17C436.229 221.665 435.006 222.916 433.53 223.8C432.093 224.666 430.447 225.123 428.77 225.12C427.361 225.129 425.976 224.749 424.77 224.02C423.562 223.295 422.571 222.259 421.9 221.02C421.184 219.73 420.819 218.275 420.84 216.8C420.817 215.039 421.288 213.307 422.2 211.8C423.093 210.32 424.34 209.086 425.83 208.21C427.282 207.346 428.94 206.89 430.63 206.89H430.61ZM431.12 201.26C428.171 201.236 425.264 201.958 422.67 203.36C420.15 204.707 418.027 206.689 416.51 209.11C414.993 211.537 414.201 214.348 414.23 217.21C414.196 219.63 414.806 222.015 416 224.12C417.183 226.168 418.914 227.845 421 228.96C423.217 230.152 425.703 230.754 428.22 230.71C431.171 230.732 434.079 230.003 436.67 228.59C439.197 227.227 441.321 225.223 442.83 222.78C444.342 220.35 445.132 217.541 445.11 214.68C445.145 212.261 444.527 209.877 443.32 207.78C442.127 205.753 440.396 204.095 438.32 202.99C436.112 201.813 433.641 201.217 431.14 201.26H431.12ZM393.48 201.7L379.25 214.8L381.86 201.7H375.37L369.66 230.26H376.14L377.41 223.86L382.83 218.86L388.55 230.28H396.1L388.1 213.96L401.32 201.72L393.48 201.7ZM349.18 207.05H355.18C356.426 206.98 357.659 207.333 358.68 208.05C359.092 208.383 359.419 208.811 359.633 209.296C359.847 209.781 359.942 210.311 359.91 210.84C359.957 211.655 359.822 212.47 359.514 213.226C359.206 213.982 358.733 214.66 358.13 215.21C356.726 216.317 354.964 216.869 353.18 216.76H347.26L349.18 207.05ZM366.18 209.7C366.243 208.581 366.042 207.462 365.592 206.435C365.142 205.408 364.456 204.502 363.59 203.79C361.857 202.403 359.387 201.707 356.18 201.7H343.78L338 230.26H344.49L346.12 222.1H352.65L355.54 230.26H362.85L358.68 220.96C360.915 220.116 362.833 218.6 364.17 216.62C365.494 214.559 366.17 212.149 366.11 209.7H366.18ZM320.11 206.89C321.518 206.867 322.904 207.242 324.11 207.97C325.295 208.698 326.26 209.735 326.9 210.97C327.583 212.263 327.927 213.708 327.9 215.17C327.91 216.924 327.454 218.649 326.58 220.17C325.729 221.665 324.506 222.916 323.03 223.8C321.597 224.666 319.954 225.122 318.28 225.12C316.871 225.129 315.486 224.749 314.28 224.02C313.072 223.291 312.079 222.256 311.4 221.02C310.684 219.73 310.319 218.275 310.34 216.8C310.32 215.038 310.795 213.306 311.71 211.8C312.597 210.316 313.846 209.081 315.34 208.21C316.788 207.346 318.443 206.89 320.13 206.89H320.11ZM320.62 201.26C317.674 201.236 314.771 201.958 312.18 203.36C309.656 204.701 307.532 206.685 306.02 209.11C304.493 211.534 303.698 214.346 303.73 217.21C303.694 219.631 304.308 222.018 305.51 224.12C306.68 226.184 308.41 227.876 310.5 229C312.717 230.192 315.203 230.794 317.72 230.75C320.671 230.772 323.579 230.043 326.17 228.63C328.699 227.269 330.824 225.265 332.33 222.82C333.842 220.39 334.632 217.581 334.61 214.72C334.65 212.3 334.031 209.915 332.82 207.82C331.627 205.793 329.896 204.135 327.82 203.03C325.613 201.852 323.141 201.256 320.64 201.3L320.62 201.26ZM287.72 223.45L285.31 201.74L279.03 201.79L269.44 223.53L267.04 201.74H260.1L264.79 230.3H271.44L280.74 209.7L283.11 230.3H289.76L303.92 201.74H297.31L287.72 223.45ZM236.72 224.18C236.266 224.169 235.815 224.253 235.395 224.425C234.975 224.597 234.596 224.854 234.28 225.18C233.949 225.515 233.69 225.914 233.518 226.352C233.347 226.791 233.265 227.259 233.28 227.73C233.263 228.118 233.324 228.506 233.46 228.87C233.595 229.234 233.803 229.568 234.07 229.85C234.337 230.123 234.658 230.337 235.013 230.479C235.368 230.62 235.748 230.685 236.13 230.67C236.586 230.684 237.039 230.603 237.461 230.431C237.883 230.258 238.264 229.999 238.58 229.67C238.908 229.329 239.166 228.926 239.337 228.485C239.509 228.044 239.591 227.573 239.58 227.1C239.597 226.716 239.537 226.331 239.403 225.971C239.269 225.61 239.064 225.28 238.8 225C238.528 224.729 238.202 224.518 237.844 224.381C237.486 224.243 237.103 224.181 236.72 224.2V224.18ZM213.67 207.11H219.67C220.919 207.042 222.154 207.394 223.18 208.11C223.589 208.446 223.913 208.873 224.125 209.358C224.337 209.843 224.431 210.372 224.4 210.9C224.447 211.714 224.312 212.528 224.006 213.284C223.7 214.04 223.23 214.718 222.63 215.27C221.211 216.384 219.431 216.936 217.63 216.82H211.72L213.67 207.11ZM230.67 209.76C230.733 208.64 230.53 207.52 230.078 206.493C229.626 205.466 228.938 204.561 228.07 203.85C226.35 202.463 223.883 201.767 220.67 201.76H208.27L202.56 230.32H209.04L210.67 222.16H217.2L220.1 230.32H227.4L223.24 221.02C225.475 220.176 227.393 218.66 228.73 216.68C230.054 214.619 230.73 212.209 230.67 209.76ZM185.46 208.29L188.11 219.59H179.06L185.46 208.29ZM197.54 230.29L190.03 201.73H183.5L166.37 230.29H173L176.14 224.74H189.36L190.66 230.29H197.54ZM167.8 201.7H146.05L140.34 230.26H162.53L163.53 224.88H147.83L149.09 218.6H162.9L163.96 213.25H150.17L151.44 207.05H166.74L167.8 201.7ZM125 223.41L122.59 201.7L116.31 201.75L106.72 223.49L104.32 201.7H97.3799L102.07 230.26H108.72L118.02 209.66L120.39 230.26H127L141.2 201.7H134.59L125 223.41Z" fill="#1D1D1B"/>
</g>
<defs>
<clipPath id="clip0">
<rect width="742.34" height="230.71" fill="white"/>
</clipPath>
</defs>
</svg>
