<svg xmlns="http://www.w3.org/2000/svg" viewBox="0 0 224.39 96.86"><defs><style>.cls-1{fill:#1d1d1b;}</style></defs><title>WS logo</title><g id="Layer_2" data-name="Layer 2"><g id="Logo"><path class="cls-1" d="M51.22,68.64a7,7,0,0,0-2.73-1.47,11.41,11.41,0,0,0-3.21-.44,12.6,12.6,0,0,0-4.51.83,11.37,11.37,0,0,0-3.87,2.49,12.32,12.32,0,0,0-2.73,4.09,14.38,14.38,0,0,0-1,5.65A9.77,9.77,0,0,0,34,84a8,8,0,0,0,2.18,2.86,8.73,8.73,0,0,0,3.08,1.65,11.91,11.91,0,0,0,3.52.53,12.51,12.51,0,0,0,5.32-1.19,13.51,13.51,0,0,0,4.15-3l-3.62-3.26a7.56,7.56,0,0,1-5.9,2.73,4.36,4.36,0,0,1-2.68-1,3.72,3.72,0,0,1-1.19-3c0-.17,0-.34,0-.5s0-.33.07-.51H53.37a20.16,20.16,0,0,0,.33-2,15,15,0,0,0,.11-1.85,10.28,10.28,0,0,0-.7-4A7.29,7.29,0,0,0,51.22,68.64Zm-2.86,6.67H39.78a5.7,5.7,0,0,1,2-3.19,5,5,0,0,1,3-1,3.87,3.87,0,0,1,2.49.86,3.06,3.06,0,0,1,1.12,2.57A6.27,6.27,0,0,1,48.36,75.31Z"/><path class="cls-1" d="M92.21,63.43A11.82,11.82,0,0,1,98,64.88l.28.15,1.79-4.91h0a14.57,14.57,0,0,0-7.35-1.67c-5.74,0-11.54,3.22-11.54,9.37,0,4.37,3.91,6.64,6.85,8s4.27,2.58,4.27,4.25c0,2.7-2.74,3.93-5.28,3.93a13.72,13.72,0,0,1-7.26-2.06l-.26-.17-2,4.83C79,87.76,82.29,89,86.24,89c7.27,0,12.15-3.9,12.15-9.7,0-3.63-2-6.06-6.52-8.15-3.08-1.46-4.65-2.53-4.65-4.33C87.22,65.16,89,63.43,92.21,63.43Z"/><path class="cls-1" d="M118.27,67.34,116,77.88a12.49,12.49,0,0,1-2.12,4.82,5.45,5.45,0,0,1-4,1.62,2.86,2.86,0,0,1-2.25-.81,3.3,3.3,0,0,1-.59-2,12.39,12.39,0,0,1,.24-2.29l2.52-11.84H104l-2.64,12.41c-.45,2.25-.53,4.08.26,5.67a6.34,6.34,0,0,0,1.43,2,5.93,5.93,0,0,0,2.07,1.19,7.83,7.83,0,0,0,2.49.4,12.45,12.45,0,0,0,3.27-.44,11.43,11.43,0,0,0,3.41-1.68l.24,1.68h4.91L124,67.34Z"/><path class="cls-1" d="M77.59,74.24a10.41,10.41,0,0,0-1-3.62,5.9,5.9,0,0,0-2.35-2.48,7.43,7.43,0,0,0-3.78-.92,8.74,8.74,0,0,0-5.86,2.07L66.81,59H61L54.75,88.55h5l.83-2.28a4.88,4.88,0,0,0,2.23,2,7.59,7.59,0,0,0,3.29.71A9.35,9.35,0,0,0,71.2,87.5a12.19,12.19,0,0,0,3.85-3.78,16.22,16.22,0,0,0,2.17-5.14A12.84,12.84,0,0,0,77.59,74.24Zm-5.33,2.65c-.26,3.8-2.9,7.39-6.22,7.16-2.34-.17-3.89-2-3.69-4.85.24-3.5,2.6-7.55,6.28-7.29C71.6,72.11,72.4,74.85,72.26,76.89Z"/><path class="cls-1" d="M146,73.83a10.35,10.35,0,0,0-1-3.62,5.84,5.84,0,0,0-2.35-2.48,7.39,7.39,0,0,0-3.77-.92A8.77,8.77,0,0,0,133,68.88l-.21-1.54h-5l-6.28,29.52h5.77l2.19-10.31a4.91,4.91,0,0,0,1.74,1.3,7.54,7.54,0,0,0,3.28.7,9.35,9.35,0,0,0,5.08-1.46,12.4,12.4,0,0,0,3.85-3.78,16.41,16.41,0,0,0,2.17-5.15A12.77,12.77,0,0,0,146,73.83Zm-5.59,2.74c-.27,3.79-2.9,7.39-6.22,7.16-2.34-.17-3.89-2-3.69-4.85.24-3.5,2.6-7.56,6.28-7.3C139.73,71.79,140.53,74.53,140.39,76.57Z"/><path class="cls-1" d="M183.78,66.77c-7.28,0-12.6,5.6-12.6,13,0,5.59,3.89,9.22,9.28,9.22,7.25,0,12.71-5.37,12.71-12.94C193.17,70.79,189.57,66.77,183.78,66.77Zm-2.5,17.55c-2.49,0-4.28-1.83-4.28-4.79,0-3.68,2.21-8.1,6.13-8.1,3.16,0,4.22,2.81,4.22,4.95C187.35,80.37,184.81,84.32,181.28,84.32Z"/><path class="cls-1" d="M210.3,67.08a6.79,6.79,0,0,0-1.56-.18,7.1,7.1,0,0,0-2.64.53,9.29,9.29,0,0,0-2.73,1.8l-.26-1.89H198.2l-4.51,21.21h5.77l2.21-10.42c.22-1,.67-3.44,2.1-4.89a4,4,0,0,1,3.31-1.45,5.48,5.48,0,0,1,2.76.79l1.31-5.27C210.86,67.22,210.58,67.14,210.3,67.08Z"/><path class="cls-1" d="M216.42,81.72l2.13-10h4.9l.94-4.4h-4.91l1.18-5.54h-5.78l-4.35,20.45c-.12.59-.19,1-.22,1.3a7.06,7.06,0,0,0-.05.73,4.53,4.53,0,0,0,.47,2.09A4.21,4.21,0,0,0,212,87.84,7,7,0,0,0,215.59,89a10.07,10.07,0,0,0,3.76-.61A14.83,14.83,0,0,0,222.2,87l-1.68-3.78a9.13,9.13,0,0,1-1.3.68,3.79,3.79,0,0,1-1.48.33c-1,0-1.49-.42-1.49-1.27a3.59,3.59,0,0,1,0-.53C216.32,82.22,216.36,82,216.42,81.72Z"/><path class="cls-1" d="M168.13,70.21a5.84,5.84,0,0,0-2.35-2.48,7.39,7.39,0,0,0-3.77-.92,8.75,8.75,0,0,0-5.87,2.07l-.21-1.54h-5l-6.27,29.52h5.76l2.19-10.31a5,5,0,0,0,1.75,1.3,7.54,7.54,0,0,0,3.28.7,9.38,9.38,0,0,0,5.08-1.46,12.26,12.26,0,0,0,3.84-3.78,16.2,16.2,0,0,0,2.18-5.15,12.75,12.75,0,0,0,.36-4.33A10.14,10.14,0,0,0,168.13,70.21Zm-4.61,6.36c-.27,3.79-2.9,7.39-6.22,7.16-2.34-.17-3.89-2-3.7-4.85.25-3.5,2.61-7.56,6.29-7.3C162.85,71.79,163.66,74.53,163.52,76.57Z"/><polygon class="cls-1" points="31.39 59.01 22.73 79.4 21.66 59.01 15.27 59.01 6.18 79.4 5.79 59.01 0 59.01 1.03 88.55 7.29 88.55 16.82 67.15 17.94 88.55 24.39 88.55 37.54 59.01 31.39 59.01"/><polygon class="cls-1" points="84.12 44.31 71.9 29.88 61.94 29.88 74.16 44.31 84.12 44.31"/><polygon class="cls-1" points="87.47 36.84 97.49 14.43 85.26 0 75.3 0 65.28 22.41 75.24 22.41 87.47 36.84"/><polygon class="cls-1" points="122.72 44.31 110.49 29.88 100.53 29.88 112.76 44.31 122.72 44.31"/><polygon class="cls-1" points="126.06 36.84 136.08 14.43 123.86 0 113.9 0 103.87 22.41 113.83 22.41 126.06 36.84"/><polygon class="cls-1" points="161.31 44.31 149.08 29.88 139.13 29.88 151.35 44.31 161.31 44.31"/><polygon class="cls-1" points="162.45 0 152.49 0 142.47 22.41 152.43 22.41 162.45 0"/></g></g></svg>