<svg x="0" y="0" viewBox="0 0 433 129" version="1.1" xmlns="http://www.w3.org/2000/svg" xmlns:xlink="http://www.w3.org/1999/xlink">
<defs>
<clipPath id="c_1"><path d="M0,0H433V129H0Z"/></clipPath>
</defs>
<path d="M0,0
L0,129
L433,129
L433,0 Z " 
fill="#FFFFFF" stroke="none"/>
<g clip-path="url(#c_1)">
<path d="M39.7,40.3l35.7,8.9L73.5,33.5L88.7,48l25,-28.6L103.3,51.8l33.3,-9.4L112,64.9l12.2,5.8l-11.8,5.1l49.1,33.8L98.1,91.5L85.4,110.1L78.2,94.9L42.6,113.5L68.7,77.7L41.2,77.2L72.3,63L39.7,40.3m67,35l10.5,-4.6L107,65.6L126.1,48.2l-27,8L107,31.5L89,51.6L77.1,40.7l1.4,12.1L53.8,46.5L78,63.7L53.8,74.5l20.4,.8L51.9,105.5L79.5,91.2l6.2,13.1l11,-16.2l49.2,14.1L106.7,75.3M160,47.8c0,-5.4,-1.2,-7.5,-4.3,-7.8c-2.8,0,-4.5,2.1,-4.5,4.1c0,3.7,1.4,3.7,8.8,3.7M145.9,28.6H166c3.6,13.3,4.1,28.3,5.3,43.5h-8.9c0,-6,-.2,-12.3,-1.9,-18.3c-12.7,0,-14.1,7.7,-14.6,18.3h-8.6c2.2,-14.7,4.6,-28.5,7.9,-38.4c1,-1.7,1.2,-3.6,.7,-5.1m234.6,0h20.6c3.3,13.3,4,28.3,5.2,43.5h-9.1c.3,-6,-.2,-12.3,-1.6,-18.3c-13.2,0,-14.6,7.7,-15.1,18.3h-7.9c1.7,-14.7,3.9,-28.5,7.4,-38.4c.8,-1.7,1,-3.6,.5,-5.1m14.6,19.2c-.2,-5.4,-1.6,-7.5,-4.5,-7.8c-3.2,0,-4.8,2.1,-4.8,4.1c0,3.7,1.4,3.7,9.3,3.7M338.6,28.6h13.5c.2,10.4,2.1,21,4.3,31.5c7.1,-7.8,10,-17.4,7.4,-31.5h8.8c1.5,12.1,-1.9,24.5,-7.2,36.8c-.7,2.2,-1.4,4.6,-1.1,6.7H349.2c0,-1.9,-.2,-4.1,-1.2,-6.2C344.2,54.7,341.3,43.4,338.6,28.6M314,72.1c-1.6,-6.9,-8.8,-13,-8.6,-23.6c.3,-10.4,6,-19.9,17.5,-19.9c9.1,0,16.5,7.1,16.5,18.6c.2,13.4,-8.4,18.9,-8.4,24.9H314m8.2,-6.5c4.2,-3.6,8.6,-8.5,8.8,-15.2c.2,-4.1,-2.9,-9.7,-8.6,-9.7c-5.8,0,-7.9,5.1,-7.9,9.5c0,6.2,2.9,12,7.7,15.4m-76.8,6.5c-1.4,-6.9,-9.1,-13,-8.8,-23.6c.4,-10.4,6.2,-19.9,17.9,-19.9c8.9,0,16.5,7.1,16.5,18.6c0,13.4,-8.9,18.9,-8.6,24.9h-17m8.4,-6.5c4,-3.6,8.3,-8.5,8.6,-15.2c0,-4.1,-2.7,-9.7,-8.4,-9.7c-6.2,0,-8.4,5.1,-8.4,9.5c0,6.2,3.2,12,8.2,15.4m22.5,-37c6.1,.7,11.5,3.2,16.2,7.3c0,-1.9,-.2,-4.6,-.7,-7.3H298c6.4,13.3,5,32.7,4.8,43.5h-9.3c1.4,-9.6,0,-18.6,-8.1,-26.8c-4.8,10.2,-3.9,18.9,-2,26.8H273.2c.4,-1.2,.7,-2.6,.7,-4.5c-1.5,-12.9,-1,-25.5,2.4,-39m-104.1,0h12.4c.3,9.9,-.7,19.6,-1.1,29.8c-.5,2.9,-.5,8.6,3.1,8.6c7.8,.3,12.2,-19.2,8.1,-38.4h7.9c3.8,14.1,2.4,26.4,-.7,38.2c-.8,1.5,-.8,3.7,-.3,5.3H186.1c-8.1,0,-10.3,-2.6,-11,-7.7C173,53.5,173.2,39.7,172.2,28.6m33,0H238c-1.7,4.4,-2.4,8.2,-2.9,12.1C232,39.3,229.2,38.3,227,38.8c-.8,11.1,-1.7,22.5,-3.1,33.3h-8.4c1.7,-10.6,-.7,-22.7,-.9,-34c-2.9,.4,-5.6,1.2,-7.2,3.8c-.2,-4.6,-1,-8.9,-2.2,-13.3Z" class="g0"/>
<path d="M362.6,83.9c-.2,-.4,-.5,-.8,-.8,-1.1c-1,-1,-2.3,-1.2,-3.6,-.8c-.4,.1,-.8,.3,-1.1,.6c-.7,.6,-1.1,1.4,-1.2,2.2c-.1,1.1,-.1,2,1.2,3c.3,.2,.7,.4,1.2,.7c.6,.3,1.3,.7,1.8,1c.9,.5,.9,.7,1.1,1c.1,.4,.1,1,-.4,1.6c-.8,.7,-1.9,.8,-2.9,0c-.2,-.3,-.5,-.6,-.7,-1l-1.9,.9c.1,.5,.4,.9,.8,1.3c1.2,1.3,3,1.7,4.7,1.2c.5,-.2,1,-.5,1.4,-.8c1.2,-1.1,1.6,-2.6,1.2,-4c-.1,-.4,-.4,-.8,-.6,-1.1c-.3,-.3,-.6,-.5,-.9,-.7c-.3,-.3,-.7,-.5,-1.2,-.7c-.4,-.2,-.9,-.4,-1.3,-.6c-.3,-.2,-.6,-.3,-.8,-.5c-.7,-.6,-.8,-1.1,-.4,-1.7c.6,-.7,1.3,-.7,2.1,-.1c.2,.1,.3,.4,.5,.6l1.8,-1Z" class="g0"/>
<path d="M368.7,91.8c-1.1,.6,-1.3,1.5,-.5,2.5c.6,.5,1.3,.7,2.1,-.1c.5,-.6,.7,-1.2,0,-2.1c-.5,-.4,-1.1,-.5,-1.6,-.3Z" class="g0"/>
<path d="M378,82.2h-2.3V94.3H378v-6c0,-.7,0,-1,.1,-1.5c.1,-.6,.2,-1.3,.7,-2c.4,-.5,1.3,-.8,2,-.8c.5,0,1,.1,1.4,.5l1.1,-2.1c-1.2,-.7,-2.3,-.8,-3.5,-.2c-.4,.1,-.7,.4,-1,.7c-.3,.4,-.5,.8,-.7,1.2H378V82.2Z" class="g0"/>
<path d="M387.1,91.8c-1,.6,-1.2,1.5,-.4,2.5c.5,.5,1.2,.7,2.1,-.1c.5,-.6,.6,-1.2,-.1,-2.1c-.4,-.4,-1,-.5,-1.6,-.3Z" class="g0"/>
<path d="M400.5,84.3c.5,.3,1,.6,1.3,1c1.2,1.3,1.6,2.9,.9,4.6c-.2,.5,-.5,1,-.9,1.4c-1.3,1.2,-2.8,1.5,-4.4,.9c-.5,-.3,-1,-.6,-1.4,-1c-1.2,-1.3,-1.5,-2.9,-.8,-4.6c.2,-.5,.5,-1,.9,-1.4c1.2,-1.2,2.8,-1.5,4.4,-.9m-4.1,-2c-.7,.3,-1.4,.8,-2,1.4c-1.3,1.2,-1.9,2.9,-1.9,4.5c0,.9,.2,1.8,.5,2.5c.3,.8,.8,1.5,1.4,2.1c1.2,1.3,2.9,1.9,4.5,1.9c.9,0,1.8,-.2,2.5,-.5c.8,-.3,1.5,-.8,2.1,-1.4c1.2,-1.2,1.8,-2.9,1.8,-4.5c0,-.9,-.1,-1.8,-.4,-2.5c-.3,-.8,-.8,-1.5,-1.4,-2.1c-1.2,-1.3,-2.9,-1.9,-4.6,-1.9c-.8,0,-1.7,.2,-2.5,.5Z" class="g0"/>
<path d="M409.4,91.8c-1,.6,-1.2,1.5,-.5,2.5c.6,.5,1.3,.7,2.1,-.1c.6,-.6,.7,-1.2,0,-2.1c-.4,-.4,-1,-.5,-1.6,-.3Z" class="g0"/>
<path d="M403,15.3c.3,0,.7,-.1,1.2,.3c.1,.2,.3,.6,-.1,1c-.1,0,-.2,.1,-.5,.1c-.4,0,-1.4,0,-2.1,0V15.3H403m.6,2.3c.4,-.1,.8,.1,1.4,-.9c.2,-.5,.4,-1.3,-.5,-2c-.4,-.3,-.9,-.3,-1.4,-.3h-2.4v5.9h.8V17.6h1.1l1.5,2.7h1l-1.5,-2.7m.8,-4.3c.4,.2,.9,.5,1.3,.8c1.3,1.3,1.6,3,1.1,4.6c-.1,.6,-.4,1,-.8,1.5c-1.2,1.4,-2.8,1.8,-4.5,1.4c-.5,-.2,-1,-.4,-1.5,-.8c-.4,-.3,-.8,-.7,-1.1,-1.2c-.5,-.9,-.7,-2.1,-.5,-3.2c.1,-.5,.3,-1,.6,-1.5c.3,-.5,.7,-.9,1.2,-1.2c.4,-.3,.9,-.5,1.5,-.7c1,-.2,1.9,-.1,2.7,.3m.1,8.9c.8,-.2,1.4,-.6,1.8,-1.1c1.6,-1.5,2,-3.5,1.3,-5.5c-.2,-.7,-.5,-1.3,-1,-1.8c-1.5,-1.6,-3.5,-2.1,-5.5,-1.5c-.6,.2,-1.2,.5,-1.7,.9c-.5,.4,-1,1,-1.3,1.5c-.6,1.2,-.8,2.6,-.5,4c.2,.6,.5,1.2,.9,1.8c.3,.5,.8,.9,1.4,1.3c.6,.4,1.2,.6,2,.7c.8,.1,1.8,0,2.6,-.3Z" class="g0"/>

</g>
</svg>
